<svg width="330" height="330" viewBox="0 0 330 330" fill="none" xmlns="http://www.w3.org/2000/svg">
<circle cx="165" cy="165" r="165" fill="#F2F2F2"/>
<path d="M104.026 78.6001H50.0601C48.9555 78.6001 48.0601 79.4955 48.0601 80.6001V254.17C48.0601 255.275 48.9555 256.17 50.0601 256.17H104.026C105.131 256.17 106.026 255.275 106.026 254.17V80.6001C106.026 79.4955 105.131 78.6001 104.026 78.6001Z" fill="#EBEBEB"/>
<path d="M149.764 78.6001H107.948C106.843 78.6001 105.948 79.4955 105.948 80.6001V253.6C105.948 254.705 106.843 255.6 107.948 255.6H149.764C150.869 255.6 151.764 254.705 151.764 253.6V80.6001C151.764 79.4955 150.869 78.6001 149.764 78.6001Z" fill="#DFDCDC"/>
<path d="M100.44 167.022H51.27V180.864H100.44V167.022Z" fill="#184466"/>
<path d="M100.44 107.016H51.27V120.858H100.44V107.016Z" fill="#184466"/>
<path d="M55.398 108.756H52.644V119.352H55.398V108.756Z" fill="#38709B"/>
<path d="M58.638 110.988C58.638 111.162 58.5866 111.331 58.4904 111.475C58.3941 111.619 58.2573 111.731 58.0972 111.798C57.9371 111.864 57.761 111.881 57.5911 111.847C57.4212 111.814 57.2651 111.73 57.1426 111.608C57.02 111.485 56.9366 111.329 56.9028 111.159C56.869 110.989 56.8864 110.813 56.9527 110.653C57.019 110.493 57.1313 110.356 57.2753 110.26C57.4194 110.164 57.5887 110.112 57.762 110.112C57.9943 110.112 58.2171 110.205 58.3814 110.369C58.5457 110.533 58.638 110.756 58.638 110.988Z" fill="white"/>
<path d="M58.638 114.732C58.638 114.906 58.5866 115.075 58.4904 115.219C58.3941 115.363 58.2573 115.475 58.0972 115.542C57.9371 115.608 57.761 115.625 57.5911 115.592C57.4212 115.558 57.2651 115.474 57.1426 115.352C57.02 115.229 56.9366 115.073 56.9028 114.903C56.869 114.733 56.8864 114.557 56.9527 114.397C57.019 114.237 57.1313 114.1 57.2753 114.004C57.4194 113.908 57.5887 113.856 57.762 113.856C57.877 113.856 57.9909 113.879 58.0972 113.923C58.2035 113.967 58.3001 114.032 58.3814 114.113C58.4628 114.194 58.5273 114.291 58.5713 114.397C58.6153 114.504 58.638 114.617 58.638 114.732Z" fill="white"/>
<path d="M64.842 110.112H62.136V118.248H64.842V110.112Z" fill="#38709B"/>
<path d="M68.7539 110.112H66.0479V118.248H68.7539V110.112Z" fill="#38709B"/>
<path d="M72.6599 110.112H69.9539V118.248H72.6599V110.112Z" fill="#38709B"/>
<path d="M76.5659 110.112H73.8599V118.248H76.5659V110.112Z" fill="#38709B"/>
<path d="M80.478 110.112H77.772V118.248H80.478V110.112Z" fill="#38709B"/>
<path d="M84.384 110.112H81.678V118.248H84.384V110.112Z" fill="#38709B"/>
<path d="M88.2961 110.112H85.5901V118.248H88.2961V110.112Z" fill="#38709B"/>
<path d="M92.2021 110.112H89.4961V118.248H92.2021V110.112Z" fill="#38709B"/>
<path d="M96.1081 110.112H93.4021V118.248H96.1081V110.112Z" fill="#38709B"/>
<path d="M100.02 110.112H97.314V118.248H100.02V110.112Z" fill="#38709B"/>
<path d="M100.44 126.906H51.27V140.748H100.44V126.906Z" fill="#184466"/>
<path d="M55.398 128.646H52.644V139.242H55.398V128.646Z" fill="#38709B"/>
<path d="M58.638 130.872C58.6392 131.045 58.5888 131.215 58.4933 131.36C58.3977 131.505 58.2613 131.618 58.1014 131.686C57.9414 131.753 57.7651 131.771 57.5948 131.738C57.4244 131.705 57.2678 131.622 57.1447 131.499C57.0216 131.377 56.9376 131.221 56.9033 131.051C56.869 130.881 56.886 130.705 56.9521 130.544C57.0182 130.384 57.1305 130.247 57.2747 130.15C57.4188 130.053 57.5884 130.002 57.762 130.002C57.9933 130.002 58.2152 130.093 58.3793 130.256C58.5434 130.419 58.6364 130.641 58.638 130.872Z" fill="white"/>
<path d="M58.638 134.616C58.638 134.789 58.5866 134.959 58.4904 135.103C58.3941 135.247 58.2573 135.359 58.0972 135.426C57.9371 135.492 57.761 135.509 57.5911 135.475C57.4212 135.442 57.2651 135.358 57.1426 135.236C57.02 135.113 56.9366 134.957 56.9028 134.787C56.869 134.617 56.8864 134.441 56.9527 134.281C57.019 134.121 57.1313 133.984 57.2753 133.888C57.4194 133.792 57.5887 133.74 57.762 133.74C57.9943 133.74 58.2171 133.833 58.3814 133.997C58.5457 134.161 58.638 134.384 58.638 134.616Z" fill="white"/>
<path d="M64.842 130.002H62.136V138.138H64.842V130.002Z" fill="#38709B"/>
<path d="M68.7539 130.002H66.0479V138.138H68.7539V130.002Z" fill="#38709B"/>
<path d="M72.6599 130.002H69.9539V138.138H72.6599V130.002Z" fill="#38709B"/>
<path d="M76.5659 130.002H73.8599V138.138H76.5659V130.002Z" fill="#38709B"/>
<path d="M80.478 130.002H77.772V138.138H80.478V130.002Z" fill="#38709B"/>
<path d="M84.384 130.002H81.678V138.138H84.384V130.002Z" fill="#38709B"/>
<path d="M88.2961 130.002H85.5901V138.138H88.2961V130.002Z" fill="#38709B"/>
<path d="M92.2021 130.002H89.4961V138.138H92.2021V130.002Z" fill="#38709B"/>
<path d="M96.1081 130.002H93.4021V138.138H96.1081V130.002Z" fill="#38709B"/>
<path d="M100.02 130.002H97.314V138.138H100.02V130.002Z" fill="#38709B"/>
<path d="M100.44 146.952H51.27V160.794H100.44V146.952Z" fill="#184466"/>
<path d="M55.398 148.692H52.644V159.288H55.398V148.692Z" fill="#38709B"/>
<path d="M58.638 150.918C58.6392 151.091 58.5888 151.261 58.4933 151.406C58.3977 151.551 58.2613 151.664 58.1014 151.731C57.9414 151.799 57.7651 151.817 57.5948 151.784C57.4244 151.751 57.2678 151.668 57.1447 151.545C57.0216 151.423 56.9376 151.267 56.9033 151.097C56.869 150.927 56.886 150.75 56.9521 150.59C57.0182 150.43 57.1305 150.292 57.2747 150.196C57.4188 150.099 57.5884 150.048 57.762 150.048C57.9933 150.048 58.2152 150.139 58.3793 150.302C58.5434 150.465 58.6364 150.687 58.638 150.918Z" fill="white"/>
<path d="M58.638 154.668C58.6392 154.841 58.5888 155.011 58.4933 155.156C58.3977 155.301 58.2613 155.414 58.1014 155.481C57.9414 155.549 57.7651 155.567 57.5948 155.534C57.4244 155.501 57.2678 155.418 57.1447 155.295C57.0216 155.173 56.9376 155.017 56.9033 154.847C56.869 154.677 56.886 154.5 56.9521 154.34C57.0182 154.18 57.1305 154.042 57.2747 153.946C57.4188 153.849 57.5884 153.798 57.762 153.798C57.9933 153.798 58.2152 153.889 58.3793 154.052C58.5434 154.215 58.6364 154.437 58.638 154.668Z" fill="white"/>
<path d="M64.842 150.048H62.136V158.184H64.842V150.048Z" fill="#38709B"/>
<path d="M68.7539 150.048H66.0479V158.184H68.7539V150.048Z" fill="#38709B"/>
<path d="M72.6599 150.048H69.9539V158.184H72.6599V150.048Z" fill="#38709B"/>
<path d="M76.5659 150.048H73.8599V158.184H76.5659V150.048Z" fill="#38709B"/>
<path d="M80.478 150.048H77.772V158.184H80.478V150.048Z" fill="#38709B"/>
<path d="M84.384 150.048H81.678V158.184H84.384V150.048Z" fill="#38709B"/>
<path d="M88.2961 150.048H85.5901V158.184H88.2961V150.048Z" fill="#38709B"/>
<path d="M92.2021 150.048H89.4961V158.184H92.2021V150.048Z" fill="#38709B"/>
<path d="M96.1081 150.048H93.4021V158.184H96.1081V150.048Z" fill="#38709B"/>
<path d="M100.02 150.048H97.314V158.184H100.02V150.048Z" fill="#38709B"/>
<path d="M100.44 190.476H51.27V204.318H100.44V190.476Z" fill="#184466"/>
<path d="M55.398 192.216H52.644V202.812H55.398V192.216Z" fill="#38709B"/>
<path d="M58.638 194.448C58.638 194.622 58.5866 194.791 58.4904 194.935C58.3941 195.079 58.2573 195.191 58.0972 195.258C57.9371 195.324 57.761 195.341 57.5911 195.307C57.4212 195.274 57.2651 195.19 57.1426 195.068C57.02 194.945 56.9366 194.789 56.9028 194.619C56.869 194.449 56.8864 194.273 56.9527 194.113C57.019 193.953 57.1313 193.816 57.2753 193.72C57.4194 193.624 57.5887 193.572 57.762 193.572C57.8772 193.571 57.9915 193.594 58.0982 193.637C58.2048 193.681 58.3017 193.746 58.3832 193.827C58.4647 193.909 58.5292 194.005 58.5729 194.112C58.6167 194.219 58.6388 194.333 58.638 194.448Z" fill="white"/>
<path d="M58.638 198.192C58.638 198.365 58.5866 198.535 58.4904 198.679C58.3941 198.823 58.2573 198.935 58.0972 199.001C57.9371 199.068 57.761 199.085 57.5911 199.051C57.4212 199.017 57.2651 198.934 57.1426 198.811C57.02 198.689 56.9366 198.533 56.9028 198.363C56.869 198.193 56.8864 198.017 56.9527 197.857C57.019 197.697 57.1313 197.56 57.2753 197.464C57.4194 197.367 57.5887 197.316 57.762 197.316C57.8772 197.315 57.9915 197.337 58.0982 197.381C58.2048 197.425 58.3017 197.489 58.3832 197.571C58.4647 197.652 58.5292 197.749 58.5729 197.856C58.6167 197.962 58.6388 198.077 58.638 198.192Z" fill="white"/>
<path d="M64.842 193.572H62.136V201.708H64.842V193.572Z" fill="#38709B"/>
<path d="M68.7539 193.572H66.0479V201.708H68.7539V193.572Z" fill="#38709B"/>
<path d="M72.6599 193.572H69.9539V201.708H72.6599V193.572Z" fill="#38709B"/>
<path d="M76.5659 193.572H73.8599V201.708H76.5659V193.572Z" fill="#38709B"/>
<path d="M80.478 193.572H77.772V201.708H80.478V193.572Z" fill="#38709B"/>
<path d="M84.384 193.572H81.678V201.708H84.384V193.572Z" fill="#38709B"/>
<path d="M88.2961 193.572H85.5901V201.708H88.2961V193.572Z" fill="#38709B"/>
<path d="M92.2021 193.572H89.4961V201.708H92.2021V193.572Z" fill="#38709B"/>
<path d="M96.1081 193.572H93.4021V201.708H96.1081V193.572Z" fill="#38709B"/>
<path d="M100.02 193.572H97.314V201.708H100.02V193.572Z" fill="#38709B"/>
<path d="M100.44 234H51.27V247.842H100.44V234Z" fill="#184466"/>
<path d="M55.398 235.74H52.644V246.336H55.398V235.74Z" fill="#38709B"/>
<path d="M58.638 237.972C58.638 238.145 58.5866 238.315 58.4904 238.459C58.3941 238.603 58.2573 238.715 58.0972 238.782C57.9371 238.848 57.761 238.865 57.5911 238.831C57.4212 238.798 57.2651 238.714 57.1426 238.592C57.02 238.469 56.9366 238.313 56.9028 238.143C56.869 237.973 56.8864 237.797 56.9527 237.637C57.019 237.477 57.1313 237.34 57.2753 237.244C57.4194 237.148 57.5887 237.096 57.762 237.096C57.9943 237.096 58.2171 237.188 58.3814 237.353C58.5457 237.517 58.638 237.74 58.638 237.972Z" fill="white"/>
<path d="M58.638 241.716C58.638 241.889 58.5866 242.058 58.4904 242.203C58.3941 242.347 58.2573 242.459 58.0972 242.525C57.9371 242.591 57.761 242.609 57.5911 242.575C57.4212 242.541 57.2651 242.458 57.1426 242.335C57.02 242.213 56.9366 242.057 56.9028 241.887C56.869 241.717 56.8864 241.541 56.9527 241.381C57.019 241.221 57.1313 241.084 57.2753 240.987C57.4194 240.891 57.5887 240.84 57.762 240.84C57.9943 240.84 58.2171 240.932 58.3814 241.096C58.5457 241.261 58.638 241.484 58.638 241.716Z" fill="white"/>
<path d="M64.842 237.096H62.136V245.232H64.842V237.096Z" fill="#38709B"/>
<path d="M68.7539 237.096H66.0479V245.232H68.7539V237.096Z" fill="#38709B"/>
<path d="M72.6599 237.096H69.9539V245.232H72.6599V237.096Z" fill="#38709B"/>
<path d="M76.5659 237.096H73.8599V245.232H76.5659V237.096Z" fill="#38709B"/>
<path d="M80.478 237.096H77.772V245.232H80.478V237.096Z" fill="#38709B"/>
<path d="M84.384 237.096H81.678V245.232H84.384V237.096Z" fill="#38709B"/>
<path d="M88.2961 237.096H85.5901V245.232H88.2961V237.096Z" fill="#38709B"/>
<path d="M92.2021 237.096H89.4961V245.232H92.2021V237.096Z" fill="#38709B"/>
<path d="M96.1081 237.096H93.4021V245.232H96.1081V237.096Z" fill="#38709B"/>
<path d="M100.02 237.096H97.314V245.232H100.02V237.096Z" fill="#38709B"/>
<path d="M100.44 212.256H51.27V226.098H100.44V212.256Z" fill="#184466"/>
<path d="M55.398 213.996H52.644V224.592H55.398V213.996Z" fill="#38709B"/>
<path d="M58.638 216.228C58.638 216.401 58.5866 216.571 58.4904 216.715C58.3941 216.859 58.2573 216.971 58.0972 217.037C57.9371 217.104 57.761 217.121 57.5911 217.087C57.4212 217.053 57.2651 216.97 57.1426 216.847C57.02 216.725 56.9366 216.569 56.9028 216.399C56.869 216.229 56.8864 216.053 56.9527 215.893C57.019 215.733 57.1313 215.596 57.2753 215.5C57.4194 215.403 57.5887 215.352 57.762 215.352C57.9943 215.352 58.2171 215.444 58.3814 215.609C58.5457 215.773 58.638 215.996 58.638 216.228Z" fill="white"/>
<path d="M58.638 219.972C58.638 220.145 58.5866 220.315 58.4904 220.459C58.3941 220.603 58.2573 220.715 58.0972 220.782C57.9371 220.848 57.761 220.865 57.5911 220.831C57.4212 220.798 57.2651 220.714 57.1426 220.592C57.02 220.469 56.9366 220.313 56.9028 220.143C56.869 219.973 56.8864 219.797 56.9527 219.637C57.019 219.477 57.1313 219.34 57.2753 219.244C57.4194 219.148 57.5887 219.096 57.762 219.096C57.9943 219.096 58.2171 219.188 58.3814 219.353C58.5457 219.517 58.638 219.74 58.638 219.972Z" fill="white"/>
<path d="M64.842 215.352H62.136V223.488H64.842V215.352Z" fill="#38709B"/>
<path d="M68.7539 215.352H66.0479V223.488H68.7539V215.352Z" fill="#38709B"/>
<path d="M72.6599 215.352H69.9539V223.488H72.6599V215.352Z" fill="#38709B"/>
<path d="M76.5659 215.352H73.8599V223.488H76.5659V215.352Z" fill="#38709B"/>
<path d="M80.478 215.352H77.772V223.488H80.478V215.352Z" fill="#38709B"/>
<path d="M84.384 215.352H81.678V223.488H84.384V215.352Z" fill="#38709B"/>
<path d="M88.2961 215.352H85.5901V223.488H88.2961V215.352Z" fill="#38709B"/>
<path d="M92.2021 215.352H89.4961V223.488H92.2021V215.352Z" fill="#38709B"/>
<path d="M96.1081 215.352H93.4021V223.488H96.1081V215.352Z" fill="#38709B"/>
<path d="M100.02 215.352H97.314V223.488H100.02V215.352Z" fill="#38709B"/>
<path d="M81.6781 107.016C81.6494 106.876 81.6333 106.733 81.63 106.59C81.63 106.308 81.5941 105.894 81.5821 105.36C81.5701 104.826 81.5821 104.16 81.522 103.416C81.4977 102.565 81.3851 101.718 81.1861 100.89C80.9093 99.8998 80.4648 98.9643 79.872 98.1241C79.1997 97.1579 78.2649 96.4042 77.1781 95.9521C75.9499 95.5044 74.6616 95.2435 73.3561 95.1781L69.1201 94.8121C63.3181 94.3081 58.0501 93.9841 54.2401 93.9181C52.3321 93.8761 50.7841 93.8881 49.7221 93.9181H48.4921C48.3486 93.9351 48.2036 93.9351 48.0601 93.9181C48.1998 93.8861 48.3427 93.87 48.4861 93.8701L49.7161 93.7981C50.7841 93.7561 52.3321 93.7081 54.2401 93.7201C58.0621 93.7201 63.342 94.0201 69.144 94.5241L73.3861 94.8961C74.72 94.9679 76.0352 95.2431 77.2861 95.7121C78.4192 96.1882 79.3903 96.9822 80.0821 97.9981C80.6847 98.8684 81.1314 99.8368 81.4021 100.86C81.5903 101.705 81.6889 102.568 81.6961 103.434C81.6961 104.196 81.6961 104.85 81.6961 105.384C81.6961 105.918 81.6961 106.302 81.6961 106.614C81.7018 106.748 81.6958 106.883 81.6781 107.016Z" fill="#184466"/>
<path d="M66.762 107.016C66.7491 106.882 66.7491 106.748 66.762 106.614V105.456C66.762 104.958 66.762 104.34 66.708 103.656C66.6705 102.862 66.466 102.085 66.108 101.376C65.5742 100.579 64.7946 99.9787 63.888 99.666C62.858 99.264 61.7379 99.1499 60.648 99.336C60.063 99.435 59.4978 99.6275 58.974 99.906C58.4309 100.183 57.9789 100.61 57.672 101.136C57.5215 101.4 57.4424 101.699 57.4424 102.003C57.4424 102.307 57.5215 102.606 57.672 102.87C57.8287 103.146 58.0406 103.388 58.2945 103.579C58.5485 103.769 58.8389 103.906 59.148 103.98C59.4546 104.048 59.7735 104.038 60.0754 103.951C60.3773 103.864 60.6526 103.703 60.876 103.482C61.3234 103.045 61.5983 102.461 61.65 101.838C61.6868 101.234 61.5035 100.637 61.134 100.158C60.7984 99.6754 60.3519 99.2803 59.832 99.006C59.3181 98.7746 58.7679 98.6345 58.206 98.592C57.646 98.508 57.106 98.436 56.586 98.376C55.542 98.256 54.564 98.19 53.67 98.154C51.87 98.088 50.424 98.112 49.416 98.112H48.264C48.1282 98.1236 47.9917 98.1236 47.856 98.112C47.9881 98.0841 48.1229 98.07 48.258 98.07L49.416 98.01C50.418 97.974 51.876 97.908 53.676 97.95C54.576 97.95 55.56 98.028 56.616 98.136C57.144 98.19 57.684 98.256 58.248 98.334C58.524 98.382 58.806 98.418 59.1 98.472C59.4013 98.5285 59.6925 98.6297 59.964 98.772C60.5223 99.0548 61.0056 99.4661 61.374 99.972C61.7984 100.503 62.012 101.172 61.974 101.85C61.925 102.552 61.6171 103.21 61.11 103.698C60.8516 103.958 60.5323 104.149 60.1812 104.254C59.8302 104.358 59.4585 104.374 59.1 104.298C58.7496 104.214 58.4202 104.058 58.1323 103.842C57.8443 103.625 57.6039 103.351 57.426 103.038C57.2503 102.728 57.158 102.377 57.158 102.021C57.158 101.665 57.2503 101.314 57.426 101.004C57.7618 100.426 58.2578 99.9569 58.854 99.654C59.408 99.3606 60.0056 99.158 60.624 99.054C61.7628 98.8678 62.9309 98.9964 64.002 99.426C64.9599 99.7635 65.7774 100.412 66.324 101.268C66.6963 102.015 66.9011 102.834 66.924 103.668C66.96 104.388 66.924 105.006 66.924 105.504C66.924 106.002 66.924 106.368 66.882 106.662C66.8546 106.784 66.8144 106.903 66.762 107.016Z" fill="#184466"/>
<path d="M85.6921 107.016C85.6459 106.868 85.6138 106.715 85.5961 106.56C85.5421 106.26 85.4581 105.816 85.3381 105.246C85.0033 103.64 84.5171 102.069 83.8861 100.554C82.9977 98.293 81.5207 96.3105 79.6081 94.8123C78.4553 93.9758 77.1012 93.4602 75.6841 93.3183C74.154 93.1474 72.6156 93.0633 71.076 93.0663C64.722 92.9463 58.9621 92.9763 54.7921 92.8143C52.7101 92.7423 51.0241 92.6403 49.8661 92.5623L48.5281 92.4483C48.3706 92.442 48.214 92.4219 48.0601 92.3883C48.2157 92.3725 48.3725 92.3725 48.5281 92.3883L49.8721 92.4363C51.0361 92.4843 52.7161 92.5503 54.7981 92.5923C58.9621 92.6943 64.7161 92.6343 71.0821 92.7543C72.6357 92.7513 74.1883 92.8375 75.7321 93.0123C77.196 93.1703 78.5926 93.7104 79.7821 94.5783C80.8311 95.3817 81.7447 96.3479 82.4881 97.4403C83.1238 98.3826 83.6607 99.3879 84.0901 100.44C84.7093 101.972 85.1659 103.565 85.4521 105.192C85.5601 105.792 85.6201 106.212 85.6561 106.518C85.6862 106.683 85.6983 106.85 85.6921 107.016Z" fill="#184466"/>
<path d="M99.768 80.8081H51.948V87.7501H99.768V80.8081Z" fill="#184466"/>
<path d="M88.4998 84.2764H62.4658V87.7444H88.4998V84.2764Z" fill="#38709B"/>
<path d="M119.274 224.778C119.274 224.814 118.746 224.862 117.828 225.132C116.541 225.526 115.326 226.123 114.228 226.902C113.47 227.435 112.787 228.069 112.2 228.786C111.876 229.182 111.597 229.613 111.366 230.07C111.146 230.567 110.972 231.083 110.844 231.612C110.298 233.808 110.466 236.316 110.574 238.932C110.682 241.548 110.508 244.152 109.476 246.246C109.009 247.237 108.346 248.123 107.526 248.85C106.807 249.475 105.998 249.989 105.126 250.374C104.411 250.689 103.659 250.913 102.888 251.04C102.305 251.131 101.713 251.157 101.124 251.118C100.753 251.095 100.386 251.036 100.026 250.944C99.8981 250.92 99.7733 250.882 99.6541 250.83C99.6541 250.794 100.176 250.956 101.13 250.998C101.709 251.012 102.288 250.97 102.858 250.872C103.61 250.728 104.342 250.493 105.036 250.17C105.878 249.785 106.657 249.275 107.346 248.658C108.132 247.946 108.767 247.083 109.212 246.12C110.196 244.086 110.364 241.542 110.256 238.92C110.148 236.298 109.986 233.766 110.562 231.522C110.694 230.973 110.879 230.439 111.114 229.926C111.358 229.453 111.654 229.008 111.996 228.6C112.6 227.867 113.307 227.226 114.096 226.698C115.223 225.916 116.478 225.337 117.804 224.988C118.162 224.892 118.527 224.824 118.896 224.784C119.021 224.768 119.148 224.766 119.274 224.778Z" fill="#184466"/>
<path d="M101.154 248.688H97.23V253.464H101.154V248.688Z" fill="#184466"/>
<path d="M141.288 212.718H119.274V236.838H141.288V212.718Z" fill="#38709B"/>
<path d="M136.44 227.007C137.36 223.124 134.959 219.23 131.076 218.31C127.193 217.389 123.299 219.79 122.378 223.673C121.458 227.556 123.859 231.45 127.742 232.371C131.625 233.291 135.519 230.89 136.44 227.007Z" fill="#184466"/>
<path d="M133.902 224.868C133.902 225.58 133.691 226.276 133.295 226.868C132.9 227.46 132.337 227.922 131.68 228.194C131.022 228.467 130.298 228.538 129.6 228.399C128.901 228.26 128.26 227.917 127.756 227.414C127.253 226.91 126.91 226.269 126.771 225.57C126.632 224.872 126.703 224.148 126.976 223.49C127.248 222.833 127.71 222.27 128.302 221.875C128.894 221.479 129.59 221.268 130.302 221.268C131.257 221.268 132.172 221.647 132.847 222.322C133.523 222.998 133.902 223.913 133.902 224.868Z" fill="#38709B"/>
<path d="M122.25 217.134C122.621 217.134 122.922 216.833 122.922 216.462C122.922 216.091 122.621 215.79 122.25 215.79C121.879 215.79 121.578 216.091 121.578 216.462C121.578 216.833 121.879 217.134 122.25 217.134Z" fill="#184466"/>
<path d="M137.922 217.134C138.293 217.134 138.594 216.833 138.594 216.462C138.594 216.091 138.293 215.79 137.922 215.79C137.551 215.79 137.25 216.091 137.25 216.462C137.25 216.833 137.551 217.134 137.922 217.134Z" fill="#184466"/>
<path d="M138.066 234.942C138.437 234.942 138.738 234.641 138.738 234.27C138.738 233.899 138.437 233.598 138.066 233.598C137.695 233.598 137.394 233.899 137.394 234.27C137.394 234.641 137.695 234.942 138.066 234.942Z" fill="#184466"/>
<path d="M122.25 235.218C122.621 235.218 122.922 234.917 122.922 234.546C122.922 234.175 122.621 233.874 122.25 233.874C121.879 233.874 121.578 234.175 121.578 234.546C121.578 234.917 121.879 235.218 122.25 235.218Z" fill="#184466"/>
<path d="M143.064 212.718H141.288V236.838H143.064V212.718Z" fill="#184466"/>
<path d="M205.428 235.014C205.485 235.087 205.537 235.163 205.584 235.242C205.692 235.41 205.836 235.644 206.028 235.938C206.258 236.322 206.458 236.724 206.628 237.138C206.892 237.688 207.113 238.258 207.288 238.842C207.777 240.448 208.012 242.12 207.984 243.798C207.937 246.026 207.45 248.222 206.55 250.26C206.418 250.542 206.292 250.824 206.16 251.112L205.686 251.946C205.351 252.516 204.983 253.065 204.582 253.59C203.717 254.7 202.692 255.675 201.54 256.482L201.096 256.806L200.616 257.076C200.292 257.25 199.974 257.46 199.632 257.61L198.582 258.06C198.234 258.216 197.856 258.294 197.49 258.42C195.955 258.867 194.36 259.07 192.762 259.02C191.087 258.977 189.426 258.697 187.83 258.186C186.166 257.633 184.599 256.824 183.186 255.786C181.713 254.717 180.463 253.37 179.508 251.82C178.604 250.202 177.802 248.529 177.108 246.81C176.427 245.108 175.431 243.549 174.174 242.214C173.533 241.599 172.785 241.106 171.966 240.762C171.155 240.435 170.295 240.246 169.422 240.204C165.954 240.006 162.522 242.004 161.352 245.004C161.076 245.737 160.959 246.521 161.01 247.302C161.044 248.054 161.334 248.771 161.832 249.336C162.085 249.597 162.393 249.797 162.733 249.924C163.074 250.05 163.438 250.1 163.8 250.068C164.508 250.014 165.182 249.739 165.726 249.282C166.219 248.815 166.601 248.243 166.845 247.609C167.089 246.974 167.188 246.294 167.136 245.616C167.09 244.345 166.753 243.101 166.152 241.98C165.581 240.897 164.797 239.94 163.848 239.166C162.9 238.392 161.804 237.818 160.629 237.476C159.453 237.134 158.22 237.033 157.004 237.178C155.789 237.323 154.614 237.712 153.552 238.32C152.952 238.68 152.634 238.92 152.622 238.92C152.902 238.679 153.203 238.464 153.522 238.278C154.431 237.73 155.431 237.348 156.474 237.15C158.131 236.818 159.848 236.949 161.436 237.528C163.54 238.346 165.278 239.894 166.332 241.89C166.953 243.04 167.304 244.316 167.358 245.622C167.386 246.32 167.289 247.017 167.07 247.68C166.844 248.379 166.428 249.002 165.87 249.48C165.285 249.976 164.558 250.275 163.794 250.332C163.395 250.364 162.994 250.307 162.62 250.166C162.245 250.025 161.907 249.803 161.628 249.516C161.084 248.905 160.764 248.126 160.722 247.308C160.668 246.492 160.789 245.674 161.076 244.908C162.276 241.77 165.846 239.724 169.428 239.916C170.34 239.963 171.237 240.166 172.08 240.516C172.936 240.871 173.718 241.384 174.384 242.028C175.67 243.39 176.687 244.982 177.384 246.72C178.079 248.427 178.881 250.088 179.784 251.694C180.718 253.212 181.941 254.531 183.384 255.576C184.768 256.595 186.303 257.392 187.932 257.94C189.502 258.446 191.137 258.724 192.786 258.768C194.354 258.815 195.919 258.613 197.424 258.168C197.788 258.069 198.146 257.951 198.498 257.814L199.53 257.382C199.866 257.232 200.172 257.028 200.496 256.86L200.97 256.596L201.408 256.284C202.538 255.491 203.549 254.539 204.408 253.458C204.803 252.939 205.167 252.399 205.5 251.838L205.974 251.022C206.1 250.74 206.232 250.458 206.358 250.182C207.26 248.173 207.755 246.005 207.816 243.804C207.859 242.144 207.647 240.486 207.186 238.89C207.016 238.308 206.806 237.739 206.556 237.186C206.385 236.772 206.185 236.371 205.956 235.986C205.776 235.686 205.644 235.446 205.542 235.278L205.428 235.014Z" fill="#184466"/>
<path d="M212.094 227.898H200.688V239.304H212.094V227.898Z" fill="#184466"/>
<path d="M195.996 136.056H157.146V164.622H195.996V136.056Z" fill="white"/>
<path d="M195.996 164.622C195.996 164.622 195.996 164.436 195.996 164.094C195.996 163.752 195.996 163.23 195.996 162.57C195.996 161.226 195.996 159.276 195.96 156.792C195.96 151.812 195.924 144.69 195.894 136.056L196.026 136.182L157.176 136.212L157.332 136.056C157.332 146.31 157.332 156.03 157.332 164.622L157.194 164.484L185.196 164.55L193.176 164.592H195.3H195.852H196.044C195.984 164.599 195.924 164.599 195.864 164.592H195.33H193.236L185.292 164.628L157.194 164.7H157.05V164.556C157.05 155.964 157.05 146.244 157.05 135.99V135.834H157.206L196.056 135.864H196.182V136.068C196.152 144.738 196.128 151.89 196.116 156.888C196.116 159.36 196.116 161.298 196.08 162.63C196.08 163.278 196.08 163.782 196.08 164.13C196.08 164.478 195.996 164.622 195.996 164.622Z" fill="#184466"/>
<path d="M167.202 145.068C167.166 145.176 168.096 157.752 168.096 157.608C168.096 157.464 185.724 157.608 185.724 157.608L185.94 146.466H172.8L172.2 144.918L167.202 145.068Z" fill="#184466"/>
<path d="M195.642 145.068C195.642 145.068 195.678 145.068 195.75 145.068H196.074H197.346L202.116 145.026L209.436 144.996H211.608C212.346 144.996 213.12 144.996 213.876 144.948C214.645 144.884 215.365 144.54 215.898 143.982C216.407 143.36 216.666 142.571 216.624 141.768C216.624 137.424 216.624 132.654 216.624 127.656C216.624 117.372 216.654 108.066 216.666 101.304C216.666 97.95 216.702 95.226 216.714 93.324C216.714 92.394 216.714 91.668 216.744 91.152C216.744 90.918 216.744 90.732 216.744 90.588C216.736 90.5242 216.736 90.4598 216.744 90.396C216.744 90.396 216.744 90.462 216.744 90.588C216.744 90.714 216.744 90.918 216.744 91.152C216.744 91.674 216.744 92.4 216.744 93.324C216.744 95.232 216.744 97.956 216.792 101.31C216.792 108.072 216.792 117.378 216.84 127.656C216.84 132.654 216.84 137.424 216.84 141.762C216.879 142.634 216.593 143.49 216.036 144.162C215.455 144.77 214.672 145.146 213.834 145.218C213.03 145.284 212.28 145.218 211.536 145.218H209.364L202.044 145.188L197.274 145.146H196.002H195.678L195.642 145.068Z" fill="#184466"/>
<path d="M157.146 153.666H157.002H156.588H155.004H149.16H140.502H135.384C134.444 153.725 133.51 153.474 132.726 152.952C132.35 152.644 132.047 152.255 131.84 151.815C131.632 151.375 131.525 150.895 131.526 150.408C131.52 150.314 131.52 150.22 131.526 150.126C131.526 146.394 131.526 142.842 131.526 139.614C131.526 138 131.526 136.464 131.526 135.03C131.526 134.31 131.526 133.614 131.526 132.954C131.527 132.333 131.394 131.719 131.136 131.154C130.992 130.919 130.796 130.719 130.563 130.572C130.33 130.424 130.066 130.332 129.792 130.302C129.272 130.262 128.756 130.178 128.25 130.05C127.819 129.85 127.485 129.488 127.32 129.042C127.18 128.683 127.093 128.305 127.062 127.92C127.006 127.396 127.006 126.867 127.062 126.342C127.062 126.162 127.11 126.03 127.122 125.94C127.127 125.892 127.141 125.845 127.164 125.802C127.164 125.802 127.164 125.994 127.128 126.348C127.078 126.867 127.078 127.389 127.128 127.908C127.171 128.277 127.264 128.638 127.404 128.982C127.48 129.182 127.595 129.365 127.742 129.521C127.89 129.676 128.066 129.801 128.262 129.888C128.759 130.004 129.265 130.079 129.774 130.11C130.062 130.16 130.341 130.253 130.602 130.386C130.884 130.538 131.117 130.767 131.274 131.046C131.553 131.64 131.703 132.286 131.712 132.942C131.772 133.614 131.754 134.304 131.76 135.024C131.76 136.464 131.76 138.024 131.76 139.614C131.76 142.848 131.76 146.4 131.76 150.138V150.468C131.76 150.91 131.859 151.347 132.05 151.746C132.241 152.145 132.519 152.495 132.864 152.772C133.592 153.259 134.462 153.491 135.336 153.432H140.454L149.112 153.51L154.956 153.594L156.546 153.63H156.954L157.146 153.666Z" fill="#184466"/>
<path d="M128.49 125.268C128.491 125.521 128.417 125.769 128.278 125.98C128.138 126.191 127.939 126.355 127.705 126.453C127.472 126.551 127.215 126.577 126.966 126.528C126.718 126.48 126.49 126.358 126.311 126.18C126.131 126.001 126.009 125.774 125.959 125.526C125.909 125.278 125.934 125.02 126.031 124.786C126.127 124.553 126.291 124.353 126.501 124.212C126.712 124.071 126.959 123.996 127.212 123.996C127.38 123.995 127.546 124.028 127.701 124.091C127.856 124.155 127.997 124.248 128.115 124.367C128.234 124.485 128.328 124.625 128.393 124.78C128.457 124.935 128.49 125.101 128.49 125.268Z" fill="#184466"/>
<path d="M157.146 149.952C156.993 149.975 156.838 149.985 156.684 149.982L155.352 150.012L150.432 150.06L143.082 150.09H140.946C140.195 150.118 139.444 150.096 138.696 150.024C137.882 149.928 137.134 149.532 136.596 148.914C136.077 148.244 135.817 147.409 135.864 146.562V144.654C135.864 141.198 135.864 137.898 135.864 134.898C135.864 133.398 135.864 131.976 135.864 130.644C135.879 130.005 135.847 129.365 135.768 128.73C135.749 128.158 135.518 127.612 135.12 127.2C134.704 126.89 134.204 126.71 133.686 126.684C133.188 126.705 132.694 126.582 132.264 126.33C131.914 126.066 131.663 125.692 131.55 125.268C131.445 124.925 131.38 124.57 131.358 124.212C131.326 123.724 131.342 123.233 131.406 122.748C131.416 122.577 131.448 122.407 131.502 122.244C131.502 122.244 131.502 122.418 131.502 122.754C131.46 123.235 131.46 123.719 131.502 124.2C131.527 124.547 131.596 124.89 131.706 125.22C131.821 125.607 132.059 125.947 132.384 126.186C132.792 126.412 133.256 126.516 133.722 126.486C134.287 126.509 134.832 126.699 135.288 127.032C135.727 127.478 135.99 128.069 136.026 128.694C136.113 129.336 136.151 129.984 136.14 130.632C136.14 131.972 136.14 133.392 136.14 134.892C136.14 137.892 136.14 141.192 136.14 144.654V146.592C136.096 147.357 136.331 148.111 136.8 148.716C137.289 149.277 137.969 149.636 138.708 149.724C139.439 149.798 140.175 149.824 140.91 149.802H143.046L150.396 149.832L155.316 149.88L156.648 149.91C156.815 149.909 156.981 149.923 157.146 149.952Z" fill="#184466"/>
<path d="M131.58 122.904C132.282 122.904 132.852 122.335 132.852 121.632C132.852 120.93 132.282 120.36 131.58 120.36C130.877 120.36 130.308 120.93 130.308 121.632C130.308 122.335 130.877 122.904 131.58 122.904Z" fill="#184466"/>
<path d="M157.146 136.056V140.334L195.996 139.842V136.056H157.146Z" fill="#38709B"/>
<path d="M220.338 69.7742C220.452 70.0922 221.928 91.2962 221.928 91.2962L210.162 90.4022L208.398 73.0022L220.338 69.7742Z" fill="#38709B"/>
<path d="M221.928 91.2959L223.074 90.9719L221.43 69.4619L220.2 69.8099L221.928 91.2959Z" fill="#184466"/>
<path d="M214.41 74.0459C214.41 74.1443 214.381 74.2406 214.326 74.3225C214.271 74.4044 214.194 74.4682 214.103 74.5059C214.012 74.5436 213.912 74.5535 213.815 74.5343C213.718 74.5151 213.63 74.4676 213.56 74.398C213.49 74.3283 213.443 74.2396 213.424 74.143C213.404 74.0464 213.414 73.9463 213.452 73.8553C213.49 73.7643 213.554 73.6865 213.635 73.6318C213.717 73.5771 213.814 73.5479 213.912 73.5479C214.044 73.5479 214.171 73.6003 214.264 73.6937C214.358 73.7871 214.41 73.9138 214.41 74.0459Z" fill="#184466"/>
<path d="M251.124 79.2839C251.055 79.4572 251.039 79.6471 251.079 79.8293C251.118 80.0116 251.212 80.1779 251.346 80.3068C251.481 80.4358 251.651 80.5215 251.835 80.5531C252.019 80.5846 252.208 80.5605 252.378 80.4839C252.978 80.2079 253.134 79.3619 253.05 78.6839C252.966 78.0059 252.774 77.2679 253.092 76.6559C253.4 76.2287 253.777 75.8556 254.208 75.5519C254.548 75.2416 254.812 74.8572 254.979 74.4285C255.147 73.9999 255.213 73.5384 255.174 73.0799C255.12 72.6216 254.941 72.187 254.656 71.8239C254.372 71.4608 253.992 71.1833 253.56 71.0219C252.678 70.7219 251.55 70.9379 250.914 70.2479C250.452 69.7499 250.464 68.9699 250.122 68.3879C249.582 67.4759 248.358 67.2719 247.302 67.3559C246.246 67.4399 245.172 67.7219 244.164 67.4099C243.324 67.1519 242.652 66.5159 241.872 66.1079C241.02 65.6587 240.049 65.4875 239.095 65.6181C238.14 65.7487 237.251 66.1746 236.551 66.8362C235.851 67.4978 235.375 68.3619 235.191 69.3073C235.007 70.2526 235.123 71.232 235.524 72.1079C235.786 72.75 236.266 73.279 236.88 73.6019" fill="#2D2627"/>
<path d="M250.08 97.1999L240.144 96.4079C240.084 95.2499 240.144 90.7619 240.144 90.7619C240.144 90.7619 236.01 90.1139 235.944 85.9619C235.878 81.8099 236.61 72.3359 236.61 72.3359C238.958 71.3242 241.533 70.9576 244.07 71.274C246.606 71.5904 249.013 72.5784 251.04 74.1359L251.64 74.6099L250.08 97.1999Z" fill="#FFBE9D"/>
<path d="M237.6 79.4517C237.688 79.3722 237.751 79.2682 237.78 79.1531C237.809 79.038 237.803 78.9168 237.763 78.8049C237.724 78.693 237.651 78.5955 237.556 78.5247C237.461 78.4538 237.347 78.4129 237.228 78.407C237.109 78.4011 236.992 78.4305 236.89 78.4916C236.788 78.5526 236.706 78.6425 236.656 78.7499C236.605 78.8573 236.587 78.9773 236.605 79.0948C236.622 79.2122 236.674 79.3218 236.754 79.4097C236.861 79.5272 237.01 79.5976 237.168 79.6055C237.327 79.6134 237.482 79.5581 237.6 79.4517Z" fill="#184466"/>
<path d="M236.592 78.5102C236.658 78.5822 237.066 78.2702 237.636 78.2642C238.206 78.2582 238.614 78.5582 238.68 78.4802C238.746 78.4022 238.644 78.3242 238.464 78.1862C238.223 78.0081 237.93 77.9152 237.63 77.9222C237.331 77.9261 237.041 78.0248 236.802 78.2042C236.622 78.3482 236.562 78.4742 236.592 78.5102Z" fill="#184466"/>
<path d="M243.15 79.0019C243.049 79.0642 242.969 79.155 242.92 79.2628C242.871 79.3705 242.855 79.4905 242.873 79.6075C242.892 79.7245 242.945 79.8333 243.026 79.9202C243.106 80.007 243.211 80.0681 243.326 80.0957C243.441 80.1232 243.562 80.116 243.673 80.075C243.785 80.034 243.881 79.961 243.951 79.8651C244.021 79.7693 244.06 79.655 244.065 79.5366C244.07 79.4182 244.04 79.301 243.978 79.1999C243.937 79.1323 243.883 79.0735 243.819 79.027C243.755 78.9804 243.682 78.947 243.605 78.9286C243.528 78.9102 243.448 78.9072 243.37 78.9197C243.292 78.9323 243.217 78.9602 243.15 79.0019Z" fill="#184466"/>
<path d="M242.778 79.0079C242.844 79.0799 243.246 78.7679 243.816 78.7679C244.386 78.7679 244.8 79.0559 244.86 78.9839C244.92 78.9119 244.83 78.8219 244.65 78.6839C244.404 78.5111 244.11 78.4189 243.81 78.4199C243.51 78.4229 243.219 78.5241 242.982 78.7079C242.808 78.8459 242.748 78.9779 242.778 79.0079Z" fill="#184466"/>
<path d="M240.492 83.7059C240.2 83.5872 239.889 83.5202 239.574 83.5079C239.424 83.5079 239.31 83.4599 239.298 83.3819C239.291 83.2323 239.329 83.084 239.406 82.9559C239.55 82.5779 239.7 82.1939 239.856 81.7979C240.28 80.8186 240.605 79.7995 240.828 78.7559C240.305 79.6867 239.877 80.6676 239.55 81.6839C239.406 82.0859 239.262 82.4699 239.124 82.8479C239.033 83.034 239.006 83.2447 239.046 83.4479C239.065 83.5054 239.098 83.5573 239.142 83.5991C239.186 83.641 239.24 83.6714 239.298 83.6879C239.382 83.711 239.469 83.7211 239.556 83.7179C239.866 83.7673 240.183 83.7632 240.492 83.7059Z" fill="#184466"/>
<path d="M242.346 84.3359C241.454 84.7294 240.514 85.0019 239.55 85.1459C239.748 85.4404 240.039 85.6597 240.376 85.7685C240.713 85.8774 241.078 85.8694 241.41 85.7459C242.646 85.3199 242.346 84.3359 242.346 84.3359Z" fill="white"/>
<path d="M240.156 90.6898C242.069 90.7273 243.949 90.1925 245.556 89.1538C245.556 89.1538 244.284 92.1538 240.156 91.7578V90.6898Z" fill="#EB996E"/>
<path d="M236.562 73.386C236.562 73.386 238.962 74.79 242.364 73.386C244.584 72.48 247.116 72.138 247.638 72.612C248.16 73.086 248.106 75.3 250.182 76.098C250.182 76.098 249.726 80.298 251.418 80.298C253.11 80.298 252.54 73.698 252.54 73.698L248.58 71.388L244.158 70.188L239.892 70.476L236.562 71.124V73.386Z" fill="#383133"/>
<path d="M251.184 78.9178C251.25 78.8818 254.022 78.0778 253.932 80.9038C253.842 83.7298 251.022 83.0518 251.022 82.9738C251.022 82.8958 251.184 78.9178 251.184 78.9178Z" fill="#FFBE9D"/>
<path d="M251.916 81.9298C251.916 81.9298 251.964 81.9658 252.048 82.0078C252.166 82.052 252.296 82.052 252.414 82.0078C252.602 81.8996 252.757 81.7426 252.862 81.5536C252.968 81.3645 253.02 81.1503 253.014 80.9338C253.031 80.6922 252.992 80.45 252.9 80.2258C252.877 80.1363 252.832 80.0538 252.769 79.9858C252.706 79.9178 252.628 79.8663 252.54 79.8358C252.484 79.817 252.423 79.8195 252.369 79.8427C252.315 79.8659 252.271 79.9084 252.246 79.9618C252.204 80.0398 252.246 80.0938 252.204 80.0998C252.162 80.1058 252.15 80.0518 252.174 79.9318C252.192 79.8629 252.232 79.8017 252.288 79.7578C252.328 79.7297 252.373 79.7099 252.42 79.6996C252.467 79.6893 252.516 79.6887 252.564 79.6978C252.679 79.7239 252.786 79.7788 252.874 79.8576C252.963 79.9363 253.029 80.0362 253.068 80.1478C253.179 80.3986 253.228 80.6722 253.212 80.9458C253.219 81.1981 253.15 81.4468 253.016 81.6603C252.881 81.8739 252.687 82.0428 252.456 82.1458C252.379 82.1666 252.299 82.1692 252.221 82.1536C252.143 82.138 252.069 82.1045 252.006 82.0558C251.922 81.9958 251.91 81.9358 251.916 81.9298Z" fill="#EB996E"/>
<path d="M253.098 70.1582C253.098 70.2482 252.66 70.2062 252.186 70.3562C251.712 70.5062 251.388 70.7762 251.322 70.7162C251.256 70.6562 251.526 70.2362 252.096 70.0622C252.666 69.8882 253.134 70.0802 253.098 70.1582Z" fill="#184466"/>
<path d="M251.496 68.3999C251.677 68.8253 251.705 69.3004 251.574 69.7439C251.424 70.5059 250.974 70.9439 250.89 70.9079C250.806 70.8719 251.142 70.3619 251.268 69.7079C251.394 69.0539 251.4 68.3999 251.496 68.3999Z" fill="#184466"/>
<path d="M239.364 77.5799C239.274 77.7359 238.734 77.5799 238.08 77.5799C237.426 77.5799 236.88 77.6399 236.808 77.4779C236.736 77.3159 237.294 76.9199 238.11 76.9559C238.926 76.9919 239.454 77.4359 239.364 77.5799Z" fill="#184466"/>
<path d="M245.7 77.0519C245.616 77.2019 245.1 77.0519 244.422 77.0519C243.744 77.0519 243.222 77.1119 243.15 76.9499C243.078 76.7879 243.636 76.3859 244.452 76.4279C245.268 76.4699 245.796 76.9079 245.7 77.0519Z" fill="#184466"/>
<path d="M269.094 251.694L270.078 255.828C270.078 255.828 276.846 264.618 278.928 264.186C280.296 263.904 278.616 261.612 276.042 254.94L275.502 252.18L269.094 251.694Z" fill="#184466"/>
<path d="M279.204 262.89C279.194 262.935 279.176 262.978 279.15 263.016C279.08 263.127 278.983 263.218 278.868 263.28C278.684 263.379 278.476 263.424 278.268 263.412C277.992 263.384 277.728 263.287 277.5 263.13C276.292 262.15 275.153 261.087 274.092 259.95C273.031 258.823 272.03 257.641 271.092 256.41C270.732 255.936 270.45 255.546 270.258 255.27L270.042 254.952C269.994 254.88 269.97 254.838 269.976 254.838L270.066 254.94L270.3 255.24C270.546 255.564 270.834 255.93 271.164 256.356C271.902 257.286 272.964 258.552 274.206 259.866C275.265 260.994 276.389 262.06 277.572 263.058C277.751 263.202 277.967 263.296 278.195 263.327C278.423 263.359 278.656 263.328 278.868 263.238C279.01 263.156 279.127 263.035 279.204 262.89Z" fill="#184466"/>
<path d="M278.25 260.064C278.25 260.064 278.034 260.064 277.698 260.094C277.271 260.164 276.863 260.319 276.498 260.55C276.118 260.771 275.804 261.087 275.586 261.468C275.424 261.762 275.382 261.972 275.358 261.966C275.367 261.777 275.419 261.593 275.508 261.426C275.712 261.016 276.034 260.675 276.432 260.448C276.818 260.203 277.255 260.051 277.71 260.004C277.892 259.981 278.077 260.002 278.25 260.064Z" fill="#184466"/>
<path d="M271.842 258C271.842 258 271.914 257.7 271.968 257.22C272.036 256.6 271.919 255.974 271.632 255.42C271.348 254.859 270.894 254.401 270.336 254.112C270.099 254.005 269.855 253.917 269.604 253.848C269.674 253.837 269.744 253.837 269.814 253.848C270.007 253.882 270.194 253.94 270.372 254.022C270.965 254.296 271.448 254.763 271.74 255.348C272.043 255.926 272.154 256.586 272.058 257.232C272.03 257.425 271.986 257.616 271.926 257.802C271.907 257.871 271.879 257.938 271.842 258Z" fill="#184466"/>
<path d="M269.526 252.396C269.711 252.808 269.834 253.244 269.892 253.692C270.018 254.424 270.156 255.006 270.126 255.018C269.946 254.603 269.827 254.165 269.772 253.716C269.646 252.984 269.496 252.408 269.526 252.396Z" fill="#184466"/>
<path d="M276.162 255.522C276.162 255.558 275.778 255.522 275.322 255.654C274.866 255.786 274.53 255.936 274.512 255.906C274.731 255.707 275.005 255.578 275.298 255.534C275.579 255.447 275.879 255.443 276.162 255.522Z" fill="#184466"/>
<path d="M276.3 256.23C276.3 256.266 275.976 256.23 275.598 256.326C275.22 256.422 274.95 256.59 274.932 256.56C275.095 256.366 275.323 256.24 275.574 256.206C275.811 256.126 276.069 256.134 276.3 256.23Z" fill="#184466"/>
<path d="M276.84 257.118C276.35 257.041 275.85 257.155 275.442 257.436C275.514 257.326 275.608 257.232 275.719 257.161C275.829 257.089 275.954 257.042 276.084 257.022C276.209 256.982 276.342 256.97 276.472 256.987C276.603 257.003 276.728 257.048 276.84 257.118Z" fill="#184466"/>
<path d="M275.7 255.228C275.623 255.229 275.546 255.219 275.472 255.198C275.268 255.159 275.068 255.105 274.872 255.036C274.582 254.936 274.301 254.812 274.032 254.664C273.884 254.583 273.739 254.495 273.6 254.4C273.506 254.347 273.426 254.273 273.367 254.183C273.307 254.094 273.27 253.991 273.258 253.884C273.267 253.827 273.289 253.773 273.321 253.726C273.353 253.678 273.395 253.638 273.444 253.608C273.493 253.577 273.547 253.558 273.604 253.551C273.661 253.544 273.719 253.549 273.774 253.566C273.956 253.628 274.117 253.738 274.242 253.884C274.488 254.124 274.698 254.358 274.842 254.556C274.986 254.754 275.13 254.934 275.214 255.054C275.261 255.115 275.299 255.181 275.328 255.252C275.328 255.252 275.118 255 274.77 254.616C274.602 254.424 274.386 254.196 274.14 253.962C274.026 253.836 273.881 253.741 273.72 253.686C273.564 253.644 273.366 253.728 273.36 253.89C273.354 254.052 273.51 254.202 273.642 254.304C273.774 254.406 273.948 254.508 274.092 254.592C274.355 254.74 274.628 254.87 274.908 254.982C275.4 255.138 275.7 255.204 275.7 255.228Z" fill="#184466"/>
<path d="M275.34 255.138C275.334 255.07 275.334 255.002 275.34 254.934C275.34 254.802 275.34 254.61 275.388 254.37C275.42 254.089 275.49 253.815 275.598 253.554C275.667 253.398 275.758 253.252 275.868 253.122C275.925 253.038 276.009 252.975 276.106 252.945C276.203 252.914 276.307 252.917 276.402 252.954C276.482 253.015 276.542 253.098 276.575 253.193C276.608 253.288 276.612 253.39 276.588 253.488C276.559 253.655 276.509 253.819 276.438 253.974C276.32 254.232 276.157 254.467 275.958 254.67C275.824 254.803 275.68 254.926 275.526 255.036C275.474 255.082 275.413 255.117 275.346 255.138C275.346 255.138 275.58 254.958 275.892 254.61C276.075 254.407 276.225 254.176 276.336 253.926C276.399 253.782 276.443 253.631 276.468 253.476C276.468 253.32 276.468 253.128 276.342 253.062C276.216 252.996 276.06 253.062 275.958 253.206C275.857 253.326 275.772 253.459 275.706 253.602C275.592 253.852 275.514 254.116 275.472 254.388C275.447 254.641 275.403 254.891 275.34 255.138Z" fill="#184466"/>
<path opacity="0.4" d="M270.078 255.828L269.604 253.842C269.604 253.842 271.26 254.148 271.692 255.39C271.944 256.068 272.052 256.791 272.01 257.514L275.61 261.396C275.61 261.396 276.516 259.596 278.154 260.052C278.154 260.052 279.438 262.884 279.402 263.598C279.366 264.312 278.538 264.198 278.244 264.084C277.052 263.394 275.965 262.537 275.016 261.54C273.114 259.56 271.002 257.046 270.078 255.828Z" fill="#184466"/>
<path d="M235.458 253.8V248.286L245.79 248.16L245.922 256.23L245.286 256.278C242.436 256.47 230.784 257.058 228.87 256.506C226.704 255.87 235.458 253.8 235.458 253.8Z" fill="#184466"/>
<g opacity="0.4">
<path opacity="0.4" d="M242.148 256.2C242.29 255.327 242.75 254.536 243.438 253.98C244.112 253.428 244.968 253.15 245.838 253.2L245.874 256.092L242.148 256.2Z" fill="#184466"/>
</g>
<path opacity="0.4" d="M231.186 254.958C231.186 254.958 228.114 255.882 228.51 256.38C228.906 256.878 240.696 256.734 245.91 256.212V255.984L232.152 256.272C232.152 256.272 231.786 255 231.186 254.958Z" fill="#184466"/>
<path d="M246.036 255.972H245.862L245.352 256.008L243.474 256.116C241.884 256.188 239.694 256.266 237.27 256.302C234.846 256.338 232.656 256.302 231.072 256.302L229.188 256.248H228.678H228.504C228.562 256.239 228.62 256.239 228.678 256.248H229.2H231.084C232.668 256.248 234.864 256.248 237.282 256.248C239.7 256.248 241.896 256.152 243.48 256.098L245.358 256.032H245.868L246.036 255.972Z" fill="#184466"/>
<path d="M232.116 256.434C232.032 256.125 231.911 255.827 231.756 255.546C231.567 255.285 231.35 255.045 231.108 254.832C231.43 254.947 231.698 255.175 231.864 255.474C232.066 255.751 232.156 256.094 232.116 256.434Z" fill="#184466"/>
<path d="M235.146 254.85C235.146 254.85 234.972 254.694 234.816 254.46C234.66 254.226 234.564 254.016 234.594 253.998C234.624 253.98 234.768 254.154 234.924 254.388C235.08 254.622 235.2 254.832 235.146 254.85Z" fill="#184466"/>
<path d="M235.98 254.4C235.98 254.43 235.794 254.322 235.614 254.166C235.434 254.01 235.302 253.86 235.326 253.83C235.35 253.8 235.512 253.914 235.692 254.07C235.872 254.226 236.004 254.4 235.98 254.4Z" fill="#184466"/>
<path d="M236.496 253.416C236.323 253.477 236.139 253.502 235.956 253.488C235.775 253.512 235.59 253.496 235.416 253.44C235.588 253.375 235.773 253.348 235.956 253.362C236.138 253.338 236.322 253.357 236.496 253.416Z" fill="#184466"/>
<path d="M236.67 252.726C236.492 252.844 236.283 252.907 236.07 252.906C235.867 252.938 235.66 252.913 235.47 252.834C235.668 252.797 235.869 252.779 236.07 252.78C236.268 252.744 236.469 252.726 236.67 252.726Z" fill="#184466"/>
<path d="M234.786 253.95C234.566 253.991 234.34 253.991 234.12 253.95C233.876 253.921 233.635 253.871 233.4 253.8C233.259 253.759 233.123 253.704 232.992 253.638C232.914 253.593 232.856 253.52 232.83 253.434C232.817 253.385 232.819 253.332 232.836 253.284C232.853 253.236 232.884 253.194 232.926 253.164C233.177 253.032 233.467 252.994 233.743 253.055C234.02 253.117 234.266 253.274 234.438 253.5C234.539 253.633 234.615 253.783 234.66 253.944C234.672 254.003 234.672 254.065 234.66 254.124C234.591 253.919 234.485 253.728 234.348 253.56C234.191 253.38 233.981 253.254 233.748 253.2C233.486 253.114 233.202 253.136 232.956 253.26C232.854 253.344 232.896 253.464 233.01 253.536C233.131 253.598 233.257 253.649 233.388 253.686C233.611 253.761 233.84 253.817 234.072 253.854C234.534 253.932 234.786 253.932 234.786 253.95Z" fill="#184466"/>
<path d="M234.6 253.986C234.521 253.848 234.493 253.686 234.522 253.53C234.539 253.354 234.599 253.185 234.696 253.038C234.751 252.939 234.829 252.856 234.925 252.796C235.02 252.737 235.13 252.702 235.242 252.696C235.309 252.709 235.368 252.748 235.408 252.803C235.447 252.859 235.463 252.928 235.452 252.996C235.439 253.103 235.402 253.205 235.344 253.296C235.258 253.445 235.154 253.582 235.032 253.704C234.932 253.823 234.804 253.915 234.66 253.974C234.66 253.974 234.792 253.854 234.972 253.644C235.076 253.52 235.167 253.385 235.242 253.242C235.332 253.098 235.392 252.846 235.242 252.816C235.092 252.786 234.906 252.972 234.81 253.104C234.717 253.234 234.653 253.384 234.624 253.542C234.603 253.689 234.595 253.837 234.6 253.986Z" fill="#184466"/>
<path d="M245.79 253.152C245.536 253.147 245.281 253.159 245.028 253.188C244.42 253.263 243.846 253.509 243.371 253.896C242.897 254.284 242.541 254.797 242.346 255.378C242.196 255.822 242.184 256.122 242.16 256.116C242.148 256.048 242.148 255.979 242.16 255.912C242.173 255.72 242.207 255.531 242.262 255.348C242.439 254.738 242.797 254.196 243.289 253.794C243.781 253.392 244.383 253.149 245.016 253.098C245.206 253.079 245.397 253.079 245.586 253.098C245.718 253.122 245.79 253.14 245.79 253.152Z" fill="#184466"/>
<path d="M244.662 248.862C244.786 250.275 244.822 251.693 244.77 253.11C244.654 251.697 244.618 250.279 244.662 248.862Z" fill="#184466"/>
<path d="M240.834 255.186C240.341 255.305 239.835 255.362 239.328 255.354C238.822 255.387 238.313 255.353 237.816 255.252C237.816 255.216 238.494 255.252 239.322 255.252C240.15 255.252 240.828 255.15 240.834 255.186Z" fill="#184466"/>
<path d="M242.856 255.156C242.856 255.156 242.802 255.3 242.736 255.456C242.67 255.612 242.634 255.75 242.598 255.75C242.562 255.75 242.544 255.588 242.598 255.408C242.652 255.228 242.838 255.132 242.856 255.156Z" fill="#184466"/>
<path d="M243.6 254.196C243.6 254.196 243.558 254.328 243.45 254.442C243.342 254.556 243.24 254.622 243.216 254.598C243.192 254.574 243.258 254.46 243.36 254.352C243.462 254.244 243.6 254.172 243.6 254.196Z" fill="#184466"/>
<path d="M244.698 253.752C244.698 253.788 244.554 253.788 244.398 253.842C244.242 253.896 244.14 253.98 244.116 253.956C244.092 253.932 244.17 253.788 244.362 253.722C244.554 253.656 244.704 253.716 244.698 253.752Z" fill="#184466"/>
<path d="M245.472 253.536C245.472 253.566 245.424 253.62 245.34 253.656C245.256 253.692 245.172 253.692 245.16 253.656C245.148 253.62 245.208 253.566 245.292 253.536C245.376 253.506 245.46 253.506 245.472 253.536Z" fill="#184466"/>
<path d="M228.426 144.216L233.25 251.406L249.342 251.742L246.672 162.006L264.774 252.432H280.074L259.638 144.216" fill="#3A4248"/>
<path d="M263.976 250.974L264.342 252.558L280.074 252.768L279.834 250.29L263.976 250.974Z" fill="#38709B"/>
<path d="M276.222 250.878C276.306 250.878 276.408 251.052 276.45 251.298C276.492 251.544 276.45 251.754 276.366 251.766C276.282 251.778 276.18 251.592 276.138 251.346C276.096 251.1 276.132 250.896 276.222 250.878Z" fill="#38709B"/>
<path d="M275.628 247.368C275.718 247.368 275.85 247.74 275.934 248.22C276.018 248.7 276.012 249.108 275.934 249.126C275.856 249.144 275.712 248.76 275.628 248.274C275.544 247.788 275.544 247.386 275.628 247.368Z" fill="#38709B"/>
<path d="M275.04 243.858C275.124 243.858 275.262 244.23 275.34 244.71C275.418 245.19 275.424 245.604 275.34 245.616C275.256 245.628 275.124 245.25 275.04 244.764C274.956 244.278 274.956 243.876 275.04 243.858Z" fill="#38709B"/>
<path d="M274.452 240.348C274.536 240.348 274.674 240.72 274.752 241.2C274.83 241.68 274.83 242.094 274.752 242.106C274.674 242.118 274.53 241.74 274.452 241.254C274.374 240.768 274.368 240.366 274.452 240.348Z" fill="#38709B"/>
<path d="M273.858 236.838C273.942 236.838 274.08 237.21 274.164 237.69C274.248 238.17 274.242 238.584 274.164 238.596C274.086 238.608 273.942 238.23 273.858 237.744C273.774 237.258 273.774 236.856 273.858 236.838Z" fill="#38709B"/>
<path d="M273.27 233.328C273.354 233.328 273.486 233.694 273.57 234.18C273.654 234.666 273.648 235.068 273.57 235.086C273.492 235.104 273.348 234.72 273.27 234.234C273.192 233.748 273.18 233.346 273.27 233.328Z" fill="#38709B"/>
<path d="M272.676 229.8C272.76 229.8 272.892 230.166 272.976 230.652C273.06 231.138 273.054 231.54 272.976 231.558C272.898 231.576 272.754 231.192 272.676 230.706C272.598 230.22 272.586 229.836 272.676 229.8Z" fill="#38709B"/>
<path d="M272.076 226.308C272.16 226.308 272.298 226.68 272.382 227.16C272.466 227.64 272.46 228.054 272.382 228.066C272.304 228.078 272.16 227.7 272.076 227.214C271.992 226.728 271.992 226.326 272.076 226.308Z" fill="#38709B"/>
<path d="M271.482 222.798C271.566 222.798 271.698 223.17 271.782 223.65C271.866 224.13 271.866 224.538 271.782 224.556C271.698 224.574 271.566 224.19 271.482 223.704C271.398 223.218 271.392 222.816 271.482 222.798Z" fill="#38709B"/>
<path d="M270.876 219.294C270.966 219.294 271.098 219.66 271.182 220.14C271.266 220.62 271.266 221.034 271.182 221.046C271.098 221.058 270.96 220.68 270.876 220.194C270.792 219.708 270.792 219.306 270.876 219.294Z" fill="#38709B"/>
<path d="M270.276 215.784C270.36 215.784 270.498 216.15 270.582 216.636C270.666 217.122 270.66 217.524 270.582 217.536C270.504 217.548 270.36 217.17 270.276 216.684C270.192 216.198 270.192 215.796 270.276 215.784Z" fill="#38709B"/>
<path d="M269.67 212.274C269.754 212.274 269.892 212.64 269.976 213.126C270.06 213.612 270.06 214.014 269.976 214.026C269.892 214.038 269.754 213.66 269.67 213.18C269.586 212.7 269.586 212.292 269.67 212.274Z" fill="#38709B"/>
<path d="M269.064 208.8C269.148 208.8 269.286 209.16 269.37 209.646C269.454 210.132 269.454 210.534 269.37 210.552C269.286 210.57 269.148 210.186 269.064 209.7C268.98 209.214 268.974 208.8 269.064 208.8Z" fill="#38709B"/>
<path d="M268.446 205.26C268.536 205.26 268.674 205.626 268.758 206.112C268.842 206.598 268.842 207 268.758 207.012C268.674 207.024 268.53 206.646 268.446 206.166C268.362 205.686 268.362 205.278 268.446 205.26Z" fill="#38709B"/>
<path d="M267.834 201.756C267.918 201.756 268.056 202.122 268.14 202.602C268.224 203.082 268.224 203.49 268.14 203.508C268.056 203.526 267.918 203.142 267.834 202.656C267.75 202.17 267.75 201.768 267.834 201.756Z" fill="#38709B"/>
<path d="M267.21 198.246C267.294 198.246 267.438 198.612 267.522 199.098C267.606 199.584 267.606 199.986 267.522 199.998C267.438 200.01 267.3 199.638 267.216 199.152C267.132 198.666 267.126 198.264 267.21 198.246Z" fill="#38709B"/>
<path d="M266.586 194.742C266.67 194.742 266.814 195.108 266.898 195.594C266.982 196.08 266.988 196.482 266.898 196.494C266.808 196.506 266.676 196.128 266.592 195.648C266.508 195.168 266.502 194.76 266.586 194.742Z" fill="#38709B"/>
<path d="M265.956 191.238C266.04 191.238 266.184 191.604 266.268 192.09C266.352 192.576 266.358 192.978 266.268 192.99C266.178 193.002 266.04 192.624 265.956 192.144C265.872 191.664 265.872 191.256 265.956 191.238Z" fill="#38709B"/>
<path d="M265.326 187.734C265.41 187.734 265.548 188.1 265.638 188.586C265.728 189.072 265.728 189.474 265.638 189.486C265.548 189.498 265.41 189.126 265.32 188.64C265.23 188.154 265.236 187.752 265.326 187.734Z" fill="#38709B"/>
<path d="M264.684 184.236C264.768 184.236 264.912 184.596 264.996 185.082C265.08 185.568 265.092 185.97 264.996 185.982C264.9 185.994 264.774 185.622 264.684 185.136C264.594 184.65 264.6 184.248 264.684 184.236Z" fill="#38709B"/>
<path d="M264.036 180.732C264.126 180.732 264.264 181.098 264.354 181.578C264.444 182.058 264.45 182.466 264.354 182.484C264.258 182.502 264.132 182.118 264.042 181.638C263.952 181.158 263.952 180.75 264.036 180.732Z" fill="#38709B"/>
<path d="M263.4 177.234C263.484 177.234 263.628 177.594 263.718 178.08C263.808 178.566 263.808 178.968 263.718 178.98C263.628 178.992 263.496 178.62 263.406 178.134C263.316 177.648 263.304 177.246 263.4 177.234Z" fill="#38709B"/>
<path d="M262.728 173.736C262.818 173.736 262.956 174.096 263.046 174.582C263.136 175.068 263.142 175.47 263.046 175.482C262.95 175.494 262.818 175.122 262.728 174.636C262.638 174.15 262.644 173.748 262.728 173.736Z" fill="#38709B"/>
<path d="M262.068 170.238C262.152 170.238 262.296 170.598 262.386 171.084C262.476 171.57 262.482 171.966 262.386 171.984C262.29 172.002 262.158 171.624 262.068 171.138C261.978 170.652 261.984 170.25 262.068 170.238Z" fill="#38709B"/>
<path d="M261.396 166.74C261.48 166.74 261.624 167.1 261.714 167.586C261.804 168.072 261.816 168.474 261.714 168.486C261.612 168.498 261.486 168.126 261.39 167.646C261.294 167.166 261.312 166.758 261.396 166.74Z" fill="#38709B"/>
<path d="M260.718 163.248C260.802 163.248 260.946 163.608 261.042 164.088C261.138 164.568 261.144 164.976 261.042 164.994C260.94 165.012 260.814 164.634 260.718 164.148C260.622 163.662 260.634 163.26 260.718 163.248Z" fill="#38709B"/>
<path d="M260.028 159.75C260.112 159.75 260.262 160.11 260.352 160.596C260.442 161.082 260.46 161.484 260.352 161.496C260.244 161.508 260.118 161.136 260.022 160.656C259.926 160.176 259.944 159.768 260.028 159.75Z" fill="#38709B"/>
<path d="M259.332 156.258C259.416 156.258 259.566 156.618 259.662 157.104C259.758 157.59 259.77 157.986 259.662 158.004C259.554 158.022 259.434 157.644 259.338 157.164C259.242 156.684 259.248 156.276 259.332 156.258Z" fill="#38709B"/>
<path d="M258.63 152.772C258.714 152.772 258.864 153.132 258.96 153.612C259.056 154.092 259.068 154.5 258.96 154.518C258.852 154.536 258.726 154.158 258.63 153.672C258.534 153.186 258.546 152.79 258.63 152.772Z" fill="#38709B"/>
<path d="M257.916 149.28C258 149.28 258.15 149.64 258.246 150.12C258.342 150.6 258.36 151.008 258.276 151.026C258.192 151.044 258.042 150.666 257.94 150.186C257.838 149.706 257.832 149.298 257.916 149.28Z" fill="#38709B"/>
<path d="M257.4 146.652C257.49 146.652 257.598 146.82 257.646 147.06C257.694 147.3 257.646 147.516 257.586 147.534C257.526 147.552 257.394 147.366 257.34 147.126C257.286 146.886 257.286 146.67 257.4 146.652Z" fill="#38709B"/>
<path d="M246.6 250.866C246.684 250.866 246.768 251.064 246.78 251.31C246.792 251.556 246.732 251.76 246.648 251.766C246.564 251.772 246.48 251.574 246.468 251.328C246.456 251.082 246.486 250.872 246.6 250.866Z" fill="#38709B"/>
<path d="M246.42 247.296C246.51 247.296 246.594 247.692 246.612 248.184C246.63 248.676 246.576 249.078 246.492 249.084C246.408 249.09 246.318 248.688 246.3 248.196C246.282 247.704 246.336 247.302 246.42 247.296Z" fill="#38709B"/>
<path d="M246.312 243.726C246.396 243.726 246.48 244.122 246.492 244.614C246.504 245.106 246.45 245.508 246.366 245.514C246.282 245.52 246.198 245.118 246.18 244.626C246.162 244.134 246.228 243.726 246.312 243.726Z" fill="#38709B"/>
<path d="M246.222 240.15C246.306 240.15 246.384 240.546 246.396 241.044C246.408 241.542 246.354 241.938 246.264 241.938C246.174 241.938 246.096 241.542 246.084 241.05C246.072 240.558 246.132 240.156 246.222 240.15Z" fill="#38709B"/>
<path d="M246.138 236.58C246.222 236.58 246.3 236.976 246.312 237.468C246.324 237.96 246.264 238.362 246.18 238.368C246.096 238.374 246.012 237.972 246 237.474C245.988 236.976 246.048 236.58 246.138 236.58Z" fill="#38709B"/>
<path d="M246.042 233.004C246.132 233.004 246.21 233.4 246.222 233.892C246.234 234.384 246.18 234.786 246.09 234.792C246 234.798 245.922 234.396 245.91 233.904C245.898 233.412 245.958 233.004 246.042 233.004Z" fill="#38709B"/>
<path d="M245.922 229.428C246.012 229.428 246.096 229.824 246.114 230.316C246.132 230.808 246.072 231.21 245.988 231.216C245.904 231.222 245.82 230.82 245.802 230.328C245.784 229.836 245.838 229.434 245.922 229.428Z" fill="#38709B"/>
<path d="M245.772 225.858C245.862 225.858 245.946 226.254 245.97 226.746C245.994 227.238 245.934 227.64 245.85 227.646C245.766 227.652 245.676 227.25 245.658 226.758C245.64 226.266 245.688 225.864 245.772 225.858Z" fill="#38709B"/>
<path d="M245.634 222.288C245.724 222.288 245.808 222.678 245.826 223.176C245.844 223.674 245.79 224.07 245.706 224.07C245.622 224.07 245.532 223.68 245.514 223.188C245.496 222.696 245.55 222.288 245.634 222.288Z" fill="#38709B"/>
<path d="M245.508 218.712C245.598 218.712 245.682 219.108 245.7 219.6C245.718 220.092 245.658 220.5 245.574 220.5C245.49 220.5 245.4 220.104 245.382 219.612C245.364 219.12 245.4 218.718 245.508 218.712Z" fill="#38709B"/>
<path d="M245.4 215.142C245.49 215.142 245.568 215.532 245.586 216.03C245.604 216.528 245.538 216.924 245.454 216.924C245.37 216.924 245.286 216.528 245.274 216.036C245.262 215.544 245.316 215.142 245.4 215.142Z" fill="#38709B"/>
<path d="M245.31 211.566C245.394 211.566 245.472 211.962 245.484 212.454C245.496 212.946 245.442 213.354 245.352 213.354C245.262 213.354 245.184 212.958 245.172 212.466C245.16 211.974 245.22 211.566 245.31 211.566Z" fill="#38709B"/>
<path d="M245.232 207.996C245.316 207.996 245.394 208.392 245.406 208.884C245.418 209.376 245.352 209.778 245.268 209.778C245.184 209.778 245.106 209.382 245.094 208.89C245.082 208.398 245.142 207.996 245.232 207.996Z" fill="#38709B"/>
<path d="M245.172 204.42C245.256 204.42 245.334 204.816 245.34 205.308C245.346 205.8 245.286 206.208 245.196 206.208C245.106 206.208 245.034 205.812 245.028 205.314C245.022 204.816 245.082 204.42 245.172 204.42Z" fill="#38709B"/>
<path d="M245.13 200.844C245.214 200.844 245.286 201.246 245.292 201.738C245.298 202.23 245.232 202.632 245.148 202.632C245.064 202.632 244.986 202.236 244.98 201.744C244.974 201.252 245.04 200.85 245.13 200.844Z" fill="#38709B"/>
<path d="M245.1 197.274C245.19 197.274 245.262 197.67 245.262 198.168C245.262 198.666 245.202 199.056 245.112 199.062C245.022 199.068 244.956 198.66 244.95 198.168C244.944 197.676 245.016 197.274 245.1 197.274Z" fill="#38709B"/>
<path d="M245.094 193.698C245.178 193.698 245.25 194.1 245.25 194.592C245.25 195.084 245.184 195.486 245.094 195.486C245.004 195.486 244.938 195.084 244.938 194.592C244.938 194.1 245.01 193.698 245.094 193.698Z" fill="#38709B"/>
<path d="M245.106 190.122C245.19 190.122 245.262 190.524 245.256 191.016C245.25 191.508 245.184 191.91 245.1 191.91C245.016 191.91 244.944 191.508 244.944 191.016C244.944 190.524 245.016 190.122 245.106 190.122Z" fill="#38709B"/>
<path d="M245.13 186.552C245.22 186.552 245.286 186.954 245.28 187.446C245.274 187.938 245.202 188.34 245.118 188.34C245.034 188.34 244.962 187.938 244.968 187.44C244.974 186.942 245.046 186.552 245.13 186.552Z" fill="#38709B"/>
<path d="M245.178 183C245.268 183 245.328 183.402 245.322 183.894C245.316 184.386 245.238 184.788 245.154 184.788C245.07 184.788 245.004 184.386 245.01 183.894C245.016 183.402 245.094 183 245.178 183Z" fill="#38709B"/>
<path d="M245.244 179.4C245.328 179.4 245.394 179.802 245.382 180.294C245.37 180.786 245.298 181.188 245.208 181.188C245.118 181.188 245.058 180.78 245.07 180.288C245.082 179.796 245.154 179.4 245.244 179.4Z" fill="#38709B"/>
<path d="M245.322 175.83C245.412 175.83 245.472 176.232 245.46 176.724C245.448 177.216 245.364 177.618 245.28 177.618C245.196 177.618 245.136 177.216 245.148 176.718C245.16 176.22 245.238 175.8 245.322 175.83Z" fill="#38709B"/>
<path d="M245.448 172.254C245.538 172.254 245.592 172.662 245.568 173.154C245.544 173.646 245.466 174.042 245.376 174.042C245.286 174.042 245.238 173.634 245.256 173.142C245.274 172.65 245.364 172.248 245.448 172.254Z" fill="#38709B"/>
<path d="M245.658 168.684C245.742 168.684 245.79 169.092 245.754 169.584C245.718 170.076 245.628 170.472 245.538 170.466C245.448 170.46 245.412 170.058 245.442 169.566C245.472 169.074 245.574 168.678 245.658 168.684Z" fill="#38709B"/>
<path d="M246 165.126C246.09 165.126 246.12 165.54 246.066 166.032C246.012 166.524 245.91 166.908 245.82 166.902C245.73 166.896 245.706 166.488 245.754 165.996C245.802 165.504 245.898 165.114 246 165.126Z" fill="#38709B"/>
<path d="M246.33 162.468C246.414 162.468 246.456 162.69 246.42 162.936C246.384 163.182 246.288 163.368 246.204 163.356C246.12 163.344 246.078 163.14 246.114 162.894C246.15 162.648 246.246 162.456 246.33 162.468Z" fill="#38709B"/>
<path d="M232.83 251.928L249.852 252.204L249.714 249.372L232.83 249.456V251.928Z" fill="#38709B"/>
<path d="M243.99 145.578C244.055 145.79 244.09 146.01 244.092 146.232C244.14 146.652 244.194 147.264 244.254 148.032C244.374 149.544 244.524 151.632 244.668 153.954C244.734 155.112 244.8 156.21 244.854 157.224C244.844 158.102 244.949 158.977 245.166 159.828C245.344 160.385 245.734 160.848 246.252 161.118C246.446 161.196 246.647 161.256 246.852 161.298C246.797 161.312 246.739 161.312 246.684 161.298C246.514 161.302 246.344 161.271 246.186 161.208C245.898 161.086 245.639 160.905 245.425 160.676C245.211 160.448 245.047 160.178 244.944 159.882C244.685 159.018 244.552 158.12 244.548 157.218C244.482 156.204 244.41 155.106 244.338 153.954C244.194 151.638 244.08 149.538 244.014 148.02C243.984 147.258 243.96 146.646 243.954 146.22C243.944 146.005 243.956 145.79 243.99 145.578Z" fill="#38709B"/>
<path d="M245.646 147C245.646 147.042 245.508 147.144 245.496 147.396C245.488 147.463 245.495 147.531 245.516 147.595C245.536 147.659 245.571 147.718 245.616 147.768C245.673 147.817 245.743 147.848 245.818 147.858C245.892 147.868 245.968 147.855 246.036 147.822C246.108 147.798 246.171 147.753 246.218 147.693C246.265 147.634 246.293 147.561 246.3 147.486C246.297 147.419 246.281 147.354 246.252 147.294C246.223 147.235 246.182 147.181 246.132 147.138C245.946 146.97 245.76 147 245.748 146.958C245.736 146.916 245.946 146.778 246.264 146.958C246.356 147.013 246.433 147.089 246.489 147.18C246.545 147.27 246.579 147.373 246.588 147.48C246.588 147.619 246.546 147.755 246.468 147.87C246.39 147.985 246.28 148.074 246.15 148.126C246.021 148.178 245.88 148.19 245.744 148.16C245.608 148.13 245.484 148.061 245.388 147.96C245.321 147.877 245.274 147.779 245.251 147.675C245.229 147.571 245.23 147.463 245.256 147.36C245.4 147 245.646 146.958 245.646 147Z" fill="#38709B"/>
<path d="M260.784 149.538C260.387 149.812 259.93 149.987 259.452 150.048C258.298 150.282 257.099 150.151 256.023 149.671C254.947 149.191 254.048 148.387 253.452 147.372C253.178 146.973 253.003 146.514 252.942 146.034C252.99 146.034 253.158 146.538 253.638 147.234C254.256 148.167 255.127 148.906 256.149 149.362C257.171 149.819 258.302 149.976 259.41 149.814C260.268 149.712 260.766 149.49 260.784 149.538Z" fill="#38709B"/>
<path d="M234 145.578C234.083 145.963 234.062 146.362 233.94 146.736C233.726 147.671 233.223 148.514 232.503 149.146C231.782 149.778 230.88 150.168 229.926 150.258C229.538 150.33 229.139 150.297 228.768 150.162C228.768 150.108 229.212 150.162 229.896 150.042C230.786 149.899 231.618 149.507 232.296 148.913C232.974 148.319 233.471 147.546 233.73 146.682C233.958 146.016 234 145.572 234 145.578Z" fill="#38709B"/>
<path d="M224.262 99.33L209.262 103.224L211.662 85.446L211.968 84.6L217.464 83.748L216.81 79.692C216.729 79.2429 216.556 78.8155 216.302 78.4367C216.047 78.0579 215.717 77.736 215.332 77.4913C214.947 77.2466 214.515 77.0844 214.064 77.015C213.613 76.9456 213.153 76.9704 212.712 77.088L210.912 77.568C210.271 77.734 209.672 78.0337 209.155 78.4473C208.638 78.8609 208.215 79.3791 207.912 79.968C206.874 82.014 205.854 84.246 205.95 84.054L197.91 105.864C197.209 107.262 196.92 108.831 197.077 110.388C197.234 111.944 197.831 113.424 198.798 114.654C201.39 118.02 207.648 115.68 210.594 115.11L229.794 110.88L224.262 99.33Z" fill="#FFBE9D"/>
<path d="M279.6 134.118C281.198 132.281 282.073 129.926 282.065 127.491C282.056 125.056 281.163 122.708 279.552 120.882L263.508 102.684L259.212 114.684C259.506 114.882 271.704 127.962 271.704 127.962L261.222 141.03C260.423 142.021 259.889 143.199 259.669 144.453C259.45 145.707 259.553 146.997 259.968 148.2L261.768 155.508L270.444 151.62L269.844 150.72H264.084L263.742 149.34L279.6 134.118Z" fill="#FFBE9D"/>
<path d="M273.954 125.634C273.647 126.18 273.24 126.665 272.754 127.062C272.353 127.526 271.9 127.943 271.404 128.304C271.668 127.739 272.053 127.239 272.532 126.84C272.946 126.372 273.425 125.965 273.954 125.634Z" fill="#EB996E"/>
<path d="M225 148.026L259.644 145.704L259.236 128.634V116.28L263.094 121.974L273.39 111.216L261.882 100.164C259.935 98.1266 257.536 96.575 254.88 95.6339C253.471 95.1245 251.991 94.841 250.494 94.7939C247.048 95.8828 243.35 95.8828 239.904 94.7939C236.654 95.0893 233.44 95.692 230.304 96.5939L216.816 100.2L221.238 116.688L229.356 114C229.356 114 224.91 144.6 225 148.026Z" fill="#184466"/>
<path d="M263.07 121.974L265.44 121.266L264.63 120.348L263.07 121.974Z" fill="#184466"/>
<path d="M259.554 116.904C259.013 116.348 258.551 115.72 258.18 115.038C257.719 114.413 257.344 113.729 257.064 113.004C258.069 114.184 258.907 115.496 259.554 116.904Z" fill="#184466"/>
<path d="M221.274 116.868L218.592 113.34L220.242 112.974L221.274 116.868Z" fill="#184466"/>
<g opacity="0.6">
<path opacity="0.6" d="M264.468 102.882C264.468 102.882 264.426 102.936 264.336 103.02L263.916 103.386C263.343 103.821 262.718 104.184 262.056 104.466C261.002 104.908 259.874 105.148 258.732 105.174C257.213 105.233 255.703 104.905 254.346 104.22C253.528 103.855 252.822 103.279 252.3 102.552C252.01 102.147 251.882 101.648 251.94 101.154C251.991 100.893 252.116 100.652 252.302 100.461C252.487 100.271 252.724 100.138 252.984 100.08C253.246 100.015 253.518 100.011 253.782 100.066C254.046 100.121 254.294 100.234 254.508 100.398C254.939 100.725 255.268 101.168 255.456 101.676C255.854 102.722 255.831 103.881 255.39 104.91C254.948 105.989 254.17 106.896 253.17 107.496C252.141 108.117 250.991 108.509 249.798 108.648C248.567 108.839 247.308 108.735 246.126 108.342C245.517 108.128 244.955 107.8 244.47 107.376C243.992 106.934 243.587 106.42 243.27 105.852C242.622 104.742 242.178 103.554 241.41 102.618C240.647 101.701 239.554 101.122 238.368 101.004C237.223 100.876 236.066 101.085 235.038 101.604C234.046 102.098 233.163 102.786 232.44 103.626C232.088 104.004 231.829 104.459 231.685 104.955C231.541 105.451 231.516 105.974 231.612 106.482C231.708 106.966 231.985 107.395 232.386 107.682C232.775 107.943 233.249 108.046 233.712 107.97C233.928 107.923 234.131 107.825 234.303 107.686C234.474 107.546 234.611 107.368 234.702 107.166C234.886 106.76 234.97 106.315 234.948 105.87C234.908 105.014 234.725 104.17 234.408 103.374C233.803 101.822 232.764 100.478 231.414 99.502C230.065 98.5262 228.463 97.9602 226.8 97.8719C226.314 97.8419 226.056 97.8719 226.056 97.8419C226.302 97.8088 226.551 97.7947 226.8 97.7999C227.519 97.8136 228.233 97.9205 228.924 98.1179C230.017 98.43 231.036 98.9562 231.924 99.6659C233.108 100.615 234.026 101.856 234.588 103.266C234.926 104.088 235.128 104.959 235.188 105.846C235.214 106.33 235.126 106.813 234.93 107.256C234.818 107.496 234.651 107.707 234.443 107.87C234.234 108.034 233.99 108.146 233.73 108.198C233.2 108.295 232.653 108.181 232.206 107.88C231.754 107.564 231.435 107.091 231.312 106.554C231.188 106.01 231.209 105.443 231.372 104.91C231.549 104.376 231.826 103.882 232.188 103.452C232.931 102.573 233.846 101.854 234.876 101.34C235.953 100.786 237.169 100.557 238.374 100.68C239.639 100.808 240.805 101.426 241.62 102.402C242.43 103.392 242.874 104.598 243.51 105.678C243.805 106.216 244.183 106.705 244.632 107.124C245.085 107.522 245.611 107.829 246.18 108.03C247.318 108.404 248.529 108.506 249.714 108.33C250.862 108.194 251.968 107.818 252.96 107.226C253.911 106.663 254.652 105.806 255.072 104.784C255.484 103.832 255.514 102.758 255.156 101.784C254.986 101.324 254.691 100.921 254.304 100.62C254.122 100.478 253.91 100.379 253.685 100.33C253.46 100.282 253.226 100.284 253.002 100.338C252.788 100.382 252.593 100.488 252.439 100.643C252.285 100.797 252.181 100.994 252.138 101.208C252.098 101.633 252.211 102.058 252.456 102.408C252.951 103.103 253.622 103.654 254.4 104.004C255.723 104.685 257.196 105.021 258.684 104.982C259.806 104.968 260.917 104.748 261.96 104.334C262.864 103.979 263.71 103.489 264.468 102.882Z" fill="white"/>
</g>
<g opacity="0.6">
<path opacity="0.6" d="M258.96 119.88H258.792L258.318 119.838C257.892 119.838 257.274 119.742 256.476 119.706C255.507 119.654 254.535 119.71 253.578 119.874C252.317 120.084 251.139 120.641 250.176 121.482C249.637 121.976 249.225 122.594 248.976 123.282C248.836 123.644 248.786 124.034 248.83 124.42C248.873 124.806 249.01 125.175 249.228 125.496C249.463 125.823 249.801 126.062 250.188 126.174C250.384 126.229 250.589 126.242 250.79 126.211C250.991 126.18 251.182 126.106 251.352 125.994C251.71 125.756 251.985 125.412 252.138 125.01C252.294 124.592 252.333 124.14 252.252 123.702C252.061 122.772 251.631 121.908 251.004 121.194C250.368 120.427 249.587 119.793 248.706 119.328C246.845 118.323 244.675 118.049 242.622 118.56C240.575 119.086 238.729 120.207 237.318 121.782C236.609 122.477 236.087 123.339 235.8 124.29C235.682 124.737 235.729 125.212 235.932 125.628C236.144 126.021 236.502 126.314 236.928 126.444C237.346 126.583 237.796 126.597 238.222 126.485C238.648 126.373 239.032 126.14 239.328 125.814C239.587 125.486 239.771 125.106 239.87 124.7C239.968 124.294 239.978 123.872 239.898 123.462C239.773 122.676 239.403 121.95 238.842 121.386C238.32 120.856 237.711 120.42 237.042 120.096C235.047 119.014 232.711 118.741 230.52 119.334C229.735 119.597 229.017 120.027 228.414 120.594C228.55 120.425 228.703 120.27 228.87 120.132C229.344 119.729 229.889 119.42 230.478 119.22C232.701 118.567 235.092 118.811 237.138 119.898C237.828 120.23 238.457 120.676 238.998 121.218C239.597 121.816 239.995 122.586 240.138 123.42C240.228 123.867 240.221 124.328 240.118 124.772C240.014 125.216 239.816 125.633 239.538 125.994C239.209 126.362 238.781 126.625 238.304 126.753C237.828 126.881 237.325 126.868 236.856 126.714C236.603 126.643 236.366 126.522 236.16 126.358C235.954 126.194 235.783 125.991 235.656 125.76C235.424 125.283 235.367 124.739 235.494 124.224C235.793 123.223 236.337 122.314 237.078 121.578C238.529 119.957 240.426 118.801 242.532 118.254C244.661 117.727 246.91 118.014 248.838 119.058C249.756 119.545 250.571 120.205 251.238 121.002C251.893 121.762 252.341 122.677 252.54 123.66C252.621 124.15 252.573 124.652 252.402 125.118C252.22 125.572 251.904 125.959 251.496 126.228C251.293 126.357 251.066 126.442 250.828 126.478C250.59 126.513 250.347 126.497 250.116 126.432C249.674 126.3 249.288 126.026 249.018 125.652C248.777 125.297 248.627 124.888 248.58 124.461C248.533 124.035 248.591 123.603 248.748 123.204C249.015 122.477 249.458 121.828 250.038 121.314C251.037 120.455 252.257 119.893 253.56 119.694C254.53 119.542 255.515 119.503 256.494 119.58C257.298 119.634 257.916 119.718 258.336 119.772L258.81 119.844C258.861 119.852 258.911 119.864 258.96 119.88Z" fill="white"/>
</g>
<g opacity="0.6">
<path opacity="0.6" d="M259.596 139.428L259.44 139.458C259.338 139.458 259.182 139.5 258.978 139.518C258.377 139.564 257.774 139.542 257.178 139.452C256.242 139.305 255.336 139.007 254.496 138.57C253.375 137.985 252.403 137.151 251.652 136.134C251.429 135.848 251.241 135.536 251.094 135.204C251.006 135.016 250.961 134.811 250.961 134.604C250.961 134.397 251.006 134.192 251.094 134.004C251.185 133.804 251.342 133.641 251.538 133.542C251.745 133.446 251.983 133.435 252.198 133.512C252.601 133.686 252.921 134.008 253.092 134.412C253.423 135.224 253.478 136.122 253.248 136.968C253.01 137.852 252.578 138.672 251.982 139.368C250.681 140.841 248.907 141.815 246.966 142.122C244.891 142.479 242.757 142.135 240.9 141.144C240.666 141.018 240.444 140.862 240.216 140.724C239.988 140.586 239.796 140.4 239.58 140.238C239.156 139.906 238.796 139.499 238.518 139.038C238.233 138.565 238.136 138.001 238.248 137.46C238.296 137.18 238.421 136.919 238.61 136.707C238.799 136.495 239.044 136.34 239.316 136.26C239.84 136.133 240.393 136.215 240.858 136.488C241.303 136.747 241.661 137.134 241.884 137.598C242.1 138.04 242.215 138.524 242.221 139.016C242.228 139.508 242.125 139.995 241.92 140.442C241.505 141.274 240.825 141.945 239.988 142.35C239.215 142.738 238.363 142.944 237.498 142.95C235.971 142.913 234.465 142.581 233.064 141.972C231.02 141.149 229.161 139.925 227.598 138.372C227.016 137.83 226.495 137.226 226.044 136.572C226.083 136.607 226.119 136.645 226.152 136.686L226.452 137.04C226.722 137.34 227.118 137.79 227.682 138.318C229.263 139.815 231.119 140.993 233.148 141.786C234.525 142.363 235.999 142.677 237.492 142.71C238.315 142.709 239.127 142.516 239.862 142.146C240.646 141.763 241.279 141.13 241.662 140.346C241.849 139.939 241.943 139.496 241.937 139.049C241.931 138.601 241.824 138.161 241.626 137.76C241.427 137.349 241.109 137.006 240.714 136.776C240.321 136.541 239.85 136.472 239.406 136.584C239.19 136.646 238.996 136.766 238.845 136.933C238.694 137.099 238.594 137.305 238.554 137.526C238.459 137.994 238.545 138.481 238.794 138.888C239.058 139.314 239.395 139.69 239.79 139.998C239.994 140.148 240.186 140.316 240.39 140.46C240.594 140.604 240.822 140.742 241.044 140.862C242.839 141.823 244.905 142.157 246.912 141.81C248.784 141.519 250.497 140.588 251.76 139.176C252.322 138.513 252.732 137.735 252.96 136.896C253.183 136.104 253.139 135.26 252.834 134.496C252.685 134.187 252.432 133.941 252.12 133.8C251.965 133.745 251.795 133.751 251.646 133.818C251.496 133.885 251.378 134.008 251.316 134.16C251.245 134.313 251.208 134.48 251.208 134.649C251.208 134.818 251.245 134.985 251.316 135.138C251.451 135.453 251.627 135.75 251.838 136.02C252.56 137.018 253.5 137.838 254.586 138.42C255.406 138.863 256.291 139.172 257.208 139.338C257.789 139.434 258.377 139.476 258.966 139.464L259.428 139.434L259.596 139.428Z" fill="white"/>
</g>
<path opacity="0.4" d="M221.274 116.868L218.592 113.34L220.242 112.974L221.274 116.868Z" fill="#184466"/>
<path opacity="0.5" d="M263.07 121.974L265.44 121.266L264.63 120.348L263.07 121.974Z" fill="#184466"/>
</svg>
