<svg width="360" height="640" viewBox="0 0 360 640" fill="none" xmlns="http://www.w3.org/2000/svg">
<g clip-path="url(#clip0)">
<rect width="360" height="640" fill="white"/>
<g opacity="0.14" clip-path="url(#clip1)">
<path d="M40.9168 667.43H39.8135C39.8135 653.661 34.3502 640.457 24.6255 630.722C14.9008 620.986 1.71125 615.517 -12.0416 615.517C-25.7944 615.517 -38.984 620.986 -48.7087 630.722C-58.4334 640.457 -63.8967 653.661 -63.8967 667.43H-65C-65 653.368 -59.4205 639.883 -49.4888 629.941C-39.5572 619.998 -26.087 614.412 -12.0416 614.412C2.00386 614.412 15.474 619.998 25.4057 629.941C35.3373 639.883 40.9168 653.368 40.9168 667.43Z" fill="#25456C"/>
<path d="M424.865 667.43H423.762C423.762 653.661 418.299 640.457 408.574 630.722C398.849 620.986 385.66 615.517 371.907 615.517C358.154 615.517 344.965 620.986 335.24 630.722C325.515 640.457 320.052 653.661 320.052 667.43H318.948C318.948 653.369 324.528 639.883 334.46 629.941C344.391 619.998 357.861 614.412 371.907 614.412C385.952 614.412 399.423 619.998 409.354 629.941C419.286 639.883 424.865 653.369 424.865 667.43Z" fill="#25456C"/>
<path d="M295.228 540.961H294.124C294.124 488.584 251.559 445.972 199.241 445.972C146.921 445.972 104.357 488.584 104.357 540.961H103.253C103.253 487.975 146.313 444.867 199.241 444.867C252.168 444.867 295.228 487.975 295.228 540.961Z" fill="#25456C"/>
<path d="M15.265 447.629C27.2994 447.629 37.0552 437.862 37.0552 425.814C37.0552 413.767 27.2994 404 15.265 404C3.23065 404 -6.52515 413.767 -6.52515 425.814C-6.52515 437.862 3.23065 447.629 15.265 447.629Z" fill="#FF6584"/>
<path d="M19.894 575.966L57.3296 531.334H130.93L175.908 575.192L175 575.777H175.324V667.003H19.9453V575.777L19.894 575.966Z" fill="#25456C"/>
<path d="M42.4168 556.562H50.9028L50.9028 527.155H42.4168V556.562Z" fill="#25456C"/>
<path d="M56.7459 530.749L102.892 584.911V667.003H19.9453V574.607L56.7459 530.749Z" fill="#25456C"/>
<path d="M92.2279 595.66H75.2881V613H92.2279V595.66Z" fill="#25456C"/>
<path d="M92.2279 619.254H75.2881V636.594H92.2279V619.254Z" fill="#25456C"/>
<path d="M92.2279 595.66H75.2881V613H92.2279V595.66Z" fill="white"/>
<path d="M92.2279 619.254H75.2881V636.594H92.2279V619.254Z" fill="white"/>
<path d="M68.8002 595.66H51.8604V613H68.8002V595.66Z" fill="#25456C"/>
<path d="M68.8002 619.254H51.8604V636.594H68.8002V619.254Z" fill="#25456C"/>
<path d="M68.8002 595.66H51.8604V613H68.8002V595.66Z" fill="white"/>
<path d="M68.8002 619.254H51.8604V636.594H68.8002V619.254Z" fill="white"/>
<path d="M45.3724 595.66H28.4326V613H45.3724V595.66Z" fill="#25456C"/>
<path d="M45.3724 619.254H28.4326V636.594H45.3724V619.254Z" fill="#25456C"/>
<path d="M45.3724 595.66H28.4326V613H45.3724V595.66Z" fill="white"/>
<path d="M45.3724 619.254H28.4326V636.594H45.3724V619.254Z" fill="white"/>
<path d="M210.273 426.091H202.55V445.42H210.273V426.091Z" fill="#25456C"/>
<path d="M209.722 443.763H144.075V667.43H209.722V443.763Z" fill="#25456C"/>
<path d="M236.201 443.763H209.722V667.43H236.201V443.763Z" fill="#25456C"/>
<path d="M165.865 463.092H155.936V473.033H165.865V463.092Z" fill="white"/>
<path d="M181.864 463.092H171.934V473.033H181.864V463.092Z" fill="white"/>
<path d="M197.861 463.092H187.932V473.033H197.861V463.092Z" fill="white"/>
<path d="M166.141 485.735H156.212V495.676H166.141V485.735Z" fill="white"/>
<path d="M182.139 485.735H172.209V495.676H182.139V485.735Z" fill="white"/>
<path d="M198.137 485.735H188.208V495.676H198.137V485.735Z" fill="white"/>
<path d="M166.417 508.378H156.488V518.318H166.417V508.378Z" fill="white"/>
<path d="M182.415 508.378H172.485V518.318H182.415V508.378Z" fill="white"/>
<path d="M198.413 508.378H188.483V518.318H198.413V508.378Z" fill="white"/>
<path d="M166.693 531.021H156.763V540.961H166.693V531.021Z" fill="white"/>
<path d="M182.691 531.021H172.761V540.961H182.691V531.021Z" fill="white"/>
<path d="M198.689 531.021H188.759V540.961H198.689V531.021Z" fill="white"/>
<path d="M166.969 553.663H157.039V563.604H166.969V553.663Z" fill="white"/>
<path d="M182.967 553.663H173.037V563.604H182.967V553.663Z" fill="white"/>
<path d="M198.965 553.663H189.035V563.604H198.965V553.663Z" fill="white"/>
<path d="M167.245 576.306H157.315V586.247H167.245V576.306Z" fill="white"/>
<path d="M183.243 576.306H173.313V586.247H183.243V576.306Z" fill="white"/>
<path d="M199.241 576.306H189.311V586.247H199.241V576.306Z" fill="white"/>
<path d="M167.521 598.949H157.591V608.89H167.521V598.949Z" fill="white"/>
<path d="M183.518 598.949H173.589V608.89H183.518V598.949Z" fill="white"/>
<path d="M199.516 598.949H189.586V608.89H199.516V598.949Z" fill="white"/>
<path d="M167.796 621.592H157.867V631.532H167.796V621.592Z" fill="white"/>
<path d="M183.794 621.592H173.865V631.532H183.794V621.592Z" fill="white"/>
<path d="M199.792 621.592H189.862V631.532H199.792V621.592Z" fill="white"/>
<path d="M214.135 426.091H209.722V444.867H214.135V426.091Z" fill="#25456C"/>
<path d="M293.021 524.393H285.298V535.849H293.021V524.393Z" fill="#25456C"/>
<path d="M292.469 534.867H226.823V667.43H292.469V534.867Z" fill="#25456C"/>
<path d="M318.948 534.867H292.469V667.43H318.948V534.867Z" fill="#25456C"/>
<path d="M249.716 553.663H239.787V563.604H249.716V553.663Z" fill="white"/>
<path d="M265.714 553.663H255.785V563.604H265.714V553.663Z" fill="white"/>
<path d="M281.712 553.663H271.782V563.604H281.712V553.663Z" fill="white"/>
<path d="M249.992 576.306H240.062V586.247H249.992V576.306Z" fill="white"/>
<path d="M265.99 576.306H256.06V586.247H265.99V576.306Z" fill="white"/>
<path d="M281.988 576.306H272.058V586.247H281.988V576.306Z" fill="white"/>
<path d="M250.268 598.949H240.338V608.89H250.268V598.949Z" fill="white"/>
<path d="M266.266 598.949H256.336V608.89H266.266V598.949Z" fill="white"/>
<path d="M282.264 598.949H272.334V608.89H282.264V598.949Z" fill="white"/>
<path d="M250.544 621.592H240.614V631.532H250.544V621.592Z" fill="white"/>
<path d="M266.542 621.592H256.612V631.532H266.542V621.592Z" fill="white"/>
<path d="M282.54 621.592H272.61V631.532H282.54V621.592Z" fill="white"/>
<path d="M296.882 524.393H292.469V535.522H296.882V524.393Z" fill="#25456C"/>
<path d="M339.172 641.518C347.106 641.518 353.537 635.079 353.537 627.137C353.537 619.194 347.106 612.755 339.172 612.755C331.238 612.755 324.807 619.194 324.807 627.137C324.807 635.079 331.238 641.518 339.172 641.518Z" fill="#25456C"/>
<path opacity="0.2" d="M349.858 617.531C351.198 620.669 351.379 624.182 350.37 627.441C349.362 630.701 347.228 633.495 344.35 635.325C341.473 637.155 338.039 637.901 334.663 637.429C331.287 636.958 328.188 635.3 325.921 632.752C326.739 634.669 327.965 636.385 329.511 637.781C331.058 639.177 332.89 640.22 334.879 640.837C336.868 641.454 338.968 641.631 341.032 641.355C343.096 641.079 345.076 640.357 346.834 639.24C348.592 638.122 350.086 636.635 351.213 634.881C352.34 633.128 353.072 631.15 353.36 629.085C353.648 627.02 353.483 624.918 352.879 622.923C352.274 620.927 351.243 619.088 349.858 617.531Z" fill="black"/>
<path d="M339.211 627.137H339.251L339.961 667.91H338.461L339.211 627.137Z" fill="#25456C"/>
<path d="M381.406 627.776C393.47 627.776 403.25 617.985 403.25 605.907C403.25 593.829 393.47 584.038 381.406 584.038C369.341 584.038 359.561 593.829 359.561 605.907C359.561 617.985 369.341 627.776 381.406 627.776Z" fill="#25456C"/>
<path d="M269.528 424.619L274.607 420.553C270.661 420.117 269.04 422.271 268.377 423.976C265.295 422.695 261.94 424.374 261.94 424.374L272.1 428.067C271.588 426.696 270.696 425.5 269.528 424.619Z" fill="#25456C"/>
<path d="M14.6656 445.053L19.7439 440.987C15.7988 440.551 14.1778 442.705 13.5145 444.41C10.4324 443.129 7.07715 444.808 7.07715 444.808L17.2379 448.501C16.7253 447.13 15.833 445.934 14.6656 445.053Z" fill="#25456C"/>
<path d="M346.759 466.039L351.837 461.973C347.892 461.537 346.271 463.691 345.608 465.396C342.526 464.115 339.171 465.794 339.171 465.794L349.331 469.487C348.819 468.116 347.927 466.92 346.759 466.039Z" fill="#25456C"/>
<path d="M56.5912 434.008L61.6695 429.941C57.7244 429.506 56.1034 431.66 55.44 433.365C52.3579 432.083 49.0027 433.762 49.0027 433.762L59.1635 437.455C58.6509 436.085 57.7586 434.889 56.5912 434.008Z" fill="#25456C"/>
<path d="M65.9691 478.189L71.0474 474.122C67.1023 473.687 65.4813 475.841 64.8179 477.546C61.7359 476.264 58.3806 477.944 58.3806 477.944L68.5414 481.636C68.0288 480.266 67.1365 479.07 65.9691 478.189Z" fill="#25456C"/>
<path d="M263.46 501.384L268.538 497.318C264.593 496.882 262.972 499.036 262.309 500.741C259.227 499.459 255.872 501.139 255.872 501.139L266.032 504.831C265.52 503.461 264.627 502.265 263.46 501.384Z" fill="#25456C"/>
<path d="M6.16283 628.771H-2.66357V637.607H1.42801V667.381H2.53131V637.607H6.16283V628.771Z" fill="#25456C"/>
</g>
</g>
<defs>
<clipPath id="clip0">
<rect width="360" height="640" fill="white"/>
</clipPath>
<clipPath id="clip1">
<rect width="490" height="264" fill="white" transform="translate(-65 404)"/>
</clipPath>
</defs>
</svg>
