<svg width="360" height="640" viewBox="0 0 360 640" fill="none" xmlns="http://www.w3.org/2000/svg">
<rect width="360" height="640" fill="white"/>
<path d="M19.4678 602.104V606H18.1553V596.047H21.8262C22.9154 596.047 23.7676 596.325 24.3828 596.881C25.0026 597.437 25.3125 598.173 25.3125 599.089C25.3125 600.055 25.0094 600.8 24.4033 601.324C23.8018 601.844 22.9382 602.104 21.8125 602.104H19.4678ZM19.4678 601.03H21.8262C22.528 601.03 23.0658 600.866 23.4395 600.538C23.8132 600.205 24 599.727 24 599.103C24 598.51 23.8132 598.036 23.4395 597.681C23.0658 597.325 22.5531 597.141 21.9014 597.127H19.4678V601.03ZM28.1631 606H26.8984V595.5H28.1631V606ZM33.2627 606.137C32.2601 606.137 31.4443 605.809 30.8154 605.152C30.1865 604.492 29.8721 603.61 29.8721 602.507V602.274C29.8721 601.541 30.0111 600.887 30.2891 600.312C30.5716 599.734 30.9635 599.283 31.4648 598.959C31.9707 598.631 32.5176 598.467 33.1055 598.467C34.0671 598.467 34.8145 598.784 35.3477 599.417C35.8809 600.05 36.1475 600.957 36.1475 602.138V602.664H31.1367C31.1549 603.393 31.3669 603.983 31.7725 604.435C32.1826 604.881 32.7021 605.104 33.3311 605.104C33.7777 605.104 34.1559 605.013 34.4658 604.831C34.7757 604.649 35.0469 604.407 35.2793 604.106L36.0518 604.708C35.432 605.66 34.5023 606.137 33.2627 606.137ZM33.1055 599.506C32.5951 599.506 32.1667 599.693 31.8203 600.066C31.474 600.436 31.2598 600.955 31.1777 601.625H34.8828V601.529C34.8464 600.887 34.6732 600.39 34.3633 600.039C34.0534 599.684 33.6341 599.506 33.1055 599.506ZM42.1836 606C42.1107 605.854 42.0514 605.594 42.0059 605.221C41.418 605.831 40.7161 606.137 39.9004 606.137C39.1712 606.137 38.5719 605.932 38.1025 605.521C37.6377 605.107 37.4053 604.583 37.4053 603.949C37.4053 603.179 37.6969 602.582 38.2803 602.158C38.8682 601.73 39.693 601.516 40.7549 601.516H41.9854V600.935C41.9854 600.493 41.8532 600.142 41.5889 599.882C41.3245 599.618 40.9349 599.485 40.4199 599.485C39.9688 599.485 39.5905 599.599 39.2852 599.827C38.9798 600.055 38.8271 600.331 38.8271 600.654H37.5557C37.5557 600.285 37.6855 599.93 37.9453 599.588C38.2096 599.242 38.5651 598.968 39.0117 598.768C39.4629 598.567 39.9574 598.467 40.4951 598.467C41.3473 598.467 42.015 598.681 42.498 599.109C42.9811 599.533 43.2318 600.119 43.25 600.866V604.271C43.25 604.95 43.3366 605.49 43.5098 605.891V606H42.1836ZM40.085 605.036C40.4814 605.036 40.8574 604.934 41.2129 604.729C41.5684 604.523 41.8258 604.257 41.9854 603.929V602.411H40.9941C39.4447 602.411 38.6699 602.865 38.6699 603.771C38.6699 604.168 38.8021 604.478 39.0664 604.701C39.3307 604.924 39.6702 605.036 40.085 605.036ZM49.5391 604.038C49.5391 603.696 49.4092 603.432 49.1494 603.245C48.8942 603.054 48.4453 602.89 47.8027 602.753C47.1647 602.616 46.6566 602.452 46.2783 602.261C45.9046 602.069 45.6266 601.841 45.4443 601.577C45.2666 601.313 45.1777 600.998 45.1777 600.634C45.1777 600.028 45.4329 599.515 45.9434 599.096C46.4583 598.676 47.1146 598.467 47.9121 598.467C48.7507 598.467 49.4297 598.683 49.9492 599.116C50.4733 599.549 50.7354 600.103 50.7354 600.777H49.4639C49.4639 600.431 49.3158 600.132 49.0195 599.882C48.7279 599.631 48.3587 599.506 47.9121 599.506C47.4518 599.506 47.0918 599.606 46.832 599.807C46.5723 600.007 46.4424 600.269 46.4424 600.593C46.4424 600.898 46.5632 601.128 46.8047 601.283C47.0462 601.438 47.4814 601.586 48.1104 601.728C48.7438 601.869 49.2565 602.037 49.6484 602.233C50.0404 602.429 50.3298 602.666 50.5166 602.944C50.708 603.218 50.8037 603.553 50.8037 603.949C50.8037 604.61 50.5394 605.141 50.0107 605.542C49.4821 605.938 48.7962 606.137 47.9531 606.137C47.3607 606.137 46.8366 606.032 46.3809 605.822C45.9251 605.613 45.5674 605.321 45.3076 604.947C45.0524 604.569 44.9248 604.161 44.9248 603.724H46.1895C46.2122 604.147 46.3809 604.485 46.6953 604.735C47.0143 604.981 47.4336 605.104 47.9531 605.104C48.4316 605.104 48.8145 605.009 49.1016 604.817C49.3932 604.621 49.5391 604.362 49.5391 604.038ZM55.5205 606.137C54.5179 606.137 53.7021 605.809 53.0732 605.152C52.4443 604.492 52.1299 603.61 52.1299 602.507V602.274C52.1299 601.541 52.2689 600.887 52.5469 600.312C52.8294 599.734 53.2214 599.283 53.7227 598.959C54.2285 598.631 54.7754 598.467 55.3633 598.467C56.3249 598.467 57.0723 598.784 57.6055 599.417C58.1387 600.05 58.4053 600.957 58.4053 602.138V602.664H53.3945C53.4128 603.393 53.6247 603.983 54.0303 604.435C54.4404 604.881 54.96 605.104 55.5889 605.104C56.0355 605.104 56.4137 605.013 56.7236 604.831C57.0335 604.649 57.3047 604.407 57.5371 604.106L58.3096 604.708C57.6898 605.66 56.7601 606.137 55.5205 606.137ZM55.3633 599.506C54.8529 599.506 54.4245 599.693 54.0781 600.066C53.7318 600.436 53.5176 600.955 53.4355 601.625H57.1406V601.529C57.1042 600.887 56.931 600.39 56.6211 600.039C56.3112 599.684 55.8919 599.506 55.3633 599.506ZM69.8965 604.257L71.3184 598.604H72.583L70.4297 606H69.4043L67.6064 600.395L65.8564 606H64.8311L62.6846 598.604H63.9424L65.3984 604.141L67.1211 598.604H68.1396L69.8965 604.257ZM78.4414 606C78.3685 605.854 78.3092 605.594 78.2637 605.221C77.6758 605.831 76.974 606.137 76.1582 606.137C75.429 606.137 74.8298 605.932 74.3604 605.521C73.8955 605.107 73.6631 604.583 73.6631 603.949C73.6631 603.179 73.9548 602.582 74.5381 602.158C75.126 601.73 75.9508 601.516 77.0127 601.516H78.2432V600.935C78.2432 600.493 78.111 600.142 77.8467 599.882C77.5824 599.618 77.1927 599.485 76.6777 599.485C76.2266 599.485 75.8483 599.599 75.543 599.827C75.2376 600.055 75.085 600.331 75.085 600.654H73.8135C73.8135 600.285 73.9434 599.93 74.2031 599.588C74.4674 599.242 74.8229 598.968 75.2695 598.768C75.7207 598.567 76.2152 598.467 76.7529 598.467C77.6051 598.467 78.2728 598.681 78.7559 599.109C79.2389 599.533 79.4896 600.119 79.5078 600.866V604.271C79.5078 604.95 79.5944 605.49 79.7676 605.891V606H78.4414ZM76.3428 605.036C76.7393 605.036 77.1152 604.934 77.4707 604.729C77.8262 604.523 78.0837 604.257 78.2432 603.929V602.411H77.252C75.7025 602.411 74.9277 602.865 74.9277 603.771C74.9277 604.168 75.0599 604.478 75.3242 604.701C75.5885 604.924 75.9281 605.036 76.3428 605.036ZM82.8643 606H81.5996V598.604H82.8643V606ZM81.4971 596.642C81.4971 596.437 81.5586 596.263 81.6816 596.122C81.8092 595.981 81.9961 595.91 82.2422 595.91C82.4883 595.91 82.6751 595.981 82.8027 596.122C82.9303 596.263 82.9941 596.437 82.9941 596.642C82.9941 596.847 82.9303 597.018 82.8027 597.154C82.6751 597.291 82.4883 597.359 82.2422 597.359C81.9961 597.359 81.8092 597.291 81.6816 597.154C81.5586 597.018 81.4971 596.847 81.4971 596.642ZM86.6104 596.812V598.604H87.9912V599.581H86.6104V604.168C86.6104 604.464 86.6719 604.688 86.7949 604.838C86.918 604.984 87.1276 605.057 87.4238 605.057C87.5697 605.057 87.7702 605.029 88.0254 604.975V606C87.6927 606.091 87.3691 606.137 87.0547 606.137C86.4896 606.137 86.0635 605.966 85.7764 605.624C85.4893 605.282 85.3457 604.797 85.3457 604.168V599.581H83.999V598.604H85.3457V596.812H86.6104ZM99.4961 604.257L100.918 598.604H102.183L100.029 606H99.0039L97.2061 600.395L95.4561 606H94.4307L92.2842 598.604H93.542L94.998 604.141L96.7207 598.604H97.7393L99.4961 604.257ZM104.739 599.499C105.3 598.811 106.029 598.467 106.927 598.467C108.49 598.467 109.278 599.349 109.292 601.112V606H108.027V601.105C108.023 600.572 107.9 600.178 107.658 599.923C107.421 599.668 107.05 599.54 106.544 599.54C106.134 599.54 105.774 599.649 105.464 599.868C105.154 600.087 104.912 600.374 104.739 600.729V606H103.475V595.5H104.739V599.499ZM112.56 606H111.295V598.604H112.56V606ZM111.192 596.642C111.192 596.437 111.254 596.263 111.377 596.122C111.505 595.981 111.691 595.91 111.938 595.91C112.184 595.91 112.37 595.981 112.498 596.122C112.626 596.263 112.689 596.437 112.689 596.642C112.689 596.847 112.626 597.018 112.498 597.154C112.37 597.291 112.184 597.359 111.938 597.359C111.691 597.359 111.505 597.291 111.377 597.154C111.254 597.018 111.192 596.847 111.192 596.642ZM115.964 606H114.699V595.5H115.964V606ZM121.063 606.137C120.061 606.137 119.245 605.809 118.616 605.152C117.987 604.492 117.673 603.61 117.673 602.507V602.274C117.673 601.541 117.812 600.887 118.09 600.312C118.372 599.734 118.764 599.283 119.266 598.959C119.771 598.631 120.318 598.467 120.906 598.467C121.868 598.467 122.615 598.784 123.148 599.417C123.682 600.05 123.948 600.957 123.948 602.138V602.664H118.938C118.956 603.393 119.168 603.983 119.573 604.435C119.983 604.881 120.503 605.104 121.132 605.104C121.578 605.104 121.957 605.013 122.267 604.831C122.576 604.649 122.848 604.407 123.08 604.106L123.853 604.708C123.233 605.66 122.303 606.137 121.063 606.137ZM120.906 599.506C120.396 599.506 119.967 599.693 119.621 600.066C119.275 600.436 119.061 600.955 118.979 601.625H122.684V601.529C122.647 600.887 122.474 600.39 122.164 600.039C121.854 599.684 121.435 599.506 120.906 599.506ZM135.439 604.257L136.861 598.604H138.126L135.973 606H134.947L133.149 600.395L131.399 606H130.374L128.228 598.604H129.485L130.941 604.141L132.664 598.604H133.683L135.439 604.257ZM142.487 606.137C141.485 606.137 140.669 605.809 140.04 605.152C139.411 604.492 139.097 603.61 139.097 602.507V602.274C139.097 601.541 139.236 600.887 139.514 600.312C139.796 599.734 140.188 599.283 140.689 598.959C141.195 598.631 141.742 598.467 142.33 598.467C143.292 598.467 144.039 598.784 144.572 599.417C145.105 600.05 145.372 600.957 145.372 602.138V602.664H140.361C140.38 603.393 140.591 603.983 140.997 604.435C141.407 604.881 141.927 605.104 142.556 605.104C143.002 605.104 143.381 605.013 143.69 604.831C144 604.649 144.271 604.407 144.504 604.106L145.276 604.708C144.657 605.66 143.727 606.137 142.487 606.137ZM142.33 599.506C141.82 599.506 141.391 599.693 141.045 600.066C140.699 600.436 140.484 600.955 140.402 601.625H144.107V601.529C144.071 600.887 143.898 600.39 143.588 600.039C143.278 599.684 142.859 599.506 142.33 599.506ZM154.881 606C154.808 605.854 154.749 605.594 154.703 605.221C154.115 605.831 153.413 606.137 152.598 606.137C151.868 606.137 151.269 605.932 150.8 605.521C150.335 605.107 150.103 604.583 150.103 603.949C150.103 603.179 150.394 602.582 150.978 602.158C151.565 601.73 152.39 601.516 153.452 601.516H154.683V600.935C154.683 600.493 154.55 600.142 154.286 599.882C154.022 599.618 153.632 599.485 153.117 599.485C152.666 599.485 152.288 599.599 151.982 599.827C151.677 600.055 151.524 600.331 151.524 600.654H150.253C150.253 600.285 150.383 599.93 150.643 599.588C150.907 599.242 151.262 598.968 151.709 598.768C152.16 598.567 152.655 598.467 153.192 598.467C154.045 598.467 154.712 598.681 155.195 599.109C155.678 599.533 155.929 600.119 155.947 600.866V604.271C155.947 604.95 156.034 605.49 156.207 605.891V606H154.881ZM152.782 605.036C153.179 605.036 153.555 604.934 153.91 604.729C154.266 604.523 154.523 604.257 154.683 603.929V602.411H153.691C152.142 602.411 151.367 602.865 151.367 603.771C151.367 604.168 151.499 604.478 151.764 604.701C152.028 604.924 152.368 605.036 152.782 605.036ZM157.622 602.24C157.622 601.105 157.891 600.194 158.429 599.506C158.966 598.813 159.671 598.467 160.541 598.467C161.407 598.467 162.093 598.763 162.599 599.355V595.5H163.863V606H162.701L162.64 605.207C162.134 605.827 161.43 606.137 160.527 606.137C159.671 606.137 158.971 605.786 158.429 605.084C157.891 604.382 157.622 603.466 157.622 602.336V602.24ZM158.887 602.384C158.887 603.222 159.06 603.879 159.406 604.353C159.753 604.826 160.231 605.063 160.842 605.063C161.644 605.063 162.229 604.703 162.599 603.983V600.586C162.22 599.889 161.639 599.54 160.855 599.54C160.236 599.54 159.753 599.779 159.406 600.258C159.06 600.736 158.887 601.445 158.887 602.384ZM165.524 602.24C165.524 601.105 165.793 600.194 166.331 599.506C166.869 598.813 167.573 598.467 168.443 598.467C169.309 598.467 169.995 598.763 170.501 599.355V595.5H171.766V606H170.604L170.542 605.207C170.036 605.827 169.332 606.137 168.43 606.137C167.573 606.137 166.873 605.786 166.331 605.084C165.793 604.382 165.524 603.466 165.524 602.336V602.24ZM166.789 602.384C166.789 603.222 166.962 603.879 167.309 604.353C167.655 604.826 168.133 605.063 168.744 605.063C169.546 605.063 170.132 604.703 170.501 603.983V600.586C170.123 599.889 169.542 599.54 168.758 599.54C168.138 599.54 167.655 599.779 167.309 600.258C166.962 600.736 166.789 601.445 166.789 602.384ZM179.627 604.147L181.35 598.604H182.703L179.729 607.142C179.269 608.372 178.538 608.987 177.535 608.987L177.296 608.967L176.824 608.878V607.853L177.166 607.88C177.594 607.88 177.927 607.793 178.164 607.62C178.406 607.447 178.604 607.13 178.759 606.67L179.039 605.918L176.4 598.604H177.781L179.627 604.147ZM183.394 602.233C183.394 601.509 183.535 600.857 183.817 600.278C184.104 599.7 184.501 599.253 185.007 598.938C185.517 598.624 186.098 598.467 186.75 598.467C187.757 598.467 188.571 598.815 189.19 599.513C189.815 600.21 190.127 601.137 190.127 602.295V602.384C190.127 603.104 189.988 603.751 189.71 604.325C189.437 604.895 189.042 605.339 188.527 605.658C188.017 605.977 187.429 606.137 186.764 606.137C185.761 606.137 184.948 605.788 184.323 605.091C183.703 604.394 183.394 603.471 183.394 602.322V602.233ZM184.665 602.384C184.665 603.204 184.854 603.863 185.232 604.359C185.615 604.856 186.126 605.104 186.764 605.104C187.406 605.104 187.917 604.854 188.295 604.353C188.673 603.847 188.862 603.14 188.862 602.233C188.862 601.422 188.669 600.766 188.281 600.265C187.898 599.759 187.388 599.506 186.75 599.506C186.126 599.506 185.622 599.754 185.239 600.251C184.856 600.748 184.665 601.459 184.665 602.384ZM196.279 605.269C195.787 605.847 195.065 606.137 194.112 606.137C193.324 606.137 192.722 605.909 192.308 605.453C191.897 604.993 191.69 604.314 191.686 603.416V598.604H192.95V603.382C192.95 604.503 193.406 605.063 194.317 605.063C195.284 605.063 195.926 604.703 196.245 603.983V598.604H197.51V606H196.307L196.279 605.269ZM204.626 596.812V598.604H206.007V599.581H204.626V604.168C204.626 604.464 204.688 604.688 204.811 604.838C204.934 604.984 205.143 605.057 205.439 605.057C205.585 605.057 205.786 605.029 206.041 604.975V606C205.708 606.091 205.385 606.137 205.07 606.137C204.505 606.137 204.079 605.966 203.792 605.624C203.505 605.282 203.361 604.797 203.361 604.168V599.581H202.015V598.604H203.361V596.812H204.626ZM207.019 602.233C207.019 601.509 207.16 600.857 207.442 600.278C207.729 599.7 208.126 599.253 208.632 598.938C209.142 598.624 209.723 598.467 210.375 598.467C211.382 598.467 212.196 598.815 212.815 599.513C213.44 600.21 213.752 601.137 213.752 602.295V602.384C213.752 603.104 213.613 603.751 213.335 604.325C213.062 604.895 212.667 605.339 212.152 605.658C211.642 605.977 211.054 606.137 210.389 606.137C209.386 606.137 208.573 605.788 207.948 605.091C207.328 604.394 207.019 603.471 207.019 602.322V602.233ZM208.29 602.384C208.29 603.204 208.479 603.863 208.857 604.359C209.24 604.856 209.751 605.104 210.389 605.104C211.031 605.104 211.542 604.854 211.92 604.353C212.298 603.847 212.487 603.14 212.487 602.233C212.487 601.422 212.294 600.766 211.906 600.265C211.523 599.759 211.013 599.506 210.375 599.506C209.751 599.506 209.247 599.754 208.864 600.251C208.481 600.748 208.29 601.459 208.29 602.384ZM221.23 604.147L222.953 598.604H224.307L221.333 607.142C220.873 608.372 220.141 608.987 219.139 608.987L218.899 608.967L218.428 608.878V607.853L218.77 607.88C219.198 607.88 219.531 607.793 219.768 607.62C220.009 607.447 220.207 607.13 220.362 606.67L220.643 605.918L218.004 598.604H219.385L221.23 604.147ZM224.997 602.233C224.997 601.509 225.138 600.857 225.421 600.278C225.708 599.7 226.104 599.253 226.61 598.938C227.121 598.624 227.702 598.467 228.354 598.467C229.361 598.467 230.174 598.815 230.794 599.513C231.418 600.21 231.73 601.137 231.73 602.295V602.384C231.73 603.104 231.591 603.751 231.313 604.325C231.04 604.895 230.646 605.339 230.131 605.658C229.62 605.977 229.033 606.137 228.367 606.137C227.365 606.137 226.551 605.788 225.927 605.091C225.307 604.394 224.997 603.471 224.997 602.322V602.233ZM226.269 602.384C226.269 603.204 226.458 603.863 226.836 604.359C227.219 604.856 227.729 605.104 228.367 605.104C229.01 605.104 229.52 604.854 229.898 604.353C230.277 603.847 230.466 603.14 230.466 602.233C230.466 601.422 230.272 600.766 229.885 600.265C229.502 599.759 228.992 599.506 228.354 599.506C227.729 599.506 227.226 599.754 226.843 600.251C226.46 600.748 226.269 601.459 226.269 602.384ZM237.883 605.269C237.391 605.847 236.668 606.137 235.716 606.137C234.927 606.137 234.326 605.909 233.911 605.453C233.501 604.993 233.294 604.314 233.289 603.416V598.604H234.554V603.382C234.554 604.503 235.009 605.063 235.921 605.063C236.887 605.063 237.53 604.703 237.849 603.983V598.604H239.113V606H237.91L237.883 605.269ZM244.616 599.738C244.425 599.706 244.217 599.69 243.994 599.69C243.165 599.69 242.602 600.044 242.306 600.75V606H241.041V598.604H242.271L242.292 599.458C242.707 598.797 243.295 598.467 244.056 598.467C244.302 598.467 244.489 598.499 244.616 598.562V599.738ZM252.225 605.104C252.676 605.104 253.07 604.968 253.407 604.694C253.744 604.421 253.931 604.079 253.968 603.669H255.164C255.141 604.093 254.995 604.496 254.727 604.879C254.458 605.262 254.098 605.567 253.646 605.795C253.2 606.023 252.726 606.137 252.225 606.137C251.217 606.137 250.415 605.802 249.818 605.132C249.226 604.457 248.93 603.537 248.93 602.37V602.158C248.93 601.438 249.062 600.798 249.326 600.237C249.59 599.677 249.969 599.242 250.461 598.932C250.958 598.622 251.543 598.467 252.218 598.467C253.047 598.467 253.735 598.715 254.282 599.212C254.834 599.709 255.128 600.354 255.164 601.146H253.968C253.931 600.668 253.749 600.276 253.421 599.971C253.097 599.661 252.696 599.506 252.218 599.506C251.575 599.506 251.076 599.738 250.721 600.203C250.37 600.663 250.194 601.331 250.194 602.206V602.445C250.194 603.298 250.37 603.954 250.721 604.414C251.072 604.874 251.573 605.104 252.225 605.104ZM256.251 602.233C256.251 601.509 256.392 600.857 256.675 600.278C256.962 599.7 257.358 599.253 257.864 598.938C258.375 598.624 258.956 598.467 259.607 598.467C260.615 598.467 261.428 598.815 262.048 599.513C262.672 600.21 262.984 601.137 262.984 602.295V602.384C262.984 603.104 262.845 603.751 262.567 604.325C262.294 604.895 261.9 605.339 261.385 605.658C260.874 605.977 260.286 606.137 259.621 606.137C258.618 606.137 257.805 605.788 257.181 605.091C256.561 604.394 256.251 603.471 256.251 602.322V602.233ZM257.522 602.384C257.522 603.204 257.712 603.863 258.09 604.359C258.473 604.856 258.983 605.104 259.621 605.104C260.264 605.104 260.774 604.854 261.152 604.353C261.531 603.847 261.72 603.14 261.72 602.233C261.72 601.422 261.526 600.766 261.139 600.265C260.756 599.759 260.245 599.506 259.607 599.506C258.983 599.506 258.479 599.754 258.097 600.251C257.714 600.748 257.522 601.459 257.522 602.384ZM265.76 598.604L265.794 599.424C266.336 598.786 267.068 598.467 267.988 598.467C269.023 598.467 269.727 598.863 270.101 599.656C270.347 599.301 270.666 599.014 271.058 598.795C271.454 598.576 271.921 598.467 272.459 598.467C274.081 598.467 274.906 599.326 274.934 601.044V606H273.669V601.119C273.669 600.59 273.548 600.196 273.307 599.937C273.065 599.672 272.66 599.54 272.09 599.54C271.62 599.54 271.231 599.681 270.921 599.964C270.611 600.242 270.431 600.618 270.381 601.092V606H269.109V601.153C269.109 600.078 268.583 599.54 267.53 599.54C266.701 599.54 266.133 599.893 265.828 600.6V606H264.563V598.604H265.76ZM283.096 602.384C283.096 603.509 282.838 604.416 282.323 605.104C281.808 605.793 281.111 606.137 280.231 606.137C279.334 606.137 278.627 605.852 278.112 605.282V608.844H276.848V598.604H278.003L278.064 599.424C278.579 598.786 279.295 598.467 280.211 598.467C281.1 598.467 281.801 598.802 282.316 599.472C282.836 600.142 283.096 601.074 283.096 602.268V602.384ZM281.831 602.24C281.831 601.406 281.653 600.748 281.298 600.265C280.942 599.782 280.455 599.54 279.835 599.54C279.069 599.54 278.495 599.88 278.112 600.559V604.093C278.491 604.767 279.069 605.104 279.849 605.104C280.455 605.104 280.936 604.865 281.291 604.387C281.651 603.904 281.831 603.188 281.831 602.24ZM289.275 606C289.202 605.854 289.143 605.594 289.098 605.221C288.51 605.831 287.808 606.137 286.992 606.137C286.263 606.137 285.664 605.932 285.194 605.521C284.729 605.107 284.497 604.583 284.497 603.949C284.497 603.179 284.789 602.582 285.372 602.158C285.96 601.73 286.785 601.516 287.847 601.516H289.077V600.935C289.077 600.493 288.945 600.142 288.681 599.882C288.416 599.618 288.027 599.485 287.512 599.485C287.061 599.485 286.682 599.599 286.377 599.827C286.072 600.055 285.919 600.331 285.919 600.654H284.647C284.647 600.285 284.777 599.93 285.037 599.588C285.301 599.242 285.657 598.968 286.104 598.768C286.555 598.567 287.049 598.467 287.587 598.467C288.439 598.467 289.107 598.681 289.59 599.109C290.073 599.533 290.324 600.119 290.342 600.866V604.271C290.342 604.95 290.428 605.49 290.602 605.891V606H289.275ZM287.177 605.036C287.573 605.036 287.949 604.934 288.305 604.729C288.66 604.523 288.918 604.257 289.077 603.929V602.411H288.086C286.536 602.411 285.762 602.865 285.762 603.771C285.762 604.168 285.894 604.478 286.158 604.701C286.423 604.924 286.762 605.036 287.177 605.036ZM293.521 598.604L293.562 599.533C294.127 598.822 294.865 598.467 295.776 598.467C297.34 598.467 298.128 599.349 298.142 601.112V606H296.877V601.105C296.872 600.572 296.749 600.178 296.508 599.923C296.271 599.668 295.899 599.54 295.394 599.54C294.983 599.54 294.623 599.649 294.313 599.868C294.004 600.087 293.762 600.374 293.589 600.729V606H292.324V598.604H293.521ZM302.469 604.147L304.191 598.604H305.545L302.571 607.142C302.111 608.372 301.38 608.987 300.377 608.987L300.138 608.967L299.666 608.878V607.853L300.008 607.88C300.436 607.88 300.769 607.793 301.006 607.62C301.247 607.447 301.446 607.13 301.601 606.67L301.881 605.918L299.242 598.604H300.623L302.469 604.147ZM309.817 602.233C309.817 601.509 309.959 600.857 310.241 600.278C310.528 599.7 310.925 599.253 311.431 598.938C311.941 598.624 312.522 598.467 313.174 598.467C314.181 598.467 314.994 598.815 315.614 599.513C316.239 600.21 316.551 601.137 316.551 602.295V602.384C316.551 603.104 316.412 603.751 316.134 604.325C315.86 604.895 315.466 605.339 314.951 605.658C314.441 605.977 313.853 606.137 313.188 606.137C312.185 606.137 311.371 605.788 310.747 605.091C310.127 604.394 309.817 603.471 309.817 602.322V602.233ZM311.089 602.384C311.089 603.204 311.278 603.863 311.656 604.359C312.039 604.856 312.549 605.104 313.188 605.104C313.83 605.104 314.34 604.854 314.719 604.353C315.097 603.847 315.286 603.14 315.286 602.233C315.286 601.422 315.092 600.766 314.705 600.265C314.322 599.759 313.812 599.506 313.174 599.506C312.549 599.506 312.046 599.754 311.663 600.251C311.28 600.748 311.089 601.459 311.089 602.384ZM318.759 606V599.581H317.59V598.604H318.759V597.845C318.759 597.052 318.971 596.439 319.395 596.006C319.818 595.573 320.418 595.356 321.192 595.356C321.484 595.356 321.773 595.395 322.061 595.473L321.992 596.498C321.778 596.457 321.55 596.437 321.309 596.437C320.898 596.437 320.582 596.557 320.358 596.799C320.135 597.036 320.023 597.378 320.023 597.824V598.604H322.758V597.975C322.758 597.15 322.993 596.507 323.462 596.047C323.936 595.587 324.604 595.356 325.465 595.356C325.975 595.356 326.62 595.495 327.399 595.773L327.188 596.84C326.618 596.612 326.073 596.498 325.554 596.498C325.011 596.498 324.619 596.619 324.378 596.86C324.141 597.102 324.022 597.469 324.022 597.961V598.604H325.54V599.581H324.022V606H322.758V599.581H320.023V606H318.759ZM328.021 606H326.757V598.604H328.021V606ZM333.053 605.104C333.504 605.104 333.898 604.968 334.235 604.694C334.573 604.421 334.759 604.079 334.796 603.669H335.992C335.969 604.093 335.824 604.496 335.555 604.879C335.286 605.262 334.926 605.567 334.475 605.795C334.028 606.023 333.554 606.137 333.053 606.137C332.046 606.137 331.243 605.802 330.646 605.132C330.054 604.457 329.758 603.537 329.758 602.37V602.158C329.758 601.438 329.89 600.798 330.154 600.237C330.419 599.677 330.797 599.242 331.289 598.932C331.786 598.622 332.371 598.467 333.046 598.467C333.875 598.467 334.563 598.715 335.11 599.212C335.662 599.709 335.956 600.354 335.992 601.146H334.796C334.759 600.668 334.577 600.276 334.249 599.971C333.925 599.661 333.524 599.506 333.046 599.506C332.403 599.506 331.904 599.738 331.549 600.203C331.198 600.663 331.022 601.331 331.022 602.206V602.445C331.022 603.298 331.198 603.954 331.549 604.414C331.9 604.874 332.401 605.104 333.053 605.104ZM340.483 606.137C339.481 606.137 338.665 605.809 338.036 605.152C337.407 604.492 337.093 603.61 337.093 602.507V602.274C337.093 601.541 337.232 600.887 337.51 600.312C337.792 599.734 338.184 599.283 338.686 598.959C339.191 598.631 339.738 598.467 340.326 598.467C341.288 598.467 342.035 598.784 342.568 599.417C343.102 600.05 343.368 600.957 343.368 602.138V602.664H338.357C338.376 603.393 338.588 603.983 338.993 604.435C339.403 604.881 339.923 605.104 340.552 605.104C340.998 605.104 341.377 605.013 341.687 604.831C341.996 604.649 342.268 604.407 342.5 604.106L343.272 604.708C342.653 605.66 341.723 606.137 340.483 606.137ZM340.326 599.506C339.816 599.506 339.387 599.693 339.041 600.066C338.695 600.436 338.48 600.955 338.398 601.625H342.104V601.529C342.067 600.887 341.894 600.39 341.584 600.039C341.274 599.684 340.855 599.506 340.326 599.506Z" fill="#4F4F4F"/>
<circle cx="180" cy="177" r="165" fill="#F2F2F2"/>
<path d="M291.944 260.154H273.396V260.294H291.944V260.154Z" fill="#EBEBEB"/>
<path d="M225.483 261.677H220.617V261.817H225.483V261.677Z" fill="#EBEBEB"/>
<path d="M272.837 254.958H262.09V255.098H272.837V254.958Z" fill="#EBEBEB"/>
<path d="M93.5639 255.898H69.3774V256.038H93.5639V255.898Z" fill="#EBEBEB"/>
<path d="M102.098 255.898H98.5532V256.038H102.098V255.898Z" fill="#EBEBEB"/>
<path d="M241.897 178.646H241.611L241.404 178.456L239.724 180.024C240.036 180.008 240.347 179.971 240.653 179.912L241.353 179.273V179.704C241.549 179.638 241.737 179.55 241.913 179.441L241.897 178.646ZM236.711 178.68V179.307C236.882 179.443 237.07 179.556 237.271 179.643V178.68H236.711Z" fill="#EBEBEB"/>
<path d="M267.718 187.259H263.003L262.998 183.014H267.713L267.718 187.259Z" fill="#FAFAFA"/>
<path d="M267.656 195.004H263.053L263.042 190.86H267.651L267.656 195.004Z" fill="#F0F0F0"/>
<path d="M267.617 202.552H263.121L263.109 198.509H267.612L267.617 202.552Z" fill="#F0F0F0"/>
<path d="M267.606 209.928H263.21L263.199 205.98H267.601L267.606 209.928Z" fill="#FAFAFA"/>
<path d="M285.633 209.928H281.237L281.242 205.98H285.638L285.633 209.928Z" fill="#F0F0F0"/>
<path d="M294.643 209.928H290.247L290.258 205.98H294.654L294.643 209.928Z" fill="#FAFAFA"/>
<path d="M276.796 218.216H271.902L271.896 213.82H276.802L276.796 218.216Z" fill="#FAFAFA"/>
<path d="M267.83 225.216H263.042L263.031 220.926H267.825L267.83 225.216Z" fill="#F0F0F0"/>
<path d="M252.106 211.042H257.75L257.734 205.98H252.089L252.106 211.042Z" fill="#E6E6E6"/>
<path d="M218.321 211.042H223.965L223.921 205.98H218.276L218.321 211.042Z" fill="#E6E6E6"/>
<path d="M251.893 220.926H257.974L257.957 215.478H251.87L251.893 220.926Z" fill="#E6E6E6"/>
<path d="M218.17 220.926H224.251L224.206 215.478H218.119L218.17 220.926Z" fill="#E6E6E6"/>
<path d="M218.36 229.965H224.262L224.223 224.684H218.315L218.36 229.965Z" fill="#E6E6E6"/>
<path d="M218.534 239.244H224.262L224.218 234.125H218.489L218.534 239.244Z" fill="#E6E6E6"/>
<path d="M87.9639 146.032H85.6567V148.339H87.9639V146.032Z" fill="#FAFAFA"/>
<path d="M90.8814 146.032H88.5742V148.339H90.8814V146.032Z" fill="#FAFAFA"/>
<path d="M72.6255 183.014L72.7431 190.753L72.7711 192.876L72.8047 195.004H77.5255L77.4975 192.876L77.4695 190.753L77.3631 183.014H72.6255Z" fill="#E6E6E6"/>
<path d="M81.6748 183.014L81.7812 190.753L81.8092 192.876L81.8372 195.004H86.558L86.5356 192.876L86.5076 190.753L86.4124 183.014H81.6748Z" fill="#E6E6E6"/>
<path d="M90.7305 183.014L90.8201 190.753L90.8593 194.035L90.8705 195.004H95.5969L95.5857 194.035L95.5465 190.753L95.4625 183.014H90.7305Z" fill="#E6E6E6"/>
<path d="M90.9375 198.509L91.0327 206.243L91.0551 208.365L91.0831 210.488H95.8095L95.7871 208.365L95.7647 206.243L95.6807 198.509H90.9375Z" fill="#E6E6E6"/>
<path d="M91.1392 213.82L91.2288 221.52L91.2624 224.443L91.2792 225.748H96L95.9888 224.443L95.9552 221.52L95.8712 213.82H91.1392Z" fill="#E6E6E6"/>
<path d="M85.3264 244.771H80.2863L80.1855 237.211H85.2311L85.3264 244.771Z" fill="#E6E6E6"/>
<path d="M110.823 244.771H115.527L115.46 237.721H110.75L110.823 244.771Z" fill="#E0E0E0"/>
<path d="M99.9702 187.259H113.024L113.13 198.51H100.105L99.9702 187.259Z" fill="#F0F0F0"/>
<path d="M180 276.126C239.966 276.126 288.578 273.288 288.578 269.786C288.578 266.285 239.966 263.447 180 263.447C120.034 263.447 71.4214 266.285 71.4214 269.786C71.4214 273.288 120.034 276.126 180 276.126Z" fill="#F5F5F5"/>
<path d="M130.065 84.3872L132.154 87.0864H227.835L229.941 84.3872H130.065Z" fill="#184466"/>
<g opacity="0.4">
<path opacity="0.4" d="M130.065 84.3872L132.154 87.0864H227.835L229.941 84.3872H130.065Z" fill="black"/>
</g>
<path d="M227.857 80.9097H131.958V250.914H227.857V80.9097Z" fill="#184466"/>
<g opacity="0.4">
<path opacity="0.4" d="M227.857 80.9097H131.958V250.914H227.857V80.9097Z" fill="white"/>
</g>
<g opacity="0.8">
<path opacity="0.8" d="M135.844 85.0931C135.881 85.3401 135.865 85.5922 135.796 85.8322C135.727 86.0722 135.607 86.2946 135.444 86.4842C135.282 86.6738 135.08 86.8263 134.854 86.9312C134.627 87.0361 134.38 87.0911 134.131 87.0923C133.594 87.0712 133.082 86.8577 132.689 86.4906C132.297 86.1236 132.049 85.6276 131.992 85.0931C131.953 84.8446 131.968 84.5906 132.037 84.3485C132.105 84.1065 132.225 83.882 132.388 83.6906C132.552 83.4992 132.754 83.3453 132.983 83.2394C133.211 83.1335 133.459 83.0782 133.711 83.0771C134.249 83.1001 134.762 83.3166 135.154 83.687C135.546 84.0573 135.791 84.5566 135.844 85.0931Z" fill="#F0F0F0"/>
<path opacity="0.8" d="M139.378 85.0931C139.412 85.3416 139.393 85.5944 139.322 85.8348C139.25 86.0752 139.128 86.2975 138.964 86.4869C138.8 86.6762 138.597 86.8282 138.369 86.9326C138.141 87.0371 137.893 87.0915 137.642 87.0923C137.109 87.066 136.603 86.8501 136.215 86.4836C135.826 86.117 135.582 85.624 135.525 85.0931C135.488 84.8439 135.505 84.5897 135.575 84.3477C135.645 84.1056 135.766 83.8814 135.93 83.6903C136.095 83.4991 136.298 83.3454 136.526 83.2396C136.755 83.1339 137.004 83.0784 137.256 83.0771C137.792 83.1027 138.302 83.3204 138.692 83.6905C139.081 84.0606 139.325 84.5584 139.378 85.0931V85.0931Z" fill="#F0F0F0"/>
<path opacity="0.8" d="M142.906 85.0931C142.938 85.3422 142.918 85.5953 142.845 85.8357C142.772 86.076 142.649 86.2982 142.484 86.4873C142.318 86.6764 142.115 86.8281 141.886 86.9325C141.658 87.0368 141.41 87.0913 141.159 87.0923C140.624 87.0726 140.116 86.8587 139.728 86.4906C139.34 86.1225 139.1 85.6256 139.053 85.0931C139.019 84.843 139.038 84.5884 139.11 84.3464C139.182 84.1044 139.305 83.8805 139.47 83.6897C139.636 83.4989 139.84 83.3455 140.069 83.2399C140.299 83.1343 140.548 83.0788 140.8 83.0771C141.337 83.0973 141.848 83.3137 142.236 83.6852C142.624 84.0567 142.862 84.5577 142.906 85.0931V85.0931Z" fill="#F0F0F0"/>
<path opacity="0.8" d="M146.434 85.0931C146.463 85.3429 146.439 85.596 146.364 85.836C146.289 86.076 146.164 86.2975 145.998 86.486C145.831 86.6746 145.627 86.826 145.398 86.9305C145.17 87.035 144.921 87.0901 144.67 87.0923C144.138 87.0722 143.631 86.8576 143.246 86.4893C142.861 86.1209 142.625 85.6242 142.581 85.0931C142.55 84.8418 142.573 84.5867 142.648 84.3447C142.722 84.1027 142.847 83.8792 143.015 83.6888C143.182 83.4985 143.387 83.3456 143.617 83.2402C143.848 83.1348 144.098 83.0792 144.351 83.0771C144.885 83.0978 145.393 83.315 145.778 83.6869C146.162 84.0589 146.396 84.5596 146.434 85.0931V85.0931Z" fill="#F0F0F0"/>
<path opacity="0.8" d="M149.967 85.0931C149.994 85.3438 149.968 85.5973 149.89 85.8373C149.813 86.0773 149.687 86.2985 149.519 86.4867C149.351 86.675 149.146 86.8261 148.917 86.9304C148.687 87.0347 148.439 87.0898 148.186 87.0923C147.655 87.073 147.15 86.8583 146.768 86.4893C146.385 86.1203 146.153 85.6231 146.114 85.0931C146.085 84.8411 146.11 84.5859 146.186 84.3438C146.262 84.1018 146.388 83.8785 146.556 83.6884C146.724 83.4983 146.93 83.3456 147.16 83.2403C147.391 83.135 147.642 83.0794 147.895 83.0771C148.429 83.0956 148.938 83.3123 149.321 83.685C149.704 84.0577 149.934 84.5597 149.967 85.0931V85.0931Z" fill="#F0F0F0"/>
<path opacity="0.8" d="M153.496 85.0931C153.52 85.3447 153.491 85.5986 153.412 85.8386C153.333 86.0786 153.205 86.2996 153.036 86.4875C152.867 86.6754 152.661 86.8262 152.43 86.9303C152.2 87.0344 151.951 87.0896 151.698 87.0923C151.168 87.0739 150.664 86.859 150.285 86.4894C149.905 86.1199 149.676 85.6221 149.643 85.0931C149.616 84.8402 149.643 84.5846 149.721 84.3426C149.799 84.1005 149.927 83.8775 150.096 83.6877C150.265 83.4979 150.472 83.3455 150.704 83.2404C150.935 83.1353 151.186 83.0797 151.44 83.0771C151.973 83.0947 152.48 83.3115 152.861 83.6849C153.241 84.0582 153.468 84.5608 153.496 85.0931V85.0931Z" fill="#F0F0F0"/>
<path opacity="0.8" d="M157.04 85.0931C157.062 85.3456 157.031 85.5998 156.95 85.8398C156.869 86.0799 156.739 86.3006 156.569 86.4883C156.399 86.6759 156.191 86.8264 155.96 86.9303C155.729 87.0343 155.479 87.0894 155.226 87.0923C154.698 87.0748 154.195 86.8597 153.817 86.4896C153.44 86.1194 153.215 85.6211 153.187 85.0931C153.163 84.8397 153.191 84.5838 153.27 84.3417C153.349 84.0997 153.478 83.8768 153.648 83.6872C153.818 83.4976 154.026 83.3455 154.258 83.2404C154.49 83.1354 154.742 83.0798 154.996 83.0771C155.528 83.0949 156.034 83.3121 156.412 83.6857C156.791 84.0593 157.015 84.5617 157.04 85.0931V85.0931Z" fill="#F0F0F0"/>
<path opacity="0.8" d="M160.557 85.0931C160.576 85.3469 160.543 85.602 160.46 85.8424C160.376 86.0829 160.244 86.3037 160.072 86.4911C159.9 86.6785 159.691 86.8286 159.459 86.932C159.226 87.0354 158.975 87.09 158.72 87.0923C158.193 87.0759 157.692 86.8606 157.317 86.4898C156.942 86.119 156.721 85.62 156.699 85.0931C156.677 84.8389 156.708 84.583 156.79 84.3413C156.871 84.0996 157.002 83.8773 157.173 83.6882C157.344 83.4991 157.553 83.3473 157.785 83.2421C158.017 83.137 158.269 83.0808 158.524 83.0771C159.056 83.0924 159.561 83.3092 159.939 83.6836C160.316 84.058 160.537 84.5619 160.557 85.0931V85.0931Z" fill="#F0F0F0"/>
<path opacity="0.8" d="M164.085 85.0931C164.102 85.3469 164.067 85.6013 163.982 85.8411C163.898 86.0809 163.765 86.3009 163.593 86.4879C163.42 86.6749 163.212 86.8249 162.98 86.9288C162.748 87.0327 162.497 87.0883 162.243 87.0923C161.716 87.077 161.215 86.8618 160.842 86.4904C160.469 86.1191 160.251 85.6195 160.232 85.0931C160.213 84.8376 160.247 84.5809 160.33 84.3387C160.414 84.0966 160.547 83.8742 160.72 83.6854C160.893 83.4965 161.103 83.345 161.337 83.2404C161.571 83.1358 161.824 83.0803 162.08 83.0771C162.609 83.0928 163.112 83.3105 163.485 83.6856C163.857 84.0606 164.072 84.5644 164.085 85.0931V85.0931Z" fill="#F0F0F0"/>
<path opacity="0.8" d="M167.619 85.0931C167.632 85.348 167.594 85.603 167.507 85.8428C167.42 86.0827 167.285 86.3025 167.111 86.4891C166.937 86.6757 166.727 86.8253 166.494 86.929C166.261 87.0326 166.009 87.0882 165.754 87.0923C165.228 87.0795 164.728 86.8646 164.357 86.4923C163.985 86.1199 163.772 85.6188 163.76 85.0931C163.744 84.8372 163.779 84.5806 163.865 84.3388C163.95 84.097 164.084 83.875 164.258 83.6865C164.432 83.498 164.642 83.3467 164.876 83.242C165.11 83.1372 165.363 83.0812 165.62 83.0771C166.149 83.0901 166.652 83.3072 167.025 83.6829C167.397 84.0587 167.61 84.564 167.619 85.0931V85.0931Z" fill="#F0F0F0"/>
<path opacity="0.8" d="M171.147 85.0931C171.158 85.3484 171.118 85.6033 171.029 85.8428C170.941 86.0824 170.805 86.3018 170.63 86.488C170.455 86.6743 170.245 86.8238 170.011 86.9276C169.778 87.0313 169.526 87.0874 169.271 87.0923C168.747 87.078 168.249 86.8621 167.881 86.4896C167.513 86.1171 167.302 85.6169 167.294 85.0931C167.28 84.8364 167.317 84.5793 167.405 84.3375C167.492 84.0956 167.627 83.8739 167.803 83.6856C167.978 83.4974 168.189 83.3464 168.424 83.2419C168.659 83.1373 168.913 83.0813 169.17 83.0771C169.697 83.0902 170.198 83.3081 170.567 83.6844C170.936 84.0608 171.144 84.5661 171.147 85.0931Z" fill="#F0F0F0"/>
<path opacity="0.8" d="M174.674 85.0931C174.683 85.3492 174.641 85.6045 174.551 85.8441C174.46 86.0837 174.323 86.303 174.147 86.489C173.97 86.6751 173.759 86.8242 173.525 86.9278C173.29 87.0314 173.038 87.0873 172.782 87.0923C172.26 87.0779 171.764 86.8614 171.398 86.4885C171.032 86.1156 170.826 85.6153 170.822 85.0931C170.81 84.8357 170.851 84.5786 170.94 84.3371C171.03 84.0955 171.167 83.8742 171.343 83.6864C171.52 83.4985 171.732 83.3478 171.967 83.2432C172.203 83.1386 172.457 83.0821 172.714 83.0771C173.24 83.0889 173.74 83.3068 174.107 83.6839C174.474 84.0611 174.678 84.5672 174.674 85.0931Z" fill="#F0F0F0"/>
<path opacity="0.8" d="M178.208 85.0931C178.215 85.35 178.171 85.6057 178.079 85.8454C177.986 86.0851 177.847 86.3042 177.67 86.49C177.492 86.6758 177.28 86.8247 177.044 86.9281C176.809 87.0314 176.556 87.0873 176.299 87.0923C175.777 87.0806 175.282 86.8644 174.918 86.4905C174.555 86.1165 174.353 85.6147 174.356 85.0931C174.347 84.8349 174.389 84.5774 174.481 84.3358C174.572 84.0941 174.711 83.873 174.888 83.6854C175.066 83.4978 175.279 83.3474 175.516 83.243C175.752 83.1386 176.007 83.0822 176.265 83.0771C176.789 83.0904 177.287 83.3093 177.65 83.6866C178.014 84.0639 178.215 84.5692 178.208 85.0931V85.0931Z" fill="#F0F0F0"/>
<path opacity="0.8" d="M181.736 85.0931C181.719 85.4698 181.591 85.8331 181.369 86.1379C181.147 86.4427 180.84 86.6756 180.487 86.8078C180.134 86.9399 179.75 86.9655 179.382 86.8814C179.015 86.7972 178.68 86.607 178.419 86.3344C178.159 86.0618 177.984 85.7187 177.917 85.3476C177.849 84.9766 177.892 84.5939 178.04 84.2471C178.189 83.9003 178.435 83.6046 178.75 83.3966C179.064 83.1886 179.433 83.0776 179.81 83.0771C180.069 83.0822 180.325 83.1385 180.562 83.2427C180.799 83.3469 181.014 83.4971 181.193 83.6844C181.372 83.8718 181.512 84.0927 181.605 84.3345C181.699 84.5762 181.743 84.8341 181.736 85.0931V85.0931Z" fill="#F0F0F0"/>
<path opacity="0.8" d="M185.264 85.0931C185.269 85.6141 185.068 86.116 184.706 86.4901C184.343 86.8642 183.848 87.0806 183.327 87.0923C183.07 87.0873 182.816 87.0314 182.581 86.9281C182.346 86.8247 182.134 86.6758 181.956 86.49C181.779 86.3042 181.64 86.0851 181.547 85.8454C181.455 85.6057 181.41 85.35 181.417 85.0931C181.408 84.5693 181.607 84.0631 181.97 83.6853C182.333 83.3076 182.831 83.0889 183.355 83.0771C183.613 83.0822 183.868 83.1386 184.104 83.243C184.341 83.3474 184.554 83.4978 184.732 83.6854C184.909 83.873 185.048 84.0941 185.139 84.3358C185.231 84.5774 185.273 84.8349 185.264 85.0931V85.0931Z" fill="#F0F0F0"/>
<path opacity="0.8" d="M188.798 85.0931C188.796 85.6162 188.591 86.118 188.225 86.4916C187.858 86.8651 187.361 87.0807 186.838 87.0923C186.582 87.0873 186.329 87.0314 186.095 86.9278C185.86 86.8242 185.649 86.6751 185.473 86.489C185.297 86.303 185.159 86.0837 185.069 85.8441C184.978 85.6045 184.936 85.3492 184.945 85.0931C184.942 84.5681 185.145 84.0628 185.51 83.6859C185.876 83.3089 186.375 83.0903 186.899 83.0771C187.157 83.0822 187.412 83.1386 187.647 83.2432C187.883 83.3477 188.096 83.4983 188.272 83.6861C188.449 83.8738 188.587 84.095 188.677 84.3366C188.767 84.5782 188.808 84.8354 188.798 85.0931Z" fill="#F0F0F0"/>
<path opacity="0.8" d="M192.32 85.0931C192.313 85.6164 192.104 86.1166 191.737 86.4892C191.369 86.8618 190.872 87.0779 190.349 87.0923C190.093 87.0873 189.841 87.0313 189.608 86.9276C189.374 86.8239 189.163 86.6746 188.988 86.4884C188.813 86.3022 188.676 86.0828 188.587 85.8432C188.498 85.6037 188.457 85.3486 188.467 85.0931C188.47 84.5661 188.678 84.0608 189.047 83.6844C189.416 83.3081 189.917 83.0902 190.444 83.0771C190.701 83.082 190.954 83.1386 191.189 83.2434C191.424 83.3482 191.635 83.4992 191.81 83.6873C191.985 83.8754 192.12 84.0968 192.208 84.3383C192.296 84.5799 192.334 84.8366 192.32 85.0931Z" fill="#F0F0F0"/>
<path opacity="0.8" d="M195.86 85.0931C195.847 85.6184 195.633 86.1187 195.262 86.4907C194.891 86.8628 194.391 87.0781 193.866 87.0923C193.611 87.0882 193.36 87.0326 193.127 86.9289C192.894 86.8252 192.684 86.6755 192.511 86.4888C192.337 86.3021 192.203 86.0822 192.116 85.8424C192.03 85.6026 191.993 85.3477 192.007 85.0931C192.014 84.5655 192.225 84.061 192.595 83.6852C192.966 83.3094 193.467 83.0916 193.995 83.0771C194.252 83.0812 194.505 83.1373 194.739 83.242C194.974 83.3466 195.184 83.4978 195.359 83.6862C195.533 83.8747 195.667 84.0965 195.753 84.3383C195.839 84.5802 195.876 84.8369 195.86 85.0931V85.0931Z" fill="#F0F0F0"/>
<path opacity="0.8" d="M199.388 85.0931C199.369 85.6223 199.149 86.1243 198.772 86.4961C198.395 86.8679 197.89 87.0812 197.36 87.0923C197.106 87.0883 196.855 87.0327 196.623 86.9288C196.39 86.825 196.181 86.6751 196.009 86.4882C195.836 86.3013 195.703 86.0813 195.618 85.8415C195.532 85.6017 195.497 85.3471 195.512 85.0931C195.525 84.5644 195.74 84.0606 196.113 83.6856C196.486 83.3105 196.989 83.0928 197.517 83.0771C197.775 83.0772 198.031 83.1305 198.267 83.2338C198.504 83.337 198.717 83.488 198.892 83.6772C199.068 83.8664 199.202 84.0899 199.288 84.3335C199.373 84.5771 199.407 84.8357 199.388 85.0931V85.0931Z" fill="#F0F0F0"/>
<path opacity="0.8" d="M202.916 85.0931C202.895 85.6195 202.675 86.1184 202.301 86.4894C201.927 86.8603 201.426 87.0758 200.9 87.0923C200.644 87.0922 200.39 87.0394 200.155 86.937C199.921 86.8347 199.709 86.6851 199.535 86.4975C199.36 86.3099 199.227 86.0884 199.141 85.8468C199.056 85.6052 199.022 85.3486 199.04 85.0931C199.059 84.5633 199.278 84.0602 199.653 83.6859C200.029 83.3115 200.532 83.0939 201.062 83.0771C201.32 83.077 201.574 83.1303 201.81 83.2338C202.046 83.3372 202.257 83.4885 202.432 83.678C202.606 83.8675 202.739 84.0911 202.822 84.3348C202.906 84.5784 202.937 84.8366 202.916 85.0931V85.0931Z" fill="#F0F0F0"/>
<path opacity="0.8" d="M206.449 85.0931C206.422 85.6211 206.197 86.1194 205.819 86.4896C205.442 86.8597 204.939 87.0748 204.411 87.0923C204.158 87.0894 203.908 87.0343 203.676 86.9303C203.445 86.8264 203.238 86.6759 203.068 86.4883C202.898 86.3006 202.768 86.0799 202.687 85.8398C202.606 85.5998 202.575 85.3456 202.597 85.0931C202.619 84.5618 202.842 84.0586 203.22 83.6846C203.598 83.3107 204.103 83.0937 204.635 83.0771C204.89 83.0807 205.141 83.1369 205.373 83.2421C205.605 83.3474 205.812 83.4994 205.983 83.6887C206.153 83.878 206.282 84.1005 206.363 84.3422C206.443 84.5839 206.473 84.8395 206.449 85.0931Z" fill="#F0F0F0"/>
<path opacity="0.8" d="M209.977 85.0931C209.946 85.6216 209.718 86.1193 209.339 86.489C208.96 86.8587 208.457 87.0738 207.928 87.0923C207.675 87.0895 207.425 87.0344 207.195 86.9303C206.964 86.8263 206.758 86.6756 206.588 86.4877C206.419 86.2999 206.29 86.079 206.21 85.839C206.13 85.599 206.101 85.345 206.124 85.0931C206.152 84.5608 206.379 84.0582 206.759 83.6849C207.14 83.3115 207.647 83.0947 208.18 83.0771C208.434 83.0797 208.685 83.1353 208.916 83.2404C209.148 83.3455 209.355 83.4979 209.524 83.6877C209.693 83.8775 209.821 84.1005 209.899 84.3426C209.977 84.5846 210.004 84.8402 209.977 85.0931V85.0931Z" fill="#F0F0F0"/>
<path opacity="0.8" d="M213.505 85.0931C213.469 85.6231 213.238 86.1209 212.857 86.4903C212.475 86.8596 211.97 87.0741 211.439 87.0923C211.189 87.0859 210.943 87.028 210.717 86.922C210.49 86.8161 210.288 86.6646 210.123 86.4768C209.958 86.2891 209.833 86.0693 209.757 85.8312C209.681 85.5931 209.655 85.3418 209.68 85.0931C209.713 84.5597 209.944 84.0577 210.327 83.685C210.71 83.3123 211.218 83.0956 211.752 83.0771C212.004 83.0833 212.251 83.1417 212.478 83.2487C212.706 83.3557 212.908 83.5089 213.073 83.6986C213.238 83.8883 213.362 84.1103 213.436 84.3504C213.511 84.5905 213.534 84.8435 213.505 85.0931Z" fill="#F0F0F0"/>
<path opacity="0.8" d="M217.039 85.0931C216.997 85.6237 216.761 86.1203 216.377 86.4888C215.993 86.8573 215.487 87.0721 214.955 87.0923C214.704 87.0909 214.455 87.0363 214.225 86.9322C213.996 86.8281 213.791 86.6768 213.624 86.4881C213.457 86.2995 213.332 86.0777 213.256 85.8373C213.181 85.597 213.157 85.3434 213.186 85.0931C213.223 84.5592 213.456 84.0578 213.841 83.6856C214.225 83.3133 214.734 83.0966 215.269 83.0771C215.522 83.0792 215.772 83.1348 216.003 83.2402C216.233 83.3456 216.438 83.4985 216.605 83.6888C216.772 83.8792 216.897 84.1027 216.972 84.3447C217.047 84.5867 217.069 84.8418 217.039 85.0931V85.0931Z" fill="#F0F0F0"/>
<path opacity="0.8" d="M220.566 85.0931C220.519 85.6247 220.28 86.1208 219.893 86.4888C219.507 86.8567 219 87.0713 218.466 87.0923C218.215 87.0903 217.968 87.0352 217.739 86.9306C217.511 86.826 217.307 86.6744 217.142 86.4856C216.976 86.2968 216.853 86.0752 216.779 85.8352C216.705 85.5952 216.683 85.3423 216.714 85.0931C216.757 84.5586 216.995 84.0584 217.381 83.687C217.768 83.3156 218.278 83.0987 218.814 83.0771C219.066 83.0789 219.316 83.1344 219.545 83.24C219.775 83.3456 219.979 83.4988 220.145 83.6895C220.311 83.8802 220.434 84.1039 220.507 84.346C220.58 84.588 220.6 84.8427 220.566 85.0931Z" fill="#F0F0F0"/>
<path opacity="0.8" d="M224.1 85.0931C224.044 85.6212 223.802 86.1122 223.417 86.4784C223.033 86.8445 222.53 87.0621 222 87.0923C221.749 87.0915 221.502 87.0371 221.274 86.9326C221.046 86.8282 220.843 86.6762 220.678 86.4869C220.514 86.2975 220.392 86.0752 220.32 85.8348C220.249 85.5944 220.23 85.3416 220.264 85.0931C220.317 84.5593 220.56 84.0622 220.948 83.6923C221.337 83.3223 221.845 83.104 222.381 83.0771C222.632 83.0809 222.879 83.1381 223.105 83.2449C223.332 83.3517 223.534 83.5056 223.696 83.6963C223.859 83.8871 223.979 84.1104 224.049 84.3512C224.119 84.5921 224.136 84.845 224.1 85.0931V85.0931Z" fill="#F0F0F0"/>
<path opacity="0.8" d="M227.628 85.0931C227.571 85.6267 227.324 86.122 226.933 86.4889C226.541 86.8558 226.031 87.0699 225.495 87.0923C225.245 87.091 224.998 87.036 224.771 86.9311C224.544 86.8262 224.343 86.6739 224.18 86.4844C224.017 86.2949 223.896 86.0726 223.827 85.8326C223.757 85.5926 223.74 85.3405 223.776 85.0931C223.829 84.5566 224.074 84.0573 224.466 83.687C224.858 83.3166 225.37 83.1001 225.909 83.0771C226.161 83.0782 226.409 83.1335 226.637 83.2394C226.866 83.3453 227.068 83.4992 227.231 83.6906C227.395 83.882 227.515 84.1065 227.583 84.3485C227.652 84.5906 227.667 84.8446 227.628 85.0931Z" fill="#F0F0F0"/>
</g>
<path d="M130.059 81.6545H229.946L229.941 84.3873H130.065L130.059 81.6545Z" fill="#184466"/>
<path d="M130.054 78.9219L132.137 81.6547H227.847L229.952 78.9219H130.054Z" fill="#184466"/>
<g opacity="0.4">
<path opacity="0.4" d="M130.054 78.9219L132.137 81.6547H227.847L229.952 78.9219H130.054Z" fill="black"/>
</g>
<path d="M130.042 76.1777H229.958L229.952 78.9217H130.054L130.042 76.1777Z" fill="#184466"/>
<g opacity="0.8">
<path opacity="0.8" d="M132.131 78.9219H227.852L227.847 81.6547H132.137L132.131 78.9219Z" fill="white"/>
</g>
<g opacity="0.7">
<path opacity="0.7" d="M227.88 135.454H131.986V136.658H227.88V135.454Z" fill="white"/>
</g>
<g opacity="0.8">
<path opacity="0.8" d="M227.874 195.211H132.182V196.41H227.874V195.211Z" fill="white"/>
</g>
<path d="M163.715 92.3223H151.86V105.129H163.715V92.3223Z" fill="#184466"/>
<path d="M186.485 92.3223H174.63V105.129H186.485V92.3223Z" fill="#184466"/>
<path d="M209.255 92.3223H197.399V105.129H209.255V92.3223Z" fill="#184466"/>
<path d="M163.715 111.497H151.86V124.304H163.715V111.497Z" fill="#184466"/>
<path d="M186.485 111.497H174.63V124.304H186.485V111.497Z" fill="#184466"/>
<path d="M209.255 111.497H197.399V124.304H209.255V111.497Z" fill="#184466"/>
<path d="M163.715 204.435H151.86V217.242H163.715V204.435Z" fill="#184466"/>
<path d="M186.485 204.435H174.63V217.242H186.485V204.435Z" fill="#184466"/>
<path d="M209.255 204.435H197.399V217.242H209.255V204.435Z" fill="#184466"/>
<path d="M151.014 231.398H139.159V244.206H151.014V231.398Z" fill="#184466"/>
<path d="M220.667 231.398H208.812V244.206H220.667V231.398Z" fill="#184466"/>
<path d="M163.715 146.749H151.86V159.556H163.715V146.749Z" fill="#184466"/>
<path d="M186.485 146.749H174.63V159.556H186.485V146.749Z" fill="#184466"/>
<path d="M209.255 146.749H197.399V159.556H209.255V146.749Z" fill="#184466"/>
<path d="M163.715 165.923H151.86V178.731H163.715V165.923Z" fill="#184466"/>
<path d="M186.485 165.923H174.63V178.731H186.485V165.923Z" fill="#184466"/>
<path d="M209.255 165.923H197.399V178.731H209.255V165.923Z" fill="#184466"/>
<g opacity="0.8">
<path opacity="0.8" d="M166.196 232.899H178.466L178.415 245.639H166.112L166.196 232.899Z" fill="white"/>
</g>
<g opacity="0.8">
<path opacity="0.8" d="M180.835 232.899H193.608L193.003 245.639H180.7L180.835 232.899Z" fill="white"/>
</g>
<path d="M195.562 248.204H163.189L163.06 245.639H195.686L195.562 248.204Z" fill="#184466"/>
<g opacity="0.1">
<path opacity="0.1" d="M195.562 248.204H163.189L163.06 245.639H195.686L195.562 248.204Z" fill="white"/>
</g>
<path d="M196.867 250.914H162.046L161.906 248.389H196.996L196.867 250.914Z" fill="#184466"/>
<g opacity="0.4">
<path opacity="0.4" d="M198.021 228.386H160.804L160.641 225.502H198.167L198.021 228.386Z" fill="white"/>
</g>
<path d="M160.803 228.386L166.196 232.899H193.608L198.021 228.386H160.803Z" fill="#263238"/>
<path d="M163.323 230.497L165.227 245.617H166.739L166.129 230.497C165.696 230.274 165.216 230.158 164.729 230.158C164.242 230.158 163.762 230.274 163.329 230.497H163.323Z" fill="#184466"/>
<path d="M196.027 230.497L194.162 245.617H192.65L193.21 230.497C193.626 230.224 194.113 230.079 194.61 230.079C195.108 230.079 195.594 230.224 196.01 230.497H196.027Z" fill="#184466"/>
<path d="M132.131 78.9219H227.852L227.847 81.6547H132.137L132.131 78.9219Z" fill="#184466"/>
<path d="M242.821 166.433C239.814 170.487 238.649 172.352 237.484 173.5C236.213 174.755 223.232 173.797 221.664 173.142C220.466 172.638 221.294 171.081 221.86 171.159C223.999 171.456 232.03 170.039 234.41 169.009C234.824 168.824 238.89 163.879 238.89 163.879L242.821 166.433Z" fill="#FFB573"/>
<path d="M237.882 163.751C240.424 159.086 245.436 155.664 246.954 155.468C249.138 155.183 249.871 155.619 249.233 157.372C248.147 160.357 246.147 163.493 243.331 167.29L237.882 163.751Z" fill="#184466"/>
<g opacity="0.1">
<path opacity="0.1" d="M237.882 163.751C240.424 159.086 245.436 155.664 246.954 155.468C249.138 155.183 249.871 155.619 249.233 157.372C248.147 160.357 246.147 163.493 243.331 167.29L237.882 163.751Z" fill="black"/>
</g>
<path d="M246.954 155.468C248.181 155.022 249.434 154.648 250.706 154.348C253.028 153.79 255.388 153.4 257.767 153.183C259.151 153.034 260.542 152.958 261.934 152.954C262.075 152.952 262.216 152.967 262.354 152.999C262.878 153.129 263.331 153.457 263.618 153.915C263.905 154.372 264.004 154.923 263.894 155.451C261.559 167.799 261.447 173.276 261.783 179.638L247.57 180.142C247.389 180.143 247.214 180.079 247.076 179.962C246.939 179.844 246.847 179.682 246.819 179.503C246.187 176.3 244.221 169.183 244.221 169.183C242.446 167.475 242.149 165.369 241.981 164.143C241.88 163.476 243.37 162.754 244.988 159.226C244.96 159.226 246.226 155.72 246.954 155.468Z" fill="#184466"/>
<path d="M255.936 179.834L250.756 180.024C249.983 173.864 250.129 168.427 250.398 162.3C251.938 168.237 253.787 174.089 255.936 179.834V179.834Z" fill="#263238"/>
<path d="M257.437 227.21C257.308 226.924 257.179 226.65 257.056 226.325C251.467 212.969 247.2 185.96 247.2 185.96L257.163 180.92C257.163 180.92 259.996 204.653 263.883 220.092C264.476 222.444 265.087 224.572 265.719 226.437L258.915 229.562L257.437 227.21Z" fill="#FFB573"/>
<g opacity="0.8">
<path opacity="0.8" d="M257.437 227.21C257.308 226.924 257.179 226.65 257.056 226.325C251.467 212.969 247.2 185.96 247.2 185.96L257.163 180.92C257.163 180.92 259.996 204.653 263.883 220.092C264.476 222.444 265.087 224.572 265.719 226.437L258.915 229.562L257.437 227.21Z" fill="#263238"/>
</g>
<path d="M247.933 182.477C247.933 182.477 243.375 214.397 244.45 227.451C245.57 241.21 249.658 264.769 249.658 264.769L253.018 264.539C254.159 252.251 253.879 239.871 252.184 227.647C259.884 207.828 260.746 182.981 260.746 182.981L247.933 182.477Z" fill="#FFB573"/>
<path opacity="0.8" d="M247.933 182.477C247.933 182.477 243.375 214.397 244.45 227.451C245.57 241.21 249.658 264.769 249.658 264.769L253.018 264.539C254.159 252.251 253.879 239.871 252.184 227.647C259.884 207.828 260.746 182.981 260.746 182.981L247.933 182.477Z" fill="#263238"/>
<path d="M253.455 265.592C253.689 266.039 253.818 266.533 253.831 267.037C253.92 268.879 254.049 273.791 254.049 273.791L253.646 273.819C253.646 273.819 253.399 271.411 253.119 270.207C252.839 269.003 252.655 270.039 252.039 271.355C251.423 272.671 249.692 274.02 247.06 274.267C243.975 274.552 242.715 274.496 243.56 273.628C244.406 272.76 246.427 272.111 246.427 272.111C246.427 272.111 249.115 267.513 248.959 264.411C248.791 261.101 252.615 264.209 253.355 263.744C253.618 263.8 253.304 265.323 253.455 265.592Z" fill="#263238"/>
<path d="M264.107 221.24C262.152 221.66 260.416 223.099 255.281 223.614H254.973C254.755 223.614 254.531 223.654 254.296 223.665C252.918 223.738 245.028 223.368 243.566 222.511C244.837 209.379 247.34 181.474 247.34 181.474L253.36 180.758L261.127 180.522C261.127 180.522 269.695 189.37 267.724 197.401C264.784 209.413 266.24 211.278 264.107 221.24Z" fill="#263238"/>
<path d="M261.71 173.326C261.504 173.12 261.347 172.87 261.25 172.595C261.153 172.319 261.119 172.026 261.15 171.736C261.15 171.736 261.15 170.851 261.122 169.496C261.077 165.576 261.043 157.736 261.452 156.695C262.348 154.455 263.883 153.228 264.683 154.539C265.624 156.073 265.691 167.715 265.691 167.715C265.451 175.421 262.628 174.402 261.71 173.326Z" fill="#FFB573"/>
<path d="M259.845 152.724L259.374 153.57C257.56 156.84 253.36 161.102 251.719 161.516C251.336 160.629 250.747 159.845 250 159.231C249.563 159.447 249.175 159.749 248.859 160.12C248.544 160.491 248.307 160.922 248.163 161.387C246.757 159.103 246.881 156.213 247.233 154.785C248.062 154.533 248.947 154.275 249.787 154.068C252.112 153.53 254.471 153.156 256.849 152.948C257.842 152.811 258.842 152.736 259.845 152.724V152.724Z" fill="#184466"/>
<path opacity="0.8" d="M259.845 152.724L259.374 153.57C257.56 156.84 253.36 161.102 251.719 161.516C251.41 160.723 251.15 159.911 250.941 159.086C250.061 159.523 249.412 160.766 249.121 161.707C247.709 159.422 246.881 156.213 247.233 154.785C248.062 154.533 248.947 154.275 249.787 154.068C252.112 153.53 254.471 153.156 256.849 152.948C257.842 152.811 258.842 152.736 259.845 152.724V152.724Z" fill="white"/>
<path d="M249.037 168.746L247.088 166.103L245.347 169.552C245.347 169.552 247.127 170.549 248.606 170.213L249.037 168.746Z" fill="#FFB573"/>
<path d="M244.003 165.291L243.174 168.079L245.347 169.535L247.088 166.103L244.003 165.291Z" fill="#FFB573"/>
<path d="M261.76 181.262L254.564 181.458H253.959L252.402 181.502H251.809L247.581 181.614C247.452 181.614 247.334 181.547 247.329 181.463L247.161 180.108C247.161 180.018 247.267 179.934 247.413 179.929L251.59 179.761H252.089L254.155 179.682H254.642L261.575 179.408C261.623 179.403 261.671 179.41 261.715 179.428C261.759 179.447 261.798 179.477 261.827 179.514L261.995 181.054C262.062 181.144 261.939 181.256 261.76 181.262Z" fill="#184466"/>
<path opacity="0.2" d="M261.76 181.262L254.564 181.458H253.959L252.402 181.502H251.809L247.581 181.614C247.452 181.614 247.334 181.547 247.329 181.463L247.161 180.108C247.161 180.018 247.267 179.934 247.413 179.929L251.59 179.761H252.089L254.155 179.682H254.642L261.575 179.408C261.623 179.403 261.671 179.41 261.715 179.428C261.759 179.447 261.798 179.477 261.827 179.514L261.995 181.054C262.062 181.144 261.939 181.256 261.76 181.262Z" fill="white"/>
<path d="M249.586 181.766H250.045C250.063 181.77 250.082 181.77 250.1 181.766C250.118 181.762 250.136 181.754 250.151 181.743C250.165 181.732 250.178 181.718 250.187 181.701C250.195 181.685 250.201 181.667 250.202 181.648L249.944 179.727C249.944 179.671 249.855 179.621 249.759 179.621H249.3C249.205 179.621 249.138 179.677 249.143 179.733L249.401 181.66C249.416 181.695 249.443 181.724 249.476 181.743C249.509 181.762 249.548 181.77 249.586 181.766V181.766Z" fill="#263238"/>
<path d="M257.605 181.648H258.042C258.058 181.653 258.076 181.653 258.092 181.65C258.109 181.647 258.125 181.641 258.139 181.631C258.154 181.622 258.166 181.61 258.175 181.595C258.184 181.581 258.19 181.565 258.193 181.548L257.93 179.616C257.93 179.565 257.84 179.515 257.756 179.52H257.319C257.23 179.52 257.168 179.565 257.174 179.627L257.431 181.542C257.437 181.609 257.515 181.648 257.605 181.648Z" fill="#263238"/>
<path d="M259.99 189.942L258.87 189.544L263.854 174.631C264.65 172.263 264.347 170 261.407 168.964C258.658 167.995 256.496 169.379 255.695 171.764L250.655 186.632L249.535 186.235L254.575 171.378C255.505 168.628 257.297 166.763 261.62 168.292C265.943 169.821 265.859 172.285 264.935 175.046L259.99 189.942Z" fill="#184466"/>
<path d="M262.807 199.142L240.967 191.302L245.918 176.843C246.028 176.508 246.203 176.199 246.434 175.932C246.665 175.666 246.946 175.448 247.262 175.292C247.578 175.135 247.922 175.043 248.274 175.021C248.626 174.999 248.978 175.048 249.311 175.163L265.226 180.819C266.096 181.141 266.807 181.788 267.21 182.624C267.612 183.459 267.674 184.419 267.382 185.299L262.807 199.142Z" fill="#184466"/>
<path opacity="0.4" d="M260.388 198.28L243.37 192.165C242.727 191.923 242.204 191.438 241.914 190.815C241.624 190.192 241.59 189.481 241.819 188.833L245.923 176.843C246.033 176.508 246.209 176.199 246.44 175.932C246.67 175.666 246.952 175.448 247.268 175.292C247.584 175.135 247.928 175.043 248.28 175.021C248.631 174.999 248.984 175.048 249.317 175.163L265.232 180.819C266.102 181.141 266.813 181.788 267.215 182.624C267.618 183.459 267.68 184.419 267.388 185.299L263.631 196.65C263.529 196.973 263.364 197.273 263.145 197.531C262.926 197.789 262.657 198 262.355 198.152C262.052 198.304 261.722 198.394 261.384 198.416C261.047 198.438 260.708 198.392 260.388 198.28V198.28Z" fill="white"/>
<g opacity="0.3">
<path opacity="0.3" d="M259.991 189.942L259.111 190.709L258.882 189.544L263.866 174.631C264.661 172.263 264.359 170 261.419 168.964C258.669 167.995 256.507 169.379 255.707 171.764L250.667 186.632L249.759 187.388L249.563 186.235L254.603 171.378C255.533 168.628 257.325 166.763 261.648 168.292C265.971 169.821 265.887 172.285 264.963 175.046L259.991 189.942Z" fill="white"/>
</g>
<path d="M252.934 180.965L251.114 180.315L251.344 179.626L253.164 180.276L252.934 180.965Z" fill="#184466"/>
<path d="M251.422 185.434L249.597 184.784L249.832 184.095L251.652 184.745L251.422 185.434Z" fill="#184466"/>
<path d="M262.292 184.303L260.466 183.653L260.696 182.958L262.522 183.608L262.292 184.303Z" fill="#184466"/>
<path d="M260.797 188.788L258.966 188.133L259.195 187.438L261.027 188.094L260.797 188.788Z" fill="#184466"/>
<path d="M258.68 183.457L254.771 182.062L255.264 180.584L259.173 181.978L258.68 183.457Z" fill="white"/>
<path d="M263.396 174.015C261.643 175.023 254.553 173.887 248.555 170.28C248.275 170.107 247.995 170.129 247.889 170.062C247.514 169.787 248.449 169.155 249.009 168.863C249.317 168.707 262.55 170.381 263.463 170.504C264.499 173.203 263.564 173.17 263.396 174.015Z" fill="#FFB573"/>
<path d="M257.745 228.291C258.708 231.04 261.939 232.25 264.202 230.531C264.293 230.461 264.381 230.386 264.465 230.307C274.265 221.235 286.73 208.013 286.73 208.013L284.63 205.353C277.288 209.608 270.352 214.529 263.91 220.053C261.67 221.974 259.346 224.074 257.084 226.314L257.745 228.291Z" fill="#FFB573"/>
<path opacity="0.8" d="M257.745 228.291C258.708 231.04 261.939 232.25 264.202 230.531C264.293 230.461 264.381 230.386 264.465 230.307C274.265 221.235 286.73 208.013 286.73 208.013L284.63 205.353C277.288 209.608 270.352 214.529 263.91 220.053C261.67 221.974 259.346 224.074 257.084 226.314L257.745 228.291Z" fill="#263238"/>
<path d="M283.359 205.689C283.497 205.239 283.743 204.829 284.076 204.496C285.252 203.27 288.433 200.111 288.433 200.111L288.718 200.397C288.718 200.397 287.285 202.077 286.669 203.04C286.053 204.003 286.865 203.488 288.147 203.124C289.43 202.76 291.479 203.203 293.394 205.006C295.634 207.128 296.452 208.108 295.315 208.013C294.178 207.918 292.392 206.831 292.392 206.831C292.392 206.831 287.537 207.722 285.566 209.799C283.449 212.039 282.99 207.184 282.206 206.921C282.038 206.68 283.275 205.969 283.359 205.689Z" fill="#263238"/>
<path d="M249.726 152.316C250.778 153.57 251.596 155.116 250.196 156.936C249.889 157.324 249.727 157.807 249.737 158.302C249.77 159.092 250.297 159.831 252.716 158.14C256.244 155.698 255.762 153.251 255.762 153.251C253.791 152.792 252.358 148.771 251.753 146.492L249.726 152.316Z" fill="#FFB573"/>
<path opacity="0.2" d="M251.787 150.003C252.134 150.977 251.199 152.635 250.448 153.318C250.241 152.962 250.001 152.627 249.731 152.315L250.93 148.866C251.289 149.183 251.58 149.57 251.787 150.003Z" fill="black"/>
<path d="M241.309 141.625C240.368 145.282 241.768 149.291 244.35 152.047C246.959 149.185 251.893 149.807 254.637 147.074C256.474 145.259 256.81 142.213 255.673 139.895C254.452 137.397 250.846 134.989 248.001 135.381C244.815 135.823 242.099 138.545 241.309 141.625Z" fill="#263238"/>
<path d="M252.178 140.382C251.799 139.824 251.313 139.347 250.749 138.977C250.185 138.608 249.554 138.353 248.891 138.228C248.228 138.102 247.548 138.109 246.887 138.247C246.227 138.385 245.601 138.652 245.044 139.032C241.734 141.272 242.35 146.872 243.829 150.036C245.453 153.575 250.196 153.721 252.408 150.249C253.892 147.936 253.578 146.357 253.03 142.599C252.921 141.804 252.63 141.045 252.178 140.382Z" fill="#FFB573"/>
<path d="M245.699 148.222C245.524 148.304 245.333 148.347 245.139 148.347C244.946 148.347 244.754 148.304 244.579 148.222C244.904 147.538 245.133 146.813 245.257 146.066L245.699 148.222Z" fill="#ED893E"/>
<path d="M248.572 147.88C248.578 147.869 248.581 147.857 248.581 147.845C248.581 147.833 248.579 147.821 248.574 147.81C248.569 147.798 248.562 147.788 248.553 147.78C248.544 147.772 248.533 147.766 248.522 147.763C248.499 147.755 248.475 147.756 248.453 147.765C248.431 147.774 248.414 147.791 248.404 147.813C248.242 148.16 247.998 148.464 247.694 148.698C247.39 148.932 247.034 149.089 246.657 149.157C246.634 149.165 246.615 149.18 246.603 149.201C246.59 149.221 246.586 149.245 246.59 149.269V149.269C246.592 149.28 246.596 149.291 246.602 149.3C246.608 149.31 246.616 149.318 246.626 149.324C246.635 149.33 246.646 149.335 246.657 149.337C246.668 149.339 246.679 149.339 246.691 149.336C246.835 149.308 246.978 149.269 247.116 149.219C247.436 149.104 247.73 148.927 247.98 148.697C248.23 148.467 248.431 148.189 248.572 147.88V147.88Z" fill="#263238"/>
<path d="M245.912 137.324C245.615 137.801 245.424 138.336 245.352 138.892C249.726 139.9 252.951 144.492 254.194 148.843C255.376 147.287 257.694 145.383 258.596 143.512C259.598 141.412 258.26 139.032 256.244 137.856C254.459 136.975 252.605 136.243 250.7 135.667C249.831 135.372 248.889 135.376 248.022 135.676C247.155 135.976 246.413 136.556 245.912 137.324V137.324Z" fill="#263238"/>
<path d="M254.676 144.862C254.644 144.702 254.581 144.55 254.49 144.415C254.399 144.28 254.282 144.164 254.146 144.074C254.011 143.984 253.858 143.921 253.698 143.89C253.538 143.859 253.374 143.86 253.214 143.893C252.29 144.094 251.954 145.388 252.01 146.217C252.089 147.13 252.8 147.762 253.584 147.191C254.182 146.758 254.584 146.106 254.704 145.377C254.728 145.205 254.719 145.03 254.676 144.862Z" fill="#FFB573"/>
<path d="M247.469 144.52C247.57 144.884 247.469 145.237 247.211 145.304C246.954 145.371 246.702 145.125 246.607 144.744C246.511 144.363 246.607 144.027 246.859 143.966C247.111 143.904 247.368 144.123 247.469 144.52Z" fill="#263238"/>
<path d="M244.131 145.691C244.232 146.055 244.131 146.407 243.874 146.469C243.616 146.531 243.364 146.29 243.263 145.909C243.162 145.528 243.263 145.192 243.521 145.125C243.778 145.058 244.036 145.315 244.131 145.691Z" fill="#263238"/>
<path d="M243.633 145.13H242.687C242.687 145.13 243.319 145.679 243.633 145.13Z" fill="#263238"/>
<path d="M248.175 142.84C248.202 142.824 248.225 142.801 248.242 142.773C248.268 142.732 248.277 142.682 248.268 142.634C248.259 142.586 248.231 142.543 248.191 142.515V142.515C247.906 142.319 247.576 142.195 247.232 142.154C246.888 142.113 246.538 142.156 246.214 142.28C246.171 142.302 246.137 142.339 246.119 142.385C246.102 142.43 246.102 142.481 246.119 142.526C246.14 142.57 246.176 142.604 246.221 142.621C246.266 142.639 246.315 142.639 246.36 142.622C246.629 142.522 246.918 142.489 247.203 142.525C247.488 142.561 247.759 142.665 247.995 142.829C248.022 142.845 248.052 142.854 248.084 142.856C248.115 142.858 248.146 142.853 248.175 142.84V142.84Z" fill="#263238"/>
<path d="M242.547 144.84C242.568 144.816 242.587 144.789 242.603 144.761C242.701 144.492 242.863 144.251 243.073 144.056C243.283 143.861 243.536 143.719 243.812 143.641C243.86 143.633 243.903 143.606 243.932 143.566C243.96 143.526 243.971 143.477 243.963 143.428C243.958 143.404 243.948 143.382 243.934 143.362C243.92 143.341 243.902 143.324 243.881 143.311C243.86 143.298 243.837 143.29 243.812 143.286C243.788 143.282 243.763 143.283 243.739 143.288C243.404 143.378 243.094 143.546 242.836 143.778C242.578 144.011 242.379 144.302 242.255 144.627C242.245 144.649 242.239 144.673 242.238 144.697C242.237 144.721 242.241 144.746 242.249 144.769C242.257 144.792 242.27 144.813 242.287 144.831C242.303 144.848 242.323 144.863 242.345 144.873C242.378 144.887 242.414 144.891 242.45 144.886C242.485 144.882 242.518 144.867 242.547 144.845V144.84Z" fill="#263238"/>
<path d="M246.97 143.96H246.024C246.024 143.96 246.64 144.481 246.97 143.96Z" fill="#263238"/>
<path d="M242.031 146.906C242.463 149.208 244.327 152.383 246.315 153.626C244.977 154.64 242.58 153.492 241.169 152.59C240.476 152.113 239.893 151.495 239.457 150.776C239.022 150.056 238.745 149.253 238.643 148.418C238.448 146.744 238.675 145.048 239.304 143.484C240.331 140.953 242.034 138.753 244.227 137.123C244.652 136.776 245.38 136.501 245.66 136.972C245.856 137.296 245.632 137.705 245.419 138.013C243.353 141.004 241.729 143.109 242.031 146.906Z" fill="#263238"/>
<path d="M252.425 151.111H252.391C252.356 151.102 252.325 151.079 252.306 151.048C252.287 151.016 252.282 150.979 252.29 150.943C253.785 144.901 247.306 140.303 245.285 139.015C245.254 138.996 245.232 138.965 245.223 138.929C245.215 138.894 245.221 138.856 245.24 138.825C245.249 138.809 245.261 138.795 245.276 138.784C245.291 138.773 245.308 138.766 245.325 138.761C245.343 138.757 245.362 138.757 245.38 138.76C245.398 138.763 245.415 138.77 245.43 138.78C247.497 140.074 254.105 144.783 252.565 151.01C252.556 151.04 252.537 151.067 252.512 151.085C252.487 151.103 252.456 151.113 252.425 151.111V151.111Z" fill="#263238"/>
<path d="M253.562 146.732L253.438 148.866L254.01 149.336L254.29 148.681L253.562 146.732Z" fill="#184466"/>
<path d="M262.998 153.144C262.551 153.03 262.082 153.036 261.638 153.159C261.194 153.283 260.79 153.521 260.467 153.85C259.753 154.635 259.303 155.624 259.179 156.678C258.971 158.291 259.38 159.926 259.817 161.499C260.352 163.051 260.65 164.675 260.702 166.315C262.415 165.38 264.907 163.515 267.304 163.269C266.974 159.455 266.531 156.913 265.792 155.653C265.41 154.903 264.896 154.228 264.275 153.659C263.888 153.404 263.453 153.229 262.998 153.144V153.144Z" fill="#184466"/>
<g opacity="0.1">
<path opacity="0.1" d="M262.998 153.144C262.551 153.03 262.082 153.036 261.638 153.159C261.194 153.283 260.79 153.521 260.467 153.85C259.753 154.635 259.303 155.624 259.179 156.678C258.971 158.291 259.38 159.926 259.817 161.499C260.352 163.051 260.65 164.675 260.702 166.315C262.415 165.38 264.907 163.515 267.304 163.269C266.974 159.455 266.531 156.913 265.792 155.653C265.41 154.903 264.896 154.228 264.275 153.659C263.888 153.404 263.453 153.229 262.998 153.144V153.144Z" fill="white"/>
</g>
<path d="M222.185 171.12C222.185 171.12 217.957 171.82 217.901 172.011C217.845 172.201 217.867 174.581 217.867 174.581L221.664 173.142L222.185 171.12Z" fill="#FFB573"/>
<path d="M217.867 174.581L214.294 171.215L215.89 170.75L218.539 172.19L217.867 174.581Z" fill="#FFB573"/>
<path d="M110.005 259.981L113.998 259.762L114.351 269.221L110.358 269.433L110.005 259.981Z" fill="#F7978D"/>
<path d="M115.331 268.364C116.574 269.131 118.372 269.803 121.648 270.133C122.376 270.206 122.611 271.869 120.926 272.054C119.24 272.239 116.3 272.502 115.079 272.614C113.091 272.827 112.352 273.006 110.784 273.202C110.595 273.221 110.407 273.164 110.26 273.045C110.113 272.925 110.02 272.752 110 272.564L109.832 268.968C109.829 268.931 109.834 268.892 109.845 268.856C109.857 268.82 109.876 268.787 109.901 268.758C109.927 268.729 109.957 268.706 109.991 268.689C110.026 268.672 110.063 268.663 110.101 268.66L114.614 268.168C114.868 268.152 115.12 268.221 115.331 268.364V268.364Z" fill="#263238"/>
<path opacity="0.2" d="M110.185 264.858L114.183 264.64L113.998 259.768L110.005 259.986L110.185 264.858Z" fill="black"/>
<path d="M117.28 268.7C117.335 268.627 117.369 268.541 117.38 268.451C117.391 268.36 117.378 268.268 117.341 268.185C117.323 268.127 117.29 268.074 117.246 268.032C117.202 267.99 117.148 267.96 117.089 267.944C116.58 267.804 115.527 268.706 115.409 268.812C115.402 268.827 115.397 268.843 115.397 268.86C115.397 268.876 115.402 268.892 115.409 268.907C115.417 268.925 115.428 268.941 115.443 268.954C115.457 268.966 115.475 268.975 115.493 268.98C115.853 269.019 116.215 269.019 116.574 268.98C116.835 268.972 117.084 268.873 117.28 268.7V268.7ZM115.712 268.812C116.137 268.493 116.776 268.056 117.05 268.134C117.078 268.143 117.103 268.158 117.123 268.179C117.144 268.199 117.159 268.224 117.168 268.252C117.2 268.303 117.216 268.362 117.216 268.423C117.216 268.483 117.2 268.542 117.168 268.594C117 268.812 116.473 268.89 115.734 268.823L115.712 268.812Z" fill="#184466"/>
<path d="M115.533 268.957C115.908 268.672 116.412 267.764 116.278 267.339C116.251 267.263 116.201 267.198 116.134 267.154C116.067 267.109 115.988 267.088 115.908 267.092C115.834 267.089 115.761 267.102 115.694 267.133C115.627 267.163 115.568 267.209 115.522 267.266C115.158 267.703 115.398 268.851 115.387 268.896C115.389 268.911 115.394 268.926 115.403 268.939C115.412 268.951 115.424 268.962 115.438 268.968H115.488L115.533 268.957ZM115.886 267.277C116.026 267.277 116.087 267.344 116.076 267.395C116.068 267.883 115.866 268.348 115.516 268.688C115.421 268.251 115.464 267.795 115.639 267.384C115.663 267.354 115.692 267.329 115.726 267.312C115.76 267.294 115.797 267.284 115.835 267.283L115.886 267.277Z" fill="#184466"/>
<path d="M78.4497 255.786L82.4089 256.621L79.5249 265.581L75.5713 264.741L78.4497 255.786Z" fill="#F7978D"/>
<path d="M80.6 265.586C81.524 266.706 83.4392 268.061 86.452 269.394C87.124 269.696 86.8272 271.343 85.1696 270.996C83.512 270.648 80.2248 269.814 79.0096 269.562C77.0552 269.148 76.2992 269.08 74.748 268.784C74.6548 268.766 74.566 268.729 74.4871 268.676C74.4082 268.624 74.3406 268.555 74.2884 268.476C74.2362 268.397 74.2005 268.308 74.1832 268.214C74.166 268.121 74.1676 268.025 74.188 267.932L75.1456 264.46C75.1654 264.388 75.2126 264.325 75.2774 264.287C75.3421 264.248 75.4194 264.236 75.4928 264.253L79.9392 265.194C80.1976 265.246 80.4307 265.384 80.6 265.586Z" fill="#263238"/>
<path opacity="0.2" d="M76.9653 260.406L80.9189 261.241L82.4085 256.626L78.4493 255.792L76.9653 260.406Z" fill="black"/>
<path d="M103.588 171.96C103.588 171.96 107.799 208.399 108.118 222.024C108.415 234.574 108.208 262.344 108.208 262.344L115.488 262.002C115.488 262.002 118.517 236.203 119.408 223.553C120.203 211.978 117.728 174.939 117.728 174.939L103.588 171.96Z" fill="#184466"/>
<path opacity="0.2" d="M105.318 186.335C105.968 193.872 106.853 203.572 107.659 211.686C109.339 206.993 110.347 195.177 108.354 187.936C107.15 183.529 106.08 184.498 105.318 186.335Z" fill="black"/>
<path d="M107.015 260.888L116.406 260.171L115.975 263.256L108.074 263.912L107.015 260.888Z" fill="#263238"/>
<path d="M95.3449 173.365C95.3449 173.365 88.5465 206.904 86.2001 220.327C84.0329 232.692 75.5601 258.911 75.5601 258.911L82.7841 260.44C82.7841 260.44 94.7905 233.912 98.1169 221.665C101.158 210.465 108.757 176.199 108.757 176.199L95.3449 173.365Z" fill="#184466"/>
<path d="M75.3642 256.453L85.097 258.065L84.0834 260.72L75.2466 258.849L75.3642 256.453Z" fill="#263238"/>
<path d="M82.0001 266.146C82.077 266.094 82.1381 266.021 82.1766 265.936C82.2151 265.851 82.2296 265.757 82.2185 265.665C82.2221 265.604 82.2094 265.544 82.1819 265.489C82.1543 265.435 82.1128 265.389 82.0617 265.357C81.6249 265.066 80.3369 265.592 80.1913 265.654C80.1761 265.664 80.1633 265.677 80.1536 265.692C80.144 265.708 80.1377 265.725 80.1353 265.743C80.1364 265.761 80.1421 265.778 80.152 265.793C80.1618 265.807 80.1754 265.819 80.1913 265.827C80.5192 265.984 80.8627 266.106 81.2161 266.191C81.4742 266.271 81.7527 266.255 82.0001 266.146ZM80.5049 265.738C81.0201 265.542 81.7481 265.346 81.9609 265.514C81.9852 265.53 82.0047 265.553 82.0175 265.579C82.0303 265.606 82.0358 265.635 82.0337 265.665C82.0423 265.725 82.0344 265.787 82.0108 265.843C81.9871 265.899 81.9485 265.948 81.8993 265.984C81.6753 266.124 81.1489 266.034 80.4713 265.749L80.5049 265.738Z" fill="#184466"/>
<path d="M80.2582 265.833C80.695 265.676 81.4678 264.982 81.4678 264.528C81.4678 264.447 81.4408 264.368 81.3911 264.304C81.3414 264.241 81.2718 264.195 81.1934 264.175C81.1244 264.15 81.0503 264.141 80.9773 264.15C80.9043 264.159 80.8344 264.185 80.7734 264.226C80.2918 264.528 80.1462 265.682 80.135 265.732C80.1331 265.747 80.1352 265.762 80.1411 265.776C80.147 265.789 80.1565 265.801 80.1686 265.81H80.2134L80.2582 265.833ZM81.1318 264.36C81.2662 264.41 81.2942 264.478 81.283 264.534C81.283 264.83 80.7566 265.374 80.3534 265.592C80.3892 265.135 80.5741 264.702 80.8798 264.36C80.9118 264.34 80.9478 264.326 80.9854 264.32C81.023 264.314 81.0614 264.317 81.0982 264.326L81.1318 264.36Z" fill="#184466"/>
<path d="M82.0781 180.847C83.0189 179.906 83.1589 178.876 83.7581 177.784C84.1557 177.039 83.2373 177.33 84.1557 177.425C84.4965 177.5 84.8272 177.615 85.1413 177.767C85.9365 178.075 86.7037 178.456 87.5101 178.741C88.1989 178.988 89.4365 178.876 90.0245 179.217C90.9765 179.777 90.0637 182.241 89.8621 183.036C89.6269 184 91.0997 184.504 91.3349 183.529C91.6821 182.14 92.5669 179.665 91.4973 178.36C90.8309 177.548 89.8173 177.711 88.8877 177.532C87.1461 177.196 85.3653 175.605 83.5397 175.796C83.2672 175.806 83.0039 175.897 82.7835 176.058C82.563 176.218 82.3955 176.441 82.3021 176.697C82.0109 177.336 82.1789 178.047 81.7981 178.719C81.598 179.068 81.3533 179.39 81.0701 179.676C80.3645 180.382 81.3837 181.552 82.0949 180.847H82.0781Z" fill="#184466"/>
<g opacity="0.3">
<path opacity="0.3" d="M82.0781 180.847C83.0189 179.906 83.1589 178.876 83.7581 177.784C84.1557 177.039 83.2373 177.33 84.1557 177.425C84.4965 177.5 84.8272 177.615 85.1413 177.767C85.9365 178.075 86.7037 178.456 87.5101 178.741C88.1989 178.988 89.4365 178.876 90.0245 179.217C90.9765 179.777 90.0637 182.241 89.8621 183.036C89.6269 184 91.0997 184.504 91.3349 183.529C91.6821 182.14 92.5669 179.665 91.4973 178.36C90.8309 177.548 89.8173 177.711 88.8877 177.532C87.1461 177.196 85.3653 175.605 83.5397 175.796C83.2672 175.806 83.0039 175.897 82.7835 176.058C82.563 176.218 82.3955 176.441 82.3021 176.697C82.0109 177.336 82.1789 178.047 81.7981 178.719C81.598 179.068 81.3533 179.39 81.0701 179.676C80.3645 180.382 81.3837 181.552 82.0949 180.847H82.0781Z" fill="black"/>
</g>
<path d="M71.4915 176.886L99.4895 186.271C99.9457 186.423 100.323 186.751 100.537 187.182C100.752 187.613 100.786 188.111 100.633 188.567L95.6109 203.551C95.3471 204.339 94.7813 204.989 94.0381 205.359C93.2949 205.729 92.4351 205.789 91.648 205.525L66.1615 196.982C65.3743 196.718 64.7242 196.153 64.3541 195.409C63.984 194.666 63.9244 193.806 64.1882 193.019L69.2105 178.035C69.3625 177.582 69.6874 177.207 70.1146 176.991C70.5418 176.776 71.0366 176.738 71.4915 176.886V176.886Z" fill="#184466"/>
<path opacity="0.3" d="M71.4915 176.886L99.4895 186.271C99.9457 186.423 100.323 186.751 100.537 187.182C100.752 187.613 100.786 188.111 100.633 188.567L95.6109 203.551C95.3471 204.339 94.7813 204.989 94.0381 205.359C93.2949 205.729 92.4351 205.789 91.648 205.525L66.1615 196.982C65.3743 196.718 64.7242 196.153 64.3541 195.409C63.984 194.666 63.9244 193.806 64.1882 193.019L69.2105 178.035C69.3625 177.582 69.6874 177.207 70.1146 176.991C70.5418 176.776 71.0366 176.738 71.4915 176.886V176.886Z" fill="white"/>
<path d="M83.9012 188.457L79.4946 201.047L80.0232 201.232L84.4298 188.642L83.9012 188.457Z" fill="#184466"/>
<g opacity="0.3">
<path opacity="0.3" d="M83.9012 188.457L79.4946 201.047L80.0232 201.232L84.4298 188.642L83.9012 188.457Z" fill="black"/>
</g>
<path opacity="0.2" d="M99.007 188.099L70.7494 178.629C70.3276 178.489 69.8673 178.522 69.4695 178.72C69.0717 178.918 68.7687 179.266 68.627 179.688L68.431 180.248C68.0332 181.437 68.1236 182.735 68.6821 183.857C69.2407 184.98 70.2219 185.834 71.4102 186.234L93.8886 193.8C94.4773 193.996 95.0989 194.075 95.7181 194.032C96.3373 193.988 96.9418 193.823 97.4972 193.546C98.0525 193.269 98.5479 192.885 98.9549 192.416C99.3619 191.948 99.6727 191.404 99.8694 190.815L100.065 190.255C100.14 190.044 100.172 189.82 100.159 189.597C100.146 189.374 100.088 189.155 99.9896 188.954C99.8911 188.753 99.7533 188.574 99.5846 188.427C99.4159 188.281 99.2195 188.169 99.007 188.099V188.099Z" fill="black"/>
<path d="M99.6288 186.318L71.36 176.849C71.1507 176.778 70.9297 176.75 70.7095 176.765C70.4893 176.78 70.2743 176.839 70.0767 176.937C69.879 177.035 69.7027 177.172 69.5578 177.338C69.4128 177.504 69.3021 177.698 69.232 177.907L69.036 178.467C68.6382 179.656 68.7286 180.954 69.2871 182.077C69.8457 183.199 70.8268 184.054 72.0152 184.454L94.5104 192.008C95.6978 192.402 96.993 192.309 98.112 191.749C99.231 191.19 100.083 190.209 100.48 189.023L100.676 188.463C100.749 188.254 100.78 188.032 100.767 187.81C100.754 187.589 100.697 187.372 100.599 187.172C100.502 186.973 100.366 186.795 100.2 186.648C100.033 186.502 99.839 186.39 99.6288 186.318V186.318Z" fill="#184466"/>
<path d="M99.6288 186.318L71.36 176.849C71.1507 176.778 70.9297 176.75 70.7095 176.765C70.4893 176.78 70.2743 176.839 70.0767 176.937C69.879 177.035 69.7027 177.172 69.5578 177.338C69.4128 177.504 69.3021 177.698 69.232 177.907L69.036 178.467C68.6382 179.656 68.7286 180.954 69.2871 182.077C69.8457 183.199 70.8268 184.054 72.0152 184.454L94.5104 192.008C95.6978 192.402 96.993 192.309 98.112 191.749C99.231 191.19 100.083 190.209 100.48 189.023L100.676 188.463C100.749 188.254 100.78 188.032 100.767 187.81C100.754 187.589 100.697 187.372 100.599 187.172C100.502 186.973 100.366 186.795 100.2 186.648C100.033 186.502 99.839 186.39 99.6288 186.318V186.318Z" fill="#184466"/>
<path opacity="0.5" d="M99.6288 186.318L71.36 176.849C71.1507 176.778 70.9297 176.75 70.7095 176.765C70.4893 176.78 70.2743 176.839 70.0767 176.937C69.879 177.035 69.7027 177.172 69.5578 177.338C69.4128 177.504 69.3021 177.698 69.232 177.907L69.036 178.467C68.6382 179.656 68.7286 180.954 69.2871 182.077C69.8457 183.199 70.8268 184.054 72.0152 184.454L94.5104 192.008C95.6978 192.402 96.993 192.309 98.112 191.749C99.231 191.19 100.083 190.209 100.48 189.023L100.676 188.463C100.749 188.254 100.78 188.032 100.767 187.81C100.754 187.589 100.697 187.372 100.599 187.172C100.502 186.973 100.366 186.795 100.2 186.648C100.033 186.502 99.839 186.39 99.6288 186.318V186.318Z" fill="white"/>
<path d="M77.0594 183.171L76.1248 182.858C75.5529 182.667 74.9341 182.975 74.7425 183.547L73.3195 187.795C73.1279 188.367 73.4362 188.985 74.0081 189.177L74.9426 189.49C75.5145 189.682 76.1334 189.373 76.3249 188.801L77.7479 184.553C77.9395 183.982 77.6312 183.363 77.0594 183.171Z" fill="#184466"/>
<path d="M92.2812 188.268L91.3465 187.955C90.7747 187.764 90.1558 188.072 89.9644 188.644L88.5421 192.892C88.3506 193.464 88.659 194.083 89.2309 194.274L90.1655 194.587C90.7374 194.779 91.3563 194.47 91.5477 193.898L92.97 189.65C93.1614 189.078 92.853 188.459 92.2812 188.268Z" fill="#184466"/>
<path d="M77.0594 183.171L76.1248 182.858C75.5529 182.667 74.9341 182.975 74.7425 183.547L73.3195 187.795C73.1279 188.367 73.4362 188.985 74.0081 189.177L74.9426 189.49C75.5145 189.682 76.1334 189.373 76.3249 188.801L77.7479 184.553C77.9395 183.982 77.6312 183.363 77.0594 183.171Z" fill="white"/>
<path d="M92.2812 188.268L91.3465 187.955C90.7747 187.764 90.1558 188.072 89.9644 188.644L88.5421 192.892C88.3506 193.464 88.659 194.083 89.2309 194.274L90.1655 194.587C90.7374 194.779 91.3563 194.47 91.5477 193.898L92.97 189.65C93.1614 189.078 92.853 188.459 92.2812 188.268Z" fill="white"/>
<path d="M122.801 144.688C123.053 145.186 123.361 145.78 123.664 146.323C123.966 146.866 124.28 147.443 124.599 148.003C125.243 149.095 125.898 150.17 126.593 151.189C127.264 152.178 127.99 153.13 128.765 154.04C129.394 154.805 130.136 155.47 130.966 156.011L131.078 156.078H131.129H131.269C131.58 156.072 131.887 156.002 132.17 155.871C133.13 155.412 134.019 154.816 134.808 154.101C135.746 153.305 136.629 152.446 137.451 151.531C137.877 151.06 138.302 150.596 138.711 150.108C139.12 149.621 139.54 149.106 139.904 148.658L139.971 148.568C140.3 148.106 140.796 147.791 141.354 147.689C141.912 147.587 142.488 147.706 142.959 148.022C143.43 148.338 143.759 148.825 143.877 149.38C143.994 149.935 143.891 150.513 143.589 150.993C142.202 153.528 140.509 155.883 138.549 158.004C137.44 159.192 136.16 160.208 134.752 161.017C133.849 161.521 132.859 161.85 131.834 161.986C131.213 162.063 130.585 162.044 129.969 161.93C129.647 161.874 129.331 161.79 129.023 161.678C128.87 161.634 128.721 161.574 128.581 161.499L128.245 161.348C126.736 160.563 125.368 159.533 124.196 158.301C123.15 157.253 122.182 156.13 121.301 154.941C120.438 153.782 119.621 152.606 118.893 151.396C118.501 150.797 118.153 150.209 117.806 149.576C117.459 148.944 117.129 148.367 116.776 147.667C116.575 147.272 116.455 146.841 116.421 146.399C116.387 145.957 116.441 145.513 116.578 145.091C116.716 144.67 116.936 144.28 117.224 143.944C117.513 143.608 117.865 143.331 118.26 143.131C118.655 142.93 119.086 142.81 119.528 142.776C119.97 142.742 120.414 142.796 120.835 142.933C121.256 143.071 121.646 143.291 121.983 143.579C122.319 143.868 122.595 144.22 122.796 144.615V144.615L122.801 144.688Z" fill="#263238"/>
<path d="M141.769 150.355L144.944 151.509L144.726 147.801C144.726 147.801 141.422 146.631 140.985 148.361V149.173C140.977 149.427 141.048 149.677 141.189 149.889C141.329 150.101 141.532 150.264 141.769 150.355V150.355Z" fill="#F7978D"/>
<path d="M148.209 150.63L148.881 147.46L144.726 147.796L144.944 151.509L148.209 150.63Z" fill="#F7978D"/>
<path opacity="0.3" d="M123.742 157.68C123.373 157.248 123.014 156.823 122.667 156.392C121.585 155.003 120.608 153.535 119.744 152.001C118.892 150.51 118.125 148.971 117.448 147.392C117.353 147.168 117.263 146.944 117.173 146.72C118.853 145.707 122.482 146.205 123.653 150.915C124.122 153.142 124.152 155.44 123.742 157.68V157.68Z" fill="black"/>
<path d="M116.468 177.834L95.3447 173.354C95.5911 171.433 97.3159 165.38 98.6599 157.489C99.501 152.046 99.9855 146.554 100.11 141.048C100.11 141.048 100.11 141.014 100.11 140.997C100.129 140.658 100.214 140.326 100.361 140.02C100.509 139.714 100.715 139.44 100.968 139.213C101.222 138.987 101.517 138.813 101.838 138.701C102.159 138.589 102.498 138.542 102.838 138.561H102.882C104.198 138.64 105.839 138.791 107.424 139.043C110.453 139.509 113.454 140.145 116.412 140.947C117.387 141.259 118.341 141.633 119.268 142.067C119.919 142.347 120.482 142.797 120.897 143.371C121.312 143.945 121.564 144.621 121.626 145.326C122.001 149.985 121.822 159.018 116.468 177.834Z" fill="white"/>
<path d="M113.802 144.016L113.197 145.226C113.163 145.322 113.1 145.405 113.017 145.465C112.934 145.525 112.835 145.559 112.733 145.562L111.68 145.472C111.529 145.472 111.405 145.338 111.349 145.142L110.924 143.691L112.492 142.717L113.802 144.016Z" fill="#184466"/>
<path d="M107.2 138.69C105.52 138.421 103.801 138.27 102.412 138.18H102.367H102.289C101.57 138.159 100.871 138.424 100.347 138.916C99.822 139.408 99.5135 140.088 99.4886 140.807C99.3561 146.62 98.8473 152.419 97.9654 158.167C95.9102 172.889 93.8774 175.818 93.8774 175.818L103.28 177.56C106.13 164.187 108.32 145.92 108.096 138.813L107.2 138.69Z" fill="#263238"/>
<path opacity="0.3" d="M98.2788 156.095C98.962 151.341 99.2588 146.435 99.3988 142.851C99.4434 142.804 99.4921 142.761 99.5444 142.722C100.726 141.714 103.677 144.128 102.871 148.647C102.126 152.92 100.037 155.518 98.2788 156.095Z" fill="black"/>
<path d="M118.058 180.92L112.369 179.397C115.941 154.337 116.776 147.678 115.969 140.656C117.379 141.026 118.768 141.471 120.13 141.989C120.843 142.334 121.453 142.858 121.903 143.51C122.352 144.161 122.625 144.918 122.695 145.707C123.177 149.616 120.197 159.64 118.058 180.92Z" fill="#263238"/>
<path d="M111.5 170.565C111.643 170.496 111.798 170.455 111.956 170.446C112.115 170.436 112.273 170.458 112.423 170.51C112.573 170.562 112.711 170.643 112.83 170.749C112.948 170.854 113.044 170.982 113.113 171.125V171.125C113.222 171.339 113.265 171.58 113.237 171.818C113.209 172.056 113.11 172.28 112.954 172.462C112.799 172.644 112.592 172.776 112.361 172.84C112.13 172.905 111.886 172.899 111.658 172.824C111.43 172.749 111.23 172.609 111.083 172.42C110.935 172.231 110.847 172.002 110.829 171.763C110.812 171.524 110.866 171.286 110.984 171.077C111.103 170.869 111.28 170.7 111.495 170.593L111.5 170.565Z" fill="#263238"/>
<path d="M110.789 172.296C110.705 172.131 110.654 171.952 110.639 171.768C110.624 171.584 110.645 171.399 110.702 171.223C110.759 171.047 110.85 170.884 110.969 170.743C111.089 170.603 111.235 170.487 111.4 170.403V170.403C111.564 170.318 111.744 170.266 111.929 170.252C112.113 170.237 112.299 170.26 112.475 170.319C112.695 170.389 112.895 170.513 113.056 170.679C113.217 170.845 113.335 171.049 113.399 171.271C113.462 171.494 113.47 171.729 113.421 171.955C113.372 172.181 113.268 172.392 113.118 172.568C112.969 172.745 112.777 172.881 112.562 172.966C112.347 173.051 112.114 173.081 111.884 173.054C111.654 173.027 111.434 172.944 111.244 172.811C111.054 172.679 110.9 172.502 110.795 172.296H110.789Z" fill="white"/>
<path d="M112.637 142.744C108.129 142.044 107.077 139.037 107.077 139.037C109.445 137.497 109.809 132.06 109.759 129.024L111.736 131.528L114.435 134.938C114.25 135.357 114.088 135.785 113.948 136.22C113.388 137.956 113.517 139.676 115.997 140.846C115.997 140.846 116.479 143.327 112.637 142.744Z" fill="#F7978D"/>
<path d="M106.237 138.505L107.715 138.292C108.895 140.095 110.479 141.598 112.341 142.683C111.356 143.078 110.511 143.759 109.916 144.637C105.52 142.028 106.237 138.505 106.237 138.505Z" fill="white"/>
<path d="M116.031 140.6L114.81 140.04C114.81 140.04 113.729 142.594 112.335 142.689C114.446 144.066 114.575 145.282 114.575 145.282C118.114 144.923 116.031 140.6 116.031 140.6Z" fill="white"/>
<path opacity="0.2" d="M114.093 135.811L111.506 132.563C111.39 132.973 111.319 133.393 111.293 133.818C111.209 135.106 112.548 136.735 113.713 137.251L114.093 135.811Z" fill="black"/>
<path d="M116.933 129.882C116.933 129.882 117.073 131.898 119.173 131.125C119.262 128.98 119.968 129.142 120.696 127.882C121.169 127.187 121.444 126.377 121.493 125.538C121.543 124.699 121.364 123.862 120.976 123.117L119.637 122.439C114.418 120.821 116.933 129.882 116.933 129.882Z" fill="#263238"/>
<path opacity="0.6" d="M116.933 129.882C116.933 129.882 117.073 131.898 119.173 131.125C119.262 128.98 119.968 129.142 120.696 127.882C121.169 127.187 121.444 126.377 121.493 125.538C121.543 124.699 121.364 123.862 120.976 123.117L119.637 122.439C114.418 120.821 116.933 129.882 116.933 129.882Z" fill="white"/>
<path d="M111.478 121.728C112.413 120.681 113.725 120.048 115.125 119.968C116.526 119.888 117.902 120.368 118.949 121.302C122.202 124.063 121.06 129.943 119.229 133.129C118.767 133.962 118.087 134.653 117.262 135.128C116.437 135.603 115.498 135.844 114.546 135.824C113.594 135.805 112.665 135.525 111.86 135.017C111.055 134.509 110.404 133.79 109.978 132.939C108.628 130.329 109.345 128.084 110.246 124.164C110.438 123.258 110.862 122.418 111.478 121.728V121.728Z" fill="#F7978D"/>
<path d="M109.608 127.72C109.608 127.72 110.134 129.461 112.038 128.532C111.708 126.65 112.424 126.701 112.895 125.508C113.219 124.82 113.331 124.05 113.216 123.299C113.101 122.547 112.765 121.846 112.251 121.285L110.812 120.865C103.968 120.221 109.608 127.72 109.608 127.72Z" fill="#263238"/>
<path opacity="0.6" d="M109.608 127.72C109.608 127.72 110.134 129.461 112.038 128.532C111.708 126.65 112.424 126.701 112.895 125.508C113.219 124.82 113.331 124.05 113.216 123.299C113.101 122.547 112.765 121.846 112.251 121.285L110.812 120.865C103.968 120.221 109.608 127.72 109.608 127.72Z" fill="white"/>
<path d="M116.401 116.973C116.048 116.845 115.667 116.811 115.297 116.877C114.927 116.943 114.582 117.106 114.295 117.349C113.92 117.673 113.556 118.172 113.069 118.077C112.83 117.991 112.612 117.855 112.43 117.679C111.646 117.119 110.504 117.36 109.742 117.953C109.028 118.604 108.436 119.378 107.995 120.238C107.554 121.105 106.881 121.831 106.052 122.338C106.829 122.709 107.675 122.912 108.536 122.933C109.397 122.954 110.253 122.794 111.047 122.461C110.6 123.013 109.987 123.406 109.3 123.581C110.881 124.033 112.572 123.896 114.06 123.195C114.894 122.797 115.667 122.221 116.58 122.075C117.493 121.929 118.613 122.411 118.697 123.329C118.747 123.217 118.819 123.116 118.91 123.032C119.001 122.949 119.108 122.885 119.225 122.844C119.341 122.804 119.465 122.788 119.588 122.797C119.711 122.806 119.831 122.841 119.94 122.898C120.371 123.163 120.711 123.554 120.914 124.018C121.115 124.479 121.434 124.879 121.838 125.177C122.045 125.318 122.299 125.37 122.544 125.324C122.79 125.278 123.007 125.137 123.149 124.931C122.815 124.904 122.502 124.759 122.266 124.522C122.03 124.285 121.886 123.971 121.861 123.637C122.352 123.912 122.925 124.005 123.479 123.901C122.751 123.856 121.323 121.252 121.105 120.541C120.925 119.826 120.518 119.189 119.945 118.726C119.262 118.256 118.573 119.073 117.929 118.726C117.285 118.379 117.129 117.248 116.401 116.973Z" fill="#263238"/>
<path d="M115.493 131.119C114.97 130.682 114.642 130.056 114.581 129.377L115.701 129.825C116.177 130.01 117.543 130.587 117.241 131.337C116.938 132.088 115.857 131.416 115.493 131.119Z" fill="#263238"/>
<path d="M118.708 132.351C119.046 132.344 119.379 132.27 119.689 132.133C119.998 131.997 120.278 131.801 120.511 131.556L119.341 131.198C118.853 131.046 117.425 130.638 117.19 131.427C116.955 132.217 118.232 132.357 118.708 132.351Z" fill="#263238"/>
<path d="M117.157 131.08C117.384 131.223 117.64 131.316 117.907 131.351C118.174 131.386 118.446 131.362 118.702 131.281C118.329 130.263 118.096 129.198 118.008 128.117L117.157 131.08Z" fill="#FF5652"/>
<path d="M109.832 125.021C110.784 125.34 111.159 126.936 111.114 127.933C111.064 129.053 110.33 129.742 109.507 129.053C108.873 128.463 108.463 127.671 108.348 126.813C108.202 125.693 108.88 124.696 109.832 125.021Z" fill="#F7978D"/>
<path d="M116.16 126.79C116.361 126.863 116.44 127.199 116.356 127.485C116.272 127.77 116.031 127.966 115.829 127.899C115.628 127.832 115.561 127.535 115.628 127.216C115.695 126.897 115.953 126.723 116.16 126.79Z" fill="#263238"/>
<path d="M119.693 127.765C119.9 127.832 119.984 128.134 119.895 128.448C119.805 128.762 119.564 128.969 119.363 128.896C119.161 128.823 119.072 128.521 119.161 128.207C119.251 127.894 119.52 127.72 119.693 127.765Z" fill="#263238"/>
<path d="M116.804 132.81C116.829 132.812 116.854 132.805 116.874 132.791C116.895 132.777 116.909 132.756 116.916 132.732C116.919 132.706 116.913 132.681 116.899 132.66C116.884 132.639 116.862 132.625 116.837 132.62C116.43 132.564 116.041 132.415 115.7 132.185C115.359 131.955 115.076 131.649 114.872 131.292C114.86 131.27 114.84 131.253 114.816 131.245C114.792 131.237 114.766 131.238 114.743 131.248C114.721 131.259 114.704 131.279 114.696 131.303C114.687 131.327 114.688 131.353 114.698 131.376C114.881 131.708 115.129 131.999 115.427 132.232C115.726 132.465 116.068 132.635 116.434 132.732C116.552 132.76 116.681 132.76 116.804 132.81Z" fill="#263238"/>
<path d="M119.57 126.415C119.577 126.446 119.591 126.475 119.612 126.5C119.632 126.524 119.658 126.543 119.688 126.555C119.922 126.626 120.137 126.75 120.317 126.917C120.496 127.084 120.636 127.29 120.724 127.518C120.729 127.542 120.739 127.565 120.753 127.585C120.767 127.605 120.786 127.621 120.807 127.634C120.828 127.647 120.851 127.655 120.875 127.658C120.9 127.661 120.924 127.659 120.948 127.653V127.653C120.995 127.637 121.035 127.604 121.059 127.561C121.083 127.517 121.089 127.466 121.077 127.418V127.418C120.974 127.128 120.805 126.866 120.583 126.653C120.361 126.441 120.093 126.282 119.8 126.191C119.751 126.177 119.699 126.182 119.655 126.205C119.61 126.228 119.576 126.267 119.559 126.314C119.551 126.348 119.555 126.384 119.57 126.415V126.415Z" fill="#263238"/>
<path d="M115.488 125.418C115.513 125.437 115.542 125.45 115.573 125.456C115.604 125.462 115.636 125.46 115.667 125.452C115.896 125.366 116.143 125.333 116.387 125.355C116.631 125.377 116.868 125.454 117.078 125.581C117.117 125.61 117.165 125.623 117.214 125.617C117.262 125.611 117.306 125.586 117.336 125.547V125.547C117.365 125.507 117.377 125.457 117.37 125.408C117.362 125.358 117.336 125.314 117.296 125.284C117.038 125.118 116.744 125.015 116.439 124.984C116.133 124.953 115.824 124.994 115.538 125.105C115.514 125.112 115.492 125.125 115.473 125.141C115.454 125.157 115.438 125.177 115.427 125.2C115.416 125.222 115.41 125.247 115.409 125.272C115.408 125.297 115.412 125.322 115.42 125.346C115.437 125.374 115.46 125.399 115.488 125.418V125.418Z" fill="#263238"/>
<path d="M85.2197 174.144L84.4917 174.065C82.7781 174.889 84.6373 178.058 84.6373 178.058L89.6773 177.442L88.2157 175.762C87.4567 174.865 86.3866 174.287 85.2197 174.144V174.144Z" fill="#F7978D"/>
<path d="M89.8398 179.615L89.6718 177.437L84.6318 178.053L84.9118 180.634C84.9092 180.671 84.9092 180.709 84.9118 180.746C84.936 180.845 84.9795 180.937 85.0397 181.019C85.1 181.1 85.1757 181.169 85.2627 181.221C85.3496 181.273 85.4461 181.308 85.5464 181.322C85.6467 181.337 85.7488 181.331 85.847 181.306L89.2798 180.405C89.4497 180.357 89.5981 180.253 89.7001 180.109C89.8021 179.965 89.8514 179.791 89.8398 179.615V179.615Z" fill="#F7978D"/>
<path d="M114.58 165.01C114.58 165.01 112.828 169.227 112.055 168.644C111.282 168.062 109.501 164.836 109.496 164.769C109.49 164.702 111.68 145.472 111.68 145.472L112.727 145.561C112.301 147.717 114.58 165.01 114.58 165.01Z" fill="#184466"/>
<path d="M85.7185 154.6C83.6241 157.579 83.1201 171.635 83.6801 175.247C84.123 174.751 84.7308 174.432 85.3908 174.349C86.0508 174.267 86.7184 174.427 87.2697 174.799C87.3201 172.324 89.3249 163.481 90.1873 159.791C90.4347 158.753 91.0443 157.838 91.9065 157.209C95.6025 154.533 102.294 149.235 103.034 147.129C104.226 143.769 103.202 136.881 100.234 138.998C97.4225 141.02 87.3817 152.197 85.7185 154.6Z" fill="#263238"/>
<path d="M253.276 83.732C252.876 83.6383 252.484 83.5109 252.106 83.3512C251.4 83.0768 250.499 82.612 249.552 82.1584C248.768 81.7691 247.924 81.5153 247.055 81.408C246.388 81.3352 245.935 81.408 245.873 81.2344C245.811 81.0608 246.203 80.736 246.993 80.5848C248.036 80.4433 249.097 80.6251 250.034 81.1056C250.911 81.5632 251.711 82.1567 252.403 82.864C252.951 83.3848 253.276 83.732 253.276 83.732Z" fill="#184466"/>
<path d="M257.386 80.4222L256.541 80.7526C256.037 80.9598 255.421 81.251 254.693 81.559C253.276 82.1862 252.066 82.8358 251.893 82.5502C251.803 82.4214 251.988 82.1022 252.397 81.7102C252.939 81.1964 253.569 80.7831 254.256 80.4894C254.961 80.1842 255.735 80.0758 256.496 80.1758C256.727 80.2063 256.954 80.2607 257.174 80.3382L257.386 80.4222Z" fill="#184466"/>
<path d="M245.649 86.2016L245.419 86.0616C245.274 85.9664 245.055 85.8432 244.792 85.7032C244.128 85.345 243.435 85.0434 242.72 84.8016C241.074 84.208 239.601 84.3424 239.556 84.0904C239.556 83.9784 239.892 83.788 240.531 83.6984C241.366 83.6011 242.212 83.695 243.006 83.9728C243.8 84.2523 244.509 84.7304 245.067 85.3616C245.236 85.5478 245.386 85.7504 245.515 85.9664L245.649 86.2016Z" fill="#184466"/>
<path d="M247.267 82.7966L246.674 83.1382L245.358 83.8718C244.367 84.4318 243.599 85.0534 243.409 84.8854C243.325 84.8014 243.409 84.5382 243.661 84.1966C244.003 83.7374 244.438 83.3557 244.938 83.0766C245.441 82.8095 246.003 82.6746 246.573 82.6846C246.808 82.6926 247.042 82.7302 247.267 82.7966V82.7966Z" fill="#184466"/>
<path d="M244.283 80.859C244.283 80.859 243.723 80.663 242.871 80.299C242.02 79.935 240.872 79.431 239.612 79.0166C238.551 78.6588 237.432 78.503 236.314 78.5574C235.451 78.6078 234.903 78.7758 234.824 78.619C234.746 78.4622 235.199 78.059 236.163 77.751C237.421 77.4253 238.748 77.4799 239.976 77.9078C241.158 78.3251 242.246 78.97 243.179 79.8062C243.567 80.136 243.935 80.4875 244.283 80.859V80.859Z" fill="#184466"/>
<path d="M248.068 76.0486L247.755 76.1382C247.547 76.1886 247.262 76.2782 246.92 76.3846C246.062 76.6685 245.221 77.0014 244.4 77.3814C242.485 78.2382 241.253 79.5094 240.99 79.3078C240.867 79.2126 241.023 78.7478 241.511 78.143C242.165 77.3641 242.986 76.7422 243.913 76.323C244.84 75.9049 245.857 75.7277 246.87 75.8079C247.173 75.8293 247.473 75.8799 247.766 75.959L248.068 76.0486Z" fill="#184466"/>
<path d="M118.361 97.8772C117.962 97.7804 117.57 97.6531 117.191 97.4964C116.485 97.222 115.578 96.7572 114.637 96.298C113.85 95.9111 113.004 95.6575 112.134 95.5476C111.467 95.4748 111.014 95.5476 110.952 95.374C110.89 95.2004 111.282 94.8756 112.072 94.73C113.115 94.5853 114.177 94.7672 115.113 95.2508C115.992 95.7034 116.792 96.2953 117.482 97.0036C118.036 97.5244 118.361 97.8772 118.361 97.8772Z" fill="#184466"/>
<path d="M122.471 94.5676L121.62 94.898C121.116 95.0996 120.5 95.3908 119.772 95.7044C118.355 96.326 117.151 96.9756 116.972 96.6956C116.877 96.5612 117.067 96.2476 117.47 95.85C118.014 95.3375 118.643 94.9243 119.33 94.6292C120.035 94.328 120.808 94.2198 121.57 94.3156C121.798 94.3479 122.023 94.4023 122.242 94.478C122.32 94.5037 122.396 94.5336 122.471 94.5676Z" fill="#184466"/>
<path d="M110.734 100.342L110.498 100.202C110.353 100.106 110.14 99.9832 109.877 99.8432C109.212 99.4871 108.519 99.1856 107.805 98.9416C106.158 98.3816 104.68 98.4824 104.635 98.2304C104.635 98.1184 104.977 97.928 105.61 97.8384C106.447 97.7407 107.296 97.8365 108.09 98.1184C108.884 98.3954 109.594 98.8717 110.151 99.5016C110.319 99.6876 110.467 99.8903 110.594 100.106L110.734 100.342Z" fill="#184466"/>
<path d="M112.347 96.92L111.759 97.2616L110.443 98.04C109.446 98.6 108.684 99.2216 108.494 99.048C108.404 98.9696 108.494 98.7064 108.746 98.3592C109.09 97.9107 109.525 97.5403 110.023 97.2728C110.523 97.0032 111.084 96.8663 111.652 96.8752C111.885 96.8612 112.118 96.8762 112.347 96.92V96.92Z" fill="#184466"/>
</svg>
