<svg width="330" height="330" viewBox="0 0 330 330" fill="none" xmlns="http://www.w3.org/2000/svg">
<circle cx="165" cy="165" r="165" fill="#F2F2F2"/>
<path d="M276.944 248.154H258.396V248.294H276.944V248.154Z" fill="#EBEBEB"/>
<path d="M210.483 249.677H205.617V249.817H210.483V249.677Z" fill="#EBEBEB"/>
<path d="M257.837 242.958H247.09V243.098H257.837V242.958Z" fill="#EBEBEB"/>
<path d="M78.5639 243.898H54.3774V244.038H78.5639V243.898Z" fill="#EBEBEB"/>
<path d="M87.098 243.898H83.5532V244.038H87.098V243.898Z" fill="#EBEBEB"/>
<path d="M226.897 166.646H226.611L226.404 166.456L224.724 168.024C225.036 168.008 225.347 167.971 225.653 167.912L226.353 167.273V167.704C226.549 167.638 226.737 167.55 226.913 167.441L226.897 166.646ZM221.711 166.68V167.307C221.882 167.443 222.07 167.556 222.271 167.643V166.68H221.711Z" fill="#EBEBEB"/>
<path d="M252.718 175.259H248.003L247.998 171.014H252.713L252.718 175.259Z" fill="#FAFAFA"/>
<path d="M252.656 183.004H248.053L248.042 178.86H252.651L252.656 183.004Z" fill="#F0F0F0"/>
<path d="M252.617 190.552H248.121L248.109 186.509H252.612L252.617 190.552Z" fill="#F0F0F0"/>
<path d="M252.606 197.928H248.21L248.199 193.98H252.601L252.606 197.928Z" fill="#FAFAFA"/>
<path d="M270.633 197.928H266.237L266.242 193.98H270.638L270.633 197.928Z" fill="#F0F0F0"/>
<path d="M279.643 197.928H275.247L275.258 193.98H279.654L279.643 197.928Z" fill="#FAFAFA"/>
<path d="M261.796 206.216H256.902L256.896 201.82H261.802L261.796 206.216Z" fill="#FAFAFA"/>
<path d="M252.83 213.216H248.042L248.031 208.926H252.825L252.83 213.216Z" fill="#F0F0F0"/>
<path d="M237.106 199.042H242.75L242.734 193.98H237.089L237.106 199.042Z" fill="#E6E6E6"/>
<path d="M203.321 199.042H208.965L208.921 193.98H203.276L203.321 199.042Z" fill="#E6E6E6"/>
<path d="M236.893 208.926H242.974L242.957 203.478H236.87L236.893 208.926Z" fill="#E6E6E6"/>
<path d="M203.17 208.926H209.251L209.206 203.478H203.119L203.17 208.926Z" fill="#E6E6E6"/>
<path d="M203.36 217.965H209.262L209.223 212.684H203.315L203.36 217.965Z" fill="#E6E6E6"/>
<path d="M203.534 227.244H209.262L209.218 222.125H203.489L203.534 227.244Z" fill="#E6E6E6"/>
<path d="M72.9639 134.032H70.6567V136.339H72.9639V134.032Z" fill="#FAFAFA"/>
<path d="M75.8814 134.032H73.5742V136.339H75.8814V134.032Z" fill="#FAFAFA"/>
<path d="M57.6255 171.014L57.7431 178.753L57.7711 180.876L57.8047 183.004H62.5255L62.4975 180.876L62.4695 178.753L62.3631 171.014H57.6255Z" fill="#E6E6E6"/>
<path d="M66.6748 171.014L66.7812 178.753L66.8092 180.876L66.8372 183.004H71.558L71.5356 180.876L71.5076 178.753L71.4124 171.014H66.6748Z" fill="#E6E6E6"/>
<path d="M75.7305 171.014L75.8201 178.753L75.8593 182.035L75.8705 183.004H80.5969L80.5857 182.035L80.5465 178.753L80.4625 171.014H75.7305Z" fill="#E6E6E6"/>
<path d="M75.9375 186.509L76.0327 194.243L76.0551 196.365L76.0831 198.488H80.8095L80.7871 196.365L80.7647 194.243L80.6807 186.509H75.9375Z" fill="#E6E6E6"/>
<path d="M76.1392 201.82L76.2288 209.52L76.2624 212.443L76.2792 213.748H81L80.9888 212.443L80.9552 209.52L80.8712 201.82H76.1392Z" fill="#E6E6E6"/>
<path d="M70.3264 232.771H65.2863L65.1855 225.211H70.2311L70.3264 232.771Z" fill="#E6E6E6"/>
<path d="M95.8228 232.771H100.527L100.46 225.721H95.75L95.8228 232.771Z" fill="#E0E0E0"/>
<path d="M84.9702 175.259H98.0238L98.1302 186.51H85.1046L84.9702 175.259Z" fill="#F0F0F0"/>
<path d="M165 264.126C224.966 264.126 273.578 261.288 273.578 257.786C273.578 254.285 224.966 251.447 165 251.447C105.034 251.447 56.4214 254.285 56.4214 257.786C56.4214 261.288 105.034 264.126 165 264.126Z" fill="#F5F5F5"/>
<path d="M115.065 72.3872L117.154 75.0864H212.835L214.941 72.3872H115.065Z" fill="#184466"/>
<g opacity="0.4">
<path opacity="0.4" d="M115.065 72.3872L117.154 75.0864H212.835L214.941 72.3872H115.065Z" fill="black"/>
</g>
<path d="M212.857 68.9097H116.958V238.914H212.857V68.9097Z" fill="#184466"/>
<g opacity="0.4">
<path opacity="0.4" d="M212.857 68.9097H116.958V238.914H212.857V68.9097Z" fill="white"/>
</g>
<g opacity="0.8">
<path opacity="0.8" d="M120.844 73.0931C120.881 73.3401 120.865 73.5922 120.796 73.8322C120.727 74.0722 120.607 74.2946 120.444 74.4842C120.282 74.6738 120.08 74.8263 119.854 74.9312C119.627 75.0361 119.38 75.0911 119.131 75.0923C118.594 75.0712 118.082 74.8577 117.689 74.4906C117.297 74.1236 117.049 73.6276 116.992 73.0931C116.953 72.8446 116.968 72.5906 117.037 72.3485C117.105 72.1065 117.225 71.882 117.388 71.6906C117.552 71.4992 117.754 71.3453 117.983 71.2394C118.211 71.1335 118.459 71.0782 118.711 71.0771C119.249 71.1001 119.762 71.3166 120.154 71.687C120.546 72.0573 120.791 72.5566 120.844 73.0931Z" fill="#F0F0F0"/>
<path opacity="0.8" d="M124.378 73.0931C124.412 73.3416 124.393 73.5944 124.322 73.8348C124.25 74.0752 124.128 74.2975 123.964 74.4869C123.8 74.6762 123.597 74.8282 123.369 74.9326C123.141 75.0371 122.893 75.0915 122.642 75.0923C122.109 75.066 121.603 74.8501 121.215 74.4836C120.826 74.117 120.582 73.624 120.525 73.0931C120.488 72.8439 120.505 72.5897 120.575 72.3477C120.645 72.1056 120.766 71.8814 120.93 71.6903C121.095 71.4991 121.298 71.3454 121.526 71.2396C121.755 71.1339 122.004 71.0784 122.256 71.0771C122.792 71.1027 123.302 71.3204 123.692 71.6905C124.081 72.0606 124.325 72.5584 124.378 73.0931Z" fill="#F0F0F0"/>
<path opacity="0.8" d="M127.906 73.0931C127.938 73.3422 127.918 73.5953 127.845 73.8357C127.772 74.076 127.649 74.2982 127.484 74.4873C127.318 74.6764 127.115 74.8281 126.886 74.9325C126.658 75.0368 126.41 75.0913 126.159 75.0923C125.624 75.0726 125.116 74.8587 124.728 74.4906C124.34 74.1225 124.1 73.6256 124.053 73.0931C124.019 72.843 124.038 72.5884 124.11 72.3464C124.182 72.1044 124.305 71.8805 124.47 71.6897C124.636 71.4989 124.84 71.3455 125.069 71.2399C125.299 71.1343 125.548 71.0788 125.8 71.0771C126.337 71.0973 126.848 71.3137 127.236 71.6852C127.624 72.0567 127.862 72.5577 127.906 73.0931Z" fill="#F0F0F0"/>
<path opacity="0.8" d="M131.434 73.0931C131.463 73.3429 131.439 73.5961 131.364 73.836C131.289 74.076 131.164 74.2975 130.998 74.486C130.831 74.6746 130.627 74.826 130.398 74.9305C130.17 75.035 129.921 75.0901 129.67 75.0923C129.138 75.0722 128.631 74.8576 128.246 74.4892C127.861 74.1209 127.625 73.6242 127.581 73.0931C127.55 72.8418 127.573 72.5867 127.648 72.3447C127.722 72.1027 127.847 71.8792 128.015 71.6888C128.182 71.4985 128.387 71.3456 128.617 71.2402C128.848 71.1348 129.098 71.0792 129.351 71.0771C129.885 71.0978 130.393 71.315 130.778 71.6869C131.162 72.0589 131.396 72.5596 131.434 73.0931Z" fill="#F0F0F0"/>
<path opacity="0.8" d="M134.967 73.0931C134.994 73.3438 134.968 73.5973 134.89 73.8373C134.813 74.0773 134.687 74.2985 134.519 74.4867C134.351 74.675 134.146 74.8261 133.917 74.9304C133.687 75.0347 133.439 75.0898 133.186 75.0923C132.655 75.073 132.15 74.8583 131.768 74.4893C131.385 74.1203 131.153 73.6231 131.114 73.0931C131.085 72.8411 131.11 72.5859 131.186 72.3438C131.262 72.1018 131.388 71.8785 131.556 71.6884C131.724 71.4983 131.93 71.3456 132.16 71.2403C132.391 71.135 132.642 71.0794 132.895 71.0771C133.429 71.0956 133.938 71.3123 134.321 71.685C134.704 72.0577 134.934 72.5597 134.967 73.0931Z" fill="#F0F0F0"/>
<path opacity="0.8" d="M138.496 73.0931C138.52 73.3447 138.491 73.5986 138.412 73.8386C138.333 74.0786 138.205 74.2996 138.036 74.4875C137.867 74.6754 137.661 74.8262 137.43 74.9303C137.2 75.0344 136.951 75.0896 136.698 75.0923C136.168 75.0739 135.664 74.859 135.285 74.4894C134.905 74.1199 134.676 73.6221 134.643 73.0931C134.616 72.8402 134.643 72.5846 134.721 72.3426C134.799 72.1005 134.927 71.8775 135.096 71.6877C135.265 71.4979 135.472 71.3455 135.704 71.2404C135.935 71.1353 136.186 71.0797 136.44 71.0771C136.973 71.0947 137.48 71.3115 137.861 71.6849C138.241 72.0582 138.468 72.5608 138.496 73.0931Z" fill="#F0F0F0"/>
<path opacity="0.8" d="M142.04 73.0931C142.062 73.3456 142.031 73.5998 141.95 73.8398C141.869 74.0799 141.739 74.3006 141.569 74.4883C141.399 74.6759 141.191 74.8264 140.96 74.9303C140.729 75.0343 140.479 75.0894 140.226 75.0923C139.698 75.0748 139.195 74.8597 138.817 74.4896C138.44 74.1194 138.215 73.6211 138.187 73.0931C138.163 72.8397 138.191 72.5838 138.27 72.3417C138.349 72.0997 138.478 71.8768 138.648 71.6872C138.818 71.4976 139.026 71.3455 139.258 71.2404C139.49 71.1354 139.742 71.0798 139.996 71.0771C140.528 71.0949 141.034 71.3121 141.412 71.6857C141.791 72.0593 142.015 72.5617 142.04 73.0931Z" fill="#F0F0F0"/>
<path opacity="0.8" d="M145.557 73.0931C145.576 73.3469 145.543 73.602 145.46 73.8424C145.376 74.0829 145.244 74.3037 145.072 74.4911C144.9 74.6785 144.691 74.8286 144.459 74.932C144.226 75.0354 143.975 75.09 143.72 75.0923C143.193 75.0759 142.692 74.8606 142.317 74.4898C141.942 74.119 141.721 73.62 141.699 73.0931C141.677 72.8389 141.708 72.583 141.79 72.3413C141.871 72.0996 142.002 71.8773 142.173 71.6882C142.344 71.4991 142.553 71.3473 142.785 71.2421C143.017 71.137 143.269 71.0808 143.524 71.0771C144.056 71.0924 144.561 71.3092 144.939 71.6836C145.316 72.058 145.537 72.5619 145.557 73.0931Z" fill="#F0F0F0"/>
<path opacity="0.8" d="M149.085 73.0931C149.102 73.3469 149.067 73.6013 148.982 73.8411C148.898 74.0809 148.765 74.3009 148.593 74.4879C148.42 74.6749 148.212 74.8249 147.98 74.9288C147.748 75.0327 147.497 75.0883 147.243 75.0923C146.716 75.077 146.215 74.8618 145.842 74.4904C145.469 74.1191 145.251 73.6195 145.232 73.0931C145.213 72.8376 145.247 72.5809 145.33 72.3387C145.414 72.0966 145.547 71.8742 145.72 71.6854C145.893 71.4965 146.103 71.345 146.337 71.2404C146.571 71.1358 146.824 71.0803 147.08 71.0771C147.609 71.0928 148.112 71.3105 148.485 71.6856C148.857 72.0606 149.072 72.5644 149.085 73.0931Z" fill="#F0F0F0"/>
<path opacity="0.8" d="M152.619 73.0931C152.632 73.348 152.594 73.603 152.507 73.8428C152.42 74.0827 152.285 74.3025 152.111 74.4891C151.937 74.6757 151.727 74.8253 151.494 74.929C151.261 75.0326 151.009 75.0882 150.754 75.0923C150.228 75.0795 149.728 74.8646 149.357 74.4923C148.985 74.1199 148.772 73.6188 148.76 73.0931C148.744 72.8372 148.779 72.5806 148.865 72.3388C148.95 72.097 149.084 71.875 149.258 71.6865C149.432 71.498 149.642 71.3467 149.876 71.242C150.11 71.1372 150.363 71.0812 150.62 71.0771C151.149 71.0901 151.652 71.3072 152.025 71.6829C152.397 72.0587 152.61 72.564 152.619 73.0931Z" fill="#F0F0F0"/>
<path opacity="0.8" d="M156.147 73.0931C156.158 73.3484 156.118 73.6033 156.029 73.8428C155.941 74.0824 155.805 74.3018 155.63 74.488C155.455 74.6743 155.245 74.8238 155.011 74.9276C154.778 75.0313 154.526 75.0874 154.271 75.0923C153.747 75.078 153.249 74.8621 152.881 74.4896C152.513 74.1171 152.302 73.6169 152.294 73.0931C152.28 72.8364 152.317 72.5793 152.405 72.3375C152.492 72.0956 152.627 71.8739 152.803 71.6856C152.978 71.4974 153.189 71.3464 153.424 71.2419C153.659 71.1373 153.913 71.0813 154.17 71.0771C154.697 71.0902 155.198 71.3081 155.567 71.6844C155.936 72.0608 156.144 72.5661 156.147 73.0931Z" fill="#F0F0F0"/>
<path opacity="0.8" d="M159.674 73.0931C159.683 73.3492 159.641 73.6045 159.551 73.8441C159.46 74.0837 159.323 74.303 159.147 74.489C158.97 74.6751 158.759 74.8242 158.525 74.9278C158.29 75.0314 158.038 75.0873 157.782 75.0923C157.26 75.0779 156.764 74.8614 156.398 74.4885C156.032 74.1156 155.826 73.6153 155.822 73.0931C155.81 72.8357 155.851 72.5786 155.94 72.3371C156.03 72.0955 156.167 71.8742 156.343 71.6864C156.52 71.4985 156.732 71.3478 156.967 71.2432C157.203 71.1386 157.457 71.0821 157.714 71.0771C158.24 71.0889 158.74 71.3068 159.107 71.6839C159.474 72.0611 159.678 72.5672 159.674 73.0931Z" fill="#F0F0F0"/>
<path opacity="0.8" d="M163.208 73.0931C163.215 73.35 163.171 73.6057 163.079 73.8454C162.986 74.0851 162.847 74.3042 162.67 74.49C162.492 74.6758 162.28 74.8247 162.044 74.9281C161.809 75.0314 161.556 75.0873 161.299 75.0923C160.777 75.0806 160.282 74.8644 159.918 74.4905C159.555 74.1165 159.353 73.6147 159.356 73.0931C159.347 72.8349 159.389 72.5774 159.481 72.3358C159.572 72.0941 159.711 71.873 159.888 71.6854C160.066 71.4978 160.279 71.3474 160.516 71.243C160.752 71.1386 161.007 71.0822 161.265 71.0771C161.789 71.0904 162.287 71.3093 162.65 71.6866C163.014 72.0639 163.215 72.5692 163.208 73.0931Z" fill="#F0F0F0"/>
<path opacity="0.8" d="M166.736 73.0931C166.719 73.4698 166.591 73.8331 166.369 74.1379C166.147 74.4427 165.84 74.6756 165.487 74.8078C165.134 74.9399 164.75 74.9655 164.382 74.8814C164.015 74.7972 163.68 74.607 163.419 74.3344C163.159 74.0618 162.984 73.7187 162.917 73.3476C162.849 72.9766 162.892 72.5939 163.04 72.2471C163.189 71.9003 163.435 71.6046 163.75 71.3966C164.064 71.1886 164.433 71.0776 164.81 71.0771C165.069 71.0822 165.325 71.1385 165.562 71.2427C165.799 71.3469 166.014 71.4971 166.193 71.6844C166.372 71.8718 166.512 72.0927 166.605 72.3345C166.699 72.5762 166.743 72.8341 166.736 73.0931Z" fill="#F0F0F0"/>
<path opacity="0.8" d="M170.264 73.0931C170.269 73.6141 170.068 74.116 169.706 74.4901C169.343 74.8642 168.848 75.0806 168.327 75.0923C168.07 75.0873 167.816 75.0314 167.581 74.9281C167.346 74.8247 167.134 74.6758 166.956 74.49C166.779 74.3042 166.64 74.0851 166.547 73.8454C166.455 73.6057 166.41 73.35 166.417 73.0931C166.408 72.5693 166.607 72.0631 166.97 71.6853C167.333 71.3076 167.831 71.0889 168.355 71.0771C168.613 71.0822 168.868 71.1386 169.104 71.243C169.341 71.3474 169.554 71.4978 169.732 71.6854C169.909 71.873 170.048 72.0941 170.139 72.3358C170.231 72.5774 170.273 72.8349 170.264 73.0931Z" fill="#F0F0F0"/>
<path opacity="0.8" d="M173.798 73.0931C173.796 73.6162 173.591 74.118 173.225 74.4916C172.858 74.8651 172.361 75.0807 171.838 75.0923C171.582 75.0873 171.329 75.0314 171.095 74.9278C170.86 74.8242 170.649 74.6751 170.473 74.489C170.297 74.303 170.159 74.0837 170.069 73.8441C169.978 73.6045 169.936 73.3492 169.945 73.0931C169.942 72.5681 170.145 72.0628 170.51 71.6859C170.876 71.3089 171.375 71.0903 171.899 71.0771C172.157 71.0822 172.412 71.1386 172.647 71.2432C172.883 71.3477 173.096 71.4983 173.272 71.6861C173.449 71.8738 173.587 72.095 173.677 72.3366C173.767 72.5782 173.808 72.8354 173.798 73.0931Z" fill="#F0F0F0"/>
<path opacity="0.8" d="M177.32 73.0931C177.313 73.6164 177.104 74.1166 176.737 74.4892C176.369 74.8618 175.872 75.0779 175.349 75.0923C175.093 75.0873 174.841 75.0313 174.608 74.9276C174.374 74.8239 174.163 74.6746 173.988 74.4884C173.813 74.3022 173.676 74.0828 173.587 73.8432C173.498 73.6037 173.457 73.3486 173.467 73.0931C173.47 72.5661 173.678 72.0608 174.047 71.6844C174.416 71.3081 174.917 71.0902 175.444 71.0771C175.701 71.082 175.954 71.1386 176.189 71.2434C176.424 71.3482 176.635 71.4992 176.81 71.6873C176.985 71.8754 177.12 72.0968 177.208 72.3383C177.296 72.5799 177.334 72.8366 177.32 73.0931Z" fill="#F0F0F0"/>
<path opacity="0.8" d="M180.86 73.0931C180.847 73.6184 180.633 74.1187 180.262 74.4907C179.891 74.8628 179.391 75.0781 178.866 75.0923C178.611 75.0882 178.36 75.0326 178.127 74.9289C177.894 74.8252 177.684 74.6755 177.511 74.4888C177.337 74.3021 177.203 74.0822 177.116 73.8424C177.03 73.6026 176.993 73.3477 177.007 73.0931C177.014 72.5655 177.225 72.061 177.595 71.6852C177.966 71.3094 178.467 71.0916 178.995 71.0771C179.252 71.0812 179.505 71.1373 179.739 71.242C179.974 71.3466 180.184 71.4978 180.359 71.6862C180.533 71.8747 180.667 72.0965 180.753 72.3383C180.839 72.5802 180.876 72.8369 180.86 73.0931Z" fill="#F0F0F0"/>
<path opacity="0.8" d="M184.388 73.0931C184.369 73.6223 184.149 74.1243 183.772 74.4961C183.395 74.8679 182.89 75.0812 182.36 75.0923C182.106 75.0883 181.855 75.0327 181.623 74.9288C181.39 74.825 181.181 74.6751 181.009 74.4882C180.836 74.3013 180.703 74.0813 180.618 73.8415C180.532 73.6017 180.497 73.3471 180.512 73.0931C180.525 72.5644 180.74 72.0606 181.113 71.6856C181.486 71.3105 181.989 71.0928 182.517 71.0771C182.775 71.0772 183.031 71.1305 183.267 71.2338C183.504 71.337 183.717 71.488 183.892 71.6772C184.068 71.8664 184.202 72.0899 184.288 72.3335C184.373 72.5771 184.407 72.8357 184.388 73.0931Z" fill="#F0F0F0"/>
<path opacity="0.8" d="M187.916 73.0931C187.895 73.6195 187.675 74.1184 187.301 74.4894C186.927 74.8603 186.426 75.0758 185.9 75.0923C185.644 75.0922 185.39 75.0394 185.155 74.937C184.921 74.8347 184.709 74.6851 184.535 74.4975C184.36 74.3099 184.227 74.0884 184.141 73.8468C184.056 73.6052 184.022 73.3486 184.04 73.0931C184.059 72.5633 184.278 72.0602 184.653 71.6859C185.029 71.3115 185.532 71.0939 186.062 71.0771C186.32 71.077 186.574 71.1303 186.81 71.2338C187.046 71.3372 187.257 71.4885 187.432 71.678C187.606 71.8675 187.739 72.0911 187.822 72.3348C187.906 72.5784 187.937 72.8366 187.916 73.0931Z" fill="#F0F0F0"/>
<path opacity="0.8" d="M191.449 73.0931C191.422 73.6211 191.197 74.1194 190.819 74.4896C190.442 74.8597 189.939 75.0748 189.411 75.0923C189.158 75.0894 188.908 75.0343 188.676 74.9303C188.445 74.8264 188.238 74.6759 188.068 74.4883C187.898 74.3006 187.768 74.0799 187.687 73.8398C187.606 73.5998 187.575 73.3456 187.597 73.0931C187.619 72.5618 187.842 72.0586 188.22 71.6846C188.598 71.3107 189.103 71.0937 189.635 71.0771C189.89 71.0807 190.141 71.1369 190.373 71.2421C190.605 71.3474 190.812 71.4994 190.983 71.6887C191.153 71.878 191.282 72.1005 191.363 72.3422C191.443 72.5839 191.473 72.8395 191.449 73.0931Z" fill="#F0F0F0"/>
<path opacity="0.8" d="M194.977 73.0931C194.946 73.6216 194.718 74.1193 194.339 74.489C193.96 74.8587 193.457 75.0738 192.928 75.0923C192.675 75.0895 192.425 75.0344 192.195 74.9303C191.964 74.8263 191.758 74.6756 191.588 74.4877C191.419 74.2999 191.29 74.079 191.21 73.839C191.13 73.599 191.101 73.345 191.124 73.0931C191.152 72.5608 191.379 72.0582 191.759 71.6849C192.14 71.3115 192.647 71.0947 193.18 71.0771C193.434 71.0797 193.685 71.1353 193.916 71.2404C194.148 71.3455 194.355 71.4979 194.524 71.6877C194.693 71.8775 194.821 72.1005 194.899 72.3426C194.977 72.5846 195.004 72.8402 194.977 73.0931Z" fill="#F0F0F0"/>
<path opacity="0.8" d="M198.505 73.0931C198.469 73.6231 198.238 74.1209 197.857 74.4903C197.475 74.8596 196.97 75.0741 196.439 75.0923C196.189 75.0859 195.943 75.028 195.717 74.922C195.49 74.8161 195.288 74.6646 195.123 74.4768C194.958 74.2891 194.833 74.0693 194.757 73.8312C194.681 73.5931 194.655 73.3418 194.68 73.0931C194.713 72.5597 194.944 72.0577 195.327 71.685C195.71 71.3123 196.218 71.0956 196.752 71.0771C197.004 71.0833 197.251 71.1417 197.478 71.2487C197.706 71.3557 197.908 71.5089 198.073 71.6986C198.238 71.8883 198.362 72.1103 198.436 72.3504C198.511 72.5905 198.534 72.8435 198.505 73.0931Z" fill="#F0F0F0"/>
<path opacity="0.8" d="M202.039 73.0931C201.997 73.6237 201.761 74.1203 201.377 74.4888C200.993 74.8573 200.487 75.0721 199.955 75.0923C199.704 75.0909 199.455 75.0363 199.225 74.9322C198.996 74.8281 198.791 74.6768 198.624 74.4881C198.457 74.2995 198.332 74.0777 198.256 73.8373C198.181 73.597 198.157 73.3434 198.186 73.0931C198.223 72.5592 198.456 72.0578 198.841 71.6856C199.225 71.3133 199.734 71.0966 200.269 71.0771C200.522 71.0792 200.772 71.1348 201.003 71.2402C201.233 71.3456 201.438 71.4985 201.605 71.6888C201.772 71.8792 201.897 72.1027 201.972 72.3447C202.047 72.5867 202.069 72.8418 202.039 73.0931Z" fill="#F0F0F0"/>
<path opacity="0.8" d="M205.566 73.0931C205.519 73.6247 205.28 74.1208 204.893 74.4888C204.507 74.8567 204 75.0713 203.466 75.0923C203.215 75.0903 202.968 75.0352 202.739 74.9306C202.511 74.826 202.307 74.6744 202.142 74.4856C201.976 74.2968 201.853 74.0752 201.779 73.8352C201.705 73.5952 201.683 73.3423 201.714 73.0931C201.757 72.5586 201.995 72.0584 202.381 71.687C202.768 71.3156 203.278 71.0987 203.814 71.0771C204.066 71.0789 204.316 71.1344 204.545 71.24C204.775 71.3456 204.979 71.4988 205.145 71.6895C205.311 71.8802 205.434 72.1039 205.507 72.346C205.58 72.588 205.6 72.8427 205.566 73.0931Z" fill="#F0F0F0"/>
<path opacity="0.8" d="M209.1 73.0931C209.044 73.6212 208.802 74.1122 208.417 74.4784C208.033 74.8445 207.53 75.0621 207 75.0923C206.749 75.0915 206.502 75.0371 206.274 74.9326C206.046 74.8282 205.843 74.6762 205.678 74.4869C205.514 74.2975 205.392 74.0752 205.32 73.8348C205.249 73.5944 205.23 73.3416 205.264 73.0931C205.317 72.5593 205.56 72.0622 205.948 71.6923C206.337 71.3223 206.845 71.104 207.381 71.0771C207.632 71.0809 207.879 71.1381 208.105 71.2449C208.332 71.3517 208.534 71.5056 208.696 71.6963C208.859 71.8871 208.979 72.1104 209.049 72.3512C209.119 72.5921 209.136 72.845 209.1 73.0931Z" fill="#F0F0F0"/>
<path opacity="0.8" d="M212.628 73.0931C212.571 73.6267 212.324 74.122 211.933 74.4889C211.541 74.8558 211.031 75.0699 210.495 75.0923C210.245 75.091 209.998 75.036 209.771 74.9311C209.544 74.8262 209.343 74.6739 209.18 74.4844C209.017 74.2949 208.896 74.0726 208.827 73.8326C208.757 73.5926 208.74 73.3405 208.776 73.0931C208.829 72.5566 209.074 72.0573 209.466 71.687C209.858 71.3166 210.37 71.1001 210.909 71.0771C211.161 71.0782 211.409 71.1335 211.637 71.2394C211.866 71.3453 212.068 71.4992 212.231 71.6906C212.395 71.882 212.515 72.1065 212.583 72.3485C212.652 72.5906 212.667 72.8446 212.628 73.0931Z" fill="#F0F0F0"/>
</g>
<path d="M115.059 69.6545H214.946L214.941 72.3873H115.065L115.059 69.6545Z" fill="#184466"/>
<path d="M115.054 66.9219L117.137 69.6547H212.847L214.952 66.9219H115.054Z" fill="#184466"/>
<g opacity="0.4">
<path opacity="0.4" d="M115.054 66.9219L117.137 69.6547H212.847L214.952 66.9219H115.054Z" fill="black"/>
</g>
<path d="M115.042 64.1777H214.958L214.952 66.9217H115.054L115.042 64.1777Z" fill="#184466"/>
<g opacity="0.8">
<path opacity="0.8" d="M117.131 66.9219H212.852L212.847 69.6547H117.137L117.131 66.9219Z" fill="white"/>
</g>
<g opacity="0.7">
<path opacity="0.7" d="M212.88 123.454H116.986V124.658H212.88V123.454Z" fill="white"/>
</g>
<g opacity="0.8">
<path opacity="0.8" d="M212.874 183.211H117.182V184.41H212.874V183.211Z" fill="white"/>
</g>
<path d="M148.715 80.3223H136.86V93.1295H148.715V80.3223Z" fill="#184466"/>
<path d="M171.485 80.3223H159.63V93.1295H171.485V80.3223Z" fill="#184466"/>
<path d="M194.255 80.3223H182.399V93.1295H194.255V80.3223Z" fill="#184466"/>
<path d="M148.715 99.4971H136.86V112.304H148.715V99.4971Z" fill="#184466"/>
<path d="M171.485 99.4971H159.63V112.304H171.485V99.4971Z" fill="#184466"/>
<path d="M194.255 99.4971H182.399V112.304H194.255V99.4971Z" fill="#184466"/>
<path d="M148.715 192.435H136.86V205.242H148.715V192.435Z" fill="#184466"/>
<path d="M171.485 192.435H159.63V205.242H171.485V192.435Z" fill="#184466"/>
<path d="M194.255 192.435H182.399V205.242H194.255V192.435Z" fill="#184466"/>
<path d="M136.014 219.398H124.159V232.206H136.014V219.398Z" fill="#184466"/>
<path d="M205.667 219.398H193.812V232.206H205.667V219.398Z" fill="#184466"/>
<path d="M148.715 134.749H136.86V147.556H148.715V134.749Z" fill="#184466"/>
<path d="M171.485 134.749H159.63V147.556H171.485V134.749Z" fill="#184466"/>
<path d="M194.255 134.749H182.399V147.556H194.255V134.749Z" fill="#184466"/>
<path d="M148.715 153.923H136.86V166.731H148.715V153.923Z" fill="#184466"/>
<path d="M171.485 153.923H159.63V166.731H171.485V153.923Z" fill="#184466"/>
<path d="M194.255 153.923H182.399V166.731H194.255V153.923Z" fill="#184466"/>
<g opacity="0.8">
<path opacity="0.8" d="M151.196 220.899H163.466L163.415 233.639H151.112L151.196 220.899Z" fill="white"/>
</g>
<g opacity="0.8">
<path opacity="0.8" d="M165.835 220.899H178.608L178.003 233.639H165.7L165.835 220.899Z" fill="white"/>
</g>
<path d="M180.562 236.204H148.189L148.06 233.639H180.686L180.562 236.204Z" fill="#184466"/>
<g opacity="0.1">
<path opacity="0.1" d="M180.562 236.204H148.189L148.06 233.639H180.686L180.562 236.204Z" fill="white"/>
</g>
<path d="M181.867 238.914H147.046L146.906 236.389H181.996L181.867 238.914Z" fill="#184466"/>
<g opacity="0.4">
<path opacity="0.4" d="M183.021 216.386H145.804L145.641 213.502H183.167L183.021 216.386Z" fill="white"/>
</g>
<path d="M145.803 216.386L151.196 220.899H178.608L183.021 216.386H145.803Z" fill="#263238"/>
<path d="M148.323 218.497L150.227 233.617H151.739L151.129 218.497C150.696 218.274 150.216 218.158 149.729 218.158C149.242 218.158 148.762 218.274 148.329 218.497H148.323Z" fill="#184466"/>
<path d="M181.027 218.497L179.162 233.617H177.65L178.21 218.497C178.626 218.224 179.113 218.079 179.61 218.079C180.108 218.079 180.594 218.224 181.01 218.497H181.027Z" fill="#184466"/>
<path d="M117.131 66.9219H212.852L212.847 69.6547H117.137L117.131 66.9219Z" fill="#184466"/>
<path d="M227.821 154.433C224.814 158.487 223.649 160.352 222.484 161.5C221.213 162.755 208.232 161.797 206.664 161.142C205.466 160.638 206.294 159.081 206.86 159.159C208.999 159.456 217.03 158.039 219.41 157.009C219.824 156.824 223.89 151.879 223.89 151.879L227.821 154.433Z" fill="#FFB573"/>
<path d="M222.882 151.751C225.424 147.086 230.436 143.664 231.954 143.468C234.138 143.183 234.871 143.619 234.233 145.372C233.147 148.357 231.147 151.493 228.331 155.29L222.882 151.751Z" fill="#184466"/>
<g opacity="0.1">
<path opacity="0.1" d="M222.882 151.751C225.424 147.086 230.436 143.664 231.954 143.468C234.138 143.183 234.871 143.619 234.233 145.372C233.147 148.357 231.147 151.493 228.331 155.29L222.882 151.751Z" fill="black"/>
</g>
<path d="M231.954 143.468C233.181 143.022 234.434 142.648 235.706 142.348C238.028 141.79 240.388 141.4 242.767 141.183C244.151 141.034 245.542 140.958 246.934 140.954C247.075 140.952 247.216 140.967 247.354 140.999C247.878 141.129 248.331 141.457 248.618 141.915C248.905 142.372 249.004 142.923 248.894 143.451C246.559 155.799 246.447 161.276 246.783 167.638L232.57 168.142C232.389 168.143 232.214 168.079 232.076 167.962C231.939 167.844 231.847 167.682 231.819 167.503C231.187 164.3 229.221 157.183 229.221 157.183C227.446 155.475 227.149 153.369 226.981 152.143C226.88 151.476 228.37 150.754 229.988 147.226C229.96 147.226 231.226 143.72 231.954 143.468Z" fill="#184466"/>
<path d="M240.936 167.834L235.756 168.024C234.983 161.864 235.129 156.427 235.398 150.3C236.938 156.237 238.787 162.089 240.936 167.834Z" fill="#263238"/>
<path d="M242.437 215.21C242.308 214.924 242.179 214.65 242.056 214.325C236.467 200.969 232.2 173.96 232.2 173.96L242.163 168.92C242.163 168.92 244.996 192.653 248.883 208.092C249.476 210.444 250.087 212.572 250.719 214.437L243.915 217.562L242.437 215.21Z" fill="#FFB573"/>
<g opacity="0.8">
<path opacity="0.8" d="M242.437 215.21C242.308 214.924 242.179 214.65 242.056 214.325C236.467 200.969 232.2 173.96 232.2 173.96L242.163 168.92C242.163 168.92 244.996 192.653 248.883 208.092C249.476 210.444 250.087 212.572 250.719 214.437L243.915 217.562L242.437 215.21Z" fill="#263238"/>
</g>
<path d="M232.933 170.477C232.933 170.477 228.375 202.397 229.45 215.451C230.57 229.21 234.658 252.769 234.658 252.769L238.018 252.539C239.159 240.251 238.879 227.871 237.184 215.647C244.884 195.828 245.746 170.981 245.746 170.981L232.933 170.477Z" fill="#FFB573"/>
<path opacity="0.8" d="M232.933 170.477C232.933 170.477 228.375 202.397 229.45 215.451C230.57 229.21 234.658 252.769 234.658 252.769L238.018 252.539C239.159 240.251 238.879 227.871 237.184 215.647C244.884 195.828 245.746 170.981 245.746 170.981L232.933 170.477Z" fill="#263238"/>
<path d="M238.455 253.592C238.689 254.039 238.818 254.533 238.831 255.037C238.92 256.879 239.049 261.791 239.049 261.791L238.646 261.819C238.646 261.819 238.399 259.411 238.119 258.207C237.839 257.003 237.655 258.039 237.039 259.355C236.423 260.671 234.692 262.02 232.06 262.267C228.975 262.552 227.715 262.496 228.56 261.628C229.406 260.76 231.427 260.111 231.427 260.111C231.427 260.111 234.115 255.513 233.959 252.411C233.791 249.101 237.615 252.209 238.355 251.744C238.618 251.8 238.304 253.323 238.455 253.592Z" fill="#263238"/>
<path d="M249.107 209.24C247.152 209.66 245.416 211.099 240.281 211.614H239.973C239.755 211.614 239.531 211.654 239.296 211.665C237.918 211.738 230.028 211.368 228.566 210.511C229.837 197.379 232.34 169.474 232.34 169.474L238.36 168.758L246.127 168.522C246.127 168.522 254.695 177.37 252.724 185.401C249.784 197.413 251.24 199.278 249.107 209.24Z" fill="#263238"/>
<path d="M246.71 161.326C246.504 161.12 246.347 160.87 246.25 160.595C246.153 160.319 246.119 160.026 246.15 159.736C246.15 159.736 246.15 158.851 246.122 157.496C246.077 153.576 246.043 145.736 246.452 144.695C247.348 142.455 248.883 141.228 249.683 142.539C250.624 144.073 250.691 155.715 250.691 155.715C250.451 163.421 247.628 162.402 246.71 161.326Z" fill="#FFB573"/>
<path d="M244.845 140.724L244.374 141.57C242.56 144.84 238.36 149.102 236.719 149.516C236.336 148.629 235.747 147.845 235 147.231C234.563 147.447 234.175 147.749 233.859 148.12C233.544 148.491 233.307 148.922 233.163 149.387C231.757 147.103 231.881 144.213 232.233 142.785C233.062 142.533 233.947 142.275 234.787 142.068C237.112 141.53 239.471 141.156 241.849 140.948C242.842 140.811 243.842 140.736 244.845 140.724Z" fill="#184466"/>
<path opacity="0.8" d="M244.845 140.724L244.374 141.57C242.56 144.84 238.36 149.102 236.719 149.516C236.41 148.723 236.15 147.911 235.941 147.086C235.061 147.523 234.412 148.766 234.121 149.707C232.709 147.422 231.881 144.213 232.233 142.785C233.062 142.533 233.947 142.275 234.787 142.068C237.112 141.53 239.471 141.156 241.849 140.948C242.842 140.811 243.842 140.736 244.845 140.724Z" fill="white"/>
<path d="M234.037 156.746L232.088 154.103L230.347 157.552C230.347 157.552 232.127 158.549 233.606 158.213L234.037 156.746Z" fill="#FFB573"/>
<path d="M229.003 153.291L228.174 156.079L230.347 157.535L232.088 154.103L229.003 153.291Z" fill="#FFB573"/>
<path d="M246.76 169.262L239.564 169.458H238.959L237.402 169.502H236.809L232.581 169.614C232.452 169.614 232.334 169.547 232.329 169.463L232.161 168.108C232.161 168.018 232.267 167.934 232.413 167.929L236.59 167.761H237.089L239.155 167.682H239.642L246.575 167.408C246.623 167.403 246.671 167.41 246.715 167.428C246.759 167.447 246.798 167.477 246.827 167.514L246.995 169.054C247.062 169.144 246.939 169.256 246.76 169.262Z" fill="#184466"/>
<path opacity="0.2" d="M246.76 169.262L239.564 169.458H238.959L237.402 169.502H236.809L232.581 169.614C232.452 169.614 232.334 169.547 232.329 169.463L232.161 168.108C232.161 168.018 232.267 167.934 232.413 167.929L236.59 167.761H237.089L239.155 167.682H239.642L246.575 167.408C246.623 167.403 246.671 167.41 246.715 167.428C246.759 167.447 246.798 167.477 246.827 167.514L246.995 169.054C247.062 169.144 246.939 169.256 246.76 169.262Z" fill="white"/>
<path d="M234.586 169.766H235.045C235.063 169.77 235.082 169.77 235.1 169.766C235.118 169.762 235.136 169.754 235.151 169.743C235.165 169.732 235.178 169.718 235.187 169.701C235.195 169.685 235.201 169.667 235.202 169.648L234.944 167.727C234.944 167.671 234.855 167.621 234.759 167.621H234.3C234.205 167.621 234.138 167.677 234.143 167.733L234.401 169.66C234.416 169.695 234.443 169.724 234.476 169.743C234.509 169.762 234.548 169.77 234.586 169.766Z" fill="#263238"/>
<path d="M242.605 169.648H243.042C243.058 169.653 243.076 169.653 243.092 169.65C243.109 169.647 243.125 169.641 243.139 169.631C243.154 169.622 243.166 169.61 243.175 169.595C243.184 169.581 243.19 169.565 243.193 169.548L242.93 167.616C242.93 167.565 242.84 167.515 242.756 167.52H242.319C242.23 167.52 242.168 167.565 242.174 167.627L242.431 169.542C242.437 169.609 242.515 169.648 242.605 169.648Z" fill="#263238"/>
<path d="M244.99 177.942L243.87 177.544L248.854 162.631C249.65 160.263 249.347 158 246.407 156.964C243.658 155.995 241.496 157.379 240.695 159.764L235.655 174.632L234.535 174.235L239.575 159.378C240.505 156.628 242.297 154.763 246.62 156.292C250.943 157.821 250.859 160.285 249.935 163.046L244.99 177.942Z" fill="#184466"/>
<path d="M247.807 187.142L225.967 179.302L230.918 164.843C231.028 164.508 231.203 164.199 231.434 163.932C231.665 163.666 231.946 163.448 232.262 163.292C232.578 163.135 232.922 163.043 233.274 163.021C233.626 162.999 233.978 163.048 234.311 163.163L250.226 168.819C251.096 169.141 251.807 169.788 252.21 170.624C252.612 171.459 252.674 172.419 252.382 173.299L247.807 187.142Z" fill="#184466"/>
<path opacity="0.4" d="M245.388 186.28L228.37 180.165C227.727 179.923 227.204 179.438 226.914 178.815C226.624 178.192 226.59 177.481 226.819 176.833L230.923 164.843C231.033 164.508 231.209 164.199 231.44 163.932C231.67 163.666 231.952 163.448 232.268 163.292C232.584 163.135 232.928 163.043 233.28 163.021C233.631 162.999 233.984 163.048 234.317 163.163L250.232 168.819C251.102 169.141 251.813 169.788 252.215 170.624C252.618 171.459 252.68 172.419 252.388 173.299L248.631 184.65C248.529 184.973 248.364 185.273 248.145 185.531C247.926 185.789 247.657 186 247.355 186.152C247.052 186.304 246.722 186.394 246.384 186.416C246.047 186.438 245.708 186.392 245.388 186.28Z" fill="white"/>
<g opacity="0.3">
<path opacity="0.3" d="M244.991 177.942L244.111 178.709L243.882 177.544L248.866 162.631C249.661 160.263 249.359 158 246.419 156.964C243.669 155.995 241.507 157.379 240.707 159.764L235.667 174.632L234.759 175.388L234.563 174.235L239.603 159.378C240.533 156.628 242.325 154.763 246.648 156.292C250.971 157.821 250.887 160.285 249.963 163.046L244.991 177.942Z" fill="white"/>
</g>
<path d="M237.934 168.965L236.114 168.315L236.344 167.626L238.164 168.276L237.934 168.965Z" fill="#184466"/>
<path d="M236.422 173.434L234.597 172.784L234.832 172.095L236.652 172.745L236.422 173.434Z" fill="#184466"/>
<path d="M247.292 172.303L245.466 171.653L245.696 170.958L247.522 171.608L247.292 172.303Z" fill="#184466"/>
<path d="M245.797 176.788L243.966 176.133L244.195 175.438L246.027 176.094L245.797 176.788Z" fill="#184466"/>
<path d="M243.68 171.457L239.771 170.062L240.264 168.584L244.173 169.978L243.68 171.457Z" fill="white"/>
<path d="M248.396 162.015C246.643 163.023 239.553 161.887 233.555 158.28C233.275 158.107 232.995 158.129 232.889 158.062C232.514 157.787 233.449 157.155 234.009 156.863C234.317 156.707 247.55 158.381 248.463 158.504C249.499 161.203 248.564 161.17 248.396 162.015Z" fill="#FFB573"/>
<path d="M242.745 216.291C243.708 219.04 246.939 220.25 249.202 218.531C249.293 218.461 249.381 218.386 249.465 218.307C259.265 209.235 271.73 196.013 271.73 196.013L269.63 193.353C262.288 197.608 255.352 202.529 248.91 208.053C246.67 209.974 244.346 212.074 242.084 214.314L242.745 216.291Z" fill="#FFB573"/>
<path opacity="0.8" d="M242.745 216.291C243.708 219.04 246.939 220.25 249.202 218.531C249.293 218.461 249.381 218.386 249.465 218.307C259.265 209.235 271.73 196.013 271.73 196.013L269.63 193.353C262.288 197.608 255.352 202.529 248.91 208.053C246.67 209.974 244.346 212.074 242.084 214.314L242.745 216.291Z" fill="#263238"/>
<path d="M268.359 193.689C268.497 193.239 268.743 192.829 269.076 192.496C270.252 191.27 273.433 188.111 273.433 188.111L273.718 188.397C273.718 188.397 272.285 190.077 271.669 191.04C271.053 192.003 271.865 191.488 273.147 191.124C274.43 190.76 276.479 191.203 278.394 193.006C280.634 195.128 281.452 196.108 280.315 196.013C279.178 195.918 277.392 194.831 277.392 194.831C277.392 194.831 272.537 195.722 270.566 197.799C268.449 200.039 267.99 195.184 267.206 194.921C267.038 194.68 268.275 193.969 268.359 193.689Z" fill="#263238"/>
<path d="M234.726 140.316C235.778 141.57 236.596 143.116 235.196 144.936C234.889 145.324 234.727 145.807 234.737 146.302C234.77 147.092 235.297 147.831 237.716 146.14C241.244 143.698 240.762 141.251 240.762 141.251C238.791 140.792 237.358 136.771 236.753 134.492L234.726 140.316Z" fill="#FFB573"/>
<path opacity="0.2" d="M236.787 138.003C237.134 138.977 236.199 140.635 235.448 141.318C235.241 140.962 235.001 140.627 234.731 140.315L235.93 136.866C236.289 137.183 236.58 137.57 236.787 138.003Z" fill="black"/>
<path d="M226.309 129.625C225.368 133.282 226.768 137.291 229.35 140.047C231.959 137.185 236.893 137.807 239.637 135.074C241.474 133.259 241.81 130.213 240.673 127.895C239.452 125.397 235.846 122.989 233.001 123.381C229.815 123.823 227.099 126.545 226.309 129.625Z" fill="#263238"/>
<path d="M237.178 128.382C236.799 127.824 236.313 127.347 235.749 126.977C235.185 126.608 234.554 126.353 233.891 126.228C233.228 126.102 232.548 126.109 231.887 126.247C231.227 126.385 230.601 126.652 230.044 127.032C226.734 129.272 227.35 134.872 228.829 138.036C230.453 141.575 235.196 141.721 237.408 138.249C238.892 135.936 238.578 134.357 238.03 130.599C237.921 129.804 237.63 129.045 237.178 128.382Z" fill="#FFB573"/>
<path d="M230.699 136.222C230.524 136.304 230.333 136.347 230.139 136.347C229.946 136.347 229.754 136.304 229.579 136.222C229.904 135.538 230.133 134.813 230.257 134.066L230.699 136.222Z" fill="#ED893E"/>
<path d="M233.572 135.88C233.578 135.869 233.581 135.857 233.581 135.845C233.581 135.833 233.579 135.821 233.574 135.81C233.569 135.798 233.562 135.788 233.553 135.78C233.544 135.772 233.533 135.766 233.522 135.763C233.499 135.755 233.475 135.756 233.453 135.765C233.431 135.774 233.414 135.791 233.404 135.813C233.242 136.16 232.998 136.464 232.694 136.698C232.39 136.932 232.034 137.089 231.657 137.157C231.634 137.165 231.615 137.18 231.603 137.201C231.59 137.221 231.586 137.245 231.59 137.269C231.592 137.28 231.596 137.291 231.602 137.3C231.608 137.31 231.616 137.318 231.626 137.324C231.635 137.33 231.646 137.335 231.657 137.337C231.668 137.339 231.679 137.339 231.691 137.336C231.835 137.308 231.978 137.269 232.116 137.219C232.436 137.104 232.73 136.927 232.98 136.697C233.23 136.467 233.431 136.189 233.572 135.88Z" fill="#263238"/>
<path d="M230.912 125.324C230.615 125.801 230.424 126.336 230.352 126.892C234.726 127.9 237.951 132.492 239.194 136.843C240.376 135.287 242.694 133.383 243.596 131.512C244.598 129.412 243.26 127.032 241.244 125.856C239.459 124.975 237.605 124.243 235.7 123.667C234.831 123.372 233.889 123.376 233.022 123.676C232.155 123.976 231.413 124.556 230.912 125.324Z" fill="#263238"/>
<path d="M239.676 132.862C239.644 132.702 239.581 132.55 239.49 132.415C239.399 132.28 239.282 132.164 239.146 132.074C239.011 131.984 238.858 131.921 238.698 131.89C238.538 131.859 238.374 131.86 238.214 131.893C237.29 132.094 236.954 133.388 237.01 134.217C237.089 135.13 237.8 135.762 238.584 135.191C239.182 134.758 239.584 134.106 239.704 133.377C239.728 133.205 239.719 133.03 239.676 132.862Z" fill="#FFB573"/>
<path d="M232.469 132.52C232.57 132.884 232.469 133.237 232.211 133.304C231.954 133.371 231.702 133.125 231.607 132.744C231.511 132.363 231.607 132.027 231.859 131.966C232.111 131.904 232.368 132.123 232.469 132.52Z" fill="#263238"/>
<path d="M229.131 133.691C229.232 134.055 229.131 134.407 228.874 134.469C228.616 134.531 228.364 134.29 228.263 133.909C228.162 133.528 228.263 133.192 228.521 133.125C228.778 133.058 229.036 133.315 229.131 133.691Z" fill="#263238"/>
<path d="M228.633 133.13H227.687C227.687 133.13 228.319 133.679 228.633 133.13Z" fill="#263238"/>
<path d="M233.175 130.84C233.202 130.824 233.225 130.801 233.242 130.773C233.268 130.732 233.277 130.682 233.268 130.634C233.259 130.586 233.231 130.543 233.191 130.515C232.906 130.319 232.576 130.195 232.232 130.154C231.888 130.113 231.538 130.156 231.214 130.28C231.171 130.302 231.137 130.339 231.119 130.385C231.102 130.43 231.102 130.481 231.119 130.526C231.14 130.57 231.176 130.604 231.221 130.621C231.266 130.639 231.315 130.639 231.36 130.622C231.629 130.522 231.918 130.489 232.203 130.525C232.488 130.561 232.759 130.665 232.995 130.829C233.022 130.845 233.052 130.854 233.084 130.856C233.115 130.858 233.146 130.853 233.175 130.84Z" fill="#263238"/>
<path d="M227.547 132.84C227.568 132.816 227.587 132.789 227.603 132.761C227.701 132.492 227.863 132.251 228.073 132.056C228.283 131.861 228.536 131.719 228.812 131.641C228.86 131.633 228.903 131.606 228.932 131.566C228.96 131.526 228.971 131.477 228.963 131.428C228.958 131.404 228.948 131.382 228.934 131.362C228.92 131.341 228.902 131.324 228.881 131.311C228.86 131.298 228.837 131.29 228.812 131.286C228.788 131.282 228.763 131.283 228.739 131.288C228.404 131.378 228.094 131.546 227.836 131.778C227.578 132.011 227.379 132.302 227.255 132.627C227.245 132.649 227.239 132.673 227.238 132.697C227.237 132.721 227.241 132.746 227.249 132.769C227.257 132.792 227.27 132.813 227.287 132.831C227.303 132.848 227.323 132.863 227.345 132.873C227.378 132.887 227.414 132.891 227.45 132.886C227.485 132.882 227.518 132.867 227.547 132.845V132.84Z" fill="#263238"/>
<path d="M231.97 131.96H231.024C231.024 131.96 231.64 132.481 231.97 131.96Z" fill="#263238"/>
<path d="M227.031 134.906C227.463 137.208 229.327 140.383 231.315 141.626C229.977 142.64 227.58 141.492 226.169 140.59C225.476 140.113 224.893 139.495 224.457 138.776C224.022 138.056 223.745 137.253 223.643 136.418C223.448 134.744 223.675 133.048 224.304 131.484C225.331 128.953 227.034 126.753 229.227 125.123C229.652 124.776 230.38 124.501 230.66 124.972C230.856 125.296 230.632 125.705 230.419 126.013C228.353 129.004 226.729 131.109 227.031 134.906Z" fill="#263238"/>
<path d="M237.425 139.111H237.391C237.356 139.102 237.325 139.079 237.306 139.048C237.287 139.016 237.282 138.979 237.29 138.943C238.785 132.901 232.306 128.303 230.285 127.015C230.254 126.996 230.232 126.965 230.223 126.929C230.215 126.894 230.221 126.856 230.24 126.825C230.249 126.809 230.261 126.795 230.276 126.784C230.291 126.773 230.308 126.766 230.325 126.761C230.343 126.757 230.362 126.757 230.38 126.76C230.398 126.763 230.415 126.77 230.43 126.78C232.497 128.074 239.105 132.783 237.565 139.01C237.556 139.04 237.537 139.067 237.512 139.085C237.487 139.103 237.456 139.113 237.425 139.111Z" fill="#263238"/>
<path d="M238.562 134.732L238.438 136.866L239.01 137.336L239.29 136.681L238.562 134.732Z" fill="#184466"/>
<path d="M247.998 141.144C247.551 141.03 247.082 141.036 246.638 141.159C246.194 141.283 245.79 141.521 245.467 141.85C244.753 142.635 244.303 143.624 244.179 144.678C243.971 146.291 244.38 147.926 244.817 149.499C245.352 151.051 245.65 152.675 245.702 154.315C247.415 153.38 249.907 151.515 252.304 151.269C251.974 147.455 251.531 144.913 250.792 143.653C250.41 142.903 249.896 142.228 249.275 141.659C248.888 141.404 248.453 141.229 247.998 141.144Z" fill="#184466"/>
<g opacity="0.1">
<path opacity="0.1" d="M247.998 141.144C247.551 141.03 247.082 141.036 246.638 141.159C246.194 141.283 245.79 141.521 245.467 141.85C244.753 142.635 244.303 143.624 244.179 144.678C243.971 146.291 244.38 147.926 244.817 149.499C245.352 151.051 245.65 152.675 245.702 154.315C247.415 153.38 249.907 151.515 252.304 151.269C251.974 147.455 251.531 144.913 250.792 143.653C250.41 142.903 249.896 142.228 249.275 141.659C248.888 141.404 248.453 141.229 247.998 141.144Z" fill="white"/>
</g>
<path d="M207.185 159.12C207.185 159.12 202.957 159.82 202.901 160.011C202.845 160.201 202.867 162.581 202.867 162.581L206.664 161.142L207.185 159.12Z" fill="#FFB573"/>
<path d="M202.867 162.581L199.294 159.215L200.89 158.75L203.539 160.19L202.867 162.581Z" fill="#FFB573"/>
<path d="M95.0054 247.981L98.9982 247.762L99.351 257.221L95.3582 257.433L95.0054 247.981Z" fill="#F7978D"/>
<path d="M100.331 256.364C101.574 257.131 103.372 257.803 106.648 258.133C107.376 258.206 107.611 259.869 105.926 260.054C104.24 260.239 101.3 260.502 100.079 260.614C98.0912 260.827 97.352 261.006 95.784 261.202C95.5955 261.221 95.4072 261.164 95.2602 261.045C95.1133 260.925 95.0198 260.752 95 260.564L94.832 256.968C94.8289 256.931 94.8335 256.892 94.8454 256.856C94.8574 256.82 94.8764 256.787 94.9015 256.758C94.9265 256.729 94.9571 256.706 94.9913 256.689C95.0255 256.672 95.0627 256.663 95.1008 256.66L99.6144 256.168C99.8684 256.152 100.12 256.221 100.331 256.364Z" fill="#263238"/>
<path opacity="0.2" d="M95.1846 252.858L99.183 252.64L98.9982 247.768L95.0054 247.986L95.1846 252.858Z" fill="black"/>
<path d="M102.28 256.7C102.335 256.627 102.369 256.541 102.38 256.451C102.391 256.36 102.378 256.268 102.341 256.185C102.323 256.127 102.29 256.074 102.246 256.032C102.202 255.99 102.148 255.96 102.089 255.944C101.58 255.804 100.527 256.706 100.409 256.812C100.402 256.827 100.397 256.843 100.397 256.86C100.397 256.876 100.402 256.892 100.409 256.907C100.417 256.925 100.428 256.941 100.443 256.954C100.457 256.966 100.475 256.975 100.493 256.98C100.853 257.019 101.215 257.019 101.574 256.98C101.835 256.972 102.084 256.873 102.28 256.7ZM100.712 256.812C101.137 256.493 101.776 256.056 102.05 256.134C102.078 256.143 102.103 256.158 102.123 256.179C102.144 256.199 102.159 256.224 102.168 256.252C102.2 256.303 102.216 256.362 102.216 256.423C102.216 256.483 102.2 256.542 102.168 256.594C102 256.812 101.473 256.89 100.734 256.823L100.712 256.812Z" fill="#184466"/>
<path d="M100.533 256.957C100.908 256.672 101.412 255.764 101.278 255.339C101.251 255.263 101.201 255.198 101.134 255.154C101.067 255.109 100.988 255.088 100.908 255.092C100.834 255.089 100.761 255.102 100.694 255.133C100.627 255.163 100.568 255.209 100.522 255.266C100.158 255.703 100.398 256.851 100.387 256.896C100.389 256.911 100.394 256.926 100.403 256.939C100.412 256.951 100.424 256.962 100.438 256.968H100.488L100.533 256.957ZM100.886 255.277C101.026 255.277 101.087 255.344 101.076 255.395C101.068 255.883 100.866 256.348 100.516 256.688C100.421 256.251 100.464 255.795 100.639 255.384C100.663 255.354 100.692 255.329 100.726 255.312C100.76 255.294 100.797 255.284 100.835 255.283L100.886 255.277Z" fill="#184466"/>
<path d="M63.4497 243.786L67.4089 244.621L64.5249 253.581L60.5713 252.741L63.4497 243.786Z" fill="#F7978D"/>
<path d="M65.6 253.586C66.524 254.706 68.4392 256.061 71.452 257.394C72.124 257.696 71.8272 259.343 70.1696 258.996C68.512 258.648 65.2248 257.814 64.0096 257.562C62.0552 257.148 61.2992 257.08 59.748 256.784C59.6548 256.766 59.566 256.729 59.4871 256.676C59.4082 256.624 59.3406 256.555 59.2884 256.476C59.2362 256.397 59.2005 256.308 59.1832 256.214C59.166 256.121 59.1676 256.025 59.188 255.932L60.1456 252.46C60.1654 252.388 60.2126 252.325 60.2774 252.287C60.3421 252.248 60.4194 252.236 60.4928 252.253L64.9392 253.194C65.1976 253.246 65.4307 253.384 65.6 253.586Z" fill="#263238"/>
<path opacity="0.2" d="M61.9653 248.406L65.9189 249.241L67.4085 244.626L63.4493 243.792L61.9653 248.406Z" fill="black"/>
<path d="M88.5879 159.96C88.5879 159.96 92.7991 196.399 93.1183 210.024C93.4151 222.574 93.2079 250.344 93.2079 250.344L100.488 250.002C100.488 250.002 103.517 224.203 104.408 211.553C105.203 199.978 102.728 162.939 102.728 162.939L88.5879 159.96Z" fill="#184466"/>
<path opacity="0.2" d="M90.3184 174.335C90.968 181.872 91.8528 191.572 92.6592 199.686C94.3392 194.993 95.3472 183.177 93.3536 175.936C92.1496 171.529 91.08 172.498 90.3184 174.335Z" fill="black"/>
<path d="M92.0151 248.888L101.406 248.171L100.975 251.256L93.0735 251.912L92.0151 248.888Z" fill="#263238"/>
<path d="M80.3449 161.365C80.3449 161.365 73.5465 194.904 71.2001 208.327C69.0329 220.692 60.5601 246.911 60.5601 246.911L67.7841 248.44C67.7841 248.44 79.7905 221.912 83.1169 209.665C86.1577 198.465 93.7569 164.199 93.7569 164.199L80.3449 161.365Z" fill="#184466"/>
<path d="M60.3642 244.453L70.097 246.065L69.0834 248.72L60.2466 246.849L60.3642 244.453Z" fill="#263238"/>
<path d="M67.0001 254.146C67.077 254.094 67.1381 254.021 67.1766 253.936C67.2151 253.851 67.2296 253.757 67.2185 253.665C67.2221 253.604 67.2094 253.544 67.1819 253.489C67.1543 253.435 67.1128 253.389 67.0617 253.357C66.6249 253.066 65.3369 253.592 65.1913 253.654C65.1761 253.664 65.1633 253.677 65.1536 253.692C65.144 253.708 65.1377 253.725 65.1353 253.743C65.1364 253.761 65.1421 253.778 65.152 253.793C65.1618 253.807 65.1754 253.819 65.1913 253.827C65.5192 253.984 65.8627 254.106 66.2161 254.191C66.4742 254.271 66.7527 254.255 67.0001 254.146ZM65.5049 253.738C66.0201 253.542 66.7481 253.346 66.9609 253.514C66.9852 253.53 67.0047 253.553 67.0175 253.579C67.0303 253.606 67.0358 253.635 67.0337 253.665C67.0423 253.725 67.0344 253.787 67.0108 253.843C66.9871 253.899 66.9485 253.948 66.8993 253.984C66.6753 254.124 66.1489 254.034 65.4713 253.749L65.5049 253.738Z" fill="#184466"/>
<path d="M65.2582 253.833C65.695 253.676 66.4678 252.982 66.4678 252.528C66.4678 252.447 66.4408 252.368 66.3911 252.304C66.3414 252.241 66.2718 252.195 66.1934 252.175C66.1244 252.15 66.0503 252.141 65.9773 252.15C65.9043 252.159 65.8344 252.185 65.7734 252.226C65.2918 252.528 65.1462 253.682 65.135 253.732C65.1331 253.747 65.1352 253.762 65.1411 253.776C65.147 253.789 65.1565 253.801 65.1686 253.81H65.2134L65.2582 253.833ZM66.1318 252.36C66.2662 252.41 66.2942 252.478 66.283 252.534C66.283 252.83 65.7566 253.374 65.3534 253.592C65.3892 253.135 65.5741 252.702 65.8798 252.36C65.9118 252.34 65.9478 252.326 65.9854 252.32C66.023 252.314 66.0614 252.317 66.0982 252.326L66.1318 252.36Z" fill="#184466"/>
<path d="M67.0781 168.847C68.0189 167.906 68.1589 166.876 68.7581 165.784C69.1557 165.039 68.2373 165.33 69.1557 165.425C69.4965 165.5 69.8272 165.615 70.1413 165.767C70.9365 166.075 71.7037 166.456 72.5101 166.741C73.1989 166.988 74.4365 166.876 75.0245 167.217C75.9765 167.777 75.0637 170.241 74.8621 171.036C74.6269 172 76.0997 172.504 76.3349 171.529C76.6821 170.14 77.5669 167.665 76.4973 166.36C75.8309 165.548 74.8173 165.711 73.8877 165.532C72.1461 165.196 70.3653 163.605 68.5397 163.796C68.2672 163.806 68.0039 163.897 67.7835 164.058C67.563 164.218 67.3955 164.441 67.3021 164.697C67.0109 165.336 67.1789 166.047 66.7981 166.719C66.598 167.068 66.3533 167.39 66.0701 167.676C65.3645 168.382 66.3837 169.552 67.0949 168.847H67.0781Z" fill="#184466"/>
<g opacity="0.3">
<path opacity="0.3" d="M67.0781 168.847C68.0189 167.906 68.1589 166.876 68.7581 165.784C69.1557 165.039 68.2373 165.33 69.1557 165.425C69.4965 165.5 69.8272 165.615 70.1413 165.767C70.9365 166.075 71.7037 166.456 72.5101 166.741C73.1989 166.988 74.4365 166.876 75.0245 167.217C75.9765 167.777 75.0637 170.241 74.8621 171.036C74.6269 172 76.0997 172.504 76.3349 171.529C76.6821 170.14 77.5669 167.665 76.4973 166.36C75.8309 165.548 74.8173 165.711 73.8877 165.532C72.1461 165.196 70.3653 163.605 68.5397 163.796C68.2672 163.806 68.0039 163.897 67.7835 164.058C67.563 164.218 67.3955 164.441 67.3021 164.697C67.0109 165.336 67.1789 166.047 66.7981 166.719C66.598 167.068 66.3533 167.39 66.0701 167.676C65.3645 168.382 66.3837 169.552 67.0949 168.847H67.0781Z" fill="black"/>
</g>
<path d="M56.4915 164.886L84.4895 174.271C84.9457 174.423 85.3225 174.751 85.537 175.182C85.7515 175.613 85.7861 176.111 85.6332 176.567L80.6109 191.551C80.3471 192.339 79.7813 192.989 79.0381 193.359C78.2949 193.729 77.4351 193.789 76.648 193.525L51.1615 184.982C50.3743 184.718 49.7242 184.153 49.3541 183.409C48.984 182.666 48.9244 181.806 49.1882 181.019L54.2105 166.035C54.3625 165.582 54.6874 165.207 55.1146 164.991C55.5418 164.776 56.0366 164.738 56.4915 164.886Z" fill="#184466"/>
<path opacity="0.3" d="M56.4915 164.886L84.4895 174.271C84.9457 174.423 85.3225 174.751 85.537 175.182C85.7515 175.613 85.7861 176.111 85.6332 176.567L80.6109 191.551C80.3471 192.339 79.7813 192.989 79.0381 193.359C78.2949 193.729 77.4351 193.789 76.648 193.525L51.1615 184.982C50.3743 184.718 49.7242 184.153 49.3541 183.409C48.984 182.666 48.9244 181.806 49.1882 181.019L54.2105 166.035C54.3625 165.582 54.6874 165.207 55.1146 164.991C55.5418 164.776 56.0366 164.738 56.4915 164.886Z" fill="white"/>
<path d="M68.9012 176.457L64.4946 189.047L65.0232 189.232L69.4298 176.642L68.9012 176.457Z" fill="#184466"/>
<g opacity="0.3">
<path opacity="0.3" d="M68.9012 176.457L64.4946 189.047L65.0232 189.232L69.4298 176.642L68.9012 176.457Z" fill="black"/>
</g>
<path opacity="0.2" d="M84.007 176.099L55.7494 166.629C55.3276 166.489 54.8673 166.522 54.4695 166.72C54.0717 166.918 53.7687 167.266 53.627 167.688L53.431 168.248C53.0332 169.437 53.1236 170.735 53.6821 171.857C54.2407 172.98 55.2219 173.834 56.4102 174.234L78.8886 181.8C79.4773 181.996 80.0989 182.075 80.7181 182.032C81.3373 181.988 81.9418 181.823 82.4972 181.546C83.0525 181.269 83.5479 180.885 83.9549 180.416C84.3619 179.948 84.6727 179.404 84.8694 178.815L85.0654 178.255C85.14 178.044 85.1717 177.82 85.1587 177.597C85.1457 177.374 85.0882 177.155 84.9896 176.954C84.8911 176.753 84.7533 176.574 84.5846 176.427C84.4159 176.281 84.2195 176.169 84.007 176.099Z" fill="black"/>
<path d="M84.6288 174.318L56.36 164.849C56.1507 164.778 55.9297 164.75 55.7095 164.765C55.4893 164.78 55.2743 164.839 55.0767 164.937C54.879 165.035 54.7027 165.172 54.5578 165.338C54.4128 165.504 54.3021 165.698 54.232 165.907L54.036 166.467C53.6382 167.656 53.7286 168.954 54.2871 170.077C54.8457 171.199 55.8268 172.054 57.0152 172.454L79.5104 180.008C80.6978 180.402 81.993 180.309 83.112 179.749C84.231 179.19 85.0826 178.209 85.48 177.023L85.676 176.463C85.7491 176.254 85.78 176.032 85.7668 175.81C85.7537 175.589 85.6968 175.372 85.5995 175.172C85.5021 174.973 85.3662 174.795 85.1996 174.648C85.033 174.502 84.839 174.39 84.6288 174.318Z" fill="#184466"/>
<path d="M84.6288 174.318L56.36 164.849C56.1507 164.778 55.9297 164.75 55.7095 164.765C55.4893 164.78 55.2743 164.839 55.0767 164.937C54.879 165.035 54.7027 165.172 54.5578 165.338C54.4128 165.504 54.3021 165.698 54.232 165.907L54.036 166.467C53.6382 167.656 53.7286 168.954 54.2871 170.077C54.8457 171.199 55.8268 172.054 57.0152 172.454L79.5104 180.008C80.6978 180.402 81.993 180.309 83.112 179.749C84.231 179.19 85.0826 178.209 85.48 177.023L85.676 176.463C85.7491 176.254 85.78 176.032 85.7668 175.81C85.7537 175.589 85.6968 175.372 85.5995 175.172C85.5021 174.973 85.3662 174.795 85.1996 174.648C85.033 174.502 84.839 174.39 84.6288 174.318Z" fill="#184466"/>
<path opacity="0.5" d="M84.6288 174.318L56.36 164.849C56.1507 164.778 55.9297 164.75 55.7095 164.765C55.4893 164.78 55.2743 164.839 55.0767 164.937C54.879 165.035 54.7027 165.172 54.5578 165.338C54.4128 165.504 54.3021 165.698 54.232 165.907L54.036 166.467C53.6382 167.656 53.7286 168.954 54.2871 170.077C54.8457 171.199 55.8268 172.054 57.0152 172.454L79.5104 180.008C80.6978 180.402 81.993 180.309 83.112 179.749C84.231 179.19 85.0826 178.209 85.48 177.023L85.676 176.463C85.7491 176.254 85.78 176.032 85.7668 175.81C85.7537 175.589 85.6968 175.372 85.5995 175.172C85.5021 174.973 85.3662 174.795 85.1996 174.648C85.033 174.502 84.839 174.39 84.6288 174.318Z" fill="white"/>
<path d="M62.0594 171.171L61.1248 170.858C60.5529 170.667 59.9341 170.975 59.7425 171.547L58.3195 175.795C58.1279 176.367 58.4362 176.985 59.0081 177.177L59.9426 177.49C60.5145 177.682 61.1334 177.373 61.3249 176.801L62.7479 172.553C62.9395 171.982 62.6312 171.363 62.0594 171.171Z" fill="#184466"/>
<path d="M77.2812 176.268L76.3465 175.955C75.7747 175.764 75.1558 176.072 74.9644 176.644L73.5421 180.892C73.3506 181.464 73.659 182.083 74.2309 182.274L75.1655 182.587C75.7374 182.779 76.3563 182.47 76.5477 181.898L77.97 177.65C78.1614 177.078 77.853 176.459 77.2812 176.268Z" fill="#184466"/>
<path d="M62.0594 171.171L61.1248 170.858C60.5529 170.667 59.9341 170.975 59.7425 171.547L58.3195 175.795C58.1279 176.367 58.4362 176.985 59.0081 177.177L59.9426 177.49C60.5145 177.682 61.1334 177.373 61.3249 176.801L62.7479 172.553C62.9395 171.982 62.6312 171.363 62.0594 171.171Z" fill="white"/>
<path d="M77.2812 176.268L76.3465 175.955C75.7747 175.764 75.1558 176.072 74.9644 176.644L73.5421 180.892C73.3506 181.464 73.659 182.083 74.2309 182.274L75.1655 182.587C75.7374 182.779 76.3563 182.47 76.5477 181.898L77.97 177.65C78.1614 177.078 77.853 176.459 77.2812 176.268Z" fill="white"/>
<path d="M107.801 132.688C108.053 133.186 108.361 133.78 108.664 134.323C108.966 134.866 109.28 135.443 109.599 136.003C110.243 137.095 110.898 138.17 111.593 139.189C112.264 140.178 112.99 141.13 113.765 142.04C114.394 142.805 115.136 143.47 115.966 144.011L116.078 144.078H116.129H116.269C116.58 144.072 116.887 144.002 117.17 143.871C118.13 143.412 119.019 142.816 119.808 142.101C120.746 141.305 121.629 140.446 122.451 139.531C122.877 139.06 123.302 138.596 123.711 138.108C124.12 137.621 124.54 137.106 124.904 136.658L124.971 136.568C125.3 136.106 125.796 135.791 126.354 135.689C126.912 135.587 127.488 135.706 127.959 136.022C128.43 136.338 128.759 136.825 128.877 137.38C128.994 137.935 128.891 138.513 128.589 138.993C127.202 141.528 125.509 143.883 123.549 146.004C122.44 147.192 121.16 148.208 119.752 149.017C118.849 149.521 117.859 149.85 116.834 149.986C116.213 150.063 115.585 150.044 114.969 149.93C114.647 149.874 114.331 149.79 114.023 149.678C113.87 149.634 113.721 149.574 113.581 149.499L113.245 149.348C111.736 148.563 110.368 147.533 109.196 146.301C108.15 145.253 107.182 144.13 106.301 142.941C105.438 141.782 104.621 140.606 103.893 139.396C103.501 138.797 103.153 138.209 102.806 137.576C102.459 136.944 102.129 136.367 101.776 135.667C101.575 135.272 101.455 134.841 101.421 134.399C101.387 133.957 101.441 133.513 101.578 133.091C101.716 132.67 101.936 132.28 102.224 131.944C102.513 131.608 102.865 131.331 103.26 131.131C103.655 130.93 104.086 130.81 104.528 130.776C104.97 130.742 105.414 130.796 105.835 130.933C106.256 131.071 106.646 131.291 106.983 131.579C107.319 131.868 107.595 132.22 107.796 132.615L107.801 132.688Z" fill="#263238"/>
<path d="M126.769 138.355L129.944 139.509L129.726 135.801C129.726 135.801 126.422 134.631 125.985 136.361V137.173C125.977 137.427 126.048 137.677 126.189 137.889C126.329 138.101 126.532 138.264 126.769 138.355Z" fill="#F7978D"/>
<path d="M133.209 138.63L133.881 135.46L129.726 135.796L129.944 139.509L133.209 138.63Z" fill="#F7978D"/>
<path opacity="0.3" d="M108.742 145.68C108.373 145.248 108.014 144.823 107.667 144.392C106.585 143.003 105.608 141.535 104.744 140.001C103.892 138.51 103.125 136.971 102.448 135.392C102.353 135.168 102.263 134.944 102.173 134.72C103.853 133.707 107.482 134.205 108.653 138.915C109.122 141.142 109.152 143.44 108.742 145.68Z" fill="black"/>
<path d="M101.468 165.834L80.3447 161.354C80.5911 159.433 82.3159 153.38 83.6599 145.489C84.501 140.046 84.9855 134.554 85.1103 129.048C85.1103 129.048 85.1103 129.014 85.1103 128.997C85.1289 128.658 85.2143 128.326 85.3615 128.02C85.5087 127.714 85.7149 127.44 85.9683 127.213C86.2216 126.987 86.5172 126.813 86.8379 126.701C87.1587 126.589 87.4984 126.542 87.8375 126.561H87.8823C89.1983 126.64 90.8391 126.791 92.4239 127.043C95.4532 127.509 98.4539 128.145 101.412 128.947C102.387 129.259 103.341 129.633 104.268 130.067C104.919 130.347 105.482 130.797 105.897 131.371C106.312 131.945 106.564 132.621 106.626 133.326C107.001 137.985 106.822 147.018 101.468 165.834Z" fill="white"/>
<path d="M98.8022 132.016L98.1974 133.226C98.1626 133.322 98.0997 133.405 98.0168 133.465C97.9339 133.525 97.8349 133.559 97.7326 133.562L96.6798 133.472C96.5286 133.472 96.4054 133.338 96.3494 133.142L95.9238 131.691L97.4918 130.717L98.8022 132.016Z" fill="#184466"/>
<path d="M92.1998 126.69C90.5198 126.421 88.8006 126.27 87.4118 126.18H87.367H87.2886C86.5696 126.159 85.8714 126.424 85.3467 126.916C84.822 127.408 84.5135 128.088 84.4886 128.807C84.3561 134.62 83.8473 140.419 82.9654 146.167C80.9102 160.889 78.8774 163.818 78.8774 163.818L88.2798 165.56C91.1302 152.187 93.3198 133.92 93.0958 126.813L92.1998 126.69Z" fill="#263238"/>
<path opacity="0.3" d="M83.2788 144.095C83.962 139.341 84.2588 134.435 84.3988 130.851C84.4434 130.804 84.4921 130.761 84.5444 130.722C85.726 129.714 88.6772 132.128 87.8708 136.647C87.126 140.92 85.0372 143.518 83.2788 144.095Z" fill="black"/>
<path d="M103.058 168.92L97.3687 167.397C100.941 142.337 101.776 135.678 100.969 128.656C102.379 129.026 103.768 129.471 105.13 129.989C105.843 130.334 106.453 130.858 106.903 131.51C107.352 132.161 107.625 132.918 107.695 133.707C108.177 137.616 105.197 147.64 103.058 168.92Z" fill="#263238"/>
<path d="M96.5004 158.565C96.643 158.496 96.7979 158.455 96.9563 158.446C97.1146 158.436 97.2733 158.458 97.4232 158.51C97.5731 158.562 97.7112 158.643 97.8296 158.749C97.948 158.854 98.0444 158.982 98.1132 159.125C98.2221 159.339 98.2652 159.58 98.2369 159.818C98.2087 160.056 98.1104 160.28 97.9545 160.462C97.7986 160.644 97.5921 160.776 97.3613 160.84C97.1305 160.905 96.8857 160.899 96.658 160.824C96.4304 160.749 96.2301 160.609 96.0825 160.42C95.935 160.231 95.8469 160.002 95.8294 159.763C95.8119 159.524 95.8658 159.286 95.9843 159.077C96.1027 158.869 96.2804 158.7 96.4948 158.593L96.5004 158.565Z" fill="#263238"/>
<path d="M95.7892 160.296C95.7049 160.131 95.6538 159.952 95.6389 159.768C95.6239 159.584 95.6454 159.399 95.7021 159.223C95.7588 159.047 95.8496 158.884 95.9693 158.743C96.0889 158.603 96.2352 158.487 96.3996 158.403C96.5641 158.318 96.744 158.266 96.9287 158.252C97.1134 158.237 97.2991 158.26 97.4748 158.319C97.6953 158.389 97.895 158.513 98.0562 158.679C98.2174 158.845 98.3351 159.049 98.3987 159.271C98.4624 159.494 98.4702 159.729 98.4213 159.955C98.3724 160.181 98.2683 160.392 98.1184 160.568C97.9685 160.745 97.7774 160.881 97.562 160.966C97.3466 161.051 97.1136 161.081 96.8837 161.054C96.6538 161.027 96.4341 160.944 96.2441 160.811C96.0542 160.679 95.8998 160.502 95.7948 160.296H95.7892Z" fill="white"/>
<path d="M97.6375 130.744C93.1295 130.044 92.0767 127.037 92.0767 127.037C94.4455 125.497 94.8095 120.06 94.7591 117.024L96.7359 119.528L99.4351 122.938C99.2504 123.357 99.0878 123.785 98.9479 124.22C98.3879 125.956 98.5167 127.676 100.997 128.846C100.997 128.846 101.479 131.327 97.6375 130.744Z" fill="#F7978D"/>
<path d="M91.2367 126.505L92.7151 126.292C93.8952 128.095 95.4789 129.598 97.3407 130.683C96.3558 131.078 95.5114 131.759 94.9159 132.637C90.5199 130.028 91.2367 126.505 91.2367 126.505Z" fill="white"/>
<path d="M101.031 128.6L99.8102 128.04C99.8102 128.04 98.7294 130.594 97.335 130.689C99.4462 132.066 99.575 133.282 99.575 133.282C103.114 132.923 101.031 128.6 101.031 128.6Z" fill="white"/>
<path opacity="0.2" d="M99.0933 123.811L96.5061 120.563C96.3904 120.973 96.3191 121.393 96.2933 121.818C96.2093 123.106 97.5477 124.735 98.7125 125.251L99.0933 123.811Z" fill="black"/>
<path d="M101.933 117.882C101.933 117.882 102.073 119.898 104.173 119.125C104.262 116.98 104.968 117.142 105.696 115.882C106.169 115.187 106.444 114.377 106.493 113.538C106.543 112.699 106.364 111.862 105.976 111.117L104.637 110.439C99.4182 108.821 101.933 117.882 101.933 117.882Z" fill="#263238"/>
<path opacity="0.6" d="M101.933 117.882C101.933 117.882 102.073 119.898 104.173 119.125C104.262 116.98 104.968 117.142 105.696 115.882C106.169 115.187 106.444 114.377 106.493 113.538C106.543 112.699 106.364 111.862 105.976 111.117L104.637 110.439C99.4182 108.821 101.933 117.882 101.933 117.882Z" fill="white"/>
<path d="M96.4784 109.728C97.4127 108.681 98.7246 108.048 100.125 107.968C101.526 107.888 102.902 108.368 103.949 109.302C107.202 112.063 106.06 117.943 104.229 121.129C103.767 121.962 103.087 122.653 102.262 123.128C101.437 123.603 100.498 123.844 99.5457 123.824C98.5938 123.805 97.6652 123.525 96.8602 123.017C96.0552 122.509 95.4043 121.79 94.9776 120.939C93.628 118.329 94.3448 116.084 95.2464 112.164C95.4377 111.258 95.8624 110.418 96.4784 109.728Z" fill="#F7978D"/>
<path d="M94.6077 115.72C94.6077 115.72 95.1341 117.461 97.0381 116.532C96.7077 114.65 97.4245 114.701 97.8949 113.508C98.2189 112.82 98.3307 112.05 98.216 111.299C98.1014 110.547 97.7654 109.846 97.2509 109.285L95.8117 108.865C88.9685 108.221 94.6077 115.72 94.6077 115.72Z" fill="#263238"/>
<path opacity="0.6" d="M94.6077 115.72C94.6077 115.72 95.1341 117.461 97.0381 116.532C96.7077 114.65 97.4245 114.701 97.8949 113.508C98.2189 112.82 98.3307 112.05 98.216 111.299C98.1014 110.547 97.7654 109.846 97.2509 109.285L95.8117 108.865C88.9685 108.221 94.6077 115.72 94.6077 115.72Z" fill="white"/>
<path d="M101.401 104.973C101.048 104.845 100.667 104.811 100.297 104.877C99.9274 104.943 99.5816 105.106 99.295 105.349C98.9198 105.673 98.5558 106.172 98.0686 106.077C97.83 105.991 97.6124 105.855 97.4302 105.679C96.6462 105.119 95.5038 105.36 94.7422 105.953C94.0278 106.604 93.436 107.378 92.995 108.238C92.554 109.105 91.8813 109.831 91.0518 110.338C91.8288 110.709 92.6754 110.912 93.5362 110.933C94.397 110.954 95.2526 110.794 96.047 110.461C95.6002 111.013 94.9875 111.406 94.2998 111.581C95.8808 112.033 97.5723 111.896 99.0598 111.195C99.8942 110.797 100.667 110.221 101.58 110.075C102.493 109.929 103.613 110.411 103.697 111.329C103.747 111.217 103.819 111.116 103.91 111.032C104.001 110.949 104.108 110.885 104.225 110.844C104.341 110.804 104.465 110.788 104.588 110.797C104.711 110.806 104.831 110.841 104.94 110.898C105.371 111.163 105.711 111.554 105.914 112.018C106.115 112.479 106.434 112.879 106.838 113.177C107.045 113.318 107.299 113.37 107.544 113.324C107.79 113.278 108.007 113.137 108.149 112.931C107.815 112.904 107.502 112.759 107.266 112.522C107.03 112.285 106.886 111.971 106.861 111.637C107.352 111.912 107.925 112.005 108.479 111.901C107.751 111.856 106.323 109.252 106.105 108.541C105.925 107.826 105.518 107.189 104.945 106.726C104.262 106.256 103.573 107.073 102.929 106.726C102.285 106.379 102.129 105.248 101.401 104.973Z" fill="#263238"/>
<path d="M100.493 119.119C99.9703 118.682 99.642 118.056 99.5806 117.377L100.701 117.825C101.177 118.01 102.543 118.587 102.241 119.337C101.938 120.088 100.857 119.416 100.493 119.119Z" fill="#263238"/>
<path d="M103.708 120.351C104.046 120.344 104.379 120.27 104.689 120.133C104.998 119.997 105.278 119.801 105.511 119.556L104.341 119.198C103.853 119.046 102.425 118.638 102.19 119.427C101.955 120.217 103.232 120.357 103.708 120.351Z" fill="#263238"/>
<path d="M102.157 119.08C102.384 119.223 102.64 119.316 102.907 119.351C103.174 119.386 103.446 119.362 103.702 119.281C103.329 118.263 103.096 117.198 103.008 116.117L102.157 119.08Z" fill="#FF5652"/>
<path d="M94.8318 113.021C95.7838 113.34 96.159 114.936 96.1142 115.933C96.0638 117.053 95.3302 117.742 94.507 117.053C93.873 116.463 93.4633 115.671 93.3478 114.813C93.2022 113.693 93.8798 112.696 94.8318 113.021Z" fill="#F7978D"/>
<path d="M101.16 114.79C101.361 114.863 101.44 115.199 101.356 115.485C101.272 115.77 101.031 115.966 100.829 115.899C100.628 115.832 100.561 115.535 100.628 115.216C100.695 114.897 100.953 114.723 101.16 114.79Z" fill="#263238"/>
<path d="M104.693 115.765C104.9 115.832 104.984 116.134 104.895 116.448C104.805 116.762 104.564 116.969 104.363 116.896C104.161 116.823 104.072 116.521 104.161 116.207C104.251 115.894 104.52 115.72 104.693 115.765Z" fill="#263238"/>
<path d="M101.804 120.81C101.829 120.812 101.854 120.805 101.874 120.791C101.895 120.777 101.909 120.756 101.916 120.732C101.919 120.706 101.913 120.681 101.899 120.66C101.884 120.639 101.862 120.625 101.837 120.62C101.43 120.564 101.041 120.415 100.7 120.185C100.359 119.955 100.076 119.649 99.8718 119.292C99.8599 119.27 99.84 119.253 99.8161 119.245C99.7923 119.237 99.7662 119.238 99.743 119.248C99.7208 119.259 99.7038 119.279 99.6955 119.303C99.6872 119.327 99.6882 119.353 99.6982 119.376C99.881 119.708 100.129 119.999 100.427 120.232C100.726 120.465 101.068 120.635 101.434 120.732C101.552 120.76 101.681 120.76 101.804 120.81Z" fill="#263238"/>
<path d="M104.57 114.415C104.577 114.446 104.591 114.475 104.612 114.5C104.632 114.524 104.658 114.543 104.688 114.555C104.922 114.626 105.137 114.75 105.317 114.917C105.496 115.084 105.636 115.29 105.724 115.518C105.729 115.542 105.739 115.565 105.753 115.585C105.767 115.605 105.786 115.621 105.807 115.634C105.828 115.647 105.851 115.655 105.875 115.658C105.9 115.661 105.924 115.659 105.948 115.653C105.995 115.637 106.035 115.604 106.059 115.561C106.083 115.517 106.089 115.466 106.077 115.418C105.974 115.128 105.805 114.866 105.583 114.653C105.361 114.441 105.093 114.282 104.8 114.191C104.751 114.177 104.699 114.182 104.655 114.205C104.61 114.228 104.576 114.267 104.559 114.314C104.551 114.348 104.555 114.384 104.57 114.415Z" fill="#263238"/>
<path d="M100.488 113.418C100.513 113.437 100.542 113.45 100.573 113.456C100.604 113.462 100.636 113.46 100.667 113.452C100.896 113.366 101.143 113.333 101.387 113.355C101.631 113.377 101.868 113.454 102.078 113.581C102.117 113.61 102.165 113.623 102.214 113.617C102.262 113.611 102.306 113.586 102.336 113.547C102.365 113.507 102.377 113.457 102.37 113.408C102.362 113.358 102.336 113.314 102.296 113.284C102.038 113.118 101.744 113.015 101.439 112.984C101.133 112.953 100.824 112.994 100.538 113.105C100.514 113.112 100.492 113.125 100.473 113.141C100.454 113.157 100.438 113.177 100.427 113.2C100.416 113.222 100.41 113.247 100.409 113.272C100.408 113.297 100.412 113.322 100.42 113.346C100.437 113.374 100.46 113.399 100.488 113.418Z" fill="#263238"/>
<path d="M70.2197 162.144L69.4917 162.065C67.7781 162.889 69.6373 166.058 69.6373 166.058L74.6773 165.442L73.2157 163.762C72.4567 162.865 71.3866 162.287 70.2197 162.144Z" fill="#F7978D"/>
<path d="M74.8398 167.615L74.6718 165.437L69.6318 166.053L69.9118 168.634C69.9092 168.671 69.9092 168.709 69.9118 168.746C69.936 168.845 69.9795 168.937 70.0397 169.019C70.1 169.1 70.1757 169.169 70.2627 169.221C70.3496 169.273 70.4461 169.308 70.5464 169.322C70.6467 169.337 70.7488 169.331 70.847 169.306L74.2798 168.405C74.4497 168.357 74.5981 168.253 74.7001 168.109C74.8021 167.965 74.8514 167.791 74.8398 167.615Z" fill="#F7978D"/>
<path d="M99.5804 153.01C99.5804 153.01 97.8276 157.227 97.0548 156.645C96.282 156.062 94.5012 152.836 94.4956 152.769C94.49 152.702 96.6796 133.472 96.6796 133.472L97.7268 133.561C97.3012 135.717 99.5804 153.01 99.5804 153.01Z" fill="#184466"/>
<path d="M70.7185 142.6C68.6241 145.579 68.1201 159.635 68.6801 163.247C69.123 162.751 69.7308 162.432 70.3908 162.349C71.0508 162.267 71.7184 162.427 72.2697 162.799C72.3201 160.324 74.3249 151.481 75.1873 147.791C75.4347 146.753 76.0443 145.838 76.9065 145.209C80.6025 142.533 87.2945 137.235 88.0337 135.129C89.2265 131.769 88.2017 124.881 85.2337 126.998C82.4225 129.02 72.3817 140.197 70.7185 142.6Z" fill="#263238"/>
<path d="M238.276 71.732C237.876 71.6383 237.484 71.5109 237.106 71.3512C236.4 71.0768 235.499 70.612 234.552 70.1584C233.768 69.7691 232.924 69.5153 232.055 69.408C231.388 69.3352 230.935 69.408 230.873 69.2344C230.811 69.0608 231.203 68.736 231.993 68.5848C233.036 68.4433 234.097 68.6251 235.034 69.1056C235.911 69.5632 236.711 70.1567 237.403 70.864C237.951 71.3848 238.276 71.732 238.276 71.732Z" fill="#184466"/>
<path d="M242.386 68.4222L241.541 68.7526C241.037 68.9598 240.421 69.251 239.693 69.559C238.276 70.1862 237.066 70.8358 236.893 70.5502C236.803 70.4214 236.988 70.1022 237.397 69.7102C237.939 69.1964 238.569 68.7831 239.256 68.4894C239.961 68.1842 240.735 68.0758 241.496 68.1758C241.727 68.2063 241.954 68.2607 242.174 68.3382L242.386 68.4222Z" fill="#184466"/>
<path d="M230.649 74.2016L230.419 74.0616C230.274 73.9664 230.055 73.8432 229.792 73.7032C229.128 73.345 228.435 73.0434 227.72 72.8016C226.074 72.208 224.601 72.3424 224.556 72.0904C224.556 71.9784 224.892 71.788 225.531 71.6984C226.366 71.6011 227.212 71.695 228.006 71.9728C228.8 72.2523 229.509 72.7304 230.067 73.3616C230.236 73.5478 230.386 73.7504 230.515 73.9664L230.649 74.2016Z" fill="#184466"/>
<path d="M232.267 70.7966L231.674 71.1382L230.358 71.8718C229.367 72.4318 228.599 73.0534 228.409 72.8854C228.325 72.8014 228.409 72.5382 228.661 72.1966C229.003 71.7374 229.438 71.3557 229.938 71.0766C230.441 70.8095 231.003 70.6746 231.573 70.6846C231.808 70.6926 232.042 70.7302 232.267 70.7966Z" fill="#184466"/>
<path d="M229.283 68.859C229.283 68.859 228.723 68.663 227.871 68.299C227.02 67.935 225.872 67.431 224.612 67.0166C223.551 66.6588 222.432 66.503 221.314 66.5574C220.451 66.6078 219.903 66.7758 219.824 66.619C219.746 66.4622 220.199 66.059 221.163 65.751C222.421 65.4253 223.748 65.4799 224.976 65.9078C226.158 66.3251 227.246 66.97 228.179 67.8062C228.567 68.136 228.935 68.4875 229.283 68.859Z" fill="#184466"/>
<path d="M233.068 64.0486L232.755 64.1382C232.547 64.1886 232.262 64.2782 231.92 64.3846C231.062 64.6685 230.221 65.0014 229.4 65.3814C227.485 66.2382 226.253 67.5094 225.99 67.3078C225.867 67.2126 226.023 66.7478 226.511 66.143C227.165 65.3641 227.986 64.7422 228.913 64.323C229.84 63.9049 230.857 63.7277 231.87 63.8079C232.173 63.8293 232.473 63.8799 232.766 63.959L233.068 64.0486Z" fill="#184466"/>
<path d="M103.361 85.8772C102.962 85.7804 102.57 85.6531 102.191 85.4964C101.485 85.222 100.578 84.7572 99.6369 84.298C98.8498 83.9111 98.0039 83.6575 97.1337 83.5476C96.4673 83.4748 96.0137 83.5476 95.9521 83.374C95.8905 83.2004 96.2825 82.8756 97.0721 82.73C98.1152 82.5853 99.1775 82.7672 100.113 83.2508C100.992 83.7034 101.792 84.2953 102.482 85.0036C103.036 85.5244 103.361 85.8772 103.361 85.8772Z" fill="#184466"/>
<path d="M107.471 82.5676L106.62 82.898C106.116 83.0996 105.5 83.3908 104.772 83.7044C103.355 84.326 102.151 84.9756 101.972 84.6956C101.877 84.5612 102.067 84.2476 102.47 83.85C103.014 83.3375 103.643 82.9243 104.33 82.6292C105.035 82.328 105.808 82.2198 106.57 82.3156C106.798 82.3479 107.023 82.4023 107.242 82.478C107.32 82.5037 107.396 82.5336 107.471 82.5676Z" fill="#184466"/>
<path d="M95.7337 88.3416L95.4985 88.2016C95.3529 88.1064 95.1401 87.9832 94.8769 87.8432C94.2117 87.4871 93.5188 87.1856 92.8049 86.9416C91.1585 86.3816 89.6801 86.4824 89.6353 86.2304C89.6353 86.1184 89.9769 85.928 90.6097 85.8384C91.4471 85.7407 92.2958 85.8365 93.0905 86.1184C93.8845 86.3954 94.5941 86.8717 95.1513 87.5016C95.3189 87.6876 95.4671 87.8903 95.5937 88.1064L95.7337 88.3416Z" fill="#184466"/>
<path d="M97.3466 84.92L96.7586 85.2616L95.4426 86.04C94.4458 86.6 93.6842 87.2216 93.4938 87.048C93.4042 86.9696 93.4938 86.7064 93.7458 86.3592C94.0896 85.9107 94.5248 85.5403 95.0226 85.2728C95.5229 85.0032 96.084 84.8663 96.6522 84.8752C96.8846 84.8612 97.1179 84.8762 97.3466 84.92Z" fill="#184466"/>
</svg>
