<svg width="360" height="640" viewBox="0 0 360 640" fill="none" xmlns="http://www.w3.org/2000/svg">
<rect width="360" height="640" fill="white"/>
<path d="M107.188 400.737C107.089 402.114 106.579 403.198 105.659 403.989C104.745 404.78 103.538 405.176 102.038 405.176C100.397 405.176 99.1055 404.625 98.1621 403.523C97.2246 402.416 96.7559 400.898 96.7559 398.971V398.188C96.7559 396.958 96.9727 395.874 97.4062 394.937C97.8398 393.999 98.458 393.281 99.2607 392.783C100.069 392.279 101.007 392.027 102.073 392.027C103.55 392.027 104.739 392.423 105.642 393.214C106.544 394.005 107.065 395.115 107.206 396.545H104.569C104.505 395.719 104.273 395.121 103.875 394.752C103.482 394.377 102.882 394.189 102.073 394.189C101.194 394.189 100.535 394.506 100.096 395.139C99.6621 395.766 99.4395 396.741 99.4277 398.065V399.032C99.4277 400.415 99.6357 401.426 100.052 402.064C100.474 402.703 101.136 403.022 102.038 403.022C102.853 403.022 103.459 402.838 103.857 402.469C104.262 402.094 104.493 401.517 104.552 400.737H107.188ZM108.357 400.157C108.357 399.214 108.539 398.373 108.902 397.635C109.266 396.896 109.787 396.325 110.467 395.921C111.152 395.517 111.946 395.314 112.849 395.314C114.132 395.314 115.178 395.707 115.986 396.492C116.801 397.277 117.255 398.344 117.349 399.691L117.366 400.342C117.366 401.801 116.959 402.973 116.145 403.857C115.33 404.736 114.237 405.176 112.866 405.176C111.495 405.176 110.399 404.736 109.579 403.857C108.765 402.979 108.357 401.783 108.357 400.271V400.157ZM110.897 400.342C110.897 401.244 111.067 401.936 111.407 402.416C111.747 402.891 112.233 403.128 112.866 403.128C113.481 403.128 113.962 402.894 114.308 402.425C114.653 401.95 114.826 401.194 114.826 400.157C114.826 399.272 114.653 398.587 114.308 398.101C113.962 397.614 113.476 397.371 112.849 397.371C112.228 397.371 111.747 397.614 111.407 398.101C111.067 398.581 110.897 399.328 110.897 400.342ZM121.269 395.49L121.348 396.589C122.027 395.739 122.938 395.314 124.081 395.314C125.089 395.314 125.839 395.61 126.331 396.202C126.823 396.794 127.075 397.679 127.087 398.856V405H124.547V398.918C124.547 398.379 124.43 397.989 124.195 397.749C123.961 397.503 123.571 397.38 123.026 397.38C122.312 397.38 121.775 397.685 121.418 398.294V405H118.878V395.49H121.269ZM131.358 395.49L131.438 396.589C132.117 395.739 133.028 395.314 134.171 395.314C135.179 395.314 135.929 395.61 136.421 396.202C136.913 396.794 137.165 397.679 137.177 398.856V405H134.637V398.918C134.637 398.379 134.52 397.989 134.285 397.749C134.051 397.503 133.661 397.38 133.116 397.38C132.401 397.38 131.865 397.685 131.508 398.294V405H128.968V395.49H131.358ZM143.487 405.176C142.093 405.176 140.956 404.748 140.077 403.893C139.204 403.037 138.768 401.897 138.768 400.474V400.228C138.768 399.272 138.952 398.42 139.321 397.67C139.69 396.914 140.212 396.334 140.886 395.93C141.565 395.52 142.339 395.314 143.206 395.314C144.507 395.314 145.529 395.725 146.273 396.545C147.023 397.365 147.398 398.528 147.398 400.034V401.071H141.343C141.425 401.692 141.671 402.19 142.081 402.565C142.497 402.94 143.021 403.128 143.654 403.128C144.633 403.128 145.397 402.773 145.948 402.064L147.196 403.462C146.815 404.001 146.3 404.423 145.649 404.728C144.999 405.026 144.278 405.176 143.487 405.176ZM143.197 397.371C142.693 397.371 142.283 397.541 141.967 397.881C141.656 398.221 141.457 398.707 141.369 399.34H144.902V399.138C144.891 398.575 144.738 398.142 144.445 397.837C144.152 397.526 143.736 397.371 143.197 397.371ZM152.804 403.128C153.272 403.128 153.653 402.999 153.946 402.741C154.239 402.483 154.392 402.141 154.403 401.713H156.785C156.779 402.357 156.604 402.949 156.258 403.488C155.912 404.021 155.438 404.438 154.834 404.736C154.236 405.029 153.574 405.176 152.848 405.176C151.488 405.176 150.416 404.745 149.631 403.884C148.846 403.017 148.453 401.821 148.453 400.298V400.131C148.453 398.666 148.843 397.497 149.622 396.624C150.401 395.751 151.471 395.314 152.83 395.314C154.02 395.314 154.972 395.654 155.687 396.334C156.407 397.008 156.773 397.907 156.785 399.032H154.403C154.392 398.54 154.239 398.142 153.946 397.837C153.653 397.526 153.267 397.371 152.786 397.371C152.194 397.371 151.746 397.588 151.441 398.021C151.143 398.449 150.993 399.146 150.993 400.113V400.377C150.993 401.355 151.143 402.059 151.441 402.486C151.74 402.914 152.194 403.128 152.804 403.128ZM161.276 393.152V395.49H162.902V397.354H161.276V402.1C161.276 402.451 161.344 402.703 161.479 402.855C161.613 403.008 161.871 403.084 162.252 403.084C162.533 403.084 162.782 403.063 162.999 403.022V404.947C162.501 405.1 161.988 405.176 161.461 405.176C159.68 405.176 158.771 404.276 158.736 402.478V397.354H157.348V395.49H158.736V393.152H161.276ZM166.998 405H164.449V395.49H166.998V405ZM164.3 393.029C164.3 392.648 164.426 392.335 164.678 392.089C164.936 391.843 165.284 391.72 165.724 391.72C166.157 391.72 166.503 391.843 166.761 392.089C167.019 392.335 167.147 392.648 167.147 393.029C167.147 393.416 167.016 393.732 166.752 393.979C166.494 394.225 166.151 394.348 165.724 394.348C165.296 394.348 164.95 394.225 164.687 393.979C164.429 393.732 164.3 393.416 164.3 393.029ZM171.437 395.49L171.516 396.589C172.195 395.739 173.106 395.314 174.249 395.314C175.257 395.314 176.007 395.61 176.499 396.202C176.991 396.794 177.243 397.679 177.255 398.856V405H174.715V398.918C174.715 398.379 174.598 397.989 174.363 397.749C174.129 397.503 173.739 397.38 173.194 397.38C172.479 397.38 171.943 397.685 171.586 398.294V405H169.046V395.49H171.437ZM178.819 400.175C178.819 398.716 179.165 397.541 179.856 396.65C180.554 395.76 181.491 395.314 182.669 395.314C183.712 395.314 184.523 395.672 185.104 396.387L185.209 395.49H187.512V404.684C187.512 405.516 187.321 406.239 186.94 406.854C186.565 407.47 186.035 407.938 185.35 408.261C184.664 408.583 183.861 408.744 182.941 408.744C182.244 408.744 181.564 408.604 180.902 408.322C180.24 408.047 179.739 407.689 179.399 407.25L180.524 405.703C181.157 406.412 181.925 406.767 182.827 406.767C183.501 406.767 184.025 406.585 184.4 406.222C184.775 405.864 184.963 405.354 184.963 404.692V404.183C184.377 404.845 183.606 405.176 182.651 405.176C181.509 405.176 180.583 404.73 179.874 403.84C179.171 402.943 178.819 401.757 178.819 400.28V400.175ZM181.359 400.359C181.359 401.221 181.532 401.897 181.878 402.39C182.224 402.876 182.698 403.119 183.302 403.119C184.075 403.119 184.629 402.829 184.963 402.249V398.25C184.623 397.67 184.075 397.38 183.319 397.38C182.71 397.38 182.229 397.629 181.878 398.127C181.532 398.625 181.359 399.369 181.359 400.359ZM196.995 393.152V395.49H198.621V397.354H196.995V402.1C196.995 402.451 197.062 402.703 197.197 402.855C197.332 403.008 197.59 403.084 197.971 403.084C198.252 403.084 198.501 403.063 198.718 403.022V404.947C198.22 405.1 197.707 405.176 197.18 405.176C195.398 405.176 194.49 404.276 194.455 402.478V397.354H193.066V395.49H194.455V393.152H196.995ZM199.377 400.157C199.377 399.214 199.559 398.373 199.922 397.635C200.285 396.896 200.807 396.325 201.486 395.921C202.172 395.517 202.966 395.314 203.868 395.314C205.151 395.314 206.197 395.707 207.006 396.492C207.82 397.277 208.274 398.344 208.368 399.691L208.386 400.342C208.386 401.801 207.979 402.973 207.164 403.857C206.35 404.736 205.257 405.176 203.886 405.176C202.515 405.176 201.419 404.736 200.599 403.857C199.784 402.979 199.377 401.783 199.377 400.271V400.157ZM201.917 400.342C201.917 401.244 202.087 401.936 202.427 402.416C202.767 402.891 203.253 403.128 203.886 403.128C204.501 403.128 204.981 402.894 205.327 402.425C205.673 401.95 205.846 401.194 205.846 400.157C205.846 399.272 205.673 398.587 205.327 398.101C204.981 397.614 204.495 397.371 203.868 397.371C203.247 397.371 202.767 397.614 202.427 398.101C202.087 398.581 201.917 399.328 201.917 400.342ZM219.583 402.372C219.583 402.062 219.428 401.818 219.117 401.643C218.812 401.461 218.32 401.3 217.641 401.159C215.379 400.685 214.248 399.724 214.248 398.276C214.248 397.433 214.597 396.729 215.294 396.167C215.997 395.599 216.914 395.314 218.045 395.314C219.252 395.314 220.216 395.599 220.937 396.167C221.663 396.735 222.026 397.474 222.026 398.382H219.486C219.486 398.019 219.369 397.72 219.135 397.485C218.9 397.245 218.534 397.125 218.036 397.125C217.608 397.125 217.277 397.222 217.043 397.415C216.809 397.608 216.691 397.854 216.691 398.153C216.691 398.435 216.823 398.663 217.087 398.839C217.356 399.009 217.808 399.158 218.44 399.287C219.073 399.41 219.606 399.551 220.04 399.709C221.382 400.201 222.053 401.054 222.053 402.267C222.053 403.134 221.681 403.837 220.937 404.376C220.192 404.909 219.231 405.176 218.054 405.176C217.257 405.176 216.548 405.035 215.927 404.754C215.312 404.467 214.828 404.077 214.477 403.585C214.125 403.087 213.949 402.551 213.949 401.977H216.357C216.381 402.428 216.548 402.773 216.858 403.014C217.169 403.254 217.585 403.374 218.106 403.374C218.593 403.374 218.959 403.283 219.205 403.102C219.457 402.914 219.583 402.671 219.583 402.372ZM228.073 405.176C226.679 405.176 225.542 404.748 224.663 403.893C223.79 403.037 223.354 401.897 223.354 400.474V400.228C223.354 399.272 223.538 398.42 223.907 397.67C224.276 396.914 224.798 396.334 225.472 395.93C226.151 395.52 226.925 395.314 227.792 395.314C229.093 395.314 230.115 395.725 230.859 396.545C231.609 397.365 231.984 398.528 231.984 400.034V401.071H225.929C226.011 401.692 226.257 402.19 226.667 402.565C227.083 402.94 227.607 403.128 228.24 403.128C229.219 403.128 229.983 402.773 230.534 402.064L231.782 403.462C231.401 404.001 230.886 404.423 230.235 404.728C229.585 405.026 228.864 405.176 228.073 405.176ZM227.783 397.371C227.279 397.371 226.869 397.541 226.553 397.881C226.242 398.221 226.043 398.707 225.955 399.34H229.488V399.138C229.477 398.575 229.324 398.142 229.031 397.837C228.738 397.526 228.322 397.371 227.783 397.371ZM238.778 397.872C238.433 397.825 238.128 397.802 237.864 397.802C236.903 397.802 236.273 398.127 235.975 398.777V405H233.435V395.49H235.834L235.904 396.624C236.414 395.751 237.12 395.314 238.022 395.314C238.304 395.314 238.567 395.353 238.813 395.429L238.778 397.872ZM243.727 401.897L245.493 395.49H248.147L244.939 405H242.514L239.306 395.49H241.96L243.727 401.897ZM253.526 405.176C252.132 405.176 250.995 404.748 250.116 403.893C249.243 403.037 248.807 401.897 248.807 400.474V400.228C248.807 399.272 248.991 398.42 249.36 397.67C249.729 396.914 250.251 396.334 250.925 395.93C251.604 395.52 252.378 395.314 253.245 395.314C254.546 395.314 255.568 395.725 256.312 396.545C257.062 397.365 257.438 398.528 257.438 400.034V401.071H251.382C251.464 401.692 251.71 402.19 252.12 402.565C252.536 402.94 253.061 403.128 253.693 403.128C254.672 403.128 255.437 402.773 255.987 402.064L257.235 403.462C256.854 404.001 256.339 404.423 255.688 404.728C255.038 405.026 254.317 405.176 253.526 405.176ZM253.236 397.371C252.732 397.371 252.322 397.541 252.006 397.881C251.695 398.221 251.496 398.707 251.408 399.34H254.941V399.138C254.93 398.575 254.777 398.142 254.484 397.837C254.191 397.526 253.775 397.371 253.236 397.371ZM264.231 397.872C263.886 397.825 263.581 397.802 263.317 397.802C262.356 397.802 261.727 398.127 261.428 398.777V405H258.888V395.49H261.287L261.357 396.624C261.867 395.751 262.573 395.314 263.476 395.314C263.757 395.314 264.021 395.353 264.267 395.429L264.231 397.872Z" fill="#4F4F4F"/>
<path d="M50.4678 602.104V606H49.1553V596.047H52.8262C53.9154 596.047 54.7676 596.325 55.3828 596.881C56.0026 597.437 56.3125 598.173 56.3125 599.089C56.3125 600.055 56.0094 600.8 55.4033 601.324C54.8018 601.844 53.9382 602.104 52.8125 602.104H50.4678ZM50.4678 601.03H52.8262C53.528 601.03 54.0658 600.866 54.4395 600.538C54.8132 600.205 55 599.727 55 599.103C55 598.51 54.8132 598.036 54.4395 597.681C54.0658 597.325 53.5531 597.141 52.9014 597.127H50.4678V601.03ZM59.1631 606H57.8984V595.5H59.1631V606ZM64.2627 606.137C63.2601 606.137 62.4443 605.809 61.8154 605.152C61.1865 604.492 60.8721 603.61 60.8721 602.507V602.274C60.8721 601.541 61.0111 600.887 61.2891 600.312C61.5716 599.734 61.9635 599.283 62.4648 598.959C62.9707 598.631 63.5176 598.467 64.1055 598.467C65.0671 598.467 65.8145 598.784 66.3477 599.417C66.8809 600.05 67.1475 600.957 67.1475 602.138V602.664H62.1367C62.1549 603.393 62.3669 603.983 62.7725 604.435C63.1826 604.881 63.7021 605.104 64.3311 605.104C64.7777 605.104 65.1559 605.013 65.4658 604.831C65.7757 604.649 66.0469 604.407 66.2793 604.106L67.0518 604.708C66.432 605.66 65.5023 606.137 64.2627 606.137ZM64.1055 599.506C63.5951 599.506 63.1667 599.693 62.8203 600.066C62.474 600.436 62.2598 600.955 62.1777 601.625H65.8828V601.529C65.8464 600.887 65.6732 600.39 65.3633 600.039C65.0534 599.684 64.6341 599.506 64.1055 599.506ZM73.1836 606C73.1107 605.854 73.0514 605.594 73.0059 605.221C72.418 605.831 71.7161 606.137 70.9004 606.137C70.1712 606.137 69.5719 605.932 69.1025 605.521C68.6377 605.107 68.4053 604.583 68.4053 603.949C68.4053 603.179 68.6969 602.582 69.2803 602.158C69.8682 601.73 70.693 601.516 71.7549 601.516H72.9854V600.935C72.9854 600.493 72.8532 600.142 72.5889 599.882C72.3245 599.618 71.9349 599.485 71.4199 599.485C70.9688 599.485 70.5905 599.599 70.2852 599.827C69.9798 600.055 69.8271 600.331 69.8271 600.654H68.5557C68.5557 600.285 68.6855 599.93 68.9453 599.588C69.2096 599.242 69.5651 598.968 70.0117 598.768C70.4629 598.567 70.9574 598.467 71.4951 598.467C72.3473 598.467 73.015 598.681 73.498 599.109C73.9811 599.533 74.2318 600.119 74.25 600.866V604.271C74.25 604.95 74.3366 605.49 74.5098 605.891V606H73.1836ZM71.085 605.036C71.4814 605.036 71.8574 604.934 72.2129 604.729C72.5684 604.523 72.8258 604.257 72.9854 603.929V602.411H71.9941C70.4447 602.411 69.6699 602.865 69.6699 603.771C69.6699 604.168 69.8021 604.478 70.0664 604.701C70.3307 604.924 70.6702 605.036 71.085 605.036ZM80.5391 604.038C80.5391 603.696 80.4092 603.432 80.1494 603.245C79.8942 603.054 79.4453 602.89 78.8027 602.753C78.1647 602.616 77.6566 602.452 77.2783 602.261C76.9046 602.069 76.6266 601.841 76.4443 601.577C76.2666 601.313 76.1777 600.998 76.1777 600.634C76.1777 600.028 76.4329 599.515 76.9434 599.096C77.4583 598.676 78.1146 598.467 78.9121 598.467C79.7507 598.467 80.4297 598.683 80.9492 599.116C81.4733 599.549 81.7354 600.103 81.7354 600.777H80.4639C80.4639 600.431 80.3158 600.132 80.0195 599.882C79.7279 599.631 79.3587 599.506 78.9121 599.506C78.4518 599.506 78.0918 599.606 77.832 599.807C77.5723 600.007 77.4424 600.269 77.4424 600.593C77.4424 600.898 77.5632 601.128 77.8047 601.283C78.0462 601.438 78.4814 601.586 79.1104 601.728C79.7438 601.869 80.2565 602.037 80.6484 602.233C81.0404 602.429 81.3298 602.666 81.5166 602.944C81.708 603.218 81.8037 603.553 81.8037 603.949C81.8037 604.61 81.5394 605.141 81.0107 605.542C80.4821 605.938 79.7962 606.137 78.9531 606.137C78.3607 606.137 77.8366 606.032 77.3809 605.822C76.9251 605.613 76.5674 605.321 76.3076 604.947C76.0524 604.569 75.9248 604.161 75.9248 603.724H77.1895C77.2122 604.147 77.3809 604.485 77.6953 604.735C78.0143 604.981 78.4336 605.104 78.9531 605.104C79.4316 605.104 79.8145 605.009 80.1016 604.817C80.3932 604.621 80.5391 604.362 80.5391 604.038ZM86.5205 606.137C85.5179 606.137 84.7021 605.809 84.0732 605.152C83.4443 604.492 83.1299 603.61 83.1299 602.507V602.274C83.1299 601.541 83.2689 600.887 83.5469 600.312C83.8294 599.734 84.2214 599.283 84.7227 598.959C85.2285 598.631 85.7754 598.467 86.3633 598.467C87.3249 598.467 88.0723 598.784 88.6055 599.417C89.1387 600.05 89.4053 600.957 89.4053 602.138V602.664H84.3945C84.4128 603.393 84.6247 603.983 85.0303 604.435C85.4404 604.881 85.96 605.104 86.5889 605.104C87.0355 605.104 87.4137 605.013 87.7236 604.831C88.0335 604.649 88.3047 604.407 88.5371 604.106L89.3096 604.708C88.6898 605.66 87.7601 606.137 86.5205 606.137ZM86.3633 599.506C85.8529 599.506 85.4245 599.693 85.0781 600.066C84.7318 600.436 84.5176 600.955 84.4355 601.625H88.1406V601.529C88.1042 600.887 87.931 600.39 87.6211 600.039C87.3112 599.684 86.8919 599.506 86.3633 599.506ZM100.896 604.257L102.318 598.604H103.583L101.43 606H100.404L98.6064 600.395L96.8564 606H95.8311L93.6846 598.604H94.9424L96.3984 604.141L98.1211 598.604H99.1396L100.896 604.257ZM109.441 606C109.368 605.854 109.309 605.594 109.264 605.221C108.676 605.831 107.974 606.137 107.158 606.137C106.429 606.137 105.83 605.932 105.36 605.521C104.896 605.107 104.663 604.583 104.663 603.949C104.663 603.179 104.955 602.582 105.538 602.158C106.126 601.73 106.951 601.516 108.013 601.516H109.243V600.935C109.243 600.493 109.111 600.142 108.847 599.882C108.582 599.618 108.193 599.485 107.678 599.485C107.227 599.485 106.848 599.599 106.543 599.827C106.238 600.055 106.085 600.331 106.085 600.654H104.813C104.813 600.285 104.943 599.93 105.203 599.588C105.467 599.242 105.823 598.968 106.27 598.768C106.721 598.567 107.215 598.467 107.753 598.467C108.605 598.467 109.273 598.681 109.756 599.109C110.239 599.533 110.49 600.119 110.508 600.866V604.271C110.508 604.95 110.594 605.49 110.768 605.891V606H109.441ZM107.343 605.036C107.739 605.036 108.115 604.934 108.471 604.729C108.826 604.523 109.084 604.257 109.243 603.929V602.411H108.252C106.702 602.411 105.928 602.865 105.928 603.771C105.928 604.168 106.06 604.478 106.324 604.701C106.589 604.924 106.928 605.036 107.343 605.036ZM113.864 606H112.6V598.604H113.864V606ZM112.497 596.642C112.497 596.437 112.559 596.263 112.682 596.122C112.809 595.981 112.996 595.91 113.242 595.91C113.488 595.91 113.675 595.981 113.803 596.122C113.93 596.263 113.994 596.437 113.994 596.642C113.994 596.847 113.93 597.018 113.803 597.154C113.675 597.291 113.488 597.359 113.242 597.359C112.996 597.359 112.809 597.291 112.682 597.154C112.559 597.018 112.497 596.847 112.497 596.642ZM117.61 596.812V598.604H118.991V599.581H117.61V604.168C117.61 604.464 117.672 604.688 117.795 604.838C117.918 604.984 118.128 605.057 118.424 605.057C118.57 605.057 118.77 605.029 119.025 604.975V606C118.693 606.091 118.369 606.137 118.055 606.137C117.49 606.137 117.063 605.966 116.776 605.624C116.489 605.282 116.346 604.797 116.346 604.168V599.581H114.999V598.604H116.346V596.812H117.61ZM130.496 604.257L131.918 598.604H133.183L131.029 606H130.004L128.206 600.395L126.456 606H125.431L123.284 598.604H124.542L125.998 604.141L127.721 598.604H128.739L130.496 604.257ZM135.739 599.499C136.3 598.811 137.029 598.467 137.927 598.467C139.49 598.467 140.278 599.349 140.292 601.112V606H139.027V601.105C139.023 600.572 138.9 600.178 138.658 599.923C138.421 599.668 138.05 599.54 137.544 599.54C137.134 599.54 136.774 599.649 136.464 599.868C136.154 600.087 135.912 600.374 135.739 600.729V606H134.475V595.5H135.739V599.499ZM143.56 606H142.295V598.604H143.56V606ZM142.192 596.642C142.192 596.437 142.254 596.263 142.377 596.122C142.505 595.981 142.691 595.91 142.938 595.91C143.184 595.91 143.37 595.981 143.498 596.122C143.626 596.263 143.689 596.437 143.689 596.642C143.689 596.847 143.626 597.018 143.498 597.154C143.37 597.291 143.184 597.359 142.938 597.359C142.691 597.359 142.505 597.291 142.377 597.154C142.254 597.018 142.192 596.847 142.192 596.642ZM146.964 606H145.699V595.5H146.964V606ZM152.063 606.137C151.061 606.137 150.245 605.809 149.616 605.152C148.987 604.492 148.673 603.61 148.673 602.507V602.274C148.673 601.541 148.812 600.887 149.09 600.312C149.372 599.734 149.764 599.283 150.266 598.959C150.771 598.631 151.318 598.467 151.906 598.467C152.868 598.467 153.615 598.784 154.148 599.417C154.682 600.05 154.948 600.957 154.948 602.138V602.664H149.938C149.956 603.393 150.168 603.983 150.573 604.435C150.983 604.881 151.503 605.104 152.132 605.104C152.578 605.104 152.957 605.013 153.267 604.831C153.576 604.649 153.848 604.407 154.08 604.106L154.853 604.708C154.233 605.66 153.303 606.137 152.063 606.137ZM151.906 599.506C151.396 599.506 150.967 599.693 150.621 600.066C150.275 600.436 150.061 600.955 149.979 601.625H153.684V601.529C153.647 600.887 153.474 600.39 153.164 600.039C152.854 599.684 152.435 599.506 151.906 599.506ZM166.439 604.257L167.861 598.604H169.126L166.973 606H165.947L164.149 600.395L162.399 606H161.374L159.228 598.604H160.485L161.941 604.141L163.664 598.604H164.683L166.439 604.257ZM173.487 606.137C172.485 606.137 171.669 605.809 171.04 605.152C170.411 604.492 170.097 603.61 170.097 602.507V602.274C170.097 601.541 170.236 600.887 170.514 600.312C170.796 599.734 171.188 599.283 171.689 598.959C172.195 598.631 172.742 598.467 173.33 598.467C174.292 598.467 175.039 598.784 175.572 599.417C176.105 600.05 176.372 600.957 176.372 602.138V602.664H171.361C171.38 603.393 171.591 603.983 171.997 604.435C172.407 604.881 172.927 605.104 173.556 605.104C174.002 605.104 174.381 605.013 174.69 604.831C175 604.649 175.271 604.407 175.504 604.106L176.276 604.708C175.657 605.66 174.727 606.137 173.487 606.137ZM173.33 599.506C172.82 599.506 172.391 599.693 172.045 600.066C171.699 600.436 171.484 600.955 171.402 601.625H175.107V601.529C175.071 600.887 174.898 600.39 174.588 600.039C174.278 599.684 173.859 599.506 173.33 599.506ZM184.281 605.104C184.732 605.104 185.127 604.968 185.464 604.694C185.801 604.421 185.988 604.079 186.024 603.669H187.221C187.198 604.093 187.052 604.496 186.783 604.879C186.514 605.262 186.154 605.567 185.703 605.795C185.257 606.023 184.783 606.137 184.281 606.137C183.274 606.137 182.472 605.802 181.875 605.132C181.283 604.457 180.986 603.537 180.986 602.37V602.158C180.986 601.438 181.118 600.798 181.383 600.237C181.647 599.677 182.025 599.242 182.518 598.932C183.014 598.622 183.6 598.467 184.274 598.467C185.104 598.467 185.792 598.715 186.339 599.212C186.89 599.709 187.184 600.354 187.221 601.146H186.024C185.988 600.668 185.806 600.276 185.478 599.971C185.154 599.661 184.753 599.506 184.274 599.506C183.632 599.506 183.133 599.738 182.777 600.203C182.426 600.663 182.251 601.331 182.251 602.206V602.445C182.251 603.298 182.426 603.954 182.777 604.414C183.128 604.874 183.63 605.104 184.281 605.104ZM188.308 602.233C188.308 601.509 188.449 600.857 188.731 600.278C189.019 599.7 189.415 599.253 189.921 598.938C190.431 598.624 191.012 598.467 191.664 598.467C192.671 598.467 193.485 598.815 194.104 599.513C194.729 600.21 195.041 601.137 195.041 602.295V602.384C195.041 603.104 194.902 603.751 194.624 604.325C194.351 604.895 193.956 605.339 193.441 605.658C192.931 605.977 192.343 606.137 191.678 606.137C190.675 606.137 189.862 605.788 189.237 605.091C188.618 604.394 188.308 603.471 188.308 602.322V602.233ZM189.579 602.384C189.579 603.204 189.768 603.863 190.146 604.359C190.529 604.856 191.04 605.104 191.678 605.104C192.32 605.104 192.831 604.854 193.209 604.353C193.587 603.847 193.776 603.14 193.776 602.233C193.776 601.422 193.583 600.766 193.195 600.265C192.812 599.759 192.302 599.506 191.664 599.506C191.04 599.506 190.536 599.754 190.153 600.251C189.771 600.748 189.579 601.459 189.579 602.384ZM197.823 598.604L197.864 599.533C198.429 598.822 199.168 598.467 200.079 598.467C201.642 598.467 202.431 599.349 202.444 601.112V606H201.18V601.105C201.175 600.572 201.052 600.178 200.811 599.923C200.574 599.668 200.202 599.54 199.696 599.54C199.286 599.54 198.926 599.649 198.616 599.868C198.306 600.087 198.065 600.374 197.892 600.729V606H196.627V598.604H197.823ZM205.548 598.604L205.589 599.533C206.154 598.822 206.892 598.467 207.804 598.467C209.367 598.467 210.155 599.349 210.169 601.112V606H208.904V601.105C208.9 600.572 208.777 600.178 208.535 599.923C208.298 599.668 207.927 599.54 207.421 599.54C207.011 599.54 206.651 599.649 206.341 599.868C206.031 600.087 205.789 600.374 205.616 600.729V606H204.352V598.604H205.548ZM215.146 606.137C214.143 606.137 213.327 605.809 212.698 605.152C212.069 604.492 211.755 603.61 211.755 602.507V602.274C211.755 601.541 211.894 600.887 212.172 600.312C212.454 599.734 212.846 599.283 213.348 598.959C213.854 598.631 214.4 598.467 214.988 598.467C215.95 598.467 216.697 598.784 217.23 599.417C217.764 600.05 218.03 600.957 218.03 602.138V602.664H213.02C213.038 603.393 213.25 603.983 213.655 604.435C214.065 604.881 214.585 605.104 215.214 605.104C215.66 605.104 216.039 605.013 216.349 604.831C216.659 604.649 216.93 604.407 217.162 604.106L217.935 604.708C217.315 605.66 216.385 606.137 215.146 606.137ZM214.988 599.506C214.478 599.506 214.049 599.693 213.703 600.066C213.357 600.436 213.143 600.955 213.061 601.625H216.766V601.529C216.729 600.887 216.556 600.39 216.246 600.039C215.936 599.684 215.517 599.506 214.988 599.506ZM222.467 605.104C222.918 605.104 223.312 604.968 223.649 604.694C223.987 604.421 224.174 604.079 224.21 603.669H225.406C225.383 604.093 225.238 604.496 224.969 604.879C224.7 605.262 224.34 605.567 223.889 605.795C223.442 606.023 222.968 606.137 222.467 606.137C221.46 606.137 220.658 605.802 220.061 605.132C219.468 604.457 219.172 603.537 219.172 602.37V602.158C219.172 601.438 219.304 600.798 219.568 600.237C219.833 599.677 220.211 599.242 220.703 598.932C221.2 598.622 221.785 598.467 222.46 598.467C223.289 598.467 223.978 598.715 224.524 599.212C225.076 599.709 225.37 600.354 225.406 601.146H224.21C224.174 600.668 223.991 600.276 223.663 599.971C223.34 599.661 222.938 599.506 222.46 599.506C221.817 599.506 221.318 599.738 220.963 600.203C220.612 600.663 220.437 601.331 220.437 602.206V602.445C220.437 603.298 220.612 603.954 220.963 604.414C221.314 604.874 221.815 605.104 222.467 605.104ZM228.544 596.812V598.604H229.925V599.581H228.544V604.168C228.544 604.464 228.605 604.688 228.729 604.838C228.852 604.984 229.061 605.057 229.357 605.057C229.503 605.057 229.704 605.029 229.959 604.975V606C229.626 606.091 229.303 606.137 228.988 606.137C228.423 606.137 227.997 605.966 227.71 605.624C227.423 605.282 227.279 604.797 227.279 604.168V599.581H225.933V598.604H227.279V596.812H228.544ZM236.597 596.812V598.604H237.978V599.581H236.597V604.168C236.597 604.464 236.658 604.688 236.781 604.838C236.904 604.984 237.114 605.057 237.41 605.057C237.556 605.057 237.757 605.029 238.012 604.975V606C237.679 606.091 237.355 606.137 237.041 606.137C236.476 606.137 236.05 605.966 235.763 605.624C235.476 605.282 235.332 604.797 235.332 604.168V599.581H233.985V598.604H235.332V596.812H236.597ZM238.989 602.233C238.989 601.509 239.131 600.857 239.413 600.278C239.7 599.7 240.097 599.253 240.603 598.938C241.113 598.624 241.694 598.467 242.346 598.467C243.353 598.467 244.166 598.815 244.786 599.513C245.41 600.21 245.723 601.137 245.723 602.295V602.384C245.723 603.104 245.584 603.751 245.306 604.325C245.032 604.895 244.638 605.339 244.123 605.658C243.613 605.977 243.025 606.137 242.359 606.137C241.357 606.137 240.543 605.788 239.919 605.091C239.299 604.394 238.989 603.471 238.989 602.322V602.233ZM240.261 602.384C240.261 603.204 240.45 603.863 240.828 604.359C241.211 604.856 241.721 605.104 242.359 605.104C243.002 605.104 243.512 604.854 243.891 604.353C244.269 603.847 244.458 603.14 244.458 602.233C244.458 601.422 244.264 600.766 243.877 600.265C243.494 599.759 242.984 599.506 242.346 599.506C241.721 599.506 241.218 599.754 240.835 600.251C240.452 600.748 240.261 601.459 240.261 602.384ZM252.497 596.812V598.604H253.878V599.581H252.497V604.168C252.497 604.464 252.559 604.688 252.682 604.838C252.805 604.984 253.014 605.057 253.311 605.057C253.456 605.057 253.657 605.029 253.912 604.975V606C253.579 606.091 253.256 606.137 252.941 606.137C252.376 606.137 251.95 605.966 251.663 605.624C251.376 605.282 251.232 604.797 251.232 604.168V599.581H249.886V598.604H251.232V596.812H252.497ZM256.626 599.499C257.187 598.811 257.916 598.467 258.813 598.467C260.377 598.467 261.165 599.349 261.179 601.112V606H259.914V601.105C259.91 600.572 259.786 600.178 259.545 599.923C259.308 599.668 258.937 599.54 258.431 599.54C258.021 599.54 257.66 599.649 257.351 599.868C257.041 600.087 256.799 600.374 256.626 600.729V606H255.361V595.5H256.626V599.499ZM266.142 606.137C265.139 606.137 264.323 605.809 263.694 605.152C263.065 604.492 262.751 603.61 262.751 602.507V602.274C262.751 601.541 262.89 600.887 263.168 600.312C263.451 599.734 263.842 599.283 264.344 598.959C264.85 598.631 265.396 598.467 265.984 598.467C266.946 598.467 267.693 598.784 268.227 599.417C268.76 600.05 269.026 600.957 269.026 602.138V602.664H264.016C264.034 603.393 264.246 603.983 264.651 604.435C265.062 604.881 265.581 605.104 266.21 605.104C266.657 605.104 267.035 605.013 267.345 604.831C267.655 604.649 267.926 604.407 268.158 604.106L268.931 604.708C268.311 605.66 267.381 606.137 266.142 606.137ZM265.984 599.506C265.474 599.506 265.046 599.693 264.699 600.066C264.353 600.436 264.139 600.955 264.057 601.625H267.762V601.529C267.725 600.887 267.552 600.39 267.242 600.039C266.932 599.684 266.513 599.506 265.984 599.506ZM278.275 604.038C278.275 603.696 278.146 603.432 277.886 603.245C277.631 603.054 277.182 602.89 276.539 602.753C275.901 602.616 275.393 602.452 275.015 602.261C274.641 602.069 274.363 601.841 274.181 601.577C274.003 601.313 273.914 600.998 273.914 600.634C273.914 600.028 274.169 599.515 274.68 599.096C275.195 598.676 275.851 598.467 276.648 598.467C277.487 598.467 278.166 598.683 278.686 599.116C279.21 599.549 279.472 600.103 279.472 600.777H278.2C278.2 600.431 278.052 600.132 277.756 599.882C277.464 599.631 277.095 599.506 276.648 599.506C276.188 599.506 275.828 599.606 275.568 599.807C275.309 600.007 275.179 600.269 275.179 600.593C275.179 600.898 275.299 601.128 275.541 601.283C275.783 601.438 276.218 601.586 276.847 601.728C277.48 601.869 277.993 602.037 278.385 602.233C278.777 602.429 279.066 602.666 279.253 602.944C279.444 603.218 279.54 603.553 279.54 603.949C279.54 604.61 279.276 605.141 278.747 605.542C278.218 605.938 277.533 606.137 276.689 606.137C276.097 606.137 275.573 606.032 275.117 605.822C274.661 605.613 274.304 605.321 274.044 604.947C273.789 604.569 273.661 604.161 273.661 603.724H274.926C274.949 604.147 275.117 604.485 275.432 604.735C275.751 604.981 276.17 605.104 276.689 605.104C277.168 605.104 277.551 605.009 277.838 604.817C278.13 604.621 278.275 604.362 278.275 604.038ZM284.257 606.137C283.254 606.137 282.438 605.809 281.81 605.152C281.181 604.492 280.866 603.61 280.866 602.507V602.274C280.866 601.541 281.005 600.887 281.283 600.312C281.566 599.734 281.958 599.283 282.459 598.959C282.965 598.631 283.512 598.467 284.1 598.467C285.061 598.467 285.809 598.784 286.342 599.417C286.875 600.05 287.142 600.957 287.142 602.138V602.664H282.131C282.149 603.393 282.361 603.983 282.767 604.435C283.177 604.881 283.696 605.104 284.325 605.104C284.772 605.104 285.15 605.013 285.46 604.831C285.77 604.649 286.041 604.407 286.273 604.106L287.046 604.708C286.426 605.66 285.496 606.137 284.257 606.137ZM284.1 599.506C283.589 599.506 283.161 599.693 282.814 600.066C282.468 600.436 282.254 600.955 282.172 601.625H285.877V601.529C285.84 600.887 285.667 600.39 285.357 600.039C285.048 599.684 284.628 599.506 284.1 599.506ZM292.187 599.738C291.995 599.706 291.788 599.69 291.564 599.69C290.735 599.69 290.172 600.044 289.876 600.75V606H288.611V598.604H289.842L289.862 599.458C290.277 598.797 290.865 598.467 291.626 598.467C291.872 598.467 292.059 598.499 292.187 598.562V599.738ZM295.919 604.284L297.751 598.604H299.043L296.391 606H295.427L292.747 598.604H294.039L295.919 604.284ZM303.233 606.137C302.231 606.137 301.415 605.809 300.786 605.152C300.157 604.492 299.843 603.61 299.843 602.507V602.274C299.843 601.541 299.982 600.887 300.26 600.312C300.542 599.734 300.934 599.283 301.436 598.959C301.941 598.631 302.488 598.467 303.076 598.467C304.038 598.467 304.785 598.784 305.318 599.417C305.852 600.05 306.118 600.957 306.118 602.138V602.664H301.107C301.126 603.393 301.338 603.983 301.743 604.435C302.153 604.881 302.673 605.104 303.302 605.104C303.748 605.104 304.127 605.013 304.437 604.831C304.746 604.649 305.018 604.407 305.25 604.106L306.022 604.708C305.403 605.66 304.473 606.137 303.233 606.137ZM303.076 599.506C302.566 599.506 302.137 599.693 301.791 600.066C301.445 600.436 301.23 600.955 301.148 601.625H304.854V601.529C304.817 600.887 304.644 600.39 304.334 600.039C304.024 599.684 303.605 599.506 303.076 599.506ZM311.163 599.738C310.972 599.706 310.764 599.69 310.541 599.69C309.712 599.69 309.149 600.044 308.853 600.75V606H307.588V598.604H308.818L308.839 599.458C309.254 598.797 309.841 598.467 310.603 598.467C310.849 598.467 311.035 598.499 311.163 598.562V599.738Z" fill="#4F4F4F"/>
<circle cx="180" cy="177" r="165" fill="#F2F2F2"/>
<path d="M180 283.536C244.249 283.536 296.334 280.495 296.334 276.744C296.334 272.993 244.249 269.952 180 269.952C115.751 269.952 63.666 272.993 63.666 276.744C63.666 280.495 115.751 283.536 180 283.536Z" fill="#F5F5F5"/>
<path d="M171.486 269.28H101.328V277.284H171.486V269.28Z" fill="#184466"/>
<path opacity="0.3" d="M171.486 269.28H101.328V277.284H171.486V269.28Z" fill="black"/>
<path d="M104.91 270.42H103.152V276.15H104.91V270.42Z" fill="#263238"/>
<path d="M107.994 270.42H106.236V276.15H107.994V270.42Z" fill="#263238"/>
<path d="M111.084 270.42H109.326V276.15H111.084V270.42Z" fill="#263238"/>
<path d="M114.168 270.42H112.41V276.15H114.168V270.42Z" fill="#263238"/>
<path d="M117.252 270.42H115.494V276.15H117.252V270.42Z" fill="#263238"/>
<path d="M120.336 270.42H118.578V276.15H120.336V270.42Z" fill="#263238"/>
<path d="M123.426 270.42H121.668V276.15H123.426V270.42Z" fill="#263238"/>
<path d="M126.51 270.42H124.752V276.15H126.51V270.42Z" fill="#263238"/>
<path d="M129.594 270.42H127.836V276.15H129.594V270.42Z" fill="#263238"/>
<path d="M132.678 270.42H130.92V276.15H132.678V270.42Z" fill="#263238"/>
<path d="M135.762 270.42H134.004V276.15H135.762V270.42Z" fill="#263238"/>
<path d="M138.852 270.42H137.094V276.15H138.852V270.42Z" fill="#263238"/>
<path d="M141.936 270.42H140.178V276.15H141.936V270.42Z" fill="#263238"/>
<path d="M145.02 270.42H143.262V276.15H145.02V270.42Z" fill="#263238"/>
<path d="M148.104 270.42H146.346V276.15H148.104V270.42Z" fill="#263238"/>
<path d="M151.194 270.42H149.436V276.15H151.194V270.42Z" fill="#263238"/>
<path d="M154.278 270.42H152.52V276.15H154.278V270.42Z" fill="#263238"/>
<path d="M157.362 270.42H155.604V276.15H157.362V270.42Z" fill="#263238"/>
<path d="M160.446 270.42H158.688V276.15H160.446V270.42Z" fill="#263238"/>
<path d="M163.536 270.42H161.778V276.15H163.536V270.42Z" fill="#263238"/>
<path d="M166.62 270.42H164.862V276.15H166.62V270.42Z" fill="#263238"/>
<path d="M169.704 270.42H167.946V276.15H169.704V270.42Z" fill="#263238"/>
<path d="M171.492 277.29H182.436V269.286H171.492V277.29Z" fill="#263238"/>
<path d="M171.492 127.83H97.6797V269.28H171.492V127.83Z" fill="#184466"/>
<path opacity="0.3" d="M171.492 127.83H97.6797V269.28H171.492V127.83Z" fill="white"/>
<path d="M181.242 126.618H102.516V127.83H181.242V126.618Z" fill="#263238"/>
<path d="M95.352 193.74H94.752V199.698H95.352V193.74Z" fill="#184466"/>
<path d="M95.352 201.702H94.752V217.2H95.352V201.702Z" fill="#184466"/>
<path d="M171.486 269.28H186.084L186.084 127.83H171.486L171.486 269.28Z" fill="#184466"/>
<g style="mix-blend-mode:multiply" opacity="0.6">
<path d="M167.808 165.246H101.358C100.274 165.246 99.396 166.125 99.396 167.208V177.324C99.396 178.408 100.274 179.286 101.358 179.286H167.808C168.892 179.286 169.77 178.408 169.77 177.324V167.208C169.77 166.125 168.892 165.246 167.808 165.246Z" fill="#184466"/>
</g>
<path opacity="0.2" d="M167.808 165.246H101.358C100.274 165.246 99.396 166.125 99.396 167.208V177.324C99.396 178.408 100.274 179.286 101.358 179.286H167.808C168.892 179.286 169.77 178.408 169.77 177.324V167.208C169.77 166.125 168.892 165.246 167.808 165.246Z" fill="black"/>
<path d="M163.848 170.4L161.01 164.544V180H169.8V172.266H166.86C166.233 172.268 165.619 172.095 165.086 171.765C164.554 171.435 164.124 170.962 163.848 170.4V170.4Z" fill="#184466"/>
<path d="M169.77 129.522H99.396V145.02H169.77V129.522Z" fill="#184466"/>
<path opacity="0.2" d="M169.77 129.522H99.396V145.02H169.77V129.522Z" fill="white"/>
<path d="M169.77 252H99.396V267.498H169.77V252Z" fill="#184466"/>
<path opacity="0.2" d="M169.77 252H99.396V267.498H169.77V252Z" fill="white"/>
<path d="M169.77 234.504H99.396V250.002H169.77V234.504Z" fill="#184466"/>
<path opacity="0.2" d="M169.77 234.504H99.396V250.002H169.77V234.504Z" fill="white"/>
<path d="M169.77 217.008H99.396V232.506H169.77V217.008Z" fill="#184466"/>
<path opacity="0.2" d="M169.77 217.008H99.396V232.506H169.77V217.008Z" fill="white"/>
<path d="M169.77 199.512H99.396V215.01H169.77V199.512Z" fill="#184466"/>
<path opacity="0.2" d="M169.77 199.512H99.396V215.01H169.77V199.512Z" fill="white"/>
<path d="M169.77 182.016H99.396V197.514H169.77V182.016Z" fill="#184466"/>
<path opacity="0.2" d="M169.77 182.016H99.396V197.514H169.77V182.016Z" fill="white"/>
<path d="M161.01 164.52H90.6357V180.018H161.01V164.52Z" fill="#184466"/>
<path opacity="0.2" d="M161.01 164.52H90.6357V180.018H161.01V164.52Z" fill="white"/>
<path d="M169.77 147.018H99.396V162.516H169.77V147.018Z" fill="#184466"/>
<path opacity="0.2" d="M169.77 147.018H99.396V162.516H169.77V147.018Z" fill="white"/>
<path d="M165.39 131.736H138.636C137.386 131.736 136.374 132.749 136.374 133.998V140.544C136.374 141.794 137.386 142.806 138.636 142.806H165.39C166.639 142.806 167.652 141.794 167.652 140.544V133.998C167.652 132.749 166.639 131.736 165.39 131.736Z" fill="#184466"/>
<path opacity="0.2" d="M163.53 137.73V136.818C163.53 136.288 163.1 135.858 162.57 135.858H153.9C153.37 135.858 152.94 136.288 152.94 136.818V137.73C152.94 138.261 153.37 138.69 153.9 138.69H162.57C163.1 138.69 163.53 138.261 163.53 137.73Z" fill="white"/>
<path d="M165.39 149.232H138.636C137.386 149.232 136.374 150.245 136.374 151.494V158.04C136.374 159.29 137.386 160.302 138.636 160.302H165.39C166.639 160.302 167.652 159.29 167.652 158.04V151.494C167.652 150.245 166.639 149.232 165.39 149.232Z" fill="#184466"/>
<path opacity="0.2" d="M163.53 155.226V154.314C163.53 153.784 163.1 153.354 162.57 153.354H153.9C153.37 153.354 152.94 153.784 152.94 154.314V155.226C152.94 155.756 153.37 156.186 153.9 156.186H162.57C163.1 156.186 163.53 155.756 163.53 155.226Z" fill="white"/>
<path d="M156.63 166.734H129.876C128.627 166.734 127.614 167.747 127.614 168.996V175.542C127.614 176.792 128.627 177.804 129.876 177.804H156.63C157.879 177.804 158.892 176.792 158.892 175.542V168.996C158.892 167.747 157.879 166.734 156.63 166.734Z" fill="#184466"/>
<path opacity="0.2" d="M154.77 172.722V171.81C154.77 171.28 154.34 170.85 153.81 170.85H145.14C144.609 170.85 144.18 171.28 144.18 171.81V172.722C144.18 173.252 144.609 173.682 145.14 173.682H153.81C154.34 173.682 154.77 173.252 154.77 172.722Z" fill="white"/>
<path d="M165.39 184.23H138.636C137.386 184.23 136.374 185.243 136.374 186.492V193.038C136.374 194.287 137.386 195.3 138.636 195.3H165.39C166.639 195.3 167.652 194.287 167.652 193.038V186.492C167.652 185.243 166.639 184.23 165.39 184.23Z" fill="#184466"/>
<path opacity="0.2" d="M163.53 190.218V189.306C163.53 188.776 163.1 188.346 162.57 188.346H153.9C153.37 188.346 152.94 188.776 152.94 189.306V190.218C152.94 190.748 153.37 191.178 153.9 191.178H162.57C163.1 191.178 163.53 190.748 163.53 190.218Z" fill="white"/>
<path d="M165.39 201.726H138.636C137.386 201.726 136.374 202.739 136.374 203.988V210.534C136.374 211.783 137.386 212.796 138.636 212.796H165.39C166.639 212.796 167.652 211.783 167.652 210.534V203.988C167.652 202.739 166.639 201.726 165.39 201.726Z" fill="#184466"/>
<path opacity="0.2" d="M163.53 207.714V206.802C163.53 206.272 163.1 205.842 162.57 205.842H153.9C153.37 205.842 152.94 206.272 152.94 206.802V207.714C152.94 208.244 153.37 208.674 153.9 208.674H162.57C163.1 208.674 163.53 208.244 163.53 207.714Z" fill="white"/>
<path d="M165.39 219.222H138.636C137.386 219.222 136.374 220.235 136.374 221.484V228.03C136.374 229.279 137.386 230.292 138.636 230.292H165.39C166.639 230.292 167.652 229.279 167.652 228.03V221.484C167.652 220.235 166.639 219.222 165.39 219.222Z" fill="#184466"/>
<path opacity="0.2" d="M163.53 225.21V224.298C163.53 223.768 163.1 223.338 162.57 223.338H153.9C153.37 223.338 152.94 223.768 152.94 224.298V225.21C152.94 225.741 153.37 226.17 153.9 226.17H162.57C163.1 226.17 163.53 225.741 163.53 225.21Z" fill="white"/>
<path d="M165.39 236.718H138.636C137.386 236.718 136.374 237.731 136.374 238.98V245.526C136.374 246.776 137.386 247.788 138.636 247.788H165.39C166.639 247.788 167.652 246.776 167.652 245.526V238.98C167.652 237.731 166.639 236.718 165.39 236.718Z" fill="#184466"/>
<path opacity="0.2" d="M163.53 242.712V241.8C163.53 241.27 163.1 240.84 162.57 240.84H153.9C153.37 240.84 152.94 241.27 152.94 241.8V242.712C152.94 243.243 153.37 243.672 153.9 243.672H162.57C163.1 243.672 163.53 243.243 163.53 242.712Z" fill="white"/>
<path d="M165.39 254.214H138.636C137.386 254.214 136.374 255.227 136.374 256.476V263.022C136.374 264.272 137.386 265.284 138.636 265.284H165.39C166.639 265.284 167.652 264.272 167.652 263.022V256.476C167.652 255.227 166.639 254.214 165.39 254.214Z" fill="#184466"/>
<path opacity="0.2" d="M163.536 260.208V259.296C163.536 258.766 163.106 258.336 162.576 258.336H153.906C153.375 258.336 152.946 258.766 152.946 259.296V260.208C152.946 260.738 153.375 261.168 153.906 261.168H162.576C163.106 261.168 163.536 260.738 163.536 260.208Z" fill="white"/>
<path d="M130.932 139.062C131.919 139.062 132.72 138.262 132.72 137.274C132.72 136.287 131.919 135.486 130.932 135.486C129.944 135.486 129.144 136.287 129.144 137.274C129.144 138.262 129.944 139.062 130.932 139.062Z" fill="#184466"/>
<path d="M125.82 139.062C126.807 139.062 127.608 138.262 127.608 137.274C127.608 136.287 126.807 135.486 125.82 135.486C124.832 135.486 124.032 136.287 124.032 137.274C124.032 138.262 124.832 139.062 125.82 139.062Z" fill="#184466"/>
<path d="M120.714 139.062C121.701 139.062 122.502 138.262 122.502 137.274C122.502 136.287 121.701 135.486 120.714 135.486C119.726 135.486 118.926 136.287 118.926 137.274C118.926 138.262 119.726 139.062 120.714 139.062Z" fill="#184466"/>
<path opacity="0.4" d="M120.714 139.062C121.701 139.062 122.502 138.262 122.502 137.274C122.502 136.287 121.701 135.486 120.714 135.486C119.726 135.486 118.926 136.287 118.926 137.274C118.926 138.262 119.726 139.062 120.714 139.062Z" fill="white"/>
<path d="M117.39 137.274C117.39 137.63 117.284 137.978 117.086 138.274C116.888 138.57 116.607 138.801 116.278 138.937C115.949 139.073 115.588 139.109 115.238 139.04C114.889 138.97 114.569 138.799 114.317 138.547C114.065 138.295 113.894 137.974 113.824 137.625C113.755 137.276 113.79 136.914 113.927 136.585C114.063 136.256 114.294 135.975 114.59 135.777C114.886 135.58 115.234 135.474 115.59 135.474C116.067 135.474 116.525 135.664 116.862 136.001C117.2 136.339 117.39 136.797 117.39 137.274V137.274Z" fill="#184466"/>
<path d="M130.932 156.558C131.919 156.558 132.72 155.758 132.72 154.77C132.72 153.783 131.919 152.982 130.932 152.982C129.944 152.982 129.144 153.783 129.144 154.77C129.144 155.758 129.944 156.558 130.932 156.558Z" fill="#184466"/>
<path d="M125.82 156.558C126.807 156.558 127.608 155.758 127.608 154.77C127.608 153.783 126.807 152.982 125.82 152.982C124.832 152.982 124.032 153.783 124.032 154.77C124.032 155.758 124.832 156.558 125.82 156.558Z" fill="#184466"/>
<path d="M120.714 156.558C121.701 156.558 122.502 155.758 122.502 154.77C122.502 153.783 121.701 152.982 120.714 152.982C119.726 152.982 118.926 153.783 118.926 154.77C118.926 155.758 119.726 156.558 120.714 156.558Z" fill="#184466"/>
<path d="M117.39 154.8C117.39 155.156 117.284 155.504 117.086 155.8C116.888 156.096 116.607 156.327 116.278 156.463C115.949 156.599 115.588 156.635 115.238 156.565C114.889 156.496 114.569 156.325 114.317 156.073C114.065 155.821 113.894 155.5 113.824 155.151C113.755 154.802 113.79 154.44 113.927 154.111C114.063 153.782 114.294 153.501 114.59 153.303C114.886 153.106 115.234 153 115.59 153C116.067 153 116.525 153.19 116.862 153.527C117.2 153.865 117.39 154.323 117.39 154.8V154.8Z" fill="#184466"/>
<path opacity="0.4" d="M117.39 154.8C117.39 155.156 117.284 155.504 117.086 155.8C116.888 156.096 116.607 156.327 116.278 156.463C115.949 156.599 115.588 156.635 115.238 156.565C114.889 156.496 114.569 156.325 114.317 156.073C114.065 155.821 113.894 155.5 113.824 155.151C113.755 154.802 113.79 154.44 113.927 154.111C114.063 153.782 114.294 153.501 114.59 153.303C114.886 153.106 115.234 153 115.59 153C116.067 153 116.525 153.19 116.862 153.527C117.2 153.865 117.39 154.323 117.39 154.8V154.8Z" fill="white"/>
<path d="M122.172 174.054C123.159 174.054 123.96 173.254 123.96 172.266C123.96 171.279 123.159 170.478 122.172 170.478C121.184 170.478 120.384 171.279 120.384 172.266C120.384 173.254 121.184 174.054 122.172 174.054Z" fill="#184466"/>
<path opacity="0.4" d="M122.172 174.054C123.159 174.054 123.96 173.254 123.96 172.266C123.96 171.279 123.159 170.478 122.172 170.478C121.184 170.478 120.384 171.279 120.384 172.266C120.384 173.254 121.184 174.054 122.172 174.054Z" fill="white"/>
<path d="M117.059 174.054C118.047 174.054 118.847 173.254 118.847 172.266C118.847 171.279 118.047 170.478 117.059 170.478C116.072 170.478 115.271 171.279 115.271 172.266C115.271 173.254 116.072 174.054 117.059 174.054Z" fill="#184466"/>
<path d="M111.954 174.054C112.941 174.054 113.742 173.254 113.742 172.266C113.742 171.279 112.941 170.478 111.954 170.478C110.966 170.478 110.166 171.279 110.166 172.266C110.166 173.254 110.966 174.054 111.954 174.054Z" fill="#184466"/>
<path opacity="0.4" d="M111.954 174.054C112.941 174.054 113.742 173.254 113.742 172.266C113.742 171.279 112.941 170.478 111.954 170.478C110.966 170.478 110.166 171.279 110.166 172.266C110.166 173.254 110.966 174.054 111.954 174.054Z" fill="white"/>
<path d="M106.842 174.054C107.829 174.054 108.63 173.254 108.63 172.266C108.63 171.279 107.829 170.478 106.842 170.478C105.854 170.478 105.054 171.279 105.054 172.266C105.054 173.254 105.854 174.054 106.842 174.054Z" fill="#184466"/>
<path d="M130.932 191.55C131.919 191.55 132.72 190.75 132.72 189.762C132.72 188.775 131.919 187.974 130.932 187.974C129.944 187.974 129.144 188.775 129.144 189.762C129.144 190.75 129.944 191.55 130.932 191.55Z" fill="#184466"/>
<path opacity="0.4" d="M130.932 191.55C131.919 191.55 132.72 190.75 132.72 189.762C132.72 188.775 131.919 187.974 130.932 187.974C129.944 187.974 129.144 188.775 129.144 189.762C129.144 190.75 129.944 191.55 130.932 191.55Z" fill="white"/>
<path d="M125.82 191.55C126.807 191.55 127.608 190.75 127.608 189.762C127.608 188.775 126.807 187.974 125.82 187.974C124.832 187.974 124.032 188.775 124.032 189.762C124.032 190.75 124.832 191.55 125.82 191.55Z" fill="#184466"/>
<path opacity="0.4" d="M125.82 191.55C126.807 191.55 127.608 190.75 127.608 189.762C127.608 188.775 126.807 187.974 125.82 187.974C124.832 187.974 124.032 188.775 124.032 189.762C124.032 190.75 124.832 191.55 125.82 191.55Z" fill="white"/>
<path d="M120.714 191.55C121.701 191.55 122.502 190.75 122.502 189.762C122.502 188.775 121.701 187.974 120.714 187.974C119.726 187.974 118.926 188.775 118.926 189.762C118.926 190.75 119.726 191.55 120.714 191.55Z" fill="#184466"/>
<path d="M117.39 189.762C117.39 190.118 117.284 190.466 117.086 190.762C116.888 191.058 116.607 191.289 116.278 191.425C115.949 191.562 115.588 191.597 115.238 191.528C114.889 191.458 114.569 191.287 114.317 191.035C114.065 190.783 113.894 190.463 113.824 190.114C113.755 189.764 113.79 189.402 113.927 189.074C114.063 188.745 114.294 188.464 114.59 188.266C114.886 188.068 115.234 187.962 115.59 187.962C116.067 187.962 116.525 188.152 116.862 188.49C117.2 188.827 117.39 189.285 117.39 189.762V189.762Z" fill="#184466"/>
<path d="M130.932 209.046C131.919 209.046 132.72 208.246 132.72 207.258C132.72 206.271 131.919 205.47 130.932 205.47C129.944 205.47 129.144 206.271 129.144 207.258C129.144 208.246 129.944 209.046 130.932 209.046Z" fill="#184466"/>
<path d="M125.82 209.046C126.807 209.046 127.608 208.246 127.608 207.258C127.608 206.271 126.807 205.47 125.82 205.47C124.832 205.47 124.032 206.271 124.032 207.258C124.032 208.246 124.832 209.046 125.82 209.046Z" fill="#184466"/>
<path opacity="0.4" d="M125.82 209.046C126.807 209.046 127.608 208.246 127.608 207.258C127.608 206.271 126.807 205.47 125.82 205.47C124.832 205.47 124.032 206.271 124.032 207.258C124.032 208.246 124.832 209.046 125.82 209.046Z" fill="white"/>
<path d="M120.714 209.046C121.701 209.046 122.502 208.246 122.502 207.258C122.502 206.271 121.701 205.47 120.714 205.47C119.726 205.47 118.926 206.271 118.926 207.258C118.926 208.246 119.726 209.046 120.714 209.046Z" fill="#184466"/>
<path d="M117.39 207.258C117.39 207.614 117.284 207.962 117.086 208.258C116.888 208.554 116.607 208.785 116.278 208.921C115.949 209.057 115.588 209.093 115.238 209.023C114.889 208.954 114.569 208.783 114.317 208.531C114.065 208.279 113.894 207.958 113.824 207.609C113.755 207.26 113.79 206.898 113.927 206.569C114.063 206.24 114.294 205.959 114.59 205.761C114.886 205.564 115.234 205.458 115.59 205.458C116.067 205.458 116.525 205.648 116.862 205.985C117.2 206.323 117.39 206.781 117.39 207.258V207.258Z" fill="#184466"/>
<path d="M130.932 226.542C131.919 226.542 132.72 225.742 132.72 224.754C132.72 223.767 131.919 222.966 130.932 222.966C129.944 222.966 129.144 223.767 129.144 224.754C129.144 225.742 129.944 226.542 130.932 226.542Z" fill="#184466"/>
<path d="M125.82 226.542C126.807 226.542 127.608 225.742 127.608 224.754C127.608 223.767 126.807 222.966 125.82 222.966C124.832 222.966 124.032 223.767 124.032 224.754C124.032 225.742 124.832 226.542 125.82 226.542Z" fill="#184466"/>
<path d="M120.714 226.542C121.701 226.542 122.502 225.742 122.502 224.754C122.502 223.767 121.701 222.966 120.714 222.966C119.726 222.966 118.926 223.767 118.926 224.754C118.926 225.742 119.726 226.542 120.714 226.542Z" fill="#184466"/>
<path opacity="0.4" d="M120.714 226.542C121.701 226.542 122.502 225.742 122.502 224.754C122.502 223.767 121.701 222.966 120.714 222.966C119.726 222.966 118.926 223.767 118.926 224.754C118.926 225.742 119.726 226.542 120.714 226.542Z" fill="white"/>
<path d="M117.39 224.754C117.39 225.11 117.284 225.458 117.086 225.754C116.888 226.05 116.607 226.281 116.278 226.417C115.949 226.553 115.588 226.589 115.238 226.52C114.889 226.45 114.569 226.279 114.317 226.027C114.065 225.775 113.894 225.454 113.824 225.105C113.755 224.756 113.79 224.394 113.927 224.065C114.063 223.736 114.294 223.455 114.59 223.257C114.886 223.06 115.234 222.954 115.59 222.954C116.067 222.954 116.525 223.144 116.862 223.481C117.2 223.819 117.39 224.277 117.39 224.754V224.754Z" fill="#184466"/>
<path opacity="0.4" d="M117.39 224.754C117.39 225.11 117.284 225.458 117.086 225.754C116.888 226.05 116.607 226.281 116.278 226.417C115.949 226.553 115.588 226.589 115.238 226.52C114.889 226.45 114.569 226.279 114.317 226.027C114.065 225.775 113.894 225.454 113.824 225.105C113.755 224.756 113.79 224.394 113.927 224.065C114.063 223.736 114.294 223.455 114.59 223.257C114.886 223.06 115.234 222.954 115.59 222.954C116.067 222.954 116.525 223.144 116.862 223.481C117.2 223.819 117.39 224.277 117.39 224.754V224.754Z" fill="white"/>
<path d="M132.72 242.256C132.72 242.612 132.614 242.96 132.416 243.256C132.218 243.552 131.937 243.783 131.608 243.919C131.28 244.055 130.918 244.091 130.568 244.021C130.219 243.952 129.899 243.781 129.647 243.529C129.395 243.277 129.224 242.956 129.154 242.607C129.085 242.258 129.12 241.896 129.257 241.567C129.393 241.238 129.624 240.957 129.92 240.759C130.216 240.562 130.564 240.456 130.92 240.456C131.397 240.456 131.855 240.646 132.192 240.983C132.53 241.321 132.72 241.779 132.72 242.256Z" fill="#184466"/>
<path opacity="0.4" d="M132.72 242.256C132.72 242.612 132.614 242.96 132.416 243.256C132.218 243.552 131.937 243.783 131.608 243.919C131.28 244.055 130.918 244.091 130.568 244.021C130.219 243.952 129.899 243.781 129.647 243.529C129.395 243.277 129.224 242.956 129.154 242.607C129.085 242.258 129.12 241.896 129.257 241.567C129.393 241.238 129.624 240.957 129.92 240.759C130.216 240.562 130.564 240.456 130.92 240.456C131.397 240.456 131.855 240.646 132.192 240.983C132.53 241.321 132.72 241.779 132.72 242.256Z" fill="white"/>
<path d="M127.614 242.256C127.614 242.612 127.508 242.96 127.31 243.256C127.113 243.552 126.831 243.783 126.502 243.919C126.174 244.055 125.812 244.091 125.463 244.021C125.113 243.952 124.793 243.781 124.541 243.529C124.289 243.277 124.118 242.956 124.048 242.607C123.979 242.258 124.014 241.896 124.151 241.567C124.287 241.238 124.518 240.957 124.814 240.759C125.11 240.562 125.458 240.456 125.814 240.456C126.291 240.456 126.749 240.646 127.086 240.983C127.424 241.321 127.614 241.779 127.614 242.256Z" fill="#184466"/>
<path d="M122.502 242.256C122.502 242.612 122.396 242.96 122.199 243.256C122.001 243.552 121.72 243.783 121.391 243.919C121.062 244.055 120.7 244.091 120.351 244.021C120.002 243.952 119.681 243.781 119.429 243.529C119.177 243.277 119.006 242.956 118.936 242.607C118.867 242.258 118.903 241.896 119.039 241.567C119.175 241.238 119.406 240.957 119.702 240.759C119.998 240.562 120.346 240.456 120.702 240.456C121.179 240.456 121.637 240.646 121.975 240.983C122.312 241.321 122.502 241.779 122.502 242.256Z" fill="#184466"/>
<path d="M117.39 242.256C117.39 242.612 117.284 242.96 117.086 243.256C116.888 243.552 116.607 243.783 116.278 243.919C115.949 244.055 115.588 244.091 115.238 244.021C114.889 243.952 114.569 243.781 114.317 243.529C114.065 243.277 113.894 242.956 113.824 242.607C113.755 242.258 113.79 241.896 113.927 241.567C114.063 241.238 114.294 240.957 114.59 240.759C114.886 240.562 115.234 240.456 115.59 240.456C116.067 240.456 116.525 240.646 116.862 240.983C117.2 241.321 117.39 241.779 117.39 242.256V242.256Z" fill="#184466"/>
<path d="M130.932 261.54C131.919 261.54 132.72 260.74 132.72 259.752C132.72 258.765 131.919 257.964 130.932 257.964C129.944 257.964 129.144 258.765 129.144 259.752C129.144 260.74 129.944 261.54 130.932 261.54Z" fill="#184466"/>
<path d="M125.82 261.54C126.807 261.54 127.608 260.74 127.608 259.752C127.608 258.765 126.807 257.964 125.82 257.964C124.832 257.964 124.032 258.765 124.032 259.752C124.032 260.74 124.832 261.54 125.82 261.54Z" fill="#184466"/>
<path d="M120.714 261.54C121.701 261.54 122.502 260.74 122.502 259.752C122.502 258.765 121.701 257.964 120.714 257.964C119.726 257.964 118.926 258.765 118.926 259.752C118.926 260.74 119.726 261.54 120.714 261.54Z" fill="#184466"/>
<path opacity="0.4" d="M120.714 261.54C121.701 261.54 122.502 260.74 122.502 259.752C122.502 258.765 121.701 257.964 120.714 257.964C119.726 257.964 118.926 258.765 118.926 259.752C118.926 260.74 119.726 261.54 120.714 261.54Z" fill="white"/>
<path d="M117.39 259.752C117.39 260.108 117.284 260.456 117.086 260.752C116.888 261.048 116.607 261.279 116.278 261.415C115.949 261.551 115.588 261.587 115.238 261.518C114.889 261.448 114.569 261.277 114.317 261.025C114.065 260.773 113.894 260.452 113.824 260.103C113.755 259.754 113.79 259.392 113.927 259.063C114.063 258.734 114.294 258.453 114.59 258.255C114.886 258.058 115.234 257.952 115.59 257.952C116.067 257.952 116.525 258.142 116.862 258.479C117.2 258.817 117.39 259.275 117.39 259.752V259.752Z" fill="#184466"/>
<path d="M110.244 137.274C110.244 138.041 110.016 138.79 109.59 139.428C109.164 140.066 108.558 140.562 107.85 140.855C107.141 141.149 106.361 141.225 105.609 141.075C104.857 140.925 104.167 140.555 103.625 140.013C103.083 139.47 102.714 138.779 102.565 138.026C102.417 137.274 102.494 136.495 102.788 135.787C103.083 135.078 103.58 134.473 104.219 134.048C104.857 133.623 105.607 133.397 106.374 133.398C107.401 133.4 108.385 133.809 109.111 134.535C109.836 135.262 110.244 136.247 110.244 137.274V137.274Z" fill="#184466"/>
<path opacity="0.4" d="M110.244 137.274C110.244 138.041 110.016 138.79 109.59 139.428C109.164 140.066 108.558 140.562 107.85 140.855C107.141 141.149 106.361 141.225 105.609 141.075C104.857 140.925 104.167 140.555 103.625 140.013C103.083 139.47 102.714 138.779 102.565 138.026C102.417 137.274 102.494 136.495 102.788 135.787C103.083 135.078 103.58 134.473 104.219 134.048C104.857 133.623 105.607 133.397 106.374 133.398C107.401 133.4 108.385 133.809 109.111 134.535C109.836 135.262 110.244 136.247 110.244 137.274V137.274Z" fill="white"/>
<path d="M110.244 154.8C110.244 155.567 110.016 156.317 109.59 156.954C109.164 157.592 108.558 158.089 107.85 158.382C107.141 158.675 106.361 158.751 105.609 158.601C104.857 158.451 104.167 158.082 103.625 157.539C103.083 156.996 102.714 156.305 102.565 155.553C102.417 154.801 102.494 154.021 102.788 153.313C103.083 152.605 103.58 152 104.219 151.575C104.857 151.149 105.607 150.923 106.374 150.924C107.401 150.926 108.385 151.335 109.111 152.062C109.836 152.788 110.244 153.773 110.244 154.8Z" fill="#184466"/>
<path opacity="0.4" d="M110.244 154.8C110.244 155.567 110.016 156.317 109.59 156.954C109.164 157.592 108.558 158.089 107.85 158.382C107.141 158.675 106.361 158.751 105.609 158.601C104.857 158.451 104.167 158.082 103.625 157.539C103.083 156.996 102.714 156.305 102.565 155.553C102.417 154.801 102.494 154.021 102.788 153.313C103.083 152.605 103.58 152 104.219 151.575C104.857 151.149 105.607 150.923 106.374 150.924C107.401 150.926 108.385 151.335 109.111 152.062C109.836 152.788 110.244 153.773 110.244 154.8Z" fill="white"/>
<path d="M101.484 172.266C101.484 173.033 101.256 173.783 100.83 174.42C100.404 175.058 99.7984 175.555 99.0898 175.848C98.3812 176.141 97.6016 176.217 96.8496 176.067C96.0975 175.917 95.4069 175.547 94.8651 175.005C94.3232 174.462 93.9546 173.771 93.8057 173.019C93.6568 172.266 93.7344 171.487 94.0287 170.779C94.323 170.071 94.8207 169.466 95.4589 169.04C96.0971 168.615 96.8471 168.389 97.6139 168.39C98.6409 168.392 99.6252 168.801 100.351 169.528C101.076 170.254 101.484 171.239 101.484 172.266V172.266Z" fill="#184466"/>
<path opacity="0.4" d="M101.484 172.266C101.484 173.033 101.256 173.783 100.83 174.42C100.404 175.058 99.7984 175.555 99.0898 175.848C98.3812 176.141 97.6016 176.217 96.8496 176.067C96.0975 175.917 95.4069 175.547 94.8651 175.005C94.3232 174.462 93.9546 173.771 93.8057 173.019C93.6568 172.266 93.7344 171.487 94.0287 170.779C94.323 170.071 94.8207 169.466 95.4589 169.04C96.0971 168.615 96.8471 168.389 97.6139 168.39C98.6409 168.392 99.6252 168.801 100.351 169.528C101.076 170.254 101.484 171.239 101.484 172.266V172.266Z" fill="white"/>
<path d="M110.244 189.762C110.244 190.529 110.016 191.279 109.59 191.916C109.164 192.554 108.558 193.051 107.85 193.344C107.141 193.637 106.361 193.713 105.609 193.563C104.857 193.413 104.167 193.044 103.625 192.501C103.083 191.958 102.714 191.267 102.565 190.515C102.417 189.762 102.494 188.983 102.788 188.275C103.083 187.567 103.58 186.962 104.219 186.537C104.857 186.111 105.607 185.885 106.374 185.886C107.401 185.888 108.385 186.297 109.111 187.024C109.836 187.75 110.244 188.735 110.244 189.762V189.762Z" fill="#184466"/>
<path opacity="0.4" d="M110.244 189.762C110.244 190.529 110.016 191.279 109.59 191.916C109.164 192.554 108.558 193.051 107.85 193.344C107.141 193.637 106.361 193.713 105.609 193.563C104.857 193.413 104.167 193.044 103.625 192.501C103.083 191.958 102.714 191.267 102.565 190.515C102.417 189.762 102.494 188.983 102.788 188.275C103.083 187.567 103.58 186.962 104.219 186.537C104.857 186.111 105.607 185.885 106.374 185.886C107.401 185.888 108.385 186.297 109.111 187.024C109.836 187.75 110.244 188.735 110.244 189.762V189.762Z" fill="white"/>
<path d="M110.244 207.258C110.245 208.025 110.018 208.775 109.593 209.414C109.168 210.052 108.562 210.55 107.854 210.844C107.145 211.138 106.365 211.215 105.613 211.066C104.861 210.917 104.169 210.547 103.627 210.005C103.085 209.462 102.715 208.771 102.566 208.019C102.417 207.266 102.494 206.487 102.788 205.778C103.082 205.07 103.58 204.464 104.218 204.039C104.856 203.613 105.607 203.387 106.374 203.388C107.4 203.39 108.383 203.798 109.108 204.523C109.834 205.249 110.242 206.232 110.244 207.258V207.258Z" fill="#184466"/>
<path opacity="0.4" d="M110.244 207.258C110.245 208.025 110.018 208.775 109.593 209.414C109.168 210.052 108.562 210.55 107.854 210.844C107.145 211.138 106.365 211.215 105.613 211.066C104.861 210.917 104.169 210.547 103.627 210.005C103.085 209.462 102.715 208.771 102.566 208.019C102.417 207.266 102.494 206.487 102.788 205.778C103.082 205.07 103.58 204.464 104.218 204.039C104.856 203.613 105.607 203.387 106.374 203.388C107.4 203.39 108.383 203.798 109.108 204.523C109.834 205.249 110.242 206.232 110.244 207.258V207.258Z" fill="white"/>
<path d="M110.244 224.754C110.245 225.521 110.018 226.272 109.593 226.91C109.168 227.548 108.562 228.046 107.854 228.34C107.145 228.634 106.365 228.711 105.613 228.562C104.861 228.413 104.169 228.043 103.627 227.501C103.085 226.959 102.715 226.267 102.566 225.515C102.417 224.763 102.494 223.983 102.788 223.274C103.082 222.566 103.58 221.96 104.218 221.535C104.856 221.11 105.607 220.883 106.374 220.884C107.4 220.886 108.383 221.294 109.108 222.02C109.834 222.745 110.242 223.728 110.244 224.754V224.754Z" fill="#184466"/>
<path opacity="0.4" d="M110.244 224.754C110.245 225.521 110.018 226.272 109.593 226.91C109.168 227.548 108.562 228.046 107.854 228.34C107.145 228.634 106.365 228.711 105.613 228.562C104.861 228.413 104.169 228.043 103.627 227.501C103.085 226.959 102.715 226.267 102.566 225.515C102.417 224.763 102.494 223.983 102.788 223.274C103.082 222.566 103.58 221.96 104.218 221.535C104.856 221.11 105.607 220.883 106.374 220.884C107.4 220.886 108.383 221.294 109.108 222.02C109.834 222.745 110.242 223.728 110.244 224.754V224.754Z" fill="white"/>
<path d="M110.244 242.256C110.244 243.023 110.016 243.773 109.59 244.41C109.164 245.048 108.558 245.545 107.85 245.838C107.141 246.131 106.361 246.207 105.609 246.057C104.857 245.907 104.167 245.538 103.625 244.995C103.083 244.452 102.714 243.761 102.565 243.009C102.417 242.257 102.494 241.477 102.788 240.769C103.083 240.061 103.58 239.456 104.219 239.031C104.857 238.606 105.607 238.379 106.374 238.38C106.882 238.38 107.386 238.481 107.856 238.676C108.326 238.87 108.753 239.156 109.112 239.516C109.472 239.876 109.757 240.303 109.951 240.774C110.145 241.244 110.244 241.748 110.244 242.256V242.256Z" fill="#184466"/>
<path opacity="0.4" d="M110.244 242.256C110.244 243.023 110.016 243.773 109.59 244.41C109.164 245.048 108.558 245.545 107.85 245.838C107.141 246.131 106.361 246.207 105.609 246.057C104.857 245.907 104.167 245.538 103.625 244.995C103.083 244.452 102.714 243.761 102.565 243.009C102.417 242.257 102.494 241.477 102.788 240.769C103.083 240.061 103.58 239.456 104.219 239.031C104.857 238.606 105.607 238.379 106.374 238.38C106.882 238.38 107.386 238.481 107.856 238.676C108.326 238.87 108.753 239.156 109.112 239.516C109.472 239.876 109.757 240.303 109.951 240.774C110.145 241.244 110.244 241.748 110.244 242.256V242.256Z" fill="white"/>
<path d="M110.244 259.752C110.244 260.519 110.016 261.268 109.59 261.906C109.164 262.544 108.558 263.04 107.85 263.334C107.141 263.627 106.361 263.703 105.609 263.553C104.857 263.403 104.167 263.033 103.625 262.491C103.083 261.948 102.714 261.257 102.565 260.504C102.417 259.752 102.494 258.973 102.788 258.265C103.083 257.556 103.58 256.951 104.219 256.526C104.857 256.101 105.607 255.875 106.374 255.876C106.882 255.876 107.386 255.976 107.856 256.171C108.326 256.366 108.753 256.652 109.112 257.012C109.472 257.372 109.757 257.799 109.951 258.269C110.145 258.739 110.244 259.243 110.244 259.752V259.752Z" fill="#184466"/>
<path opacity="0.4" d="M110.244 259.752C110.244 260.519 110.016 261.268 109.59 261.906C109.164 262.544 108.558 263.04 107.85 263.334C107.141 263.627 106.361 263.703 105.609 263.553C104.857 263.403 104.167 263.033 103.625 262.491C103.083 261.948 102.714 261.257 102.565 260.504C102.417 259.752 102.494 258.973 102.788 258.265C103.083 257.556 103.58 256.951 104.219 256.526C104.857 256.101 105.607 255.875 106.374 255.876C106.882 255.876 107.386 255.976 107.856 256.171C108.326 256.366 108.753 256.652 109.112 257.012C109.472 257.372 109.757 257.799 109.951 258.269C110.145 258.739 110.244 259.243 110.244 259.752V259.752Z" fill="white"/>
<path d="M163.53 114.288C163.271 112.842 162.696 111.472 161.847 110.274C160.998 109.076 159.894 108.08 158.616 107.358V107.358C158.616 107.28 158.616 107.202 158.616 107.124C158.616 104.468 157.561 101.921 155.683 100.043C153.805 98.1649 151.258 97.1099 148.602 97.1099H144.762V97.8719C143.494 98.402 142.348 99.1867 141.395 100.177C140.443 101.168 139.704 102.344 139.224 103.632C138.895 103.575 138.562 103.545 138.228 103.542C137.03 103.544 135.86 103.904 134.869 104.577C133.877 105.25 133.11 106.203 132.666 107.316C131.292 106.983 129.848 107.09 128.538 107.622C127.214 108.137 126.07 109.027 125.246 110.184C124.422 111.34 123.954 112.713 123.9 114.132C123.879 115.086 124.049 116.034 124.4 116.921C124.75 117.809 125.275 118.617 125.942 119.299C126.609 119.981 127.406 120.522 128.286 120.892C129.165 121.262 130.11 121.452 131.064 121.452H158.19C159.622 121.466 161.002 120.916 162.031 119.92C163.059 118.923 163.654 117.562 163.686 116.13V116.07C163.689 115.472 163.637 114.876 163.53 114.288V114.288Z" fill="#184466"/>
<path d="M159.696 114.288C159.439 112.845 158.867 111.475 158.021 110.277C157.175 109.079 156.075 108.083 154.8 107.358C154.8 107.28 154.8 107.202 154.8 107.124C154.799 104.777 153.973 102.504 152.467 100.704C150.961 98.903 148.87 97.6886 146.56 97.2727C144.25 96.8568 141.867 97.2658 139.827 98.4282C137.788 99.5906 136.221 101.433 135.402 103.632C134.052 103.395 132.662 103.632 131.467 104.303C130.273 104.975 129.348 106.04 128.85 107.316C127.476 106.984 126.032 107.091 124.722 107.622C123.398 108.137 122.254 109.028 121.43 110.184C120.606 111.341 120.138 112.713 120.084 114.132C120.062 115.086 120.231 116.034 120.582 116.921C120.932 117.809 121.455 118.617 122.122 119.299C122.789 119.981 123.585 120.523 124.465 120.893C125.344 121.262 126.288 121.453 127.242 121.452H154.374C155.805 121.465 157.185 120.914 158.213 119.918C159.242 118.923 159.837 117.562 159.87 116.13V116.07C159.867 115.472 159.809 114.876 159.696 114.288V114.288Z" fill="#184466"/>
<path opacity="0.3" d="M159.696 114.288C159.439 112.845 158.867 111.475 158.021 110.277C157.175 109.079 156.075 108.083 154.8 107.358C154.8 107.28 154.8 107.202 154.8 107.124C154.799 104.777 153.973 102.504 152.467 100.704C150.961 98.903 148.87 97.6886 146.56 97.2727C144.25 96.8568 141.867 97.2658 139.827 98.4282C137.788 99.5906 136.221 101.433 135.402 103.632C134.052 103.395 132.662 103.632 131.467 104.303C130.273 104.975 129.348 106.04 128.85 107.316C127.476 106.984 126.032 107.091 124.722 107.622C123.398 108.137 122.254 109.028 121.43 110.184C120.606 111.341 120.138 112.713 120.084 114.132C120.062 115.086 120.231 116.034 120.582 116.921C120.932 117.809 121.455 118.617 122.122 119.299C122.789 119.981 123.585 120.523 124.465 120.893C125.344 121.262 126.288 121.453 127.242 121.452H154.374C155.805 121.465 157.185 120.914 158.213 119.918C159.242 118.923 159.837 117.562 159.87 116.13V116.07C159.867 115.472 159.809 114.876 159.696 114.288V114.288Z" fill="white"/>
<path d="M145.506 90.792H145.002V92.298H145.506V90.792Z" fill="#184466"/>
<path opacity="0.2" d="M145.506 90.792H145.002V92.298H145.506V90.792Z" fill="black"/>
<path d="M242.028 125.004H241.524V122.004H242.028V125.004ZM242.028 119.004H241.524V116.004H242.028V119.004ZM242.028 113.004H241.524V110.004H242.028V113.004ZM242.028 107.004H241.524V104.004H242.028V107.004ZM242.028 101.004H241.524V98.0041H242.028V101.004ZM242.028 95.0041H241.524V92.0041H242.028V95.0041ZM242.028 89.0041H241.524V86.0041H242.028V89.0041ZM145.506 87.7561H145.002V85.7341C145.002 85.4133 145.02 85.0928 145.056 84.7741L145.554 84.8341C145.523 85.1331 145.507 85.4335 145.506 85.7341V87.7561ZM241.086 83.1481C240.763 82.2345 240.268 81.3912 239.628 80.6641L240 80.4001C240.685 81.1757 241.215 82.0761 241.56 83.0521L241.086 83.1481ZM146.43 82.0861L145.992 81.8461C146.485 80.9289 147.149 80.1143 147.948 79.4461L148.272 79.8361C147.518 80.4595 146.892 81.2237 146.43 82.0861ZM237.342 78.9421C236.487 78.5055 235.556 78.2386 234.6 78.1561L234.642 77.6521C235.673 77.7396 236.677 78.0248 237.6 78.4921L237.342 78.9421ZM150.798 78.4801L150.648 78.0061C151.445 77.7517 152.277 77.6222 153.114 77.6221H153.684V78.1261H153.114C152.328 78.1255 151.547 78.2449 150.798 78.4801ZM231.6 78.1261H228.6V77.6221H231.6V78.1261ZM225.6 78.1261H222.6V77.6221H225.6V78.1261ZM219.6 78.1261H216.6V77.6221H219.6V78.1261ZM213.6 78.1261H210.6V77.6221H213.6V78.1261ZM207.6 78.1261H204.6V77.6221H207.6V78.1261ZM201.6 78.1261H198.6V77.6221H201.6V78.1261ZM195.6 78.1261H192.6V77.6221H195.6V78.1261ZM189.6 78.1261H186.6V77.6221H189.6V78.1261ZM183.6 78.1261H180.6V77.6221H183.6V78.1261ZM177.6 78.1261H174.6V77.6221H177.6V78.1261ZM171.6 78.1261H168.6V77.6221H171.6V78.1261ZM165.6 78.1261H162.6V77.6221H165.6V78.1261ZM159.6 78.1261H156.6V77.6221H159.6V78.1261Z" fill="#184466"/>
<path opacity="0.2" d="M242.028 125.004H241.524V122.004H242.028V125.004ZM242.028 119.004H241.524V116.004H242.028V119.004ZM242.028 113.004H241.524V110.004H242.028V113.004ZM242.028 107.004H241.524V104.004H242.028V107.004ZM242.028 101.004H241.524V98.0041H242.028V101.004ZM242.028 95.0041H241.524V92.0041H242.028V95.0041ZM242.028 89.0041H241.524V86.0041H242.028V89.0041ZM145.506 87.7561H145.002V85.7341C145.002 85.4133 145.02 85.0928 145.056 84.7741L145.554 84.8341C145.523 85.1331 145.507 85.4335 145.506 85.7341V87.7561ZM241.086 83.1481C240.763 82.2345 240.268 81.3912 239.628 80.6641L240 80.4001C240.685 81.1757 241.215 82.0761 241.56 83.0521L241.086 83.1481ZM146.43 82.0861L145.992 81.8461C146.485 80.9289 147.149 80.1143 147.948 79.4461L148.272 79.8361C147.518 80.4595 146.892 81.2237 146.43 82.0861ZM237.342 78.9421C236.487 78.5055 235.556 78.2386 234.6 78.1561L234.642 77.6521C235.673 77.7396 236.677 78.0248 237.6 78.4921L237.342 78.9421ZM150.798 78.4801L150.648 78.0061C151.445 77.7517 152.277 77.6222 153.114 77.6221H153.684V78.1261H153.114C152.328 78.1255 151.547 78.2449 150.798 78.4801ZM231.6 78.1261H228.6V77.6221H231.6V78.1261ZM225.6 78.1261H222.6V77.6221H225.6V78.1261ZM219.6 78.1261H216.6V77.6221H219.6V78.1261ZM213.6 78.1261H210.6V77.6221H213.6V78.1261ZM207.6 78.1261H204.6V77.6221H207.6V78.1261ZM201.6 78.1261H198.6V77.6221H201.6V78.1261ZM195.6 78.1261H192.6V77.6221H195.6V78.1261ZM189.6 78.1261H186.6V77.6221H189.6V78.1261ZM183.6 78.1261H180.6V77.6221H183.6V78.1261ZM177.6 78.1261H174.6V77.6221H177.6V78.1261ZM171.6 78.1261H168.6V77.6221H171.6V78.1261ZM165.6 78.1261H162.6V77.6221H165.6V78.1261ZM159.6 78.1261H156.6V77.6221H159.6V78.1261Z" fill="black"/>
<path d="M242.028 128.016H241.524V129.522H242.028V128.016Z" fill="#184466"/>
<path opacity="0.2" d="M242.028 128.016H241.524V129.522H242.028V128.016Z" fill="black"/>
<path d="M265.243 277.967L218.361 277.751C215.654 277.736 213.063 276.647 211.158 274.724C209.253 272.8 208.189 270.199 208.2 267.491L208.698 149.966C208.703 148.624 208.973 147.297 209.492 146.06C210.011 144.823 210.768 143.701 211.721 142.757C212.674 141.812 213.803 141.065 215.045 140.558C216.287 140.051 217.616 139.793 218.957 139.8L265.834 140.016C268.542 140.029 271.133 141.117 273.039 143.04C274.945 144.963 276.01 147.563 276 150.271L275.503 267.792C275.497 269.134 275.227 270.461 274.709 271.699C274.19 272.936 273.433 274.059 272.48 275.004C271.528 275.949 270.398 276.697 269.156 277.205C267.915 277.714 266.585 277.972 265.243 277.967V277.967Z" fill="#455A64"/>
<path d="M265.764 144.057H256.678C256.381 144.062 256.089 144.126 255.817 144.245C255.545 144.363 255.299 144.534 255.094 144.748C254.888 144.961 254.726 145.213 254.618 145.489C254.51 145.765 254.457 146.06 254.462 146.356V148.004C254.468 148.3 254.415 148.594 254.307 148.87C254.198 149.146 254.037 149.398 253.831 149.611C253.625 149.824 253.379 149.995 253.108 150.113C252.836 150.231 252.543 150.294 252.247 150.299L234.535 150.219C233.935 150.203 233.367 149.95 232.954 149.515C232.542 149.08 232.318 148.5 232.333 147.901V146.253C232.349 145.655 232.126 145.075 231.714 144.64C231.302 144.206 230.735 143.952 230.137 143.935H226.941L218.986 143.897C217.093 143.886 215.274 144.625 213.925 145.952C212.577 147.28 211.809 149.087 211.791 150.979L211.321 265.694C211.317 266.632 211.498 267.563 211.853 268.432C212.208 269.3 212.731 270.091 213.392 270.758C214.052 271.424 214.838 271.955 215.704 272.318C216.569 272.681 217.498 272.87 218.436 272.874L265.22 273.09C266.159 273.095 267.09 272.914 267.959 272.559C268.829 272.203 269.62 271.68 270.287 271.019C270.954 270.358 271.485 269.571 271.848 268.705C272.211 267.839 272.401 266.91 272.405 265.971L272.874 151.256C272.886 149.359 272.143 147.535 270.81 146.184C269.476 144.834 267.661 144.069 265.764 144.057Z" fill="white"/>
<path d="M259.47 257.786L224.683 257.635C224.322 257.635 224.031 257.241 224.036 256.762L224.073 247.662C224.073 247.193 224.369 246.789 224.73 246.789L259.517 246.949C259.718 246.983 259.897 247.094 260.017 247.257C260.138 247.421 260.191 247.625 260.165 247.826L260.132 256.917C260.132 257.401 259.832 257.79 259.47 257.786Z" fill="#184466"/>
<path d="M231.622 177.778L219.551 177.724L219.541 179.939L231.612 179.994L231.622 177.778Z" fill="#184466"/>
<path opacity="0.1" d="M231.622 177.778L219.551 177.724L219.541 179.939L231.612 179.994L231.622 177.778Z" fill="black"/>
<path d="M267.008 191.38C267.103 191.37 267.196 191.348 267.285 191.314C267.415 191.263 267.527 191.177 267.611 191.065C267.694 190.953 267.743 190.819 267.754 190.68C267.754 189.934 267.754 188.845 267.754 187.447C267.754 186.747 267.754 185.963 267.754 185.1C267.754 184.889 267.754 184.668 267.754 184.448C267.785 184.233 267.738 184.016 267.623 183.833C267.558 183.745 267.474 183.674 267.377 183.624C267.28 183.574 267.173 183.548 267.064 183.546H266.332H259.55L220.295 183.401C220.195 183.399 220.095 183.422 220.005 183.467C219.915 183.512 219.838 183.578 219.779 183.659C219.665 183.843 219.622 184.061 219.657 184.274C219.657 184.743 219.657 185.213 219.657 185.682C219.657 186.621 219.657 187.559 219.657 188.498C219.657 188.967 219.657 189.437 219.657 189.906C219.637 190.124 219.637 190.344 219.657 190.563C219.681 190.657 219.727 190.743 219.791 190.817C219.854 190.89 219.934 190.948 220.023 190.985C220.115 191.022 220.214 191.04 220.314 191.037H222.703L233.127 191.093L250.774 191.201L262.671 191.295L265.905 191.333H266.745C266.937 191.333 267.031 191.333 267.031 191.333H266.745H265.905H262.671H250.774L233.127 191.276L222.703 191.234H220.314C220.182 191.239 220.051 191.217 219.929 191.168C219.805 191.116 219.695 191.035 219.608 190.934C219.52 190.832 219.456 190.712 219.422 190.582C219.395 190.459 219.385 190.332 219.394 190.206V189.859C219.394 189.39 219.394 188.92 219.394 188.451C219.394 187.512 219.394 186.574 219.394 185.635C219.394 185.166 219.394 184.696 219.394 184.227C219.385 184.102 219.385 183.976 219.394 183.851C219.412 183.713 219.465 183.582 219.549 183.471C219.63 183.358 219.737 183.266 219.861 183.203C219.985 183.14 220.123 183.108 220.262 183.11L259.517 183.326L266.299 183.373H267.031C267.16 183.373 267.287 183.404 267.402 183.464C267.516 183.523 267.614 183.61 267.688 183.715C267.821 183.919 267.874 184.165 267.838 184.405C267.838 184.626 267.838 184.846 267.838 185.058C267.838 185.912 267.838 186.696 267.838 187.404C267.838 188.812 267.806 189.892 267.796 190.643C267.785 190.787 267.732 190.925 267.645 191.041C267.558 191.156 267.439 191.245 267.303 191.295C267.215 191.35 267.112 191.379 267.008 191.38V191.38Z" fill="#E0E0E0"/>
<path d="M245.254 185.757H223.177V187.827H245.254V185.757Z" fill="#184466"/>
<path opacity="0.2" d="M245.254 185.757H223.177V187.827H245.254V185.757Z" fill="white"/>
<path d="M231.539 197.987L219.468 197.933L219.458 200.148L231.529 200.203L231.539 197.987Z" fill="#184466"/>
<path opacity="0.1" d="M231.539 197.987L219.468 197.933L219.458 200.148L231.529 200.203L231.539 197.987Z" fill="black"/>
<path d="M266.702 211.589C266.797 211.577 266.891 211.56 266.984 211.538C267.115 211.496 267.236 211.426 267.338 211.334C267.44 211.242 267.521 211.129 267.575 211.002C267.649 210.813 267.678 210.609 267.66 210.406C267.66 210.181 267.66 209.937 267.66 209.665C267.66 209.12 267.66 208.501 267.66 207.788V204.807C267.682 204.591 267.635 204.374 267.524 204.188C267.408 203.996 267.226 203.854 267.012 203.789C266.778 203.747 266.54 203.734 266.304 203.751H259.55L220.431 203.606C220.22 203.606 220.017 203.683 219.859 203.822C219.701 203.961 219.599 204.153 219.572 204.361C219.572 204.807 219.572 205.3 219.572 205.769C219.572 206.708 219.572 207.647 219.572 208.585C219.572 209.055 219.572 209.524 219.572 209.993C219.555 210.213 219.564 210.433 219.6 210.65C219.659 210.841 219.779 211.006 219.943 211.12C220.116 211.23 220.32 211.282 220.525 211.27H221.177H222.534L232.92 211.322L250.506 211.43L262.361 211.523L265.585 211.561H266.426H266.707H266.426H265.585H262.361H250.506L232.91 211.542L222.524 211.505H220.483C220.229 211.52 219.977 211.452 219.764 211.312C219.551 211.164 219.395 210.947 219.323 210.697C219.281 210.459 219.269 210.216 219.286 209.975C219.286 209.505 219.286 209.036 219.286 208.567C219.286 207.628 219.286 206.689 219.286 205.751C219.286 205.281 219.286 204.812 219.286 204.343C219.32 204.074 219.451 203.828 219.654 203.649C219.857 203.47 220.118 203.371 220.389 203.371L259.508 203.587L266.261 203.639C266.513 203.623 266.765 203.641 267.012 203.69C267.256 203.77 267.462 203.937 267.589 204.16C267.711 204.366 267.763 204.606 267.74 204.845C267.74 205.065 267.74 205.281 267.74 205.497C267.74 206.347 267.74 207.126 267.74 207.844C267.74 208.562 267.74 209.167 267.74 209.721C267.74 209.989 267.74 210.237 267.74 210.467C267.757 210.677 267.723 210.888 267.641 211.082C267.58 211.212 267.492 211.327 267.383 211.419C267.273 211.511 267.145 211.579 267.008 211.617C266.905 211.626 266.802 211.616 266.702 211.589V211.589Z" fill="#E0E0E0"/>
<path d="M231.449 219.074L219.377 219.019L219.367 221.234L231.439 221.289L231.449 219.074Z" fill="#184466"/>
<path opacity="0.1" d="M231.449 219.074L219.377 219.019L219.367 221.234L231.439 221.289L231.449 219.074Z" fill="black"/>
<path d="M266.609 232.667C266.704 232.656 266.798 232.638 266.891 232.615C267.021 232.574 267.141 232.505 267.243 232.413C267.345 232.322 267.426 232.21 267.482 232.085C267.555 231.895 267.584 231.691 267.566 231.489C267.566 231.259 267.566 231.019 267.566 230.742C267.566 230.203 267.566 229.579 267.566 228.865V225.885C267.589 225.669 267.541 225.452 267.43 225.265C267.312 225.078 267.13 224.938 266.919 224.871C266.685 224.828 266.447 224.814 266.21 224.829H259.456L220.337 224.683C220.127 224.684 219.924 224.761 219.766 224.9C219.608 225.039 219.506 225.23 219.479 225.439C219.479 225.908 219.479 226.378 219.479 226.847C219.479 227.786 219.479 228.724 219.479 229.663C219.479 230.132 219.479 230.602 219.479 231.071C219.461 231.289 219.47 231.508 219.507 231.723C219.563 231.915 219.684 232.081 219.849 232.193C220.022 232.305 220.226 232.358 220.431 232.343H222.473L232.859 232.399L250.445 232.507L262.3 232.601L265.525 232.639H266.365C266.553 232.639 266.646 232.639 266.646 232.639C266.646 232.639 266.553 232.639 266.365 232.639H265.525H262.3H250.445L232.859 232.587L222.473 232.545H220.431C220.177 232.562 219.925 232.494 219.713 232.352C219.5 232.204 219.344 231.987 219.272 231.737C219.23 231.499 219.217 231.256 219.234 231.015C219.234 230.545 219.234 230.076 219.234 229.607C219.234 228.668 219.234 227.729 219.234 226.791C219.234 226.321 219.234 225.852 219.234 225.359C219.268 225.091 219.398 224.845 219.6 224.666C219.802 224.487 220.063 224.388 220.333 224.388L259.452 224.604L266.205 224.655C266.457 224.64 266.709 224.657 266.956 224.707C267.2 224.787 267.406 224.954 267.533 225.176C267.655 225.383 267.708 225.623 267.684 225.861C267.684 226.082 267.684 226.303 267.684 226.514C267.684 227.363 267.684 228.142 267.684 228.86C267.684 229.579 267.684 230.184 267.684 230.738C267.684 231.005 267.684 231.254 267.684 231.484C267.702 231.694 267.668 231.905 267.585 232.099C267.524 232.228 267.436 232.343 267.327 232.436C267.217 232.528 267.089 232.596 266.952 232.634C266.841 232.672 266.724 232.683 266.609 232.667V232.667Z" fill="#E0E0E0"/>
<path d="M244.783 206.552L222.706 206.452L222.696 208.521L244.773 208.622L244.783 206.552Z" fill="#184466"/>
<path opacity="0.2" d="M244.783 206.552L222.706 206.452L222.696 208.521L244.773 208.622L244.783 206.552Z" fill="white"/>
<path d="M244.381 161.192C244.707 161.049 244.984 160.812 245.177 160.513C245.369 160.213 245.47 159.864 245.465 159.507C245.477 159.276 245.442 159.044 245.362 158.827C245.282 158.609 245.158 158.41 244.999 158.242C244.839 158.074 244.647 157.94 244.434 157.848C244.221 157.757 243.991 157.709 243.759 157.709C243.527 157.709 243.298 157.757 243.085 157.848C242.872 157.94 242.68 158.074 242.52 158.242C242.36 158.41 242.237 158.609 242.156 158.827C242.076 159.044 242.041 159.276 242.053 159.507C242.046 159.867 242.146 160.221 242.339 160.524C242.533 160.827 242.813 161.066 243.142 161.211C240.514 161.605 240.631 164.459 240.631 164.459L246.845 164.487C246.845 164.487 246.991 161.582 244.381 161.192Z" fill="#184466"/>
<path opacity="0.1" d="M244.381 161.192C244.707 161.049 244.984 160.812 245.177 160.513C245.369 160.213 245.47 159.864 245.465 159.507C245.477 159.276 245.442 159.044 245.362 158.827C245.282 158.609 245.158 158.41 244.999 158.242C244.839 158.074 244.647 157.94 244.434 157.848C244.221 157.757 243.991 157.709 243.759 157.709C243.527 157.709 243.298 157.757 243.085 157.848C242.872 157.94 242.68 158.074 242.52 158.242C242.36 158.41 242.237 158.609 242.156 158.827C242.076 159.044 242.041 159.276 242.053 159.507C242.046 159.867 242.146 160.221 242.339 160.524C242.533 160.827 242.813 161.066 243.142 161.211C240.514 161.605 240.631 164.459 240.631 164.459L246.845 164.487C246.845 164.487 246.991 161.582 244.381 161.192Z" fill="black"/>
<path d="M254.479 166.328L232.331 166.227L232.319 168.874L254.467 168.975L254.479 166.328Z" fill="#184466"/>
<path opacity="0.2" d="M254.479 166.328L232.331 166.227L232.319 168.874L254.467 168.975L254.479 166.328Z" fill="white"/>
</svg>
