<svg width="330" height="330" viewBox="0 0 330 330" fill="none" xmlns="http://www.w3.org/2000/svg">
<circle cx="165" cy="165" r="165" fill="#F2F2F2"/>
<path d="M165 271.536C229.249 271.536 281.334 268.495 281.334 264.744C281.334 260.993 229.249 257.952 165 257.952C100.751 257.952 48.666 260.993 48.666 264.744C48.666 268.495 100.751 271.536 165 271.536Z" fill="#F5F5F5"/>
<path d="M156.486 257.28H86.3276V265.284H156.486V257.28Z" fill="#184466"/>
<path opacity="0.3" d="M156.486 257.28H86.3276V265.284H156.486V257.28Z" fill="black"/>
<path d="M89.9099 258.42H88.1519V264.15H89.9099V258.42Z" fill="#263238"/>
<path d="M92.9939 258.42H91.2358V264.15H92.9939V258.42Z" fill="#263238"/>
<path d="M96.0837 258.42H94.3257V264.15H96.0837V258.42Z" fill="#263238"/>
<path d="M99.1677 258.42H97.4097V264.15H99.1677V258.42Z" fill="#263238"/>
<path d="M102.252 258.42H100.494V264.15H102.252V258.42Z" fill="#263238"/>
<path d="M105.336 258.42H103.578V264.15H105.336V258.42Z" fill="#263238"/>
<path d="M108.426 258.42H106.668V264.15H108.426V258.42Z" fill="#263238"/>
<path d="M111.51 258.42H109.752V264.15H111.51V258.42Z" fill="#263238"/>
<path d="M114.594 258.42H112.836V264.15H114.594V258.42Z" fill="#263238"/>
<path d="M117.678 258.42H115.92V264.15H117.678V258.42Z" fill="#263238"/>
<path d="M120.762 258.42H119.004V264.15H120.762V258.42Z" fill="#263238"/>
<path d="M123.852 258.42H122.094V264.15H123.852V258.42Z" fill="#263238"/>
<path d="M126.936 258.42H125.178V264.15H126.936V258.42Z" fill="#263238"/>
<path d="M130.02 258.42H128.262V264.15H130.02V258.42Z" fill="#263238"/>
<path d="M133.104 258.42H131.346V264.15H133.104V258.42Z" fill="#263238"/>
<path d="M136.194 258.42H134.436V264.15H136.194V258.42Z" fill="#263238"/>
<path d="M139.278 258.42H137.52V264.15H139.278V258.42Z" fill="#263238"/>
<path d="M142.362 258.42H140.604V264.15H142.362V258.42Z" fill="#263238"/>
<path d="M145.446 258.42H143.688V264.15H145.446V258.42Z" fill="#263238"/>
<path d="M148.536 258.42H146.778V264.15H148.536V258.42Z" fill="#263238"/>
<path d="M151.62 258.42H149.862V264.15H151.62V258.42Z" fill="#263238"/>
<path d="M154.704 258.42H152.946V264.15H154.704V258.42Z" fill="#263238"/>
<path d="M156.492 265.29H167.436V257.286H156.492V265.29Z" fill="#263238"/>
<path d="M156.492 115.83H82.6797V257.28H156.492V115.83Z" fill="#184466"/>
<path opacity="0.3" d="M156.492 115.83H82.6797V257.28H156.492V115.83Z" fill="white"/>
<path d="M166.242 114.618H87.5156V115.83H166.242V114.618Z" fill="#263238"/>
<path d="M80.352 181.74H79.752V187.698H80.352V181.74Z" fill="#184466"/>
<path d="M80.352 189.702H79.752V205.2H80.352V189.702Z" fill="#184466"/>
<path d="M156.486 257.28H171.084L171.084 115.83H156.486L156.486 257.28Z" fill="#184466"/>
<g style="mix-blend-mode:multiply" opacity="0.6">
<path d="M152.808 153.246H86.358C85.2744 153.246 84.396 154.125 84.396 155.208V165.324C84.396 166.408 85.2744 167.286 86.358 167.286H152.808C153.892 167.286 154.77 166.408 154.77 165.324V155.208C154.77 154.125 153.892 153.246 152.808 153.246Z" fill="#184466"/>
</g>
<path opacity="0.2" d="M152.808 153.246H86.358C85.2744 153.246 84.396 154.125 84.396 155.208V165.324C84.396 166.408 85.2744 167.286 86.358 167.286H152.808C153.892 167.286 154.77 166.408 154.77 165.324V155.208C154.77 154.125 153.892 153.246 152.808 153.246Z" fill="black"/>
<path d="M148.848 158.4L146.01 152.544V168H154.8V160.266H151.86C151.233 160.268 150.619 160.095 150.086 159.765C149.554 159.435 149.124 158.962 148.848 158.4Z" fill="#184466"/>
<path d="M154.77 117.522H84.396V133.02H154.77V117.522Z" fill="#184466"/>
<path opacity="0.2" d="M154.77 117.522H84.396V133.02H154.77V117.522Z" fill="white"/>
<path d="M154.77 240H84.396V255.498H154.77V240Z" fill="#184466"/>
<path opacity="0.2" d="M154.77 240H84.396V255.498H154.77V240Z" fill="white"/>
<path d="M154.77 222.504H84.396V238.002H154.77V222.504Z" fill="#184466"/>
<path opacity="0.2" d="M154.77 222.504H84.396V238.002H154.77V222.504Z" fill="white"/>
<path d="M154.77 205.008H84.396V220.506H154.77V205.008Z" fill="#184466"/>
<path opacity="0.2" d="M154.77 205.008H84.396V220.506H154.77V205.008Z" fill="white"/>
<path d="M154.77 187.512H84.396V203.01H154.77V187.512Z" fill="#184466"/>
<path opacity="0.2" d="M154.77 187.512H84.396V203.01H154.77V187.512Z" fill="white"/>
<path d="M154.77 170.016H84.396V185.514H154.77V170.016Z" fill="#184466"/>
<path opacity="0.2" d="M154.77 170.016H84.396V185.514H154.77V170.016Z" fill="white"/>
<path d="M146.01 152.52H75.6357V168.018H146.01V152.52Z" fill="#184466"/>
<path opacity="0.2" d="M146.01 152.52H75.6357V168.018H146.01V152.52Z" fill="white"/>
<path d="M154.77 135.018H84.396V150.516H154.77V135.018Z" fill="#184466"/>
<path opacity="0.2" d="M154.77 135.018H84.396V150.516H154.77V135.018Z" fill="white"/>
<path d="M150.39 119.736H123.636C122.386 119.736 121.374 120.749 121.374 121.998V128.544C121.374 129.794 122.386 130.806 123.636 130.806H150.39C151.639 130.806 152.652 129.794 152.652 128.544V121.998C152.652 120.749 151.639 119.736 150.39 119.736Z" fill="#184466"/>
<path opacity="0.2" d="M148.53 125.73V124.818C148.53 124.288 148.1 123.858 147.57 123.858H138.9C138.37 123.858 137.94 124.288 137.94 124.818V125.73C137.94 126.261 138.37 126.69 138.9 126.69H147.57C148.1 126.69 148.53 126.261 148.53 125.73Z" fill="white"/>
<path d="M150.39 137.232H123.636C122.386 137.232 121.374 138.245 121.374 139.494V146.04C121.374 147.29 122.386 148.302 123.636 148.302H150.39C151.639 148.302 152.652 147.29 152.652 146.04V139.494C152.652 138.245 151.639 137.232 150.39 137.232Z" fill="#184466"/>
<path opacity="0.2" d="M148.53 143.226V142.314C148.53 141.784 148.1 141.354 147.57 141.354H138.9C138.37 141.354 137.94 141.784 137.94 142.314V143.226C137.94 143.756 138.37 144.186 138.9 144.186H147.57C148.1 144.186 148.53 143.756 148.53 143.226Z" fill="white"/>
<path d="M141.63 154.734H114.876C113.627 154.734 112.614 155.747 112.614 156.996V163.542C112.614 164.792 113.627 165.804 114.876 165.804H141.63C142.879 165.804 143.892 164.792 143.892 163.542V156.996C143.892 155.747 142.879 154.734 141.63 154.734Z" fill="#184466"/>
<path opacity="0.2" d="M139.77 160.722V159.81C139.77 159.28 139.34 158.85 138.81 158.85H130.14C129.609 158.85 129.18 159.28 129.18 159.81V160.722C129.18 161.252 129.609 161.682 130.14 161.682H138.81C139.34 161.682 139.77 161.252 139.77 160.722Z" fill="white"/>
<path d="M150.39 172.23H123.636C122.386 172.23 121.374 173.243 121.374 174.492V181.038C121.374 182.287 122.386 183.3 123.636 183.3H150.39C151.639 183.3 152.652 182.287 152.652 181.038V174.492C152.652 173.243 151.639 172.23 150.39 172.23Z" fill="#184466"/>
<path opacity="0.2" d="M148.53 178.218V177.306C148.53 176.776 148.1 176.346 147.57 176.346H138.9C138.37 176.346 137.94 176.776 137.94 177.306V178.218C137.94 178.748 138.37 179.178 138.9 179.178H147.57C148.1 179.178 148.53 178.748 148.53 178.218Z" fill="white"/>
<path d="M150.39 189.726H123.636C122.386 189.726 121.374 190.739 121.374 191.988V198.534C121.374 199.783 122.386 200.796 123.636 200.796H150.39C151.639 200.796 152.652 199.783 152.652 198.534V191.988C152.652 190.739 151.639 189.726 150.39 189.726Z" fill="#184466"/>
<path opacity="0.2" d="M148.53 195.714V194.802C148.53 194.272 148.1 193.842 147.57 193.842H138.9C138.37 193.842 137.94 194.272 137.94 194.802V195.714C137.94 196.244 138.37 196.674 138.9 196.674H147.57C148.1 196.674 148.53 196.244 148.53 195.714Z" fill="white"/>
<path d="M150.39 207.222H123.636C122.386 207.222 121.374 208.235 121.374 209.484V216.03C121.374 217.279 122.386 218.292 123.636 218.292H150.39C151.639 218.292 152.652 217.279 152.652 216.03V209.484C152.652 208.235 151.639 207.222 150.39 207.222Z" fill="#184466"/>
<path opacity="0.2" d="M148.53 213.21V212.298C148.53 211.768 148.1 211.338 147.57 211.338H138.9C138.37 211.338 137.94 211.768 137.94 212.298V213.21C137.94 213.741 138.37 214.17 138.9 214.17H147.57C148.1 214.17 148.53 213.741 148.53 213.21Z" fill="white"/>
<path d="M150.39 224.718H123.636C122.386 224.718 121.374 225.731 121.374 226.98V233.526C121.374 234.776 122.386 235.788 123.636 235.788H150.39C151.639 235.788 152.652 234.776 152.652 233.526V226.98C152.652 225.731 151.639 224.718 150.39 224.718Z" fill="#184466"/>
<path opacity="0.2" d="M148.53 230.712V229.8C148.53 229.27 148.1 228.84 147.57 228.84H138.9C138.37 228.84 137.94 229.27 137.94 229.8V230.712C137.94 231.243 138.37 231.672 138.9 231.672H147.57C148.1 231.672 148.53 231.243 148.53 230.712Z" fill="white"/>
<path d="M150.39 242.214H123.636C122.386 242.214 121.374 243.227 121.374 244.476V251.022C121.374 252.272 122.386 253.284 123.636 253.284H150.39C151.639 253.284 152.652 252.272 152.652 251.022V244.476C152.652 243.227 151.639 242.214 150.39 242.214Z" fill="#184466"/>
<path opacity="0.2" d="M148.536 248.208V247.296C148.536 246.766 148.106 246.336 147.576 246.336H138.906C138.375 246.336 137.946 246.766 137.946 247.296V248.208C137.946 248.738 138.375 249.168 138.906 249.168H147.576C148.106 249.168 148.536 248.738 148.536 248.208Z" fill="white"/>
<path d="M115.932 127.062C116.919 127.062 117.72 126.262 117.72 125.274C117.72 124.287 116.919 123.486 115.932 123.486C114.944 123.486 114.144 124.287 114.144 125.274C114.144 126.262 114.944 127.062 115.932 127.062Z" fill="#184466"/>
<path d="M110.82 127.062C111.807 127.062 112.608 126.262 112.608 125.274C112.608 124.287 111.807 123.486 110.82 123.486C109.832 123.486 109.032 124.287 109.032 125.274C109.032 126.262 109.832 127.062 110.82 127.062Z" fill="#184466"/>
<path d="M105.714 127.062C106.701 127.062 107.502 126.262 107.502 125.274C107.502 124.287 106.701 123.486 105.714 123.486C104.726 123.486 103.926 124.287 103.926 125.274C103.926 126.262 104.726 127.062 105.714 127.062Z" fill="#184466"/>
<path opacity="0.4" d="M105.714 127.062C106.701 127.062 107.502 126.262 107.502 125.274C107.502 124.287 106.701 123.486 105.714 123.486C104.726 123.486 103.926 124.287 103.926 125.274C103.926 126.262 104.726 127.062 105.714 127.062Z" fill="white"/>
<path d="M102.39 125.274C102.39 125.63 102.284 125.978 102.086 126.274C101.888 126.57 101.607 126.801 101.278 126.937C100.949 127.073 100.588 127.109 100.238 127.04C99.8892 126.97 99.5685 126.799 99.3168 126.547C99.065 126.295 98.8936 125.974 98.8241 125.625C98.7547 125.276 98.7903 124.914 98.9266 124.585C99.0628 124.256 99.2935 123.975 99.5895 123.777C99.8855 123.58 100.234 123.474 100.59 123.474C101.067 123.474 101.525 123.664 101.862 124.001C102.2 124.339 102.39 124.797 102.39 125.274Z" fill="#184466"/>
<path d="M115.932 144.558C116.919 144.558 117.72 143.758 117.72 142.77C117.72 141.783 116.919 140.982 115.932 140.982C114.944 140.982 114.144 141.783 114.144 142.77C114.144 143.758 114.944 144.558 115.932 144.558Z" fill="#184466"/>
<path d="M110.82 144.558C111.807 144.558 112.608 143.758 112.608 142.77C112.608 141.783 111.807 140.982 110.82 140.982C109.832 140.982 109.032 141.783 109.032 142.77C109.032 143.758 109.832 144.558 110.82 144.558Z" fill="#184466"/>
<path d="M105.714 144.558C106.701 144.558 107.502 143.758 107.502 142.77C107.502 141.783 106.701 140.982 105.714 140.982C104.726 140.982 103.926 141.783 103.926 142.77C103.926 143.758 104.726 144.558 105.714 144.558Z" fill="#184466"/>
<path d="M102.39 142.8C102.39 143.156 102.284 143.504 102.086 143.8C101.888 144.096 101.607 144.327 101.278 144.463C100.949 144.599 100.588 144.635 100.238 144.565C99.8892 144.496 99.5685 144.325 99.3168 144.073C99.065 143.821 98.8936 143.5 98.8241 143.151C98.7547 142.802 98.7903 142.44 98.9266 142.111C99.0628 141.782 99.2935 141.501 99.5895 141.303C99.8855 141.106 100.234 141 100.59 141C101.067 141 101.525 141.19 101.862 141.527C102.2 141.865 102.39 142.323 102.39 142.8Z" fill="#184466"/>
<path opacity="0.4" d="M102.39 142.8C102.39 143.156 102.284 143.504 102.086 143.8C101.888 144.096 101.607 144.327 101.278 144.463C100.949 144.599 100.588 144.635 100.238 144.565C99.8892 144.496 99.5685 144.325 99.3168 144.073C99.065 143.821 98.8936 143.5 98.8241 143.151C98.7547 142.802 98.7903 142.44 98.9266 142.111C99.0628 141.782 99.2935 141.501 99.5895 141.303C99.8855 141.106 100.234 141 100.59 141C101.067 141 101.525 141.19 101.862 141.527C102.2 141.865 102.39 142.323 102.39 142.8Z" fill="white"/>
<path d="M107.172 162.054C108.159 162.054 108.96 161.254 108.96 160.266C108.96 159.279 108.159 158.478 107.172 158.478C106.184 158.478 105.384 159.279 105.384 160.266C105.384 161.254 106.184 162.054 107.172 162.054Z" fill="#184466"/>
<path opacity="0.4" d="M107.172 162.054C108.159 162.054 108.96 161.254 108.96 160.266C108.96 159.279 108.159 158.478 107.172 158.478C106.184 158.478 105.384 159.279 105.384 160.266C105.384 161.254 106.184 162.054 107.172 162.054Z" fill="white"/>
<path d="M102.059 162.054C103.047 162.054 103.847 161.254 103.847 160.266C103.847 159.279 103.047 158.478 102.059 158.478C101.072 158.478 100.271 159.279 100.271 160.266C100.271 161.254 101.072 162.054 102.059 162.054Z" fill="#184466"/>
<path d="M96.9535 162.054C97.941 162.054 98.7415 161.254 98.7415 160.266C98.7415 159.279 97.941 158.478 96.9535 158.478C95.966 158.478 95.1655 159.279 95.1655 160.266C95.1655 161.254 95.966 162.054 96.9535 162.054Z" fill="#184466"/>
<path opacity="0.4" d="M96.9535 162.054C97.941 162.054 98.7415 161.254 98.7415 160.266C98.7415 159.279 97.941 158.478 96.9535 158.478C95.966 158.478 95.1655 159.279 95.1655 160.266C95.1655 161.254 95.966 162.054 96.9535 162.054Z" fill="white"/>
<path d="M91.8417 162.054C92.8292 162.054 93.6297 161.254 93.6297 160.266C93.6297 159.279 92.8292 158.478 91.8417 158.478C90.8542 158.478 90.0537 159.279 90.0537 160.266C90.0537 161.254 90.8542 162.054 91.8417 162.054Z" fill="#184466"/>
<path d="M115.932 179.55C116.919 179.55 117.72 178.75 117.72 177.762C117.72 176.775 116.919 175.974 115.932 175.974C114.944 175.974 114.144 176.775 114.144 177.762C114.144 178.75 114.944 179.55 115.932 179.55Z" fill="#184466"/>
<path opacity="0.4" d="M115.932 179.55C116.919 179.55 117.72 178.75 117.72 177.762C117.72 176.775 116.919 175.974 115.932 175.974C114.944 175.974 114.144 176.775 114.144 177.762C114.144 178.75 114.944 179.55 115.932 179.55Z" fill="white"/>
<path d="M110.82 179.55C111.807 179.55 112.608 178.75 112.608 177.762C112.608 176.775 111.807 175.974 110.82 175.974C109.832 175.974 109.032 176.775 109.032 177.762C109.032 178.75 109.832 179.55 110.82 179.55Z" fill="#184466"/>
<path opacity="0.4" d="M110.82 179.55C111.807 179.55 112.608 178.75 112.608 177.762C112.608 176.775 111.807 175.974 110.82 175.974C109.832 175.974 109.032 176.775 109.032 177.762C109.032 178.75 109.832 179.55 110.82 179.55Z" fill="white"/>
<path d="M105.714 179.55C106.701 179.55 107.502 178.75 107.502 177.762C107.502 176.775 106.701 175.974 105.714 175.974C104.726 175.974 103.926 176.775 103.926 177.762C103.926 178.75 104.726 179.55 105.714 179.55Z" fill="#184466"/>
<path d="M102.39 177.762C102.39 178.118 102.284 178.466 102.086 178.762C101.888 179.058 101.607 179.289 101.278 179.425C100.949 179.562 100.588 179.597 100.238 179.528C99.8892 179.458 99.5685 179.287 99.3168 179.035C99.065 178.783 98.8936 178.463 98.8241 178.114C98.7547 177.764 98.7903 177.402 98.9266 177.074C99.0628 176.745 99.2935 176.464 99.5895 176.266C99.8855 176.068 100.234 175.962 100.59 175.962C101.067 175.962 101.525 176.152 101.862 176.49C102.2 176.827 102.39 177.285 102.39 177.762Z" fill="#184466"/>
<path d="M115.932 197.046C116.919 197.046 117.72 196.246 117.72 195.258C117.72 194.271 116.919 193.47 115.932 193.47C114.944 193.47 114.144 194.271 114.144 195.258C114.144 196.246 114.944 197.046 115.932 197.046Z" fill="#184466"/>
<path d="M110.82 197.046C111.807 197.046 112.608 196.246 112.608 195.258C112.608 194.271 111.807 193.47 110.82 193.47C109.832 193.47 109.032 194.271 109.032 195.258C109.032 196.246 109.832 197.046 110.82 197.046Z" fill="#184466"/>
<path opacity="0.4" d="M110.82 197.046C111.807 197.046 112.608 196.246 112.608 195.258C112.608 194.271 111.807 193.47 110.82 193.47C109.832 193.47 109.032 194.271 109.032 195.258C109.032 196.246 109.832 197.046 110.82 197.046Z" fill="white"/>
<path d="M105.714 197.046C106.701 197.046 107.502 196.246 107.502 195.258C107.502 194.271 106.701 193.47 105.714 193.47C104.726 193.47 103.926 194.271 103.926 195.258C103.926 196.246 104.726 197.046 105.714 197.046Z" fill="#184466"/>
<path d="M102.39 195.258C102.39 195.614 102.284 195.962 102.086 196.258C101.888 196.554 101.607 196.785 101.278 196.921C100.949 197.057 100.588 197.093 100.238 197.023C99.8892 196.954 99.5685 196.783 99.3168 196.531C99.065 196.279 98.8936 195.958 98.8241 195.609C98.7547 195.26 98.7903 194.898 98.9266 194.569C99.0628 194.24 99.2935 193.959 99.5895 193.761C99.8855 193.564 100.234 193.458 100.59 193.458C101.067 193.458 101.525 193.648 101.862 193.985C102.2 194.323 102.39 194.781 102.39 195.258Z" fill="#184466"/>
<path d="M115.932 214.542C116.919 214.542 117.72 213.742 117.72 212.754C117.72 211.767 116.919 210.966 115.932 210.966C114.944 210.966 114.144 211.767 114.144 212.754C114.144 213.742 114.944 214.542 115.932 214.542Z" fill="#184466"/>
<path d="M110.82 214.542C111.807 214.542 112.608 213.742 112.608 212.754C112.608 211.767 111.807 210.966 110.82 210.966C109.832 210.966 109.032 211.767 109.032 212.754C109.032 213.742 109.832 214.542 110.82 214.542Z" fill="#184466"/>
<path d="M105.714 214.542C106.701 214.542 107.502 213.742 107.502 212.754C107.502 211.767 106.701 210.966 105.714 210.966C104.726 210.966 103.926 211.767 103.926 212.754C103.926 213.742 104.726 214.542 105.714 214.542Z" fill="#184466"/>
<path opacity="0.4" d="M105.714 214.542C106.701 214.542 107.502 213.742 107.502 212.754C107.502 211.767 106.701 210.966 105.714 210.966C104.726 210.966 103.926 211.767 103.926 212.754C103.926 213.742 104.726 214.542 105.714 214.542Z" fill="white"/>
<path d="M102.39 212.754C102.39 213.11 102.284 213.458 102.086 213.754C101.888 214.05 101.607 214.281 101.278 214.417C100.949 214.553 100.588 214.589 100.238 214.52C99.8892 214.45 99.5685 214.279 99.3168 214.027C99.065 213.775 98.8936 213.454 98.8241 213.105C98.7547 212.756 98.7903 212.394 98.9266 212.065C99.0628 211.736 99.2935 211.455 99.5895 211.257C99.8855 211.06 100.234 210.954 100.59 210.954C101.067 210.954 101.525 211.144 101.862 211.481C102.2 211.819 102.39 212.277 102.39 212.754Z" fill="#184466"/>
<path opacity="0.4" d="M102.39 212.754C102.39 213.11 102.284 213.458 102.086 213.754C101.888 214.05 101.607 214.281 101.278 214.417C100.949 214.553 100.588 214.589 100.238 214.52C99.8892 214.45 99.5685 214.279 99.3168 214.027C99.065 213.775 98.8936 213.454 98.8241 213.105C98.7547 212.756 98.7903 212.394 98.9266 212.065C99.0628 211.736 99.2935 211.455 99.5895 211.257C99.8855 211.06 100.234 210.954 100.59 210.954C101.067 210.954 101.525 211.144 101.862 211.481C102.2 211.819 102.39 212.277 102.39 212.754Z" fill="white"/>
<path d="M117.72 230.256C117.72 230.612 117.614 230.96 117.416 231.256C117.218 231.552 116.937 231.783 116.608 231.919C116.28 232.055 115.918 232.091 115.568 232.021C115.219 231.952 114.899 231.781 114.647 231.529C114.395 231.277 114.224 230.956 114.154 230.607C114.085 230.258 114.12 229.896 114.257 229.567C114.393 229.238 114.624 228.957 114.92 228.759C115.216 228.562 115.564 228.456 115.92 228.456C116.397 228.456 116.855 228.646 117.192 228.983C117.53 229.321 117.72 229.779 117.72 230.256Z" fill="#184466"/>
<path opacity="0.4" d="M117.72 230.256C117.72 230.612 117.614 230.96 117.416 231.256C117.218 231.552 116.937 231.783 116.608 231.919C116.28 232.055 115.918 232.091 115.568 232.021C115.219 231.952 114.899 231.781 114.647 231.529C114.395 231.277 114.224 230.956 114.154 230.607C114.085 230.258 114.12 229.896 114.257 229.567C114.393 229.238 114.624 228.957 114.92 228.759C115.216 228.562 115.564 228.456 115.92 228.456C116.397 228.456 116.855 228.646 117.192 228.983C117.53 229.321 117.72 229.779 117.72 230.256Z" fill="white"/>
<path d="M112.614 230.256C112.614 230.612 112.508 230.96 112.31 231.256C112.113 231.552 111.831 231.783 111.502 231.919C111.174 232.055 110.812 232.091 110.463 232.021C110.113 231.952 109.793 231.781 109.541 231.529C109.289 231.277 109.118 230.956 109.048 230.607C108.979 230.258 109.014 229.896 109.151 229.567C109.287 229.238 109.518 228.957 109.814 228.759C110.11 228.562 110.458 228.456 110.814 228.456C111.291 228.456 111.749 228.646 112.086 228.983C112.424 229.321 112.614 229.779 112.614 230.256Z" fill="#184466"/>
<path d="M107.502 230.256C107.502 230.612 107.396 230.96 107.199 231.256C107.001 231.552 106.72 231.783 106.391 231.919C106.062 232.055 105.7 232.091 105.351 232.021C105.002 231.952 104.681 231.781 104.429 231.529C104.177 231.277 104.006 230.956 103.936 230.607C103.867 230.258 103.903 229.896 104.039 229.567C104.175 229.238 104.406 228.957 104.702 228.759C104.998 228.562 105.346 228.456 105.702 228.456C106.179 228.456 106.637 228.646 106.975 228.983C107.312 229.321 107.502 229.779 107.502 230.256Z" fill="#184466"/>
<path d="M102.39 230.256C102.39 230.612 102.284 230.96 102.086 231.256C101.888 231.552 101.607 231.783 101.278 231.919C100.949 232.055 100.588 232.091 100.238 232.021C99.8892 231.952 99.5685 231.781 99.3168 231.529C99.065 231.277 98.8936 230.956 98.8241 230.607C98.7547 230.258 98.7903 229.896 98.9266 229.567C99.0628 229.238 99.2935 228.957 99.5895 228.759C99.8855 228.562 100.234 228.456 100.59 228.456C101.067 228.456 101.525 228.646 101.862 228.983C102.2 229.321 102.39 229.779 102.39 230.256Z" fill="#184466"/>
<path d="M115.932 249.54C116.919 249.54 117.72 248.74 117.72 247.752C117.72 246.765 116.919 245.964 115.932 245.964C114.944 245.964 114.144 246.765 114.144 247.752C114.144 248.74 114.944 249.54 115.932 249.54Z" fill="#184466"/>
<path d="M110.82 249.54C111.807 249.54 112.608 248.74 112.608 247.752C112.608 246.765 111.807 245.964 110.82 245.964C109.832 245.964 109.032 246.765 109.032 247.752C109.032 248.74 109.832 249.54 110.82 249.54Z" fill="#184466"/>
<path d="M105.714 249.54C106.701 249.54 107.502 248.74 107.502 247.752C107.502 246.765 106.701 245.964 105.714 245.964C104.726 245.964 103.926 246.765 103.926 247.752C103.926 248.74 104.726 249.54 105.714 249.54Z" fill="#184466"/>
<path opacity="0.4" d="M105.714 249.54C106.701 249.54 107.502 248.74 107.502 247.752C107.502 246.765 106.701 245.964 105.714 245.964C104.726 245.964 103.926 246.765 103.926 247.752C103.926 248.74 104.726 249.54 105.714 249.54Z" fill="white"/>
<path d="M102.39 247.752C102.39 248.108 102.284 248.456 102.086 248.752C101.888 249.048 101.607 249.279 101.278 249.415C100.949 249.551 100.588 249.587 100.238 249.518C99.8892 249.448 99.5685 249.277 99.3168 249.025C99.065 248.773 98.8936 248.452 98.8241 248.103C98.7547 247.754 98.7903 247.392 98.9266 247.063C99.0628 246.734 99.2935 246.453 99.5895 246.255C99.8855 246.058 100.234 245.952 100.59 245.952C101.067 245.952 101.525 246.142 101.862 246.479C102.2 246.817 102.39 247.275 102.39 247.752Z" fill="#184466"/>
<path d="M95.2437 125.274C95.2437 126.041 95.0162 126.79 94.59 127.428C94.1639 128.066 93.5582 128.562 92.8496 128.855C92.141 129.149 91.3614 129.225 90.6093 129.075C89.8573 128.925 89.1667 128.555 88.6248 128.013C88.083 127.47 87.7143 126.779 87.5654 126.026C87.4166 125.274 87.4942 124.495 87.7885 123.787C88.0828 123.078 88.5805 122.473 89.2187 122.048C89.8569 121.623 90.6068 121.397 91.3737 121.398C92.4006 121.4 93.385 121.809 94.1106 122.535C94.8362 123.262 95.2437 124.247 95.2437 125.274Z" fill="#184466"/>
<path opacity="0.4" d="M95.2437 125.274C95.2437 126.041 95.0162 126.79 94.59 127.428C94.1639 128.066 93.5582 128.562 92.8496 128.855C92.141 129.149 91.3614 129.225 90.6093 129.075C89.8573 128.925 89.1667 128.555 88.6248 128.013C88.083 127.47 87.7143 126.779 87.5654 126.026C87.4166 125.274 87.4942 124.495 87.7885 123.787C88.0828 123.078 88.5805 122.473 89.2187 122.048C89.8569 121.623 90.6068 121.397 91.3737 121.398C92.4006 121.4 93.385 121.809 94.1106 122.535C94.8362 123.262 95.2437 124.247 95.2437 125.274Z" fill="white"/>
<path d="M95.2437 142.8C95.2437 143.567 95.0162 144.317 94.59 144.954C94.1639 145.592 93.5582 146.089 92.8496 146.382C92.141 146.675 91.3614 146.751 90.6093 146.601C89.8573 146.451 89.1667 146.082 88.6248 145.539C88.083 144.996 87.7143 144.305 87.5654 143.553C87.4166 142.801 87.4942 142.021 87.7885 141.313C88.0828 140.605 88.5805 140 89.2187 139.575C89.8569 139.149 90.6068 138.923 91.3737 138.924C92.4006 138.926 93.385 139.335 94.1106 140.062C94.8362 140.788 95.2437 141.773 95.2437 142.8Z" fill="#184466"/>
<path opacity="0.4" d="M95.2437 142.8C95.2437 143.567 95.0162 144.317 94.59 144.954C94.1639 145.592 93.5582 146.089 92.8496 146.382C92.141 146.675 91.3614 146.751 90.6093 146.601C89.8573 146.451 89.1667 146.082 88.6248 145.539C88.083 144.996 87.7143 144.305 87.5654 143.553C87.4166 142.801 87.4942 142.021 87.7885 141.313C88.0828 140.605 88.5805 140 89.2187 139.575C89.8569 139.149 90.6068 138.923 91.3737 138.924C92.4006 138.926 93.385 139.335 94.1106 140.062C94.8362 140.788 95.2437 141.773 95.2437 142.8Z" fill="white"/>
<path d="M86.4839 160.266C86.4839 161.033 86.2565 161.783 85.8303 162.42C85.4041 163.058 84.7984 163.555 84.0898 163.848C83.3812 164.141 82.6016 164.217 81.8496 164.067C81.0975 163.917 80.4069 163.547 79.8651 163.005C79.3232 162.462 78.9546 161.771 78.8057 161.019C78.6568 160.266 78.7344 159.487 79.0287 158.779C79.323 158.071 79.8207 157.466 80.4589 157.04C81.0971 156.615 81.8471 156.389 82.6139 156.39C83.6409 156.392 84.6252 156.801 85.3508 157.528C86.0764 158.254 86.4839 159.239 86.4839 160.266Z" fill="#184466"/>
<path opacity="0.4" d="M86.4839 160.266C86.4839 161.033 86.2565 161.783 85.8303 162.42C85.4041 163.058 84.7984 163.555 84.0898 163.848C83.3812 164.141 82.6016 164.217 81.8496 164.067C81.0975 163.917 80.4069 163.547 79.8651 163.005C79.3232 162.462 78.9546 161.771 78.8057 161.019C78.6568 160.266 78.7344 159.487 79.0287 158.779C79.323 158.071 79.8207 157.466 80.4589 157.04C81.0971 156.615 81.8471 156.389 82.6139 156.39C83.6409 156.392 84.6252 156.801 85.3508 157.528C86.0764 158.254 86.4839 159.239 86.4839 160.266Z" fill="white"/>
<path d="M95.2437 177.762C95.2437 178.529 95.0162 179.279 94.59 179.916C94.1639 180.554 93.5582 181.051 92.8496 181.344C92.141 181.637 91.3614 181.713 90.6093 181.563C89.8573 181.413 89.1667 181.044 88.6248 180.501C88.083 179.958 87.7143 179.267 87.5654 178.515C87.4166 177.762 87.4942 176.983 87.7885 176.275C88.0828 175.567 88.5805 174.962 89.2187 174.537C89.8569 174.111 90.6068 173.885 91.3737 173.886C92.4006 173.888 93.385 174.297 94.1106 175.024C94.8362 175.75 95.2437 176.735 95.2437 177.762Z" fill="#184466"/>
<path opacity="0.4" d="M95.2437 177.762C95.2437 178.529 95.0162 179.279 94.59 179.916C94.1639 180.554 93.5582 181.051 92.8496 181.344C92.141 181.637 91.3614 181.713 90.6093 181.563C89.8573 181.413 89.1667 181.044 88.6248 180.501C88.083 179.958 87.7143 179.267 87.5654 178.515C87.4166 177.762 87.4942 176.983 87.7885 176.275C88.0828 175.567 88.5805 174.962 89.2187 174.537C89.8569 174.111 90.6068 173.885 91.3737 173.886C92.4006 173.888 93.385 174.297 94.1106 175.024C94.8362 175.75 95.2437 176.735 95.2437 177.762Z" fill="white"/>
<path d="M95.2437 195.258C95.2449 196.025 95.0184 196.775 94.593 197.414C94.1675 198.052 93.5622 198.55 92.8537 198.844C92.1453 199.138 91.3654 199.215 90.613 199.066C89.8606 198.917 89.1694 198.547 88.627 198.005C88.0845 197.462 87.7153 196.771 87.5659 196.019C87.4165 195.266 87.4938 194.487 87.7879 193.778C88.082 193.07 88.5797 192.464 89.218 192.039C89.8564 191.613 90.6066 191.387 91.3737 191.388C92.3996 191.39 93.383 191.798 94.1084 192.523C94.8339 193.249 95.2421 194.232 95.2437 195.258Z" fill="#184466"/>
<path opacity="0.4" d="M95.2437 195.258C95.2449 196.025 95.0184 196.775 94.593 197.414C94.1675 198.052 93.5622 198.55 92.8537 198.844C92.1453 199.138 91.3654 199.215 90.613 199.066C89.8606 198.917 89.1694 198.547 88.627 198.005C88.0845 197.462 87.7153 196.771 87.5659 196.019C87.4165 195.266 87.4938 194.487 87.7879 193.778C88.082 193.07 88.5797 192.464 89.218 192.039C89.8564 191.613 90.6066 191.387 91.3737 191.388C92.3996 191.39 93.383 191.798 94.1084 192.523C94.8339 193.249 95.2421 194.232 95.2437 195.258Z" fill="white"/>
<path d="M95.2437 212.754C95.2449 213.521 95.0184 214.272 94.593 214.91C94.1675 215.548 93.5622 216.046 92.8537 216.34C92.1453 216.634 91.3654 216.711 90.613 216.562C89.8606 216.413 89.1694 216.043 88.627 215.501C88.0845 214.959 87.7153 214.267 87.5659 213.515C87.4165 212.763 87.4938 211.983 87.7879 211.274C88.082 210.566 88.5797 209.96 89.218 209.535C89.8564 209.11 90.6066 208.883 91.3737 208.884C92.3996 208.886 93.383 209.294 94.1084 210.02C94.8339 210.745 95.2421 211.728 95.2437 212.754Z" fill="#184466"/>
<path opacity="0.4" d="M95.2437 212.754C95.2449 213.521 95.0184 214.272 94.593 214.91C94.1675 215.548 93.5622 216.046 92.8537 216.34C92.1453 216.634 91.3654 216.711 90.613 216.562C89.8606 216.413 89.1694 216.043 88.627 215.501C88.0845 214.959 87.7153 214.267 87.5659 213.515C87.4165 212.763 87.4938 211.983 87.7879 211.274C88.082 210.566 88.5797 209.96 89.218 209.535C89.8564 209.11 90.6066 208.883 91.3737 208.884C92.3996 208.886 93.383 209.294 94.1084 210.02C94.8339 210.745 95.2421 211.728 95.2437 212.754Z" fill="white"/>
<path d="M95.2437 230.256C95.2437 231.023 95.0162 231.773 94.5901 232.41C94.1639 233.048 93.5582 233.545 92.8496 233.838C92.141 234.131 91.3614 234.207 90.6093 234.057C89.8573 233.907 89.1667 233.538 88.6248 232.995C88.083 232.452 87.7143 231.761 87.5654 231.009C87.4166 230.257 87.4942 229.477 87.7885 228.769C88.0828 228.061 88.5805 227.456 89.2187 227.031C89.8569 226.606 90.6068 226.379 91.3737 226.38C91.8824 226.38 92.3862 226.481 92.8561 226.676C93.326 226.87 93.7529 227.156 94.1123 227.516C94.4718 227.876 94.7567 228.303 94.9508 228.774C95.145 229.244 95.2445 229.748 95.2437 230.256Z" fill="#184466"/>
<path opacity="0.4" d="M95.2437 230.256C95.2437 231.023 95.0162 231.773 94.5901 232.41C94.1639 233.048 93.5582 233.545 92.8496 233.838C92.141 234.131 91.3614 234.207 90.6093 234.057C89.8573 233.907 89.1667 233.538 88.6248 232.995C88.083 232.452 87.7143 231.761 87.5654 231.009C87.4166 230.257 87.4942 229.477 87.7885 228.769C88.0828 228.061 88.5805 227.456 89.2187 227.031C89.8569 226.606 90.6068 226.379 91.3737 226.38C91.8824 226.38 92.3862 226.481 92.8561 226.676C93.326 226.87 93.7529 227.156 94.1123 227.516C94.4718 227.876 94.7567 228.303 94.9508 228.774C95.145 229.244 95.2445 229.748 95.2437 230.256Z" fill="white"/>
<path d="M95.2437 247.752C95.2437 248.519 95.0162 249.268 94.5901 249.906C94.1639 250.544 93.5582 251.04 92.8496 251.334C92.141 251.627 91.3614 251.703 90.6093 251.553C89.8573 251.403 89.1667 251.033 88.6248 250.491C88.083 249.948 87.7143 249.257 87.5654 248.504C87.4166 247.752 87.4942 246.973 87.7885 246.265C88.0828 245.556 88.5805 244.951 89.2187 244.526C89.8569 244.101 90.6068 243.875 91.3737 243.876C91.8824 243.876 92.3862 243.976 92.8561 244.171C93.326 244.366 93.7529 244.652 94.1123 245.012C94.4718 245.372 94.7567 245.799 94.9508 246.269C95.145 246.739 95.2445 247.243 95.2437 247.752Z" fill="#184466"/>
<path opacity="0.4" d="M95.2437 247.752C95.2437 248.519 95.0162 249.268 94.5901 249.906C94.1639 250.544 93.5582 251.04 92.8496 251.334C92.141 251.627 91.3614 251.703 90.6093 251.553C89.8573 251.403 89.1667 251.033 88.6248 250.491C88.083 249.948 87.7143 249.257 87.5654 248.504C87.4166 247.752 87.4942 246.973 87.7885 246.265C88.0828 245.556 88.5805 244.951 89.2187 244.526C89.8569 244.101 90.6068 243.875 91.3737 243.876C91.8824 243.876 92.3862 243.976 92.8561 244.171C93.326 244.366 93.7529 244.652 94.1123 245.012C94.4718 245.372 94.7567 245.799 94.9508 246.269C95.145 246.739 95.2445 247.243 95.2437 247.752Z" fill="white"/>
<path d="M148.53 102.288C148.271 100.842 147.696 99.4717 146.847 98.2738C145.998 97.0758 144.894 96.0802 143.616 95.3579C143.616 95.2799 143.616 95.2019 143.616 95.1239C143.616 92.468 142.561 89.9209 140.683 88.0429C138.805 86.1649 136.258 85.1099 133.602 85.1099H129.762V85.8719C128.494 86.402 127.348 87.1867 126.395 88.1775C125.443 89.1682 124.704 90.3439 124.224 91.6319C123.895 91.5749 123.562 91.5448 123.228 91.5419C122.03 91.5438 120.86 91.9043 119.869 92.5769C118.877 93.2495 118.11 94.2034 117.666 95.3159C116.292 94.983 114.848 95.0901 113.538 95.6219C112.214 96.1367 111.07 97.0272 110.246 98.1839C109.422 99.3405 108.954 100.713 108.9 102.132C108.879 103.086 109.049 104.034 109.4 104.921C109.75 105.809 110.275 106.617 110.942 107.299C111.609 107.981 112.406 108.522 113.286 108.892C114.165 109.262 115.11 109.452 116.064 109.452H143.19C144.622 109.466 146.002 108.916 147.031 107.92C148.059 106.923 148.654 105.562 148.686 104.13V104.07C148.689 103.472 148.637 102.876 148.53 102.288Z" fill="#184466"/>
<path d="M144.696 102.288C144.439 100.845 143.867 99.4749 143.021 98.2771C142.175 97.0793 141.075 96.0828 139.8 95.3585C139.8 95.2805 139.8 95.2025 139.8 95.1245C139.799 92.7769 138.973 90.5044 137.467 88.7037C135.961 86.903 133.87 85.6886 131.56 85.2727C129.25 84.8568 126.867 85.2658 124.827 86.4282C122.788 87.5906 121.221 89.4326 120.402 91.6325C119.052 91.3945 117.662 91.6316 116.467 92.3032C115.273 92.9749 114.348 94.0397 113.85 95.3165C112.476 94.9836 111.032 95.0907 109.722 95.6225C108.398 96.1373 107.254 97.0278 106.43 98.1844C105.606 99.3411 105.138 100.713 105.084 102.132C105.062 103.086 105.231 104.034 105.582 104.921C105.932 105.809 106.455 106.617 107.122 107.299C107.789 107.981 108.585 108.523 109.465 108.893C110.344 109.262 111.288 109.453 112.242 109.452H139.374C140.805 109.465 142.185 108.914 143.213 107.918C144.242 106.923 144.837 105.562 144.87 104.13V104.07C144.867 103.472 144.809 102.876 144.696 102.288Z" fill="#184466"/>
<path opacity="0.3" d="M144.696 102.288C144.439 100.845 143.867 99.4749 143.021 98.2771C142.175 97.0793 141.075 96.0828 139.8 95.3585C139.8 95.2805 139.8 95.2025 139.8 95.1245C139.799 92.7769 138.973 90.5044 137.467 88.7037C135.961 86.903 133.87 85.6886 131.56 85.2727C129.25 84.8568 126.867 85.2658 124.827 86.4282C122.788 87.5906 121.221 89.4326 120.402 91.6325C119.052 91.3945 117.662 91.6316 116.467 92.3032C115.273 92.9749 114.348 94.0397 113.85 95.3165C112.476 94.9836 111.032 95.0907 109.722 95.6225C108.398 96.1373 107.254 97.0278 106.43 98.1844C105.606 99.3411 105.138 100.713 105.084 102.132C105.062 103.086 105.231 104.034 105.582 104.921C105.932 105.809 106.455 106.617 107.122 107.299C107.789 107.981 108.585 108.523 109.465 108.893C110.344 109.262 111.288 109.453 112.242 109.452H139.374C140.805 109.465 142.185 108.914 143.213 107.918C144.242 106.923 144.837 105.562 144.87 104.13V104.07C144.867 103.472 144.809 102.876 144.696 102.288Z" fill="white"/>
<path d="M130.506 78.792H130.002V80.298H130.506V78.792Z" fill="#184466"/>
<path opacity="0.2" d="M130.506 78.792H130.002V80.298H130.506V78.792Z" fill="black"/>
<path d="M227.028 113.004H226.524V110.004H227.028V113.004ZM227.028 107.004H226.524V104.004H227.028V107.004ZM227.028 101.004H226.524V98.0041H227.028V101.004ZM227.028 95.0041H226.524V92.0041H227.028V95.0041ZM227.028 89.0041H226.524V86.0041H227.028V89.0041ZM227.028 83.0041H226.524V80.0041H227.028V83.0041ZM227.028 77.0041H226.524V74.0041H227.028V77.0041ZM130.506 75.7561H130.002V73.7341C130.002 73.4133 130.02 73.0928 130.056 72.7741L130.554 72.8341C130.523 73.1331 130.507 73.4335 130.506 73.7341V75.7561ZM226.086 71.1481C225.763 70.2345 225.268 69.3912 224.628 68.6641L225 68.4001C225.685 69.1757 226.215 70.0761 226.56 71.0521L226.086 71.1481ZM131.43 70.0861L130.992 69.8461C131.485 68.9289 132.149 68.1143 132.948 67.4461L133.272 67.8361C132.518 68.4595 131.892 69.2237 131.43 70.0861ZM222.342 66.9421C221.487 66.5055 220.556 66.2386 219.6 66.1561L219.642 65.6521C220.673 65.7396 221.677 66.0248 222.6 66.4921L222.342 66.9421ZM135.798 66.4801L135.648 66.0061C136.445 65.7517 137.277 65.6222 138.114 65.6221H138.684V66.1261H138.114C137.328 66.1255 136.547 66.2449 135.798 66.4801ZM216.6 66.1261H213.6V65.6221H216.6V66.1261ZM210.6 66.1261H207.6V65.6221H210.6V66.1261ZM204.6 66.1261H201.6V65.6221H204.6V66.1261ZM198.6 66.1261H195.6V65.6221H198.6V66.1261ZM192.6 66.1261H189.6V65.6221H192.6V66.1261ZM186.6 66.1261H183.6V65.6221H186.6V66.1261ZM180.6 66.1261H177.6V65.6221H180.6V66.1261ZM174.6 66.1261H171.6V65.6221H174.6V66.1261ZM168.6 66.1261H165.6V65.6221H168.6V66.1261ZM162.6 66.1261H159.6V65.6221H162.6V66.1261ZM156.6 66.1261H153.6V65.6221H156.6V66.1261ZM150.6 66.1261H147.6V65.6221H150.6V66.1261ZM144.6 66.1261H141.6V65.6221H144.6V66.1261Z" fill="#184466"/>
<path opacity="0.2" d="M227.028 113.004H226.524V110.004H227.028V113.004ZM227.028 107.004H226.524V104.004H227.028V107.004ZM227.028 101.004H226.524V98.0041H227.028V101.004ZM227.028 95.0041H226.524V92.0041H227.028V95.0041ZM227.028 89.0041H226.524V86.0041H227.028V89.0041ZM227.028 83.0041H226.524V80.0041H227.028V83.0041ZM227.028 77.0041H226.524V74.0041H227.028V77.0041ZM130.506 75.7561H130.002V73.7341C130.002 73.4133 130.02 73.0928 130.056 72.7741L130.554 72.8341C130.523 73.1331 130.507 73.4335 130.506 73.7341V75.7561ZM226.086 71.1481C225.763 70.2345 225.268 69.3912 224.628 68.6641L225 68.4001C225.685 69.1757 226.215 70.0761 226.56 71.0521L226.086 71.1481ZM131.43 70.0861L130.992 69.8461C131.485 68.9289 132.149 68.1143 132.948 67.4461L133.272 67.8361C132.518 68.4595 131.892 69.2237 131.43 70.0861ZM222.342 66.9421C221.487 66.5055 220.556 66.2386 219.6 66.1561L219.642 65.6521C220.673 65.7396 221.677 66.0248 222.6 66.4921L222.342 66.9421ZM135.798 66.4801L135.648 66.0061C136.445 65.7517 137.277 65.6222 138.114 65.6221H138.684V66.1261H138.114C137.328 66.1255 136.547 66.2449 135.798 66.4801ZM216.6 66.1261H213.6V65.6221H216.6V66.1261ZM210.6 66.1261H207.6V65.6221H210.6V66.1261ZM204.6 66.1261H201.6V65.6221H204.6V66.1261ZM198.6 66.1261H195.6V65.6221H198.6V66.1261ZM192.6 66.1261H189.6V65.6221H192.6V66.1261ZM186.6 66.1261H183.6V65.6221H186.6V66.1261ZM180.6 66.1261H177.6V65.6221H180.6V66.1261ZM174.6 66.1261H171.6V65.6221H174.6V66.1261ZM168.6 66.1261H165.6V65.6221H168.6V66.1261ZM162.6 66.1261H159.6V65.6221H162.6V66.1261ZM156.6 66.1261H153.6V65.6221H156.6V66.1261ZM150.6 66.1261H147.6V65.6221H150.6V66.1261ZM144.6 66.1261H141.6V65.6221H144.6V66.1261Z" fill="black"/>
<path d="M227.028 116.016H226.524V117.522H227.028V116.016Z" fill="#184466"/>
<path opacity="0.2" d="M227.028 116.016H226.524V117.522H227.028V116.016Z" fill="black"/>
<path d="M250.243 265.967L203.361 265.751C200.654 265.736 198.063 264.647 196.158 262.724C194.253 260.8 193.189 258.199 193.2 255.491L193.698 137.966C193.703 136.624 193.973 135.297 194.492 134.06C195.011 132.823 195.768 131.701 196.721 130.757C197.674 129.812 198.803 129.065 200.045 128.558C201.287 128.051 202.616 127.793 203.957 127.8L250.834 128.016C253.542 128.029 256.133 129.117 258.039 131.04C259.945 132.963 261.01 135.563 261 138.271L260.503 255.792C260.497 257.134 260.227 258.461 259.709 259.699C259.19 260.936 258.433 262.059 257.48 263.004C256.528 263.949 255.398 264.697 254.156 265.205C252.915 265.714 251.585 265.972 250.243 265.967Z" fill="#455A64"/>
<path d="M250.764 132.057H241.678C241.381 132.062 241.089 132.126 240.817 132.245C240.545 132.363 240.299 132.534 240.094 132.748C239.888 132.961 239.726 133.213 239.618 133.489C239.51 133.765 239.457 134.06 239.462 134.356V136.004C239.468 136.3 239.415 136.594 239.307 136.87C239.198 137.146 239.037 137.398 238.831 137.611C238.625 137.824 238.379 137.995 238.108 138.113C237.836 138.231 237.543 138.294 237.247 138.299L219.535 138.219C218.935 138.203 218.367 137.95 217.954 137.515C217.542 137.08 217.318 136.5 217.333 135.901V134.253C217.349 133.655 217.126 133.075 216.714 132.64C216.302 132.206 215.735 131.952 215.137 131.935H211.941L203.986 131.897C202.093 131.886 200.274 132.625 198.925 133.952C197.577 135.28 196.809 137.087 196.791 138.979L196.321 253.694C196.317 254.632 196.498 255.563 196.853 256.432C197.208 257.3 197.731 258.091 198.392 258.758C199.052 259.424 199.838 259.955 200.704 260.318C201.569 260.681 202.498 260.87 203.436 260.874L250.22 261.09C251.159 261.095 252.09 260.914 252.959 260.559C253.829 260.203 254.62 259.68 255.287 259.019C255.954 258.358 256.485 257.571 256.848 256.705C257.211 255.839 257.401 254.91 257.405 253.971L257.874 139.256C257.886 137.359 257.143 135.535 255.81 134.184C254.476 132.834 252.661 132.069 250.764 132.057Z" fill="white"/>
<path d="M244.47 245.786L209.683 245.635C209.322 245.635 209.031 245.241 209.036 244.762L209.073 235.662C209.073 235.193 209.369 234.789 209.73 234.789L244.517 234.949C244.718 234.983 244.897 235.094 245.017 235.257C245.138 235.421 245.191 235.625 245.165 235.826L245.132 244.917C245.132 245.401 244.832 245.79 244.47 245.786Z" fill="#184466"/>
<path d="M216.622 165.778L204.551 165.724L204.541 167.939L216.612 167.994L216.622 165.778Z" fill="#184466"/>
<path opacity="0.1" d="M216.622 165.778L204.551 165.724L204.541 167.939L216.612 167.994L216.622 165.778Z" fill="black"/>
<path d="M252.008 179.38C252.103 179.37 252.196 179.348 252.285 179.314C252.415 179.263 252.527 179.177 252.611 179.065C252.694 178.953 252.743 178.819 252.754 178.68C252.754 177.934 252.754 176.845 252.754 175.447C252.754 174.747 252.754 173.963 252.754 173.1C252.754 172.889 252.754 172.668 252.754 172.448C252.785 172.233 252.738 172.016 252.623 171.833C252.558 171.745 252.474 171.674 252.377 171.624C252.28 171.574 252.173 171.548 252.064 171.546H251.332H244.55L205.295 171.401C205.195 171.399 205.095 171.422 205.005 171.467C204.915 171.512 204.838 171.578 204.779 171.659C204.665 171.843 204.622 172.061 204.657 172.274C204.657 172.743 204.657 173.213 204.657 173.682C204.657 174.621 204.657 175.559 204.657 176.498C204.657 176.967 204.657 177.437 204.657 177.906C204.637 178.124 204.637 178.344 204.657 178.563C204.681 178.657 204.727 178.743 204.791 178.817C204.854 178.89 204.934 178.948 205.023 178.985C205.115 179.022 205.214 179.04 205.314 179.037H207.703L218.127 179.093L235.774 179.201L247.671 179.295L250.905 179.333H251.745C251.937 179.333 252.031 179.333 252.031 179.333H251.745H250.905H247.671H235.774L218.127 179.276L207.703 179.234H205.314C205.182 179.239 205.051 179.217 204.929 179.168C204.805 179.116 204.695 179.035 204.608 178.934C204.52 178.832 204.456 178.712 204.422 178.582C204.395 178.459 204.385 178.332 204.394 178.206V177.859C204.394 177.39 204.394 176.92 204.394 176.451C204.394 175.512 204.394 174.574 204.394 173.635C204.394 173.166 204.394 172.696 204.394 172.227C204.385 172.102 204.385 171.976 204.394 171.851C204.412 171.713 204.465 171.582 204.549 171.471C204.63 171.358 204.737 171.266 204.861 171.203C204.985 171.14 205.123 171.108 205.262 171.11L244.517 171.326L251.299 171.373H252.031C252.16 171.373 252.287 171.404 252.402 171.464C252.516 171.523 252.614 171.61 252.688 171.715C252.821 171.919 252.874 172.165 252.838 172.405C252.838 172.626 252.838 172.846 252.838 173.058C252.838 173.912 252.838 174.696 252.838 175.404C252.838 176.812 252.806 177.892 252.796 178.643C252.785 178.787 252.732 178.925 252.645 179.041C252.558 179.156 252.439 179.245 252.303 179.295C252.215 179.35 252.112 179.379 252.008 179.38Z" fill="#E0E0E0"/>
<path d="M230.254 173.757H208.177V175.827H230.254V173.757Z" fill="#184466"/>
<path opacity="0.2" d="M230.254 173.757H208.177V175.827H230.254V173.757Z" fill="white"/>
<path d="M216.539 185.987L204.468 185.933L204.458 188.148L216.529 188.203L216.539 185.987Z" fill="#184466"/>
<path opacity="0.1" d="M216.539 185.987L204.468 185.933L204.458 188.148L216.529 188.203L216.539 185.987Z" fill="black"/>
<path d="M251.702 199.589C251.797 199.577 251.891 199.56 251.984 199.538C252.115 199.496 252.236 199.426 252.338 199.334C252.44 199.242 252.521 199.129 252.575 199.002C252.649 198.813 252.678 198.609 252.66 198.406C252.66 198.181 252.66 197.937 252.66 197.665C252.66 197.12 252.66 196.501 252.66 195.788V192.807C252.682 192.591 252.635 192.374 252.524 192.188C252.408 191.996 252.226 191.854 252.012 191.789C251.778 191.747 251.54 191.734 251.304 191.751H244.55L205.431 191.606C205.22 191.606 205.017 191.683 204.859 191.822C204.701 191.961 204.599 192.153 204.572 192.361C204.572 192.807 204.572 193.3 204.572 193.769C204.572 194.708 204.572 195.647 204.572 196.585C204.572 197.055 204.572 197.524 204.572 197.993C204.555 198.213 204.564 198.433 204.6 198.65C204.659 198.841 204.779 199.006 204.943 199.12C205.116 199.23 205.32 199.282 205.525 199.27H206.177H207.534L217.92 199.322L235.506 199.43L247.361 199.523L250.585 199.561H251.426H251.707H251.426H250.585H247.361H235.506L217.91 199.542L207.524 199.505H205.483C205.229 199.52 204.977 199.452 204.764 199.312C204.551 199.164 204.395 198.947 204.323 198.697C204.281 198.459 204.269 198.216 204.286 197.975C204.286 197.505 204.286 197.036 204.286 196.567C204.286 195.628 204.286 194.689 204.286 193.751C204.286 193.281 204.286 192.812 204.286 192.343C204.32 192.074 204.451 191.828 204.654 191.649C204.857 191.47 205.118 191.371 205.389 191.371L244.508 191.587L251.261 191.639C251.513 191.623 251.765 191.641 252.012 191.69C252.256 191.77 252.462 191.937 252.589 192.16C252.711 192.366 252.763 192.606 252.74 192.845C252.74 193.065 252.74 193.281 252.74 193.497C252.74 194.347 252.74 195.126 252.74 195.844C252.74 196.562 252.74 197.167 252.74 197.721C252.74 197.989 252.74 198.237 252.74 198.467C252.757 198.677 252.723 198.888 252.641 199.082C252.58 199.212 252.492 199.327 252.383 199.419C252.273 199.511 252.145 199.579 252.008 199.617C251.905 199.626 251.802 199.616 251.702 199.589Z" fill="#E0E0E0"/>
<path d="M216.449 207.074L204.377 207.019L204.367 209.234L216.439 209.289L216.449 207.074Z" fill="#184466"/>
<path opacity="0.1" d="M216.449 207.074L204.377 207.019L204.367 209.234L216.439 209.289L216.449 207.074Z" fill="black"/>
<path d="M251.609 220.667C251.704 220.656 251.798 220.638 251.891 220.615C252.021 220.574 252.141 220.505 252.243 220.413C252.345 220.322 252.426 220.21 252.482 220.085C252.555 219.895 252.584 219.691 252.566 219.489C252.566 219.259 252.566 219.019 252.566 218.742C252.566 218.203 252.566 217.579 252.566 216.865V213.885C252.589 213.669 252.541 213.452 252.43 213.265C252.312 213.078 252.13 212.938 251.919 212.871C251.685 212.828 251.447 212.814 251.21 212.829H244.456L205.337 212.683C205.127 212.684 204.924 212.761 204.766 212.9C204.608 213.039 204.506 213.23 204.479 213.439C204.479 213.908 204.479 214.378 204.479 214.847C204.479 215.786 204.479 216.724 204.479 217.663C204.479 218.132 204.479 218.602 204.479 219.071C204.461 219.289 204.47 219.508 204.507 219.723C204.563 219.915 204.684 220.081 204.849 220.193C205.022 220.305 205.226 220.358 205.431 220.343H207.473L217.859 220.399L235.445 220.507L247.3 220.601L250.525 220.639H251.365C251.553 220.639 251.646 220.639 251.646 220.639C251.646 220.639 251.553 220.639 251.365 220.639H250.525H247.3H235.445L217.859 220.587L207.473 220.545H205.431C205.177 220.562 204.925 220.494 204.713 220.352C204.5 220.204 204.344 219.987 204.272 219.737C204.23 219.499 204.217 219.256 204.234 219.015C204.234 218.545 204.234 218.076 204.234 217.607C204.234 216.668 204.234 215.729 204.234 214.791C204.234 214.321 204.234 213.852 204.234 213.359C204.268 213.091 204.398 212.845 204.6 212.666C204.802 212.487 205.063 212.388 205.333 212.388L244.452 212.604L251.205 212.655C251.457 212.64 251.709 212.657 251.956 212.707C252.2 212.787 252.406 212.954 252.533 213.176C252.655 213.383 252.708 213.623 252.684 213.861C252.684 214.082 252.684 214.303 252.684 214.514C252.684 215.363 252.684 216.142 252.684 216.86C252.684 217.579 252.684 218.184 252.684 218.738C252.684 219.005 252.684 219.254 252.684 219.484C252.702 219.694 252.668 219.905 252.585 220.099C252.524 220.228 252.436 220.343 252.327 220.436C252.217 220.528 252.089 220.596 251.952 220.634C251.841 220.672 251.724 220.683 251.609 220.667Z" fill="#E0E0E0"/>
<path d="M229.783 194.552L207.706 194.452L207.696 196.521L229.773 196.622L229.783 194.552Z" fill="#184466"/>
<path opacity="0.2" d="M229.783 194.552L207.706 194.452L207.696 196.521L229.773 196.622L229.783 194.552Z" fill="white"/>
<path d="M229.381 149.192C229.707 149.049 229.984 148.812 230.177 148.513C230.369 148.213 230.47 147.864 230.465 147.507C230.477 147.276 230.442 147.044 230.362 146.827C230.282 146.609 230.158 146.41 229.999 146.242C229.839 146.074 229.647 145.94 229.434 145.848C229.221 145.757 228.991 145.709 228.759 145.709C228.527 145.709 228.298 145.757 228.085 145.848C227.872 145.94 227.68 146.074 227.52 146.242C227.36 146.41 227.237 146.609 227.156 146.827C227.076 147.044 227.041 147.276 227.053 147.507C227.046 147.867 227.146 148.221 227.339 148.524C227.533 148.827 227.813 149.066 228.142 149.211C225.514 149.605 225.631 152.459 225.631 152.459L231.845 152.487C231.845 152.487 231.991 149.582 229.381 149.192Z" fill="#184466"/>
<path opacity="0.1" d="M229.381 149.192C229.707 149.049 229.984 148.812 230.177 148.513C230.369 148.213 230.47 147.864 230.465 147.507C230.477 147.276 230.442 147.044 230.362 146.827C230.282 146.609 230.158 146.41 229.999 146.242C229.839 146.074 229.647 145.94 229.434 145.848C229.221 145.757 228.991 145.709 228.759 145.709C228.527 145.709 228.298 145.757 228.085 145.848C227.872 145.94 227.68 146.074 227.52 146.242C227.36 146.41 227.237 146.609 227.156 146.827C227.076 147.044 227.041 147.276 227.053 147.507C227.046 147.867 227.146 148.221 227.339 148.524C227.533 148.827 227.813 149.066 228.142 149.211C225.514 149.605 225.631 152.459 225.631 152.459L231.845 152.487C231.845 152.487 231.991 149.582 229.381 149.192Z" fill="black"/>
<path d="M239.479 154.328L217.331 154.227L217.319 156.874L239.467 156.975L239.479 154.328Z" fill="#184466"/>
<path opacity="0.2" d="M239.479 154.328L217.331 154.227L217.319 156.874L239.467 156.975L239.479 154.328Z" fill="white"/>
</svg>
