<svg width="26" height="26" viewBox="0 0 26 26" fill="none" xmlns="http://www.w3.org/2000/svg">
<path d="M13.1667 1.16666C6.54269 1.16666 1.16669 6.54266 1.16669 13.1667C1.16669 19.7907 6.54269 25.1667 13.1667 25.1667C19.7907 25.1667 25.1667 19.7907 25.1667 13.1667C25.1667 6.54266 19.7907 1.16666 13.1667 1.16666ZM14.3667 21.5667H11.9667V19.1667H14.3667V21.5667ZM16.8507 12.2667L15.7707 13.3707C14.9067 14.2467 14.3667 14.9667 14.3667 16.7667H11.9667V16.1667C11.9667 14.8467 12.5067 13.6467 13.3707 12.7707L14.8587 11.2587C15.3027 10.8267 15.5667 10.2267 15.5667 9.56666C15.5667 8.24666 14.4867 7.16666 13.1667 7.16666C11.8467 7.16666 10.7667 8.24666 10.7667 9.56666H8.36669C8.36669 6.91466 10.5147 4.76666 13.1667 4.76666C15.8187 4.76666 17.9667 6.91466 17.9667 9.56666C17.9667 10.6227 17.5347 11.5827 16.8507 12.2667Z" fill="#3D3C3C"/>
</svg>
