<svg width="360" height="265" viewBox="0 0 360 265" fill="none" xmlns="http://www.w3.org/2000/svg">
<g clip-path="url(#clip0)">
<rect width="360" height="265" fill="white"/>
<g opacity="0.14" clip-path="url(#clip1)">
<path d="M40.9169 293.43H39.8136C39.8136 279.661 34.3503 266.457 24.6256 256.722C14.9009 246.986 1.71131 241.517 -12.0415 241.517C-25.7944 241.517 -38.9839 246.986 -48.7086 256.722C-58.4334 266.457 -63.8966 279.661 -63.8966 293.43H-64.9999C-64.9999 279.369 -59.4204 265.883 -49.4888 255.941C-39.5572 245.998 -26.087 240.412 -12.0415 240.412C2.00392 240.412 15.4741 245.998 25.4057 255.941C35.3374 265.883 40.9169 279.369 40.9169 293.43V293.43Z" fill="#3F3D56"/>
<path d="M424.865 293.43H423.762C423.762 279.661 418.299 266.457 408.574 256.722C398.849 246.986 385.66 241.517 371.907 241.517C358.154 241.517 344.965 246.986 335.24 256.722C325.515 266.457 320.052 279.661 320.052 293.43H318.949C318.949 279.369 324.528 265.883 334.46 255.941C344.391 245.998 357.862 240.412 371.907 240.412C385.952 240.412 399.423 245.998 409.354 255.941C419.286 265.883 424.865 279.369 424.865 293.43V293.43Z" fill="#3F3D56"/>
<path d="M295.228 166.961H294.124C294.124 114.584 251.559 71.972 199.24 71.972C146.921 71.972 104.357 114.584 104.357 166.961H103.253C103.253 113.975 146.313 70.8675 199.24 70.8675C252.168 70.8675 295.228 113.975 295.228 166.961Z" fill="#3F3D56"/>
<path d="M15.2651 73.6288C27.2995 73.6288 37.0553 63.8622 37.0553 51.8144C37.0553 39.7666 27.2995 30 15.2651 30C3.23073 30 -6.52507 39.7666 -6.52507 51.8144C-6.52507 63.8622 3.23073 73.6288 15.2651 73.6288Z" fill="#FF6584"/>
<path d="M19.894 201.966L57.3295 157.334H130.93L175.908 201.192L175 201.777H175.324V293.003H19.9453V201.777L19.894 201.966Z" fill="#3F3D56"/>
<path d="M42.4169 182.562H50.9029L50.9029 153.155H42.4169V182.562Z" fill="#3F3D56"/>
<path d="M56.7459 156.749L102.892 210.911V293.003H19.9453V200.607L56.7459 156.749Z" fill="#2C8FEB"/>
<path d="M92.2278 221.66H75.2881V239H92.2278V221.66Z" fill="#3F3D56"/>
<path d="M92.2278 245.254H75.2881V262.594H92.2278V245.254Z" fill="#3F3D56"/>
<path d="M92.2278 221.66H75.2881V239H92.2278V221.66Z" fill="white"/>
<path d="M92.2278 245.254H75.2881V262.594H92.2278V245.254Z" fill="white"/>
<path d="M68.8001 221.66H51.8603V239H68.8001V221.66Z" fill="#3F3D56"/>
<path d="M68.8001 245.254H51.8603V262.594H68.8001V245.254Z" fill="#3F3D56"/>
<path d="M68.8001 221.66H51.8603V239H68.8001V221.66Z" fill="white"/>
<path d="M68.8001 245.254H51.8603V262.594H68.8001V245.254Z" fill="white"/>
<path d="M45.3724 221.66H28.4326V239H45.3724V221.66Z" fill="#3F3D56"/>
<path d="M45.3724 245.254H28.4326V262.594H45.3724V245.254Z" fill="#3F3D56"/>
<path d="M45.3724 221.66H28.4326V239H45.3724V221.66Z" fill="white"/>
<path d="M45.3724 245.254H28.4326V262.594H45.3724V245.254Z" fill="white"/>
<path d="M210.273 52.0905H202.55V71.4197H210.273V52.0905Z" fill="#2C8FEB"/>
<path d="M209.722 69.7629H144.075V293.43H209.722V69.7629Z" fill="#2C8FEB"/>
<path d="M236.201 69.7629H209.722V293.43H236.201V69.7629Z" fill="#3F3D56"/>
<path d="M165.866 89.0922H155.936V99.0329H165.866V89.0922Z" fill="white"/>
<path d="M181.863 89.0922H171.934V99.0329H181.863V89.0922Z" fill="white"/>
<path d="M197.861 89.0922H187.932V99.0329H197.861V89.0922Z" fill="white"/>
<path d="M166.141 111.735H156.212V121.676H166.141V111.735Z" fill="white"/>
<path d="M182.139 111.735H172.21V121.676H182.139V111.735Z" fill="white"/>
<path d="M198.137 111.735H188.207V121.676H198.137V111.735Z" fill="white"/>
<path d="M166.417 134.378H156.488V144.318H166.417V134.378Z" fill="white"/>
<path d="M182.415 134.378H172.485V144.318H182.415V134.378Z" fill="white"/>
<path d="M198.413 134.378H188.483V144.318H198.413V134.378Z" fill="white"/>
<path d="M166.693 157.021H156.763V166.961H166.693V157.021Z" fill="white"/>
<path d="M182.691 157.021H172.761V166.961H182.691V157.021Z" fill="white"/>
<path d="M198.689 157.021H188.759V166.961H198.689V157.021Z" fill="white"/>
<path d="M166.969 179.663H157.039V189.604H166.969V179.663Z" fill="white"/>
<path d="M182.967 179.663H173.037V189.604H182.967V179.663Z" fill="white"/>
<path d="M198.965 179.663H189.035V189.604H198.965V179.663Z" fill="white"/>
<path d="M167.245 202.306H157.315V212.247H167.245V202.306Z" fill="white"/>
<path d="M183.243 202.306H173.313V212.247H183.243V202.306Z" fill="white"/>
<path d="M199.24 202.306H189.311V212.247H199.24V202.306Z" fill="white"/>
<path d="M167.521 224.949H157.591V234.89H167.521V224.949Z" fill="white"/>
<path d="M183.518 224.949H173.589V234.89H183.518V224.949Z" fill="white"/>
<path d="M199.516 224.949H189.587V234.89H199.516V224.949Z" fill="white"/>
<path d="M167.796 247.592H157.867V257.532H167.796V247.592Z" fill="white"/>
<path d="M183.794 247.592H173.865V257.532H183.794V247.592Z" fill="white"/>
<path d="M199.792 247.592H189.862V257.532H199.792V247.592Z" fill="white"/>
<path d="M214.135 52.0905H209.722V70.8675H214.135V52.0905Z" fill="#3F3D56"/>
<path d="M293.021 150.393H285.298V161.849H293.021V150.393Z" fill="#2C8FEB"/>
<path d="M292.469 160.867H226.823V293.43H292.469V160.867Z" fill="#2C8FEB"/>
<path d="M318.949 160.867H292.469V293.43H318.949V160.867Z" fill="#3F3D56"/>
<path d="M249.716 179.663H239.787V189.604H249.716V179.663Z" fill="white"/>
<path d="M265.714 179.663H255.785V189.604H265.714V179.663Z" fill="white"/>
<path d="M281.712 179.663H271.782V189.604H281.712V179.663Z" fill="white"/>
<path d="M249.992 202.306H240.063V212.247H249.992V202.306Z" fill="white"/>
<path d="M265.99 202.306H256.06V212.247H265.99V202.306Z" fill="white"/>
<path d="M281.988 202.306H272.058V212.247H281.988V202.306Z" fill="white"/>
<path d="M250.268 224.949H240.338V234.89H250.268V224.949Z" fill="white"/>
<path d="M266.266 224.949H256.336V234.89H266.266V224.949Z" fill="white"/>
<path d="M282.264 224.949H272.334V234.89H282.264V224.949Z" fill="white"/>
<path d="M250.544 247.592H240.614V257.532H250.544V247.592Z" fill="white"/>
<path d="M266.542 247.592H256.612V257.532H266.542V247.592Z" fill="white"/>
<path d="M282.54 247.592H272.61V257.532H282.54V247.592Z" fill="white"/>
<path d="M296.883 150.393H292.469V161.522H296.883V150.393Z" fill="#3F3D56"/>
<path d="M339.172 267.518C347.106 267.518 353.537 261.079 353.537 253.137C353.537 245.194 347.106 238.756 339.172 238.756C331.238 238.756 324.807 245.194 324.807 253.137C324.807 261.079 331.238 267.518 339.172 267.518Z" fill="#2C8FEB"/>
<path opacity="0.2" d="M349.858 243.531C351.198 246.669 351.379 250.182 350.37 253.441C349.362 256.701 347.228 259.495 344.35 261.325C341.473 263.155 338.039 263.901 334.663 263.429C331.287 262.958 328.188 261.3 325.921 258.752C326.739 260.669 327.964 262.385 329.511 263.781C331.058 265.177 332.89 266.22 334.879 266.837C336.868 267.454 338.968 267.631 341.032 267.355C343.096 267.079 345.076 266.357 346.834 265.24C348.592 264.122 350.086 262.635 351.213 260.881C352.34 259.128 353.072 257.15 353.36 255.085C353.648 253.02 353.483 250.918 352.879 248.923C352.274 246.927 351.243 245.088 349.858 243.531V243.531Z" fill="black"/>
<path d="M339.211 253.137H339.251L339.961 293.91H338.461L339.211 253.137Z" fill="#3F3D56"/>
<path d="M381.406 253.776C393.47 253.776 403.25 243.985 403.25 231.907C403.25 219.829 393.47 210.038 381.406 210.038C369.341 210.038 359.561 219.829 359.561 231.907C359.561 243.985 369.341 253.776 381.406 253.776Z" fill="#2C8FEB"/>
<path d="M269.528 50.6192L274.606 46.553C270.661 46.1172 269.04 48.2712 268.377 49.9761C265.295 48.6949 261.94 50.374 261.94 50.374L272.1 54.0668C271.588 52.6962 270.695 51.5002 269.528 50.6192V50.6192Z" fill="#3F3D56"/>
<path d="M14.6657 71.0529L19.744 66.9867C15.7989 66.551 14.1779 68.705 13.5145 70.4099C10.4325 69.1286 7.07724 70.8077 7.07724 70.8077L17.238 74.5006C16.7254 73.1299 15.8331 71.9339 14.6657 71.0529V71.0529Z" fill="#3F3D56"/>
<path d="M346.759 92.0389L351.837 87.9727C347.892 87.537 346.271 89.691 345.608 91.3958C342.526 90.1146 339.171 91.7937 339.171 91.7937L349.331 95.4866C348.819 94.1159 347.927 92.9199 346.759 92.0389V92.0389Z" fill="#3F3D56"/>
<path d="M56.5911 60.0077L61.6694 55.9415C57.7243 55.5057 56.1033 57.6597 55.4399 59.3646C52.3579 58.0833 49.0026 59.7625 49.0026 59.7625L59.1634 63.4553C58.6508 62.0846 57.7585 60.8887 56.5911 60.0077V60.0077Z" fill="#3F3D56"/>
<path d="M65.9692 104.189L71.0475 100.122C67.1024 99.6868 65.4814 101.841 64.818 103.546C61.7359 102.264 58.3807 103.944 58.3807 103.944L68.5415 107.636C68.0289 106.266 67.1366 105.07 65.9692 104.189V104.189Z" fill="#3F3D56"/>
<path d="M263.46 127.384L268.538 123.318C264.593 122.882 262.972 125.036 262.309 126.741C259.227 125.459 255.871 127.139 255.871 127.139L266.032 130.831C265.52 129.461 264.627 128.265 263.46 127.384Z" fill="#3F3D56"/>
<path d="M6.16286 254.771H-2.66354V263.607H1.42804V293.381H2.53134V263.607H6.16286V254.771Z" fill="#3F3D56"/>
</g>
</g>
<defs>
<clipPath id="clip0">
<rect width="360" height="265" fill="white"/>
</clipPath>
<clipPath id="clip1">
<rect width="490" height="264" fill="white" transform="translate(-65 30)"/>
</clipPath>
</defs>
</svg>
