<svg width="330" height="330" viewBox="0 0 330 330" fill="none" xmlns="http://www.w3.org/2000/svg">
<circle cx="165" cy="165" r="165" fill="#F2F2F2"/>
<circle cx="165" cy="165" r="165" fill="#F2F2F2"/>
<path d="M315 244.44H15V244.59H315V244.44Z" fill="#E0E0E0"/>
<path d="M118.398 248.064H112.11V248.214H118.398V248.064Z" fill="#E0E0E0"/>
<path d="M294.714 252H271.95V252.15H294.714V252Z" fill="#E0E0E0"/>
<path d="M223.8 248.136H205.404V248.286H223.8V248.136Z" fill="#E0E0E0"/>
<path d="M160.482 251.556H128.466V251.706H160.482V251.556Z" fill="#E0E0E0"/>
<path d="M98.8019 250.608H87.7979V250.758H98.8019V250.608Z" fill="#E0E0E0"/>
<path d="M269.052 252H259.896V252.15H269.052V252Z" fill="#E0E0E0"/>
<path d="M84.3 250.536H53.958V250.686H84.3V250.536Z" fill="#E0E0E0"/>
<path d="M222.81 132.072H177.33V137.46H222.81V132.072Z" fill="#F5F5F5"/>
<path d="M138.18 152.964H137.796V164.304H138.18V152.964Z" fill="#E0E0E0"/>
<path d="M226.164 128.874L226.482 129.144L226.86 129.444C227.112 129.648 227.382 129.852 227.646 130.044C228.186 130.434 228.738 130.818 229.314 131.166C230.456 131.888 231.645 132.534 232.872 133.098C234.106 133.652 235.37 134.136 236.658 134.55C237.312 134.724 237.954 134.94 238.62 135.072L239.616 135.288H239.736C239.736 135.288 239.736 135.288 239.706 135.288C239.676 135.288 239.646 135.354 239.706 135.288C239.829 135.157 239.926 135.004 239.994 134.838C240.226 134.309 240.389 133.752 240.48 133.182C240.694 131.842 240.804 130.488 240.81 129.132C240.81 127.734 240.81 126.312 240.726 124.89C240.642 123.468 240.552 122.022 240.432 120.612L242.532 120.234C243.259 123.121 243.748 126.063 243.996 129.03C244.137 130.575 244.137 132.129 243.996 133.674C243.913 134.548 243.724 135.408 243.432 136.236C243.245 136.751 242.98 137.235 242.646 137.67C242.212 138.244 241.62 138.68 240.942 138.924C240.423 139.108 239.871 139.178 239.322 139.128L239.076 139.098H238.932L237.786 138.912C237.018 138.798 236.268 138.594 235.506 138.432C234.003 138.049 232.531 137.554 231.102 136.95C229.672 136.342 228.288 135.63 226.962 134.82C226.296 134.418 225.654 133.974 225.018 133.512C224.7 133.278 224.388 133.038 224.076 132.786C223.92 132.66 223.77 132.528 223.614 132.39C223.458 132.252 223.32 132.132 223.116 131.94L226.164 128.874Z" fill="#9F5B53"/>
<path d="M220.146 126.354C226.224 125.526 231.132 130.44 231.132 130.44L226.596 138.156C226.596 138.156 219.6 135.21 218.544 132.6C217.452 129.9 217.026 126.774 220.146 126.354Z" fill="#184466"/>
<path opacity="0.3" d="M220.146 126.354C226.224 125.526 231.132 130.44 231.132 130.44L226.596 138.156C226.596 138.156 219.6 135.21 218.544 132.6C217.452 129.9 217.026 126.774 220.146 126.354Z" fill="black"/>
<path d="M241.002 121.746L237.672 118.674L242.61 116.748C242.61 116.748 244.176 119.388 242.91 122.028L241.002 121.746Z" fill="#9F5B53"/>
<path d="M237 114.27L240.93 113.52L242.61 116.748L237.672 118.674L237 114.27Z" fill="#9F5B53"/>
<path d="M198.6 260.142L203.496 260.622L208.596 248.964L203.7 248.484L198.6 260.142Z" fill="#9F5B53"/>
<path d="M167.058 242.91L170.736 246.366L178.674 237.636L174.996 234.186L167.058 242.91Z" fill="#9F5B53"/>
<path d="M172.434 244.71L169.668 239.73C169.622 239.643 169.546 239.577 169.454 239.543C169.363 239.508 169.262 239.509 169.17 239.544L164.916 241.164C164.81 241.207 164.715 241.273 164.636 241.357C164.558 241.44 164.498 241.539 164.46 241.647C164.423 241.756 164.409 241.871 164.419 241.985C164.43 242.099 164.464 242.21 164.52 242.31C165.516 244.032 166.08 244.812 167.292 247.002C168.042 248.346 169.5 251.436 170.532 253.296C171.564 255.156 173.46 254.238 173.196 253.368C171.996 249.48 172.236 247.314 172.596 245.598C172.647 245.292 172.59 244.978 172.434 244.71Z" fill="#263238"/>
<path d="M204.15 259.11H198.15C198.042 259.111 197.938 259.148 197.852 259.214C197.767 259.28 197.705 259.372 197.676 259.476L196.368 264.234C196.336 264.347 196.331 264.465 196.353 264.58C196.376 264.695 196.425 264.803 196.497 264.895C196.569 264.988 196.661 265.062 196.767 265.112C196.873 265.161 196.989 265.186 197.106 265.182C199.224 265.182 200.226 265.182 202.872 265.182H210.954C213.156 265.182 213.612 262.962 212.706 262.782C208.626 261.882 206.274 260.634 205.02 259.452C204.786 259.228 204.474 259.106 204.15 259.11Z" fill="#263238"/>
<path d="M208.59 248.97L205.968 254.976H200.856L203.694 248.49L208.59 248.97Z" fill="#8A4743"/>
<path d="M174.99 234.186L178.674 237.642L174.576 242.136L170.898 238.68L174.99 234.186Z" fill="#8A4743"/>
<path d="M225.348 126.918C225.348 126.918 227.544 127.89 220.164 157.11L199.65 155.31C200.718 146.988 201.174 141.84 198.66 124.362C201.585 124.02 204.531 123.89 207.474 123.972C210.594 124.025 213.706 124.302 216.786 124.8C219.674 125.362 222.531 126.069 225.348 126.918Z" fill="#184466"/>
<path opacity="0.3" d="M225.348 126.918C225.348 126.918 227.544 127.89 220.164 157.11L199.65 155.31C200.718 146.988 201.174 141.84 198.66 124.362C201.585 124.02 204.531 123.89 207.474 123.972C210.594 124.025 213.706 124.302 216.786 124.8C219.674 125.362 222.531 126.069 225.348 126.918Z" fill="black"/>
<path d="M207.474 123.996C207.474 123.996 206.31 123.87 204.936 123.87C204.108 125.148 206.622 130.002 211.062 133.65C212.057 131.972 213.32 130.468 214.8 129.198L207.474 123.996Z" fill="#FAFAFA"/>
<path d="M216.786 124.8C217.38 124.837 217.969 124.932 218.544 125.082C219.372 126.36 220.974 130.878 218.544 133.65C217.55 131.972 216.287 130.468 214.806 129.198L216.786 124.8Z" fill="#FAFAFA"/>
<path d="M215.466 132.45C215.466 132.816 215.364 133.116 215.19 133.128C215.016 133.14 214.866 132.846 214.842 132.486C214.818 132.126 214.944 131.814 215.118 131.808C215.292 131.802 215.448 132.084 215.466 132.45Z" fill="#FAFAFA"/>
<path d="M215.4 135.228C215.4 135.588 215.244 135.882 215.07 135.882C214.896 135.882 214.77 135.576 214.776 135.21C214.782 134.844 214.932 134.556 215.106 134.556C215.28 134.556 215.43 134.862 215.4 135.228Z" fill="#FAFAFA"/>
<path d="M209.304 113.586C209.634 116.634 209.742 122.178 207.504 123.996C209.701 126.039 212.153 127.787 214.8 129.198C218.364 126.738 216.786 124.8 216.786 124.8C213.516 123.714 213.816 121.242 214.596 118.962L209.304 113.586Z" fill="#9F5B53"/>
<path d="M211.465 115.8L214.597 118.98C214.407 119.509 214.263 120.053 214.165 120.606C212.905 120.312 211.081 119.004 211.062 117.654C211.083 117.017 211.22 116.388 211.465 115.8Z" fill="#8A4743"/>
<path d="M215.292 104.556C215.292 104.556 218.616 107.82 219.348 109.41C221.364 110.16 220.818 104.85 219.288 101.778C216.6 104.172 215.292 104.556 215.292 104.556Z" fill="#263238"/>
<path d="M206.622 108.822C207.894 113.694 208.326 115.782 211.314 117.822C215.802 120.888 221.514 118.26 221.712 113.112C221.904 108.474 219.792 101.292 214.584 100.284C213.437 100.054 212.25 100.121 211.136 100.479C210.022 100.838 209.018 101.475 208.22 102.331C207.422 103.186 206.857 104.232 206.577 105.368C206.297 106.504 206.313 107.693 206.622 108.822Z" fill="#9F5B53"/>
<path d="M217.668 102.6C219.9 102.93 222.126 100.842 218.514 98.6038C219.672 98.4838 220.914 94.4038 216.714 94.6258C216.51 92.6878 212.352 90.9598 210.114 94.0258C207.528 92.3218 203.856 94.0618 204.678 96.7078C201.708 96.8938 200.16 100.95 202.614 101.61C199.662 103.41 199.146 106.32 202.014 106.848C202.41 110.214 209.004 108.708 208.494 105.576C209.694 106.218 213.462 104.838 212.694 103.176C213.912 104.742 217.668 104.028 217.668 102.6Z" fill="#263238"/>
<path d="M204 106.884C204 106.884 206.448 110.844 206.772 112.566C208.572 113.766 209.298 108.492 208.572 105.144C205.35 106.8 204 106.884 204 106.884Z" fill="#263238"/>
<path d="M206.22 113.22C206.676 114.081 207.452 114.727 208.38 115.02C209.616 115.386 210.258 114.288 209.94 113.112C209.646 112.05 208.656 110.58 207.408 110.712C207.135 110.749 206.876 110.854 206.653 111.016C206.431 111.179 206.253 111.395 206.135 111.644C206.017 111.893 205.963 112.168 205.978 112.443C205.993 112.718 206.076 112.985 206.22 113.22Z" fill="#9F5B53"/>
<path d="M220.164 157.11C220.164 157.11 227.106 187.812 222.468 209.454C219.366 223.95 208.176 253.254 208.176 253.254L199.428 253.026C199.428 253.026 207.9 222.294 209.628 210.21C212.628 189.534 205.116 155.826 205.116 155.826L220.164 157.11Z" fill="#184466"/>
<path opacity="0.6" d="M220.164 157.11C220.164 157.11 227.106 187.812 222.468 209.454C219.366 223.95 208.176 253.254 208.176 253.254L199.428 253.026C199.428 253.026 207.9 222.294 209.628 210.21C212.628 189.534 205.116 155.826 205.116 155.826L220.164 157.11Z" fill="#FAFAFA"/>
<path d="M212.16 163.308L207.786 170.208C209.103 178.39 209.939 186.642 210.288 194.922C216.438 183.906 213.528 169.14 212.16 163.308Z" fill="#184466"/>
<path opacity="0.4" d="M212.16 163.308L207.786 170.208C209.103 178.39 209.939 186.642 210.288 194.922C216.438 183.906 213.528 169.14 212.16 163.308Z" fill="#FAFAFA"/>
<path d="M209.412 253.686L198.6 253.416L199.23 250.092L211.026 250.65L209.412 253.686Z" fill="#184466"/>
<path opacity="0.3" d="M209.412 253.686L198.6 253.416L199.23 250.092L211.026 250.65L209.412 253.686Z" fill="black"/>
<path d="M215.676 156.78C215.676 156.78 211.608 189.342 202.782 207.114C195.654 221.472 176.628 241.914 176.628 241.914L171.768 236.904C171.768 236.904 184.614 214.704 189.912 205.152C202.902 181.752 192.312 163.92 199.65 155.352L215.676 156.78Z" fill="#184466"/>
<path opacity="0.6" d="M215.676 156.78C215.676 156.78 211.608 189.342 202.782 207.114C195.654 221.472 176.628 241.914 176.628 241.914L171.768 236.904C171.768 236.904 184.614 214.704 189.912 205.152C202.902 181.752 192.312 163.92 199.65 155.352L215.676 156.78Z" fill="#FAFAFA"/>
<path d="M177.12 242.58L170.844 236.466L172.926 233.628L179.766 240.702L177.12 242.58Z" fill="#184466"/>
<path opacity="0.3" d="M177.12 242.58L170.844 236.466L172.926 233.628L179.766 240.702L177.12 242.58Z" fill="black"/>
<path d="M199.446 154.104L198.36 155.856C198.276 155.994 198.438 156.156 198.672 156.174L220.182 158.034C220.368 158.034 220.53 157.974 220.554 157.86L220.896 156.06C220.896 155.934 220.77 155.808 220.566 155.79L199.794 153.99C199.731 153.978 199.666 153.982 199.606 154.002C199.545 154.022 199.49 154.057 199.446 154.104Z" fill="#263238"/>
<path d="M202.039 156.666L201.481 156.618C201.367 156.618 201.289 156.546 201.301 156.474L201.769 154.11C201.769 154.044 201.889 153.996 201.997 154.002L202.555 154.05C202.663 154.05 202.741 154.128 202.729 154.194L202.261 156.558C202.249 156.63 202.147 156.678 202.039 156.666Z" fill="#184466"/>
<path opacity="0.6" d="M202.039 156.666L201.481 156.618C201.367 156.618 201.289 156.546 201.301 156.474L201.769 154.11C201.769 154.044 201.889 153.996 201.997 154.002L202.555 154.05C202.663 154.05 202.741 154.128 202.729 154.194L202.261 156.558C202.249 156.63 202.147 156.678 202.039 156.666Z" fill="#FAFAFA"/>
<path d="M218.604 158.1L218.046 158.052C217.938 158.052 217.86 157.98 217.872 157.908L218.34 155.544C218.34 155.478 218.454 155.43 218.562 155.436L219.12 155.484C219.234 155.484 219.312 155.562 219.3 155.628L218.832 157.992C218.811 158.032 218.777 158.064 218.736 158.084C218.695 158.103 218.649 158.109 218.604 158.1Z" fill="#184466"/>
<path opacity="0.6" d="M218.604 158.1L218.046 158.052C217.938 158.052 217.86 157.98 217.872 157.908L218.34 155.544C218.34 155.478 218.454 155.43 218.562 155.436L219.12 155.484C219.234 155.484 219.312 155.562 219.3 155.628L218.832 157.992C218.811 158.032 218.777 158.064 218.736 158.084C218.695 158.103 218.649 158.109 218.604 158.1Z" fill="#FAFAFA"/>
<path d="M210.318 157.386L209.766 157.338C209.652 157.338 209.574 157.26 209.586 157.194L210.054 154.83C210.054 154.758 210.168 154.71 210.282 154.722L210.834 154.77C210.948 154.77 211.026 154.842 211.014 154.914L210.546 157.272C210.534 157.344 210.432 157.392 210.318 157.386Z" fill="#184466"/>
<path opacity="0.6" d="M210.318 157.386L209.766 157.338C209.652 157.338 209.574 157.26 209.586 157.194L210.054 154.83C210.054 154.758 210.168 154.71 210.282 154.722L210.834 154.77C210.948 154.77 211.026 154.842 211.014 154.914L210.546 157.272C210.534 157.344 210.432 157.392 210.318 157.386Z" fill="#FAFAFA"/>
<path d="M214.368 108.732C214.446 109.134 214.722 109.416 214.968 109.362C215.214 109.308 215.376 108.948 215.298 108.546C215.22 108.144 214.944 107.862 214.698 107.91C214.452 107.958 214.29 108.33 214.368 108.732Z" fill="#263238"/>
<path d="M218.904 107.838C218.982 108.24 219.258 108.522 219.504 108.474C219.75 108.426 219.912 108.054 219.834 107.652C219.756 107.25 219.48 106.968 219.234 107.052C218.988 107.136 218.82 107.436 218.904 107.838Z" fill="#263238"/>
<path d="M219.12 107.064L220.032 106.596C220.032 106.596 219.684 107.448 219.12 107.064Z" fill="#263238"/>
<path d="M217.836 108.768C218.376 109.61 219.028 110.375 219.774 111.042C219.598 111.228 219.384 111.375 219.145 111.47C218.907 111.565 218.651 111.608 218.394 111.594L217.836 108.768Z" fill="#892B29"/>
<path d="M216.54 113.508C215.695 113.519 214.878 113.208 214.254 112.638C214.236 112.618 214.227 112.592 214.227 112.566C214.227 112.539 214.236 112.513 214.254 112.494C214.273 112.475 214.299 112.464 214.326 112.464C214.353 112.464 214.379 112.475 214.398 112.494C214.783 112.83 215.241 113.073 215.735 113.201C216.23 113.329 216.748 113.34 217.248 113.232C217.274 113.226 217.302 113.231 217.324 113.246C217.346 113.261 217.362 113.283 217.368 113.31C217.371 113.322 217.371 113.335 217.368 113.348C217.366 113.361 217.361 113.373 217.353 113.383C217.346 113.394 217.337 113.403 217.326 113.41C217.315 113.417 217.303 113.421 217.29 113.424C217.044 113.477 216.792 113.505 216.54 113.508Z" fill="#263238"/>
<path d="M212.136 106.2C212.103 106.208 212.068 106.208 212.034 106.2C211.99 106.171 211.958 106.127 211.946 106.075C211.933 106.024 211.941 105.969 211.968 105.924C212.152 105.599 212.412 105.323 212.725 105.119C213.039 104.915 213.396 104.79 213.768 104.754C213.82 104.754 213.871 104.774 213.909 104.809C213.946 104.845 213.969 104.894 213.972 104.946C213.973 104.972 213.969 104.998 213.96 105.022C213.95 105.046 213.937 105.069 213.919 105.088C213.901 105.107 213.879 105.122 213.856 105.133C213.832 105.143 213.806 105.149 213.78 105.15C213.474 105.185 213.18 105.292 212.922 105.462C212.665 105.632 212.451 105.86 212.298 106.128C212.279 106.152 212.254 106.171 212.226 106.184C212.198 106.196 212.167 106.202 212.136 106.2Z" fill="#263238"/>
<path d="M220.656 105.492C220.625 105.5 220.592 105.5 220.56 105.492C220.292 105.329 219.988 105.233 219.674 105.213C219.361 105.193 219.047 105.25 218.76 105.378C218.713 105.401 218.659 105.406 218.608 105.39C218.558 105.374 218.516 105.34 218.49 105.294C218.467 105.246 218.462 105.192 218.478 105.142C218.494 105.091 218.528 105.049 218.574 105.024C218.916 104.869 219.289 104.8 219.663 104.821C220.037 104.841 220.4 104.952 220.722 105.144C220.745 105.156 220.765 105.173 220.782 105.193C220.798 105.214 220.81 105.237 220.818 105.262C220.825 105.287 220.827 105.314 220.824 105.34C220.821 105.366 220.813 105.391 220.8 105.414C220.784 105.436 220.762 105.455 220.737 105.469C220.712 105.482 220.685 105.49 220.656 105.492Z" fill="#263238"/>
<path d="M200.22 131.73C199.387 133.394 198.461 135.01 197.448 136.572C196.44 138.12 195.372 139.62 194.226 141.078C193.066 142.533 191.82 143.917 190.494 145.224C189.816 145.872 189.138 146.52 188.406 147.12L187.866 147.582C187.613 147.79 187.344 147.978 187.062 148.146C186.371 148.553 185.579 148.761 184.776 148.746C183.96 148.712 183.172 148.434 182.514 147.948C182.006 147.578 181.557 147.133 181.182 146.628C180.57 145.79 180.06 144.881 179.664 143.922C178.949 142.188 178.385 140.395 177.978 138.564C177.18 135.021 176.652 131.422 176.4 127.8L178.518 127.536C178.86 129.24 179.226 130.98 179.652 132.684C180.078 134.388 180.51 136.086 181.032 137.73C181.519 139.347 182.12 140.927 182.832 142.458C183.157 143.132 183.56 143.767 184.032 144.348C184.205 144.551 184.407 144.727 184.632 144.87C184.8 144.966 184.854 144.948 184.86 144.936C184.947 144.91 185.028 144.869 185.1 144.816C185.178 144.762 185.274 144.684 185.376 144.6L185.832 144.168C186.432 143.61 187.032 142.998 187.632 142.368C188.784 141.126 189.852 139.794 190.896 138.444C191.94 137.094 192.894 135.654 193.806 134.196C194.268 133.476 194.712 132.738 195.15 131.994C195.588 131.25 196.002 130.482 196.35 129.786L200.22 131.73Z" fill="#9F5B53"/>
<path d="M179.46 128.274L178.926 123.78L174.474 126.648C174.474 126.648 175.932 129.048 177.948 129.696L179.46 128.274Z" fill="#9F5B53"/>
<path d="M177.276 121.956L174.366 124.704L174.474 126.648L178.926 123.78L177.276 121.956Z" fill="#9F5B53"/>
<path d="M198.661 124.386C196.147 124.836 192.625 132.048 192.625 132.048L198.966 137.778C198.966 137.778 204.007 132.282 203.737 129.006C203.509 126.222 201.865 123.822 198.661 124.386Z" fill="#184466"/>
<path opacity="0.3" d="M198.661 124.386C196.147 124.836 192.625 132.048 192.625 132.048L198.966 137.778C198.966 137.778 204.007 132.282 203.737 129.006C203.509 126.222 201.865 123.822 198.661 124.386Z" fill="black"/>
<path d="M173.4 247.386C173.335 247.386 173.269 247.374 173.208 247.35C172.608 247.152 172.212 246.036 172.008 245.388C172.005 245.369 172.006 245.35 172.013 245.332C172.019 245.314 172.03 245.298 172.044 245.286C172.06 245.276 172.079 245.271 172.098 245.271C172.117 245.271 172.136 245.276 172.152 245.286C172.338 245.382 173.952 246.24 173.994 246.876C174.001 246.945 173.988 247.014 173.959 247.076C173.929 247.138 173.883 247.191 173.826 247.23C173.705 247.327 173.555 247.381 173.4 247.386ZM172.29 245.586C172.566 246.474 172.926 247.068 173.268 247.182C173.347 247.204 173.429 247.206 173.509 247.189C173.589 247.171 173.663 247.133 173.724 247.08C173.754 247.061 173.779 247.035 173.795 247.003C173.811 246.971 173.817 246.935 173.814 246.9C173.784 246.492 172.842 245.88 172.29 245.568V245.586Z" fill="#184466"/>
<path d="M173.652 245.82C173.105 245.817 172.565 245.69 172.074 245.448C172.06 245.439 172.047 245.427 172.039 245.412C172.031 245.397 172.026 245.381 172.026 245.364C172.026 245.346 172.031 245.328 172.039 245.313C172.047 245.297 172.06 245.283 172.074 245.274C172.128 245.244 173.4 244.548 174.084 244.788C174.17 244.815 174.249 244.862 174.315 244.924C174.38 244.987 174.431 245.063 174.462 245.148C174.504 245.228 174.518 245.32 174.502 245.409C174.485 245.498 174.44 245.579 174.372 245.64C174.157 245.774 173.905 245.837 173.652 245.82ZM172.344 245.364C172.89 245.598 173.946 245.742 174.24 245.484C174.288 245.442 174.342 245.376 174.276 245.22C174.255 245.162 174.22 245.111 174.176 245.069C174.131 245.028 174.077 244.997 174.018 244.98C173.556 244.8 172.704 245.184 172.344 245.364Z" fill="#184466"/>
<path d="M206.82 260.082C206.267 260.068 205.716 259.998 205.176 259.872C205.156 259.868 205.137 259.858 205.123 259.843C205.109 259.827 205.101 259.808 205.098 259.788C205.096 259.767 205.1 259.746 205.11 259.728C205.119 259.71 205.134 259.695 205.152 259.686C205.404 259.566 207.588 258.564 208.152 258.93C208.202 258.964 208.241 259.011 208.266 259.066C208.292 259.121 208.302 259.182 208.296 259.242C208.292 259.352 208.262 259.46 208.211 259.558C208.159 259.655 208.085 259.74 207.996 259.806C207.643 260.017 207.231 260.114 206.82 260.082ZM205.518 259.74C206.166 259.86 207.366 260.016 207.858 259.644C207.925 259.597 207.979 259.535 208.017 259.463C208.054 259.391 208.074 259.311 208.074 259.23C208.074 259.146 208.074 259.116 208.02 259.098C207.714 258.888 206.4 259.338 205.518 259.74Z" fill="#184466"/>
<path d="M205.201 259.878C205.179 259.884 205.156 259.884 205.135 259.878C205.12 259.866 205.109 259.85 205.103 259.832C205.097 259.814 205.095 259.795 205.099 259.776C205.099 259.686 205.633 257.526 206.803 257.67C207.097 257.706 207.181 257.856 207.193 257.97C207.271 258.522 205.891 259.626 205.237 259.89L205.201 259.878ZM206.695 257.838C205.939 257.838 205.495 259.092 205.351 259.596C206.059 259.224 207.043 258.324 206.995 257.976C206.995 257.976 206.995 257.868 206.779 257.844L206.695 257.838Z" fill="#184466"/>
<path d="M214.59 107.958L215.496 107.49C215.496 107.49 215.148 108.342 214.59 107.958Z" fill="#263238"/>
<path d="M89.1182 109.2C94.4374 103.866 100.759 99.6352 107.718 96.752C114.678 93.8689 122.139 92.3898 129.672 92.4H137.79C137.79 92.4 176.088 102.426 176.088 143.454C176.088 183.558 149.574 219.054 137.796 230.85H129.684L89.1182 190.284C78.3719 179.528 72.3354 164.946 72.3354 149.742C72.3354 134.538 78.3719 119.956 89.1182 109.2ZM129.678 176.4C134.945 176.4 140.093 174.838 144.473 171.912C148.852 168.986 152.265 164.827 154.28 159.961C156.295 155.095 156.822 149.74 155.794 144.575C154.766 139.409 152.229 134.665 148.505 130.941C144.78 127.217 140.035 124.682 134.869 123.655C129.704 122.628 124.349 123.156 119.484 125.173C114.618 127.189 110.46 130.603 107.535 134.983C104.61 139.362 103.049 144.511 103.05 149.778C103.064 156.831 105.876 163.59 110.868 168.572C115.861 173.554 122.625 176.352 129.678 176.352V176.4Z" fill="#4A4D4F"/>
<path d="M179.4 108.114C177.025 105.741 174.456 103.572 171.72 101.628L172.062 101.136C174.829 103.101 177.426 105.294 179.826 107.694L179.4 108.114ZM168.132 99.2818C166.722 98.4298 165.258 97.6258 163.788 96.8818L164.052 96.3418C165.54 97.0798 167.016 97.8898 168.444 98.7418L168.132 99.2818Z" fill="#184466"/>
<path opacity="0.2" d="M179.4 108.114C177.025 105.741 174.456 103.572 171.72 101.628L172.062 101.136C174.829 103.101 177.426 105.294 179.826 107.694L179.4 108.114ZM168.132 99.2818C166.722 98.4298 165.258 97.6258 163.788 96.8818L164.052 96.3418C165.54 97.0798 167.016 97.8898 168.444 98.7418L168.132 99.2818Z" fill="black"/>
<path d="M97.2304 109.2C108.052 98.7817 122.528 93.0244 137.549 93.1656C152.57 93.3069 166.936 99.3355 177.559 109.956C188.182 120.576 194.215 134.94 194.361 149.961C194.507 164.981 188.754 179.46 178.338 190.284L137.796 230.832L97.2304 190.266C86.4866 179.513 80.4517 164.934 80.4517 149.733C80.4517 134.532 86.4866 119.954 97.2304 109.2ZM137.79 176.4C143.057 176.4 148.206 174.838 152.585 171.912C156.964 168.986 160.377 164.827 162.392 159.961C164.407 155.095 164.934 149.741 163.906 144.575C162.878 139.41 160.342 134.665 156.617 130.941C152.892 127.217 148.147 124.682 142.982 123.655C137.816 122.628 132.462 123.156 127.596 125.173C122.731 127.189 118.572 130.603 115.647 134.983C112.722 139.363 111.161 144.511 111.162 149.778C111.177 156.831 113.988 163.59 118.981 168.572C123.973 173.554 130.738 176.352 137.79 176.352V176.4Z" fill="#184466"/>
<path opacity="0.2" d="M97.2304 109.2C108.052 98.7817 122.528 93.0244 137.549 93.1656C152.57 93.3069 166.936 99.3355 177.559 109.956C188.182 120.576 194.215 134.94 194.361 149.961C194.507 164.981 188.754 179.46 178.338 190.284L137.796 230.832L97.2304 190.266C86.4866 179.513 80.4517 164.934 80.4517 149.733C80.4517 134.532 86.4866 119.954 97.2304 109.2ZM137.79 176.4C143.057 176.4 148.206 174.838 152.585 171.912C156.964 168.986 160.377 164.827 162.392 159.961C164.407 155.095 164.934 149.741 163.906 144.575C162.878 139.41 160.342 134.665 156.617 130.941C152.892 127.217 148.147 124.682 142.982 123.655C137.816 122.628 132.462 123.156 127.596 125.173C122.731 127.189 118.572 130.603 115.647 134.983C112.722 139.363 111.161 144.511 111.162 149.778C111.177 156.831 113.988 163.59 118.981 168.572C123.973 173.554 130.738 176.352 137.79 176.352V176.4Z" fill="black"/>
<g style="mix-blend-mode:color-dodge" opacity="0.4">
<path d="M137.796 227.586C137.776 227.586 137.756 227.581 137.737 227.573C137.718 227.565 137.702 227.553 137.688 227.538L98.8199 188.676C91.1174 180.97 85.8727 171.154 83.7488 160.468C81.6249 149.782 82.7173 138.706 86.8877 128.64C91.0582 118.575 98.1195 109.972 107.179 103.919C116.238 97.8667 126.889 94.6362 137.784 94.6362C148.679 94.6362 159.33 97.8667 168.389 103.919C177.448 109.972 184.51 118.575 188.68 128.64C192.851 138.706 193.943 149.782 191.819 160.468C189.695 171.154 184.45 180.97 176.748 188.676L137.898 227.52C137.887 227.538 137.872 227.553 137.855 227.565C137.837 227.576 137.817 227.584 137.796 227.586ZM137.796 94.9321C126.96 94.934 116.368 98.1487 107.359 104.17C98.3503 110.191 91.329 118.748 87.183 128.759C83.0369 138.771 81.9524 149.786 84.0664 160.414C86.1805 171.042 91.3982 180.804 99.0599 188.466L137.82 227.22L176.562 188.484L176.664 188.586L176.562 188.484C184.223 180.817 189.439 171.052 191.55 160.421C193.662 149.791 192.575 138.773 188.426 128.76C184.277 118.747 177.252 110.19 168.241 104.168C159.229 98.1473 148.634 94.9331 137.796 94.9321ZM137.796 178.932C132.025 178.932 126.383 177.221 121.585 174.014C116.786 170.808 113.047 166.251 110.838 160.919C108.63 155.587 108.053 149.72 109.179 144.06C110.305 138.399 113.085 133.2 117.166 129.12C121.247 125.04 126.447 122.261 132.107 121.136C137.768 120.011 143.635 120.59 148.966 122.799C154.298 125.008 158.854 128.749 162.059 133.548C165.265 138.347 166.975 143.989 166.974 149.76C166.956 157.491 163.875 164.9 158.404 170.362C152.934 175.825 145.521 178.896 137.79 178.902L137.796 178.932ZM137.796 120.882C132.084 120.882 126.501 122.576 121.752 125.749C117.003 128.922 113.302 133.432 111.116 138.709C108.93 143.986 108.359 149.792 109.473 155.394C110.587 160.996 113.337 166.141 117.376 170.18C121.415 174.219 126.56 176.969 132.162 178.083C137.764 179.197 143.57 178.626 148.847 176.44C154.124 174.254 158.634 170.553 161.807 165.804C164.98 161.055 166.674 155.472 166.674 149.76C166.674 142.097 163.632 134.748 158.215 129.328C152.799 123.907 145.453 120.858 137.79 120.852L137.796 120.882Z" fill="#FAFAFA"/>
</g>
</svg>
