<svg width="360" height="640" viewBox="0 0 360 640" fill="none" xmlns="http://www.w3.org/2000/svg">
<rect width="360" height="640" fill="white"/>
<path d="M114.004 401.827L116.904 392.203H119.84L115.384 405H112.633L108.194 392.203H111.121L114.004 401.827ZM124.876 405.176C123.481 405.176 122.345 404.748 121.466 403.893C120.593 403.037 120.156 401.897 120.156 400.474V400.228C120.156 399.272 120.341 398.42 120.71 397.67C121.079 396.914 121.601 396.334 122.274 395.93C122.954 395.52 123.728 395.314 124.595 395.314C125.896 395.314 126.918 395.725 127.662 396.545C128.412 397.365 128.787 398.528 128.787 400.034V401.071H122.731C122.813 401.692 123.06 402.19 123.47 402.565C123.886 402.94 124.41 403.128 125.043 403.128C126.021 403.128 126.786 402.773 127.337 402.064L128.585 403.462C128.204 404.001 127.688 404.423 127.038 404.728C126.388 405.026 125.667 405.176 124.876 405.176ZM124.586 397.371C124.082 397.371 123.672 397.541 123.355 397.881C123.045 398.221 122.846 398.707 122.758 399.34H126.291V399.138C126.279 398.575 126.127 398.142 125.834 397.837C125.541 397.526 125.125 397.371 124.586 397.371ZM135.581 397.872C135.235 397.825 134.931 397.802 134.667 397.802C133.706 397.802 133.076 398.127 132.777 398.777V405H130.237V395.49H132.637L132.707 396.624C133.217 395.751 133.923 395.314 134.825 395.314C135.106 395.314 135.37 395.353 135.616 395.429L135.581 397.872ZM139.492 405H136.943V395.49H139.492V405ZM136.794 393.029C136.794 392.648 136.92 392.335 137.172 392.089C137.43 391.843 137.778 391.72 138.218 391.72C138.651 391.72 138.997 391.843 139.255 392.089C139.513 392.335 139.642 392.648 139.642 393.029C139.642 393.416 139.51 393.732 139.246 393.979C138.988 394.225 138.646 394.348 138.218 394.348C137.79 394.348 137.444 394.225 137.181 393.979C136.923 393.732 136.794 393.416 136.794 393.029ZM142.287 405V397.354H140.872V395.49H142.287V394.682C142.287 393.615 142.592 392.789 143.201 392.203C143.816 391.611 144.675 391.315 145.776 391.315C146.128 391.315 146.559 391.374 147.068 391.491L147.042 393.46C146.831 393.407 146.573 393.381 146.269 393.381C145.313 393.381 144.836 393.829 144.836 394.726V395.49H146.726V397.354H144.836V405H142.287ZM151.595 401.405L153.353 395.49H156.077L152.254 406.477L152.043 406.978C151.475 408.22 150.537 408.841 149.23 408.841C148.861 408.841 148.486 408.785 148.105 408.674V406.749L148.492 406.758C148.973 406.758 149.33 406.685 149.564 406.538C149.805 406.392 149.992 406.148 150.127 405.809L150.426 405.026L147.095 395.49H149.828L151.595 401.405ZM159.76 405H157.211V395.49H159.76V405ZM157.062 393.029C157.062 392.648 157.188 392.335 157.439 392.089C157.697 391.843 158.046 391.72 158.485 391.72C158.919 391.72 159.265 391.843 159.522 392.089C159.78 392.335 159.909 392.648 159.909 393.029C159.909 393.416 159.777 393.732 159.514 393.979C159.256 394.225 158.913 394.348 158.485 394.348C158.058 394.348 157.712 394.225 157.448 393.979C157.19 393.732 157.062 393.416 157.062 393.029ZM164.198 395.49L164.277 396.589C164.957 395.739 165.868 395.314 167.011 395.314C168.019 395.314 168.769 395.61 169.261 396.202C169.753 396.794 170.005 397.679 170.017 398.856V405H167.477V398.918C167.477 398.379 167.359 397.989 167.125 397.749C166.891 397.503 166.501 397.38 165.956 397.38C165.241 397.38 164.705 397.685 164.348 398.294V405H161.808V395.49H164.198ZM171.581 400.175C171.581 398.716 171.927 397.541 172.618 396.65C173.315 395.76 174.253 395.314 175.431 395.314C176.474 395.314 177.285 395.672 177.865 396.387L177.971 395.49H180.273V404.684C180.273 405.516 180.083 406.239 179.702 406.854C179.327 407.47 178.797 407.938 178.111 408.261C177.426 408.583 176.623 408.744 175.703 408.744C175.006 408.744 174.326 408.604 173.664 408.322C173.002 408.047 172.501 407.689 172.161 407.25L173.286 405.703C173.919 406.412 174.687 406.767 175.589 406.767C176.263 406.767 176.787 406.585 177.162 406.222C177.537 405.864 177.725 405.354 177.725 404.692V404.183C177.139 404.845 176.368 405.176 175.413 405.176C174.271 405.176 173.345 404.73 172.636 403.84C171.933 402.943 171.581 401.757 171.581 400.28V400.175ZM174.121 400.359C174.121 401.221 174.294 401.897 174.64 402.39C174.985 402.876 175.46 403.119 176.063 403.119C176.837 403.119 177.391 402.829 177.725 402.249V398.25C177.385 397.67 176.837 397.38 176.081 397.38C175.472 397.38 174.991 397.629 174.64 398.127C174.294 398.625 174.121 399.369 174.121 400.359ZM189.396 405H186.848V391.5H189.396V405ZM191.102 400.157C191.102 399.214 191.283 398.373 191.646 397.635C192.01 396.896 192.531 396.325 193.211 395.921C193.896 395.517 194.69 395.314 195.593 395.314C196.876 395.314 197.922 395.707 198.73 396.492C199.545 397.277 199.999 398.344 200.093 399.691L200.11 400.342C200.11 401.801 199.703 402.973 198.889 403.857C198.074 404.736 196.981 405.176 195.61 405.176C194.239 405.176 193.144 404.736 192.323 403.857C191.509 402.979 191.102 401.783 191.102 400.271V400.157ZM193.642 400.342C193.642 401.244 193.812 401.936 194.151 402.416C194.491 402.891 194.978 403.128 195.61 403.128C196.226 403.128 196.706 402.894 197.052 402.425C197.397 401.95 197.57 401.194 197.57 400.157C197.57 399.272 197.397 398.587 197.052 398.101C196.706 397.614 196.22 397.371 195.593 397.371C194.972 397.371 194.491 397.614 194.151 398.101C193.812 398.581 193.642 399.328 193.642 400.342ZM205.63 403.128C206.099 403.128 206.479 402.999 206.772 402.741C207.065 402.483 207.218 402.141 207.229 401.713H209.611C209.605 402.357 209.43 402.949 209.084 403.488C208.738 404.021 208.264 404.438 207.66 404.736C207.062 405.029 206.4 405.176 205.674 405.176C204.314 405.176 203.242 404.745 202.457 403.884C201.672 403.017 201.279 401.821 201.279 400.298V400.131C201.279 398.666 201.669 397.497 202.448 396.624C203.228 395.751 204.297 395.314 205.656 395.314C206.846 395.314 207.798 395.654 208.513 396.334C209.233 397.008 209.6 397.907 209.611 399.032H207.229C207.218 398.54 207.065 398.142 206.772 397.837C206.479 397.526 206.093 397.371 205.612 397.371C205.021 397.371 204.572 397.588 204.268 398.021C203.969 398.449 203.819 399.146 203.819 400.113V400.377C203.819 401.355 203.969 402.059 204.268 402.486C204.566 402.914 205.021 403.128 205.63 403.128ZM216.572 405C216.455 404.771 216.37 404.487 216.317 404.147C215.702 404.833 214.902 405.176 213.918 405.176C212.986 405.176 212.213 404.906 211.598 404.367C210.988 403.828 210.684 403.148 210.684 402.328C210.684 401.32 211.056 400.547 211.8 400.008C212.55 399.469 213.631 399.196 215.043 399.19H216.212V398.646C216.212 398.206 216.098 397.854 215.869 397.591C215.646 397.327 215.292 397.195 214.806 397.195C214.378 397.195 214.041 397.298 213.795 397.503C213.555 397.708 213.435 397.989 213.435 398.347H210.895C210.895 397.796 211.064 397.286 211.404 396.817C211.744 396.349 212.225 395.982 212.846 395.719C213.467 395.449 214.164 395.314 214.938 395.314C216.109 395.314 217.038 395.61 217.724 396.202C218.415 396.788 218.761 397.614 218.761 398.681V402.803C218.767 403.705 218.893 404.388 219.139 404.851V405H216.572ZM214.472 403.233C214.847 403.233 215.192 403.151 215.509 402.987C215.825 402.817 216.06 402.592 216.212 402.311V400.676H215.263C213.991 400.676 213.314 401.115 213.232 401.994L213.224 402.144C213.224 402.46 213.335 402.721 213.558 402.926C213.78 403.131 214.085 403.233 214.472 403.233ZM223.753 393.152V395.49H225.379V397.354H223.753V402.1C223.753 402.451 223.82 402.703 223.955 402.855C224.09 403.008 224.348 403.084 224.729 403.084C225.01 403.084 225.259 403.063 225.476 403.022V404.947C224.978 405.1 224.465 405.176 223.938 405.176C222.156 405.176 221.248 404.276 221.213 402.478V397.354H219.824V395.49H221.213V393.152H223.753ZM229.475 405H226.926V395.49H229.475V405ZM226.776 393.029C226.776 392.648 226.902 392.335 227.154 392.089C227.412 391.843 227.761 391.72 228.2 391.72C228.634 391.72 228.979 391.843 229.237 392.089C229.495 392.335 229.624 392.648 229.624 393.029C229.624 393.416 229.492 393.732 229.229 393.979C228.971 394.225 228.628 394.348 228.2 394.348C227.772 394.348 227.427 394.225 227.163 393.979C226.905 393.732 226.776 393.416 226.776 393.029ZM231.18 400.157C231.18 399.214 231.361 398.373 231.725 397.635C232.088 396.896 232.609 396.325 233.289 395.921C233.975 395.517 234.769 395.314 235.671 395.314C236.954 395.314 238 395.707 238.809 396.492C239.623 397.277 240.077 398.344 240.171 399.691L240.188 400.342C240.188 401.801 239.781 402.973 238.967 403.857C238.152 404.736 237.06 405.176 235.688 405.176C234.317 405.176 233.222 404.736 232.401 403.857C231.587 402.979 231.18 401.783 231.18 400.271V400.157ZM233.72 400.342C233.72 401.244 233.89 401.936 234.229 402.416C234.569 402.891 235.056 403.128 235.688 403.128C236.304 403.128 236.784 402.894 237.13 402.425C237.476 401.95 237.648 401.194 237.648 400.157C237.648 399.272 237.476 398.587 237.13 398.101C236.784 397.614 236.298 397.371 235.671 397.371C235.05 397.371 234.569 397.614 234.229 398.101C233.89 398.581 233.72 399.328 233.72 400.342ZM244.091 395.49L244.17 396.589C244.85 395.739 245.761 395.314 246.903 395.314C247.911 395.314 248.661 395.61 249.153 396.202C249.646 396.794 249.897 397.679 249.909 398.856V405H247.369V398.918C247.369 398.379 247.252 397.989 247.018 397.749C246.783 397.503 246.394 397.38 245.849 397.38C245.134 397.38 244.598 397.685 244.24 398.294V405H241.7V395.49H244.091Z" fill="#4F4F4F"/>
<path d="M58.4678 602.104V606H57.1553V596.047H60.8262C61.9154 596.047 62.7676 596.325 63.3828 596.881C64.0026 597.437 64.3125 598.173 64.3125 599.089C64.3125 600.055 64.0094 600.8 63.4033 601.324C62.8018 601.844 61.9382 602.104 60.8125 602.104H58.4678ZM58.4678 601.03H60.8262C61.528 601.03 62.0658 600.866 62.4395 600.538C62.8132 600.205 63 599.727 63 599.103C63 598.51 62.8132 598.036 62.4395 597.681C62.0658 597.325 61.5531 597.141 60.9014 597.127H58.4678V601.03ZM67.1631 606H65.8984V595.5H67.1631V606ZM72.2627 606.137C71.2601 606.137 70.4443 605.809 69.8154 605.152C69.1865 604.492 68.8721 603.61 68.8721 602.507V602.274C68.8721 601.541 69.0111 600.887 69.2891 600.312C69.5716 599.734 69.9635 599.283 70.4648 598.959C70.9707 598.631 71.5176 598.467 72.1055 598.467C73.0671 598.467 73.8145 598.784 74.3477 599.417C74.8809 600.05 75.1475 600.957 75.1475 602.138V602.664H70.1367C70.1549 603.393 70.3669 603.983 70.7725 604.435C71.1826 604.881 71.7021 605.104 72.3311 605.104C72.7777 605.104 73.1559 605.013 73.4658 604.831C73.7757 604.649 74.0469 604.407 74.2793 604.106L75.0518 604.708C74.432 605.66 73.5023 606.137 72.2627 606.137ZM72.1055 599.506C71.5951 599.506 71.1667 599.693 70.8203 600.066C70.474 600.436 70.2598 600.955 70.1777 601.625H73.8828V601.529C73.8464 600.887 73.6732 600.39 73.3633 600.039C73.0534 599.684 72.6341 599.506 72.1055 599.506ZM81.1836 606C81.1107 605.854 81.0514 605.594 81.0059 605.221C80.418 605.831 79.7161 606.137 78.9004 606.137C78.1712 606.137 77.5719 605.932 77.1025 605.521C76.6377 605.107 76.4053 604.583 76.4053 603.949C76.4053 603.179 76.6969 602.582 77.2803 602.158C77.8682 601.73 78.693 601.516 79.7549 601.516H80.9854V600.935C80.9854 600.493 80.8532 600.142 80.5889 599.882C80.3245 599.618 79.9349 599.485 79.4199 599.485C78.9688 599.485 78.5905 599.599 78.2852 599.827C77.9798 600.055 77.8271 600.331 77.8271 600.654H76.5557C76.5557 600.285 76.6855 599.93 76.9453 599.588C77.2096 599.242 77.5651 598.968 78.0117 598.768C78.4629 598.567 78.9574 598.467 79.4951 598.467C80.3473 598.467 81.015 598.681 81.498 599.109C81.9811 599.533 82.2318 600.119 82.25 600.866V604.271C82.25 604.95 82.3366 605.49 82.5098 605.891V606H81.1836ZM79.085 605.036C79.4814 605.036 79.8574 604.934 80.2129 604.729C80.5684 604.523 80.8258 604.257 80.9854 603.929V602.411H79.9941C78.4447 602.411 77.6699 602.865 77.6699 603.771C77.6699 604.168 77.8021 604.478 78.0664 604.701C78.3307 604.924 78.6702 605.036 79.085 605.036ZM88.5391 604.038C88.5391 603.696 88.4092 603.432 88.1494 603.245C87.8942 603.054 87.4453 602.89 86.8027 602.753C86.1647 602.616 85.6566 602.452 85.2783 602.261C84.9046 602.069 84.6266 601.841 84.4443 601.577C84.2666 601.313 84.1777 600.998 84.1777 600.634C84.1777 600.028 84.4329 599.515 84.9434 599.096C85.4583 598.676 86.1146 598.467 86.9121 598.467C87.7507 598.467 88.4297 598.683 88.9492 599.116C89.4733 599.549 89.7354 600.103 89.7354 600.777H88.4639C88.4639 600.431 88.3158 600.132 88.0195 599.882C87.7279 599.631 87.3587 599.506 86.9121 599.506C86.4518 599.506 86.0918 599.606 85.832 599.807C85.5723 600.007 85.4424 600.269 85.4424 600.593C85.4424 600.898 85.5632 601.128 85.8047 601.283C86.0462 601.438 86.4814 601.586 87.1104 601.728C87.7438 601.869 88.2565 602.037 88.6484 602.233C89.0404 602.429 89.3298 602.666 89.5166 602.944C89.708 603.218 89.8037 603.553 89.8037 603.949C89.8037 604.61 89.5394 605.141 89.0107 605.542C88.4821 605.938 87.7962 606.137 86.9531 606.137C86.3607 606.137 85.8366 606.032 85.3809 605.822C84.9251 605.613 84.5674 605.321 84.3076 604.947C84.0524 604.569 83.9248 604.161 83.9248 603.724H85.1895C85.2122 604.147 85.3809 604.485 85.6953 604.735C86.0143 604.981 86.4336 605.104 86.9531 605.104C87.4316 605.104 87.8145 605.009 88.1016 604.817C88.3932 604.621 88.5391 604.362 88.5391 604.038ZM94.5205 606.137C93.5179 606.137 92.7021 605.809 92.0732 605.152C91.4443 604.492 91.1299 603.61 91.1299 602.507V602.274C91.1299 601.541 91.2689 600.887 91.5469 600.312C91.8294 599.734 92.2214 599.283 92.7227 598.959C93.2285 598.631 93.7754 598.467 94.3633 598.467C95.3249 598.467 96.0723 598.784 96.6055 599.417C97.1387 600.05 97.4053 600.957 97.4053 602.138V602.664H92.3945C92.4128 603.393 92.6247 603.983 93.0303 604.435C93.4404 604.881 93.96 605.104 94.5889 605.104C95.0355 605.104 95.4137 605.013 95.7236 604.831C96.0335 604.649 96.3047 604.407 96.5371 604.106L97.3096 604.708C96.6898 605.66 95.7601 606.137 94.5205 606.137ZM94.3633 599.506C93.8529 599.506 93.4245 599.693 93.0781 600.066C92.7318 600.436 92.5176 600.955 92.4355 601.625H96.1406V601.529C96.1042 600.887 95.931 600.39 95.6211 600.039C95.3112 599.684 94.8919 599.506 94.3633 599.506ZM108.896 604.257L110.318 598.604H111.583L109.43 606H108.404L106.606 600.395L104.856 606H103.831L101.685 598.604H102.942L104.398 604.141L106.121 598.604H107.14L108.896 604.257ZM117.441 606C117.368 605.854 117.309 605.594 117.264 605.221C116.676 605.831 115.974 606.137 115.158 606.137C114.429 606.137 113.83 605.932 113.36 605.521C112.896 605.107 112.663 604.583 112.663 603.949C112.663 603.179 112.955 602.582 113.538 602.158C114.126 601.73 114.951 601.516 116.013 601.516H117.243V600.935C117.243 600.493 117.111 600.142 116.847 599.882C116.582 599.618 116.193 599.485 115.678 599.485C115.227 599.485 114.848 599.599 114.543 599.827C114.238 600.055 114.085 600.331 114.085 600.654H112.813C112.813 600.285 112.943 599.93 113.203 599.588C113.467 599.242 113.823 598.968 114.27 598.768C114.721 598.567 115.215 598.467 115.753 598.467C116.605 598.467 117.273 598.681 117.756 599.109C118.239 599.533 118.49 600.119 118.508 600.866V604.271C118.508 604.95 118.594 605.49 118.768 605.891V606H117.441ZM115.343 605.036C115.739 605.036 116.115 604.934 116.471 604.729C116.826 604.523 117.084 604.257 117.243 603.929V602.411H116.252C114.702 602.411 113.928 602.865 113.928 603.771C113.928 604.168 114.06 604.478 114.324 604.701C114.589 604.924 114.928 605.036 115.343 605.036ZM121.864 606H120.6V598.604H121.864V606ZM120.497 596.642C120.497 596.437 120.559 596.263 120.682 596.122C120.809 595.981 120.996 595.91 121.242 595.91C121.488 595.91 121.675 595.981 121.803 596.122C121.93 596.263 121.994 596.437 121.994 596.642C121.994 596.847 121.93 597.018 121.803 597.154C121.675 597.291 121.488 597.359 121.242 597.359C120.996 597.359 120.809 597.291 120.682 597.154C120.559 597.018 120.497 596.847 120.497 596.642ZM125.61 596.812V598.604H126.991V599.581H125.61V604.168C125.61 604.464 125.672 604.688 125.795 604.838C125.918 604.984 126.128 605.057 126.424 605.057C126.57 605.057 126.77 605.029 127.025 604.975V606C126.693 606.091 126.369 606.137 126.055 606.137C125.49 606.137 125.063 605.966 124.776 605.624C124.489 605.282 124.346 604.797 124.346 604.168V599.581H122.999V598.604H124.346V596.812H125.61ZM138.496 604.257L139.918 598.604H141.183L139.029 606H138.004L136.206 600.395L134.456 606H133.431L131.284 598.604H132.542L133.998 604.141L135.721 598.604H136.739L138.496 604.257ZM143.739 599.499C144.3 598.811 145.029 598.467 145.927 598.467C147.49 598.467 148.278 599.349 148.292 601.112V606H147.027V601.105C147.023 600.572 146.9 600.178 146.658 599.923C146.421 599.668 146.05 599.54 145.544 599.54C145.134 599.54 144.774 599.649 144.464 599.868C144.154 600.087 143.912 600.374 143.739 600.729V606H142.475V595.5H143.739V599.499ZM151.56 606H150.295V598.604H151.56V606ZM150.192 596.642C150.192 596.437 150.254 596.263 150.377 596.122C150.505 595.981 150.691 595.91 150.938 595.91C151.184 595.91 151.37 595.981 151.498 596.122C151.626 596.263 151.689 596.437 151.689 596.642C151.689 596.847 151.626 597.018 151.498 597.154C151.37 597.291 151.184 597.359 150.938 597.359C150.691 597.359 150.505 597.291 150.377 597.154C150.254 597.018 150.192 596.847 150.192 596.642ZM154.964 606H153.699V595.5H154.964V606ZM160.063 606.137C159.061 606.137 158.245 605.809 157.616 605.152C156.987 604.492 156.673 603.61 156.673 602.507V602.274C156.673 601.541 156.812 600.887 157.09 600.312C157.372 599.734 157.764 599.283 158.266 598.959C158.771 598.631 159.318 598.467 159.906 598.467C160.868 598.467 161.615 598.784 162.148 599.417C162.682 600.05 162.948 600.957 162.948 602.138V602.664H157.938C157.956 603.393 158.168 603.983 158.573 604.435C158.983 604.881 159.503 605.104 160.132 605.104C160.578 605.104 160.957 605.013 161.267 604.831C161.576 604.649 161.848 604.407 162.08 604.106L162.853 604.708C162.233 605.66 161.303 606.137 160.063 606.137ZM159.906 599.506C159.396 599.506 158.967 599.693 158.621 600.066C158.275 600.436 158.061 600.955 157.979 601.625H161.684V601.529C161.647 600.887 161.474 600.39 161.164 600.039C160.854 599.684 160.435 599.506 159.906 599.506ZM174.439 604.257L175.861 598.604H177.126L174.973 606H173.947L172.149 600.395L170.399 606H169.374L167.228 598.604H168.485L169.941 604.141L171.664 598.604H172.683L174.439 604.257ZM181.487 606.137C180.485 606.137 179.669 605.809 179.04 605.152C178.411 604.492 178.097 603.61 178.097 602.507V602.274C178.097 601.541 178.236 600.887 178.514 600.312C178.796 599.734 179.188 599.283 179.689 598.959C180.195 598.631 180.742 598.467 181.33 598.467C182.292 598.467 183.039 598.784 183.572 599.417C184.105 600.05 184.372 600.957 184.372 602.138V602.664H179.361C179.38 603.393 179.591 603.983 179.997 604.435C180.407 604.881 180.927 605.104 181.556 605.104C182.002 605.104 182.381 605.013 182.69 604.831C183 604.649 183.271 604.407 183.504 604.106L184.276 604.708C183.657 605.66 182.727 606.137 181.487 606.137ZM181.33 599.506C180.82 599.506 180.391 599.693 180.045 600.066C179.699 600.436 179.484 600.955 179.402 601.625H183.107V601.529C183.071 600.887 182.898 600.39 182.588 600.039C182.278 599.684 181.859 599.506 181.33 599.506ZM189.937 606V599.581H188.768V598.604H189.937V597.845C189.937 597.052 190.148 596.439 190.572 596.006C190.996 595.573 191.595 595.356 192.37 595.356C192.662 595.356 192.951 595.395 193.238 595.473L193.17 596.498C192.956 596.457 192.728 596.437 192.486 596.437C192.076 596.437 191.759 596.557 191.536 596.799C191.313 597.036 191.201 597.378 191.201 597.824V598.604H192.78V599.581H191.201V606H189.937ZM197.087 606.137C196.084 606.137 195.269 605.809 194.64 605.152C194.011 604.492 193.696 603.61 193.696 602.507V602.274C193.696 601.541 193.835 600.887 194.113 600.312C194.396 599.734 194.788 599.283 195.289 598.959C195.795 598.631 196.342 598.467 196.93 598.467C197.891 598.467 198.639 598.784 199.172 599.417C199.705 600.05 199.972 600.957 199.972 602.138V602.664H194.961C194.979 603.393 195.191 603.983 195.597 604.435C196.007 604.881 196.526 605.104 197.155 605.104C197.602 605.104 197.98 605.013 198.29 604.831C198.6 604.649 198.871 604.407 199.104 604.106L199.876 604.708C199.256 605.66 198.326 606.137 197.087 606.137ZM196.93 599.506C196.419 599.506 195.991 599.693 195.645 600.066C195.298 600.436 195.084 600.955 195.002 601.625H198.707V601.529C198.671 600.887 198.497 600.39 198.188 600.039C197.878 599.684 197.458 599.506 196.93 599.506ZM203.157 596.812V598.604H204.538V599.581H203.157V604.168C203.157 604.464 203.219 604.688 203.342 604.838C203.465 604.984 203.674 605.057 203.971 605.057C204.117 605.057 204.317 605.029 204.572 604.975V606C204.24 606.091 203.916 606.137 203.602 606.137C203.036 606.137 202.61 605.966 202.323 605.624C202.036 605.282 201.893 604.797 201.893 604.168V599.581H200.546V598.604H201.893V596.812H203.157ZM208.988 605.104C209.439 605.104 209.834 604.968 210.171 604.694C210.508 604.421 210.695 604.079 210.731 603.669H211.928C211.905 604.093 211.759 604.496 211.49 604.879C211.221 605.262 210.861 605.567 210.41 605.795C209.964 606.023 209.49 606.137 208.988 606.137C207.981 606.137 207.179 605.802 206.582 605.132C205.99 604.457 205.693 603.537 205.693 602.37V602.158C205.693 601.438 205.826 600.798 206.09 600.237C206.354 599.677 206.732 599.242 207.225 598.932C207.721 598.622 208.307 598.467 208.981 598.467C209.811 598.467 210.499 598.715 211.046 599.212C211.597 599.709 211.891 600.354 211.928 601.146H210.731C210.695 600.668 210.513 600.276 210.185 599.971C209.861 599.661 209.46 599.506 208.981 599.506C208.339 599.506 207.84 599.738 207.484 600.203C207.133 600.663 206.958 601.331 206.958 602.206V602.445C206.958 603.298 207.133 603.954 207.484 604.414C207.835 604.874 208.337 605.104 208.988 605.104ZM214.614 599.499C215.175 598.811 215.904 598.467 216.802 598.467C218.365 598.467 219.153 599.349 219.167 601.112V606H217.902V601.105C217.898 600.572 217.775 600.178 217.533 599.923C217.296 599.668 216.925 599.54 216.419 599.54C216.009 599.54 215.649 599.649 215.339 599.868C215.029 600.087 214.787 600.374 214.614 600.729V606H213.35V595.5H214.614V599.499ZM226.953 604.147L228.676 598.604H230.029L227.056 607.142C226.595 608.372 225.864 608.987 224.861 608.987L224.622 608.967L224.15 608.878V607.853L224.492 607.88C224.921 607.88 225.253 607.793 225.49 607.62C225.732 607.447 225.93 607.13 226.085 606.67L226.365 605.918L223.727 598.604H225.107L226.953 604.147ZM230.72 602.233C230.72 601.509 230.861 600.857 231.144 600.278C231.431 599.7 231.827 599.253 232.333 598.938C232.843 598.624 233.424 598.467 234.076 598.467C235.083 598.467 235.897 598.815 236.517 599.513C237.141 600.21 237.453 601.137 237.453 602.295V602.384C237.453 603.104 237.314 603.751 237.036 604.325C236.763 604.895 236.368 605.339 235.854 605.658C235.343 605.977 234.755 606.137 234.09 606.137C233.087 606.137 232.274 605.788 231.649 605.091C231.03 604.394 230.72 603.471 230.72 602.322V602.233ZM231.991 602.384C231.991 603.204 232.18 603.863 232.559 604.359C232.941 604.856 233.452 605.104 234.09 605.104C234.732 605.104 235.243 604.854 235.621 604.353C235.999 603.847 236.188 603.14 236.188 602.233C236.188 601.422 235.995 600.766 235.607 600.265C235.225 599.759 234.714 599.506 234.076 599.506C233.452 599.506 232.948 599.754 232.565 600.251C232.183 600.748 231.991 601.459 231.991 602.384ZM243.605 605.269C243.113 605.847 242.391 606.137 241.438 606.137C240.65 606.137 240.049 605.909 239.634 605.453C239.224 604.993 239.016 604.314 239.012 603.416V598.604H240.276V603.382C240.276 604.503 240.732 605.063 241.644 605.063C242.61 605.063 243.252 604.703 243.571 603.983V598.604H244.836V606H243.633L243.605 605.269ZM250.339 599.738C250.147 599.706 249.94 599.69 249.717 599.69C248.887 599.69 248.325 600.044 248.028 600.75V606H246.764V598.604H247.994L248.015 599.458C248.429 598.797 249.017 598.467 249.778 598.467C250.024 598.467 250.211 598.499 250.339 598.562V599.738ZM256.354 606H255.09V595.5H256.354V606ZM258.05 602.233C258.05 601.509 258.191 600.857 258.474 600.278C258.761 599.7 259.157 599.253 259.663 598.938C260.174 598.624 260.755 598.467 261.406 598.467C262.413 598.467 263.227 598.815 263.847 599.513C264.471 600.21 264.783 601.137 264.783 602.295V602.384C264.783 603.104 264.644 603.751 264.366 604.325C264.093 604.895 263.699 605.339 263.184 605.658C262.673 605.977 262.085 606.137 261.42 606.137C260.417 606.137 259.604 605.788 258.979 605.091C258.36 604.394 258.05 603.471 258.05 602.322V602.233ZM259.321 602.384C259.321 603.204 259.51 603.863 259.889 604.359C260.271 604.856 260.782 605.104 261.42 605.104C262.062 605.104 262.573 604.854 262.951 604.353C263.329 603.847 263.519 603.14 263.519 602.233C263.519 601.422 263.325 600.766 262.938 600.265C262.555 599.759 262.044 599.506 261.406 599.506C260.782 599.506 260.278 599.754 259.896 600.251C259.513 600.748 259.321 601.459 259.321 602.384ZM269.336 605.104C269.787 605.104 270.181 604.968 270.519 604.694C270.856 604.421 271.043 604.079 271.079 603.669H272.275C272.253 604.093 272.107 604.496 271.838 604.879C271.569 605.262 271.209 605.567 270.758 605.795C270.311 606.023 269.837 606.137 269.336 606.137C268.329 606.137 267.527 605.802 266.93 605.132C266.337 604.457 266.041 603.537 266.041 602.37V602.158C266.041 601.438 266.173 600.798 266.438 600.237C266.702 599.677 267.08 599.242 267.572 598.932C268.069 598.622 268.655 598.467 269.329 598.467C270.159 598.467 270.847 598.715 271.394 599.212C271.945 599.709 272.239 600.354 272.275 601.146H271.079C271.043 600.668 270.86 600.276 270.532 599.971C270.209 599.661 269.808 599.506 269.329 599.506C268.687 599.506 268.188 599.738 267.832 600.203C267.481 600.663 267.306 601.331 267.306 602.206V602.445C267.306 603.298 267.481 603.954 267.832 604.414C268.183 604.874 268.684 605.104 269.336 605.104ZM278.264 606C278.191 605.854 278.132 605.594 278.086 605.221C277.498 605.831 276.796 606.137 275.98 606.137C275.251 606.137 274.652 605.932 274.183 605.521C273.718 605.107 273.485 604.583 273.485 603.949C273.485 603.179 273.777 602.582 274.36 602.158C274.948 601.73 275.773 601.516 276.835 601.516H278.065V600.935C278.065 600.493 277.933 600.142 277.669 599.882C277.405 599.618 277.015 599.485 276.5 599.485C276.049 599.485 275.671 599.599 275.365 599.827C275.06 600.055 274.907 600.331 274.907 600.654H273.636C273.636 600.285 273.766 599.93 274.025 599.588C274.29 599.242 274.645 598.968 275.092 598.768C275.543 598.567 276.037 598.467 276.575 598.467C277.427 598.467 278.095 598.681 278.578 599.109C279.061 599.533 279.312 600.119 279.33 600.866V604.271C279.33 604.95 279.417 605.49 279.59 605.891V606H278.264ZM276.165 605.036C276.562 605.036 276.938 604.934 277.293 604.729C277.648 604.523 277.906 604.257 278.065 603.929V602.411H277.074C275.525 602.411 274.75 602.865 274.75 603.771C274.75 604.168 274.882 604.478 275.146 604.701C275.411 604.924 275.75 605.036 276.165 605.036ZM283.028 596.812V598.604H284.409V599.581H283.028V604.168C283.028 604.464 283.09 604.688 283.213 604.838C283.336 604.984 283.546 605.057 283.842 605.057C283.988 605.057 284.188 605.029 284.443 604.975V606C284.111 606.091 283.787 606.137 283.473 606.137C282.908 606.137 282.481 605.966 282.194 605.624C281.907 605.282 281.764 604.797 281.764 604.168V599.581H280.417V598.604H281.764V596.812H283.028ZM287.267 606H286.002V598.604H287.267V606ZM285.899 596.642C285.899 596.437 285.961 596.263 286.084 596.122C286.212 595.981 286.398 595.91 286.645 595.91C286.891 595.91 287.077 595.981 287.205 596.122C287.333 596.263 287.396 596.437 287.396 596.642C287.396 596.847 287.333 597.018 287.205 597.154C287.077 597.291 286.891 597.359 286.645 597.359C286.398 597.359 286.212 597.291 286.084 597.154C285.961 597.018 285.899 596.847 285.899 596.642ZM288.962 602.233C288.962 601.509 289.103 600.857 289.386 600.278C289.673 599.7 290.069 599.253 290.575 598.938C291.086 598.624 291.667 598.467 292.318 598.467C293.326 598.467 294.139 598.815 294.759 599.513C295.383 600.21 295.695 601.137 295.695 602.295V602.384C295.695 603.104 295.556 603.751 295.278 604.325C295.005 604.895 294.611 605.339 294.096 605.658C293.585 605.977 292.997 606.137 292.332 606.137C291.329 606.137 290.516 605.788 289.892 605.091C289.272 604.394 288.962 603.471 288.962 602.322V602.233ZM290.233 602.384C290.233 603.204 290.423 603.863 290.801 604.359C291.184 604.856 291.694 605.104 292.332 605.104C292.975 605.104 293.485 604.854 293.863 604.353C294.242 603.847 294.431 603.14 294.431 602.233C294.431 601.422 294.237 600.766 293.85 600.265C293.467 599.759 292.956 599.506 292.318 599.506C291.694 599.506 291.19 599.754 290.808 600.251C290.425 600.748 290.233 601.459 290.233 602.384ZM298.478 598.604L298.519 599.533C299.084 598.822 299.822 598.467 300.733 598.467C302.297 598.467 303.085 599.349 303.099 601.112V606H301.834V601.105C301.829 600.572 301.706 600.178 301.465 599.923C301.228 599.668 300.856 599.54 300.351 599.54C299.94 599.54 299.58 599.649 299.271 599.868C298.961 600.087 298.719 600.374 298.546 600.729V606H297.281V598.604H298.478Z" fill="#4F4F4F"/>
<circle cx="180" cy="177" r="165" fill="#F2F2F2"/>
<circle cx="180" cy="177" r="165" fill="#F2F2F2"/>
<path d="M330 256.44H30V256.59H330V256.44Z" fill="#E0E0E0"/>
<path d="M133.398 260.064H127.11V260.214H133.398V260.064Z" fill="#E0E0E0"/>
<path d="M309.714 264H286.95V264.15H309.714V264Z" fill="#E0E0E0"/>
<path d="M238.8 260.136H220.404V260.286H238.8V260.136Z" fill="#E0E0E0"/>
<path d="M175.482 263.556H143.466V263.706H175.482V263.556Z" fill="#E0E0E0"/>
<path d="M113.802 262.608H102.798V262.758H113.802V262.608Z" fill="#E0E0E0"/>
<path d="M284.052 264H274.896V264.15H284.052V264Z" fill="#E0E0E0"/>
<path d="M99.3 262.536H68.958V262.686H99.3V262.536Z" fill="#E0E0E0"/>
<path d="M237.81 144.072H192.33V149.46H237.81V144.072Z" fill="#F5F5F5"/>
<path d="M153.18 164.964H152.796V176.304H153.18V164.964Z" fill="#E0E0E0"/>
<path d="M241.164 140.874L241.482 141.144L241.86 141.444C242.112 141.648 242.382 141.852 242.646 142.044C243.186 142.434 243.738 142.818 244.314 143.166C245.456 143.888 246.645 144.534 247.872 145.098C249.106 145.652 250.37 146.136 251.658 146.55C252.312 146.724 252.954 146.94 253.62 147.072L254.616 147.288H254.736C254.736 147.288 254.736 147.288 254.706 147.288C254.676 147.288 254.646 147.354 254.706 147.288C254.829 147.157 254.926 147.004 254.994 146.838C255.226 146.309 255.389 145.752 255.48 145.182C255.694 143.842 255.804 142.488 255.81 141.132C255.81 139.734 255.81 138.312 255.726 136.89C255.642 135.468 255.552 134.022 255.432 132.612L257.532 132.234C258.259 135.121 258.748 138.063 258.996 141.03C259.137 142.575 259.137 144.129 258.996 145.674C258.913 146.548 258.724 147.408 258.432 148.236C258.245 148.751 257.98 149.235 257.646 149.67C257.212 150.244 256.62 150.68 255.942 150.924C255.423 151.108 254.871 151.178 254.322 151.128L254.076 151.098H253.932L252.786 150.912C252.018 150.798 251.268 150.594 250.506 150.432C249.003 150.049 247.531 149.554 246.102 148.95C244.672 148.342 243.288 147.63 241.962 146.82C241.296 146.418 240.654 145.974 240.018 145.512C239.7 145.278 239.388 145.038 239.076 144.786C238.92 144.66 238.77 144.528 238.614 144.39C238.458 144.252 238.32 144.132 238.116 143.94L241.164 140.874Z" fill="#9F5B53"/>
<path d="M235.146 138.354C241.224 137.526 246.132 142.44 246.132 142.44L241.596 150.156C241.596 150.156 234.6 147.21 233.544 144.6C232.452 141.9 232.026 138.774 235.146 138.354Z" fill="#184466"/>
<path opacity="0.3" d="M235.146 138.354C241.224 137.526 246.132 142.44 246.132 142.44L241.596 150.156C241.596 150.156 234.6 147.21 233.544 144.6C232.452 141.9 232.026 138.774 235.146 138.354Z" fill="black"/>
<path d="M256.002 133.746L252.672 130.674L257.61 128.748C257.61 128.748 259.176 131.388 257.91 134.028L256.002 133.746Z" fill="#9F5B53"/>
<path d="M252 126.27L255.93 125.52L257.61 128.748L252.672 130.674L252 126.27Z" fill="#9F5B53"/>
<path d="M213.6 272.142L218.496 272.622L223.596 260.964L218.7 260.484L213.6 272.142Z" fill="#9F5B53"/>
<path d="M182.058 254.91L185.736 258.366L193.674 249.636L189.996 246.186L182.058 254.91Z" fill="#9F5B53"/>
<path d="M187.434 256.71L184.668 251.73C184.622 251.643 184.546 251.577 184.454 251.543C184.363 251.508 184.262 251.509 184.17 251.544L179.916 253.164C179.81 253.207 179.715 253.273 179.636 253.357C179.558 253.44 179.498 253.539 179.46 253.647C179.423 253.756 179.409 253.871 179.419 253.985C179.43 254.099 179.464 254.21 179.52 254.31C180.516 256.032 181.08 256.812 182.292 259.002C183.042 260.346 184.5 263.436 185.532 265.296C186.564 267.156 188.46 266.238 188.196 265.368C186.996 261.48 187.236 259.314 187.596 257.598C187.647 257.292 187.59 256.978 187.434 256.71Z" fill="#263238"/>
<path d="M219.15 271.11H213.15C213.042 271.111 212.938 271.148 212.852 271.214C212.767 271.28 212.705 271.372 212.676 271.476L211.368 276.234C211.336 276.347 211.331 276.465 211.353 276.58C211.376 276.695 211.425 276.803 211.497 276.895C211.569 276.988 211.661 277.062 211.767 277.112C211.873 277.161 211.989 277.186 212.106 277.182C214.224 277.182 215.226 277.182 217.872 277.182H225.954C228.156 277.182 228.612 274.962 227.706 274.782C223.626 273.882 221.274 272.634 220.02 271.452C219.786 271.228 219.474 271.106 219.15 271.11Z" fill="#263238"/>
<path d="M223.59 260.97L220.968 266.976H215.856L218.694 260.49L223.59 260.97Z" fill="#8A4743"/>
<path d="M189.99 246.186L193.674 249.642L189.576 254.136L185.898 250.68L189.99 246.186Z" fill="#8A4743"/>
<path d="M240.348 138.918C240.348 138.918 242.544 139.89 235.164 169.11L214.65 167.31C215.718 158.988 216.174 153.84 213.66 136.362C216.585 136.02 219.531 135.89 222.474 135.972C225.594 136.025 228.706 136.302 231.786 136.8C234.674 137.362 237.531 138.069 240.348 138.918V138.918Z" fill="#184466"/>
<path opacity="0.3" d="M240.348 138.918C240.348 138.918 242.544 139.89 235.164 169.11L214.65 167.31C215.718 158.988 216.174 153.84 213.66 136.362C216.585 136.02 219.531 135.89 222.474 135.972C225.594 136.025 228.706 136.302 231.786 136.8C234.674 137.362 237.531 138.069 240.348 138.918V138.918Z" fill="black"/>
<path d="M222.474 135.996C222.474 135.996 221.31 135.87 219.936 135.87C219.108 137.148 221.622 142.002 226.062 145.65C227.057 143.972 228.32 142.468 229.8 141.198L222.474 135.996Z" fill="#FAFAFA"/>
<path d="M231.786 136.8C232.38 136.837 232.969 136.932 233.544 137.082C234.372 138.36 235.974 142.878 233.544 145.65C232.55 143.972 231.287 142.468 229.806 141.198L231.786 136.8Z" fill="#FAFAFA"/>
<path d="M230.466 144.45C230.466 144.816 230.364 145.116 230.19 145.128C230.016 145.14 229.866 144.846 229.842 144.486C229.818 144.126 229.944 143.814 230.118 143.808C230.292 143.802 230.448 144.084 230.466 144.45Z" fill="#FAFAFA"/>
<path d="M230.4 147.228C230.4 147.588 230.244 147.882 230.07 147.882C229.896 147.882 229.77 147.576 229.776 147.21C229.782 146.844 229.932 146.556 230.106 146.556C230.28 146.556 230.43 146.862 230.4 147.228Z" fill="#FAFAFA"/>
<path d="M224.304 125.586C224.634 128.634 224.742 134.178 222.504 135.996C224.701 138.039 227.153 139.787 229.8 141.198C233.364 138.738 231.786 136.8 231.786 136.8C228.516 135.714 228.816 133.242 229.596 130.962L224.304 125.586Z" fill="#9F5B53"/>
<path d="M226.465 127.8L229.597 130.98C229.407 131.509 229.263 132.053 229.165 132.606C227.905 132.312 226.081 131.004 226.062 129.654C226.083 129.017 226.22 128.388 226.465 127.8V127.8Z" fill="#8A4743"/>
<path d="M230.292 116.556C230.292 116.556 233.616 119.82 234.348 121.41C236.364 122.16 235.818 116.85 234.288 113.778C231.6 116.172 230.292 116.556 230.292 116.556Z" fill="#263238"/>
<path d="M221.622 120.822C222.894 125.694 223.326 127.782 226.314 129.822C230.802 132.888 236.514 130.26 236.712 125.112C236.904 120.474 234.792 113.292 229.584 112.284C228.437 112.054 227.25 112.121 226.136 112.479C225.022 112.838 224.018 113.475 223.22 114.331C222.422 115.186 221.857 116.232 221.577 117.368C221.297 118.504 221.313 119.693 221.622 120.822V120.822Z" fill="#9F5B53"/>
<path d="M232.668 114.6C234.9 114.93 237.126 112.842 233.514 110.604C234.672 110.484 235.914 106.404 231.714 106.626C231.51 104.688 227.352 102.96 225.114 106.026C222.528 104.322 218.856 106.062 219.678 108.708C216.708 108.894 215.16 112.95 217.614 113.61C214.662 115.41 214.146 118.32 217.014 118.848C217.41 122.214 224.004 120.708 223.494 117.576C224.694 118.218 228.462 116.838 227.694 115.176C228.912 116.742 232.668 116.028 232.668 114.6Z" fill="#263238"/>
<path d="M219 118.884C219 118.884 221.448 122.844 221.772 124.566C223.572 125.766 224.298 120.492 223.572 117.144C220.35 118.8 219 118.884 219 118.884Z" fill="#263238"/>
<path d="M221.22 125.22C221.676 126.081 222.452 126.727 223.38 127.02C224.616 127.386 225.258 126.288 224.94 125.112C224.646 124.05 223.656 122.58 222.408 122.712C222.135 122.749 221.876 122.854 221.653 123.016C221.431 123.179 221.253 123.395 221.135 123.644C221.017 123.893 220.963 124.168 220.978 124.443C220.993 124.718 221.076 124.985 221.22 125.22V125.22Z" fill="#9F5B53"/>
<path d="M235.164 169.11C235.164 169.11 242.106 199.812 237.468 221.454C234.366 235.95 223.176 265.254 223.176 265.254L214.428 265.026C214.428 265.026 222.9 234.294 224.628 222.21C227.628 201.534 220.116 167.826 220.116 167.826L235.164 169.11Z" fill="#184466"/>
<path opacity="0.6" d="M235.164 169.11C235.164 169.11 242.106 199.812 237.468 221.454C234.366 235.95 223.176 265.254 223.176 265.254L214.428 265.026C214.428 265.026 222.9 234.294 224.628 222.21C227.628 201.534 220.116 167.826 220.116 167.826L235.164 169.11Z" fill="#FAFAFA"/>
<path d="M227.16 175.308L222.786 182.208C224.103 190.39 224.939 198.642 225.288 206.922C231.438 195.906 228.528 181.14 227.16 175.308Z" fill="#184466"/>
<path opacity="0.4" d="M227.16 175.308L222.786 182.208C224.103 190.39 224.939 198.642 225.288 206.922C231.438 195.906 228.528 181.14 227.16 175.308Z" fill="#FAFAFA"/>
<path d="M224.412 265.686L213.6 265.416L214.23 262.092L226.026 262.65L224.412 265.686Z" fill="#184466"/>
<path opacity="0.3" d="M224.412 265.686L213.6 265.416L214.23 262.092L226.026 262.65L224.412 265.686Z" fill="black"/>
<path d="M230.676 168.78C230.676 168.78 226.608 201.342 217.782 219.114C210.654 233.472 191.628 253.914 191.628 253.914L186.768 248.904C186.768 248.904 199.614 226.704 204.912 217.152C217.902 193.752 207.312 175.92 214.65 167.352L230.676 168.78Z" fill="#184466"/>
<path opacity="0.6" d="M230.676 168.78C230.676 168.78 226.608 201.342 217.782 219.114C210.654 233.472 191.628 253.914 191.628 253.914L186.768 248.904C186.768 248.904 199.614 226.704 204.912 217.152C217.902 193.752 207.312 175.92 214.65 167.352L230.676 168.78Z" fill="#FAFAFA"/>
<path d="M192.12 254.58L185.844 248.466L187.926 245.628L194.766 252.702L192.12 254.58Z" fill="#184466"/>
<path opacity="0.3" d="M192.12 254.58L185.844 248.466L187.926 245.628L194.766 252.702L192.12 254.58Z" fill="black"/>
<path d="M214.446 166.104L213.36 167.856C213.276 167.994 213.438 168.156 213.672 168.174L235.182 170.034C235.368 170.034 235.53 169.974 235.554 169.86L235.896 168.06C235.896 167.934 235.77 167.808 235.566 167.79L214.794 165.99C214.731 165.978 214.666 165.982 214.606 166.002C214.545 166.022 214.49 166.057 214.446 166.104V166.104Z" fill="#263238"/>
<path d="M217.039 168.666L216.481 168.618C216.367 168.618 216.289 168.546 216.301 168.474L216.769 166.11C216.769 166.044 216.889 165.996 216.997 166.002L217.555 166.05C217.663 166.05 217.741 166.128 217.729 166.194L217.261 168.558C217.249 168.63 217.147 168.678 217.039 168.666Z" fill="#184466"/>
<path opacity="0.6" d="M217.039 168.666L216.481 168.618C216.367 168.618 216.289 168.546 216.301 168.474L216.769 166.11C216.769 166.044 216.889 165.996 216.997 166.002L217.555 166.05C217.663 166.05 217.741 166.128 217.729 166.194L217.261 168.558C217.249 168.63 217.147 168.678 217.039 168.666Z" fill="#FAFAFA"/>
<path d="M233.604 170.1L233.046 170.052C232.938 170.052 232.86 169.98 232.872 169.908L233.34 167.544C233.34 167.478 233.454 167.43 233.562 167.436L234.12 167.484C234.234 167.484 234.312 167.562 234.3 167.628L233.832 169.992C233.811 170.032 233.777 170.064 233.736 170.084C233.695 170.103 233.649 170.109 233.604 170.1Z" fill="#184466"/>
<path opacity="0.6" d="M233.604 170.1L233.046 170.052C232.938 170.052 232.86 169.98 232.872 169.908L233.34 167.544C233.34 167.478 233.454 167.43 233.562 167.436L234.12 167.484C234.234 167.484 234.312 167.562 234.3 167.628L233.832 169.992C233.811 170.032 233.777 170.064 233.736 170.084C233.695 170.103 233.649 170.109 233.604 170.1Z" fill="#FAFAFA"/>
<path d="M225.318 169.386L224.766 169.338C224.652 169.338 224.574 169.26 224.586 169.194L225.054 166.83C225.054 166.758 225.168 166.71 225.282 166.722L225.834 166.77C225.948 166.77 226.026 166.842 226.014 166.914L225.546 169.272C225.534 169.344 225.432 169.392 225.318 169.386Z" fill="#184466"/>
<path opacity="0.6" d="M225.318 169.386L224.766 169.338C224.652 169.338 224.574 169.26 224.586 169.194L225.054 166.83C225.054 166.758 225.168 166.71 225.282 166.722L225.834 166.77C225.948 166.77 226.026 166.842 226.014 166.914L225.546 169.272C225.534 169.344 225.432 169.392 225.318 169.386Z" fill="#FAFAFA"/>
<path d="M229.368 120.732C229.446 121.134 229.722 121.416 229.968 121.362C230.214 121.308 230.376 120.948 230.298 120.546C230.22 120.144 229.944 119.862 229.698 119.91C229.452 119.958 229.29 120.33 229.368 120.732Z" fill="#263238"/>
<path d="M233.904 119.838C233.982 120.24 234.258 120.522 234.504 120.474C234.75 120.426 234.912 120.054 234.834 119.652C234.756 119.25 234.48 118.968 234.234 119.052C233.988 119.136 233.82 119.436 233.904 119.838Z" fill="#263238"/>
<path d="M234.12 119.064L235.032 118.596C235.032 118.596 234.684 119.448 234.12 119.064Z" fill="#263238"/>
<path d="M232.836 120.768C233.376 121.61 234.028 122.375 234.774 123.042C234.598 123.228 234.384 123.375 234.145 123.47C233.907 123.565 233.651 123.608 233.394 123.594L232.836 120.768Z" fill="#892B29"/>
<path d="M231.54 125.508C230.695 125.519 229.878 125.208 229.254 124.638C229.236 124.618 229.227 124.592 229.227 124.566C229.227 124.539 229.236 124.513 229.254 124.494C229.273 124.475 229.299 124.464 229.326 124.464C229.353 124.464 229.379 124.475 229.398 124.494C229.783 124.83 230.241 125.073 230.735 125.201C231.23 125.329 231.748 125.34 232.248 125.232C232.274 125.226 232.302 125.231 232.324 125.246C232.346 125.261 232.362 125.283 232.368 125.31C232.371 125.322 232.371 125.335 232.368 125.348C232.366 125.361 232.361 125.373 232.353 125.383C232.346 125.394 232.337 125.403 232.326 125.41C232.315 125.417 232.303 125.421 232.29 125.424C232.044 125.477 231.792 125.505 231.54 125.508V125.508Z" fill="#263238"/>
<path d="M227.136 118.2C227.103 118.208 227.068 118.208 227.034 118.2C226.99 118.171 226.958 118.127 226.946 118.075C226.933 118.024 226.941 117.969 226.968 117.924C227.152 117.599 227.412 117.323 227.725 117.119C228.039 116.915 228.396 116.79 228.768 116.754C228.82 116.754 228.871 116.774 228.909 116.809C228.946 116.845 228.969 116.894 228.972 116.946C228.973 116.972 228.969 116.998 228.96 117.022C228.95 117.046 228.937 117.069 228.919 117.088C228.901 117.107 228.879 117.122 228.856 117.133C228.832 117.143 228.806 117.149 228.78 117.15C228.474 117.185 228.18 117.292 227.922 117.462C227.665 117.632 227.451 117.86 227.298 118.128C227.279 118.152 227.254 118.171 227.226 118.184C227.198 118.196 227.167 118.202 227.136 118.2Z" fill="#263238"/>
<path d="M235.656 117.492C235.625 117.5 235.592 117.5 235.56 117.492C235.292 117.329 234.988 117.233 234.674 117.213C234.361 117.193 234.047 117.25 233.76 117.378C233.713 117.401 233.659 117.406 233.608 117.39C233.558 117.374 233.516 117.34 233.49 117.294C233.467 117.246 233.462 117.192 233.478 117.142C233.494 117.091 233.528 117.049 233.574 117.024C233.916 116.869 234.289 116.8 234.663 116.821C235.037 116.841 235.4 116.952 235.722 117.144C235.745 117.156 235.765 117.173 235.782 117.193C235.798 117.214 235.81 117.237 235.818 117.262C235.825 117.287 235.827 117.314 235.824 117.34C235.821 117.366 235.813 117.391 235.8 117.414C235.784 117.436 235.762 117.455 235.737 117.469C235.712 117.482 235.685 117.49 235.656 117.492Z" fill="#263238"/>
<path d="M215.22 143.73C214.387 145.394 213.461 147.01 212.448 148.572C211.44 150.12 210.372 151.62 209.226 153.078C208.066 154.533 206.82 155.917 205.494 157.224C204.816 157.872 204.138 158.52 203.406 159.12L202.866 159.582C202.613 159.79 202.344 159.978 202.062 160.146C201.371 160.553 200.579 160.761 199.776 160.746C198.96 160.712 198.172 160.434 197.514 159.948C197.006 159.578 196.557 159.133 196.182 158.628C195.57 157.79 195.06 156.881 194.664 155.922C193.949 154.188 193.385 152.395 192.978 150.564C192.18 147.021 191.652 143.422 191.4 139.8L193.518 139.536C193.86 141.24 194.226 142.98 194.652 144.684C195.078 146.388 195.51 148.086 196.032 149.73C196.519 151.347 197.12 152.927 197.832 154.458C198.157 155.132 198.56 155.767 199.032 156.348C199.205 156.551 199.407 156.727 199.632 156.87C199.8 156.966 199.854 156.948 199.86 156.936C199.947 156.91 200.028 156.869 200.1 156.816C200.178 156.762 200.274 156.684 200.376 156.6L200.832 156.168C201.432 155.61 202.032 154.998 202.632 154.368C203.784 153.126 204.852 151.794 205.896 150.444C206.94 149.094 207.894 147.654 208.806 146.196C209.268 145.476 209.712 144.738 210.15 143.994C210.588 143.25 211.002 142.482 211.35 141.786L215.22 143.73Z" fill="#9F5B53"/>
<path d="M194.46 140.274L193.926 135.78L189.474 138.648C189.474 138.648 190.932 141.048 192.948 141.696L194.46 140.274Z" fill="#9F5B53"/>
<path d="M192.276 133.956L189.366 136.704L189.474 138.648L193.926 135.78L192.276 133.956Z" fill="#9F5B53"/>
<path d="M213.661 136.386C211.147 136.836 207.625 144.048 207.625 144.048L213.966 149.778C213.966 149.778 219.007 144.282 218.737 141.006C218.509 138.222 216.865 135.822 213.661 136.386Z" fill="#184466"/>
<path opacity="0.3" d="M213.661 136.386C211.147 136.836 207.625 144.048 207.625 144.048L213.966 149.778C213.966 149.778 219.007 144.282 218.737 141.006C218.509 138.222 216.865 135.822 213.661 136.386Z" fill="black"/>
<path d="M188.4 259.386C188.335 259.386 188.269 259.374 188.208 259.35C187.608 259.152 187.212 258.036 187.008 257.388C187.005 257.369 187.006 257.35 187.013 257.332C187.019 257.314 187.03 257.298 187.044 257.286C187.06 257.276 187.079 257.271 187.098 257.271C187.117 257.271 187.136 257.276 187.152 257.286C187.338 257.382 188.952 258.24 188.994 258.876C189.001 258.945 188.988 259.014 188.959 259.076C188.929 259.138 188.883 259.191 188.826 259.23C188.705 259.327 188.555 259.381 188.4 259.386V259.386ZM187.29 257.586C187.566 258.474 187.926 259.068 188.268 259.182C188.347 259.204 188.429 259.206 188.509 259.189C188.589 259.171 188.663 259.133 188.724 259.08C188.754 259.061 188.779 259.035 188.795 259.003C188.811 258.971 188.817 258.935 188.814 258.9C188.784 258.492 187.842 257.88 187.29 257.568V257.586Z" fill="#184466"/>
<path d="M188.652 257.82C188.105 257.817 187.565 257.69 187.074 257.448C187.06 257.439 187.047 257.427 187.039 257.412C187.031 257.397 187.026 257.381 187.026 257.364C187.026 257.346 187.031 257.328 187.039 257.313C187.047 257.297 187.06 257.283 187.074 257.274C187.128 257.244 188.4 256.548 189.084 256.788C189.17 256.815 189.249 256.862 189.315 256.924C189.38 256.987 189.431 257.063 189.462 257.148C189.504 257.228 189.518 257.32 189.502 257.409C189.485 257.498 189.44 257.579 189.372 257.64C189.157 257.774 188.905 257.837 188.652 257.82ZM187.344 257.364C187.89 257.598 188.946 257.742 189.24 257.484C189.288 257.442 189.342 257.376 189.276 257.22C189.255 257.162 189.22 257.111 189.176 257.069C189.131 257.028 189.077 256.997 189.018 256.98C188.556 256.8 187.704 257.184 187.344 257.364Z" fill="#184466"/>
<path d="M221.82 272.082C221.267 272.068 220.716 271.998 220.176 271.872C220.156 271.868 220.137 271.858 220.123 271.843C220.109 271.827 220.101 271.808 220.098 271.788C220.096 271.767 220.1 271.746 220.11 271.728C220.119 271.71 220.134 271.695 220.152 271.686C220.404 271.566 222.588 270.564 223.152 270.93C223.202 270.964 223.241 271.011 223.266 271.066C223.292 271.121 223.302 271.182 223.296 271.242C223.292 271.352 223.262 271.46 223.211 271.558C223.159 271.655 223.085 271.74 222.996 271.806C222.643 272.017 222.231 272.114 221.82 272.082V272.082ZM220.518 271.74C221.166 271.86 222.366 272.016 222.858 271.644C222.925 271.597 222.979 271.535 223.017 271.463C223.054 271.391 223.074 271.311 223.074 271.23C223.074 271.146 223.074 271.116 223.02 271.098C222.714 270.888 221.4 271.338 220.518 271.74V271.74Z" fill="#184466"/>
<path d="M220.201 271.878C220.179 271.884 220.156 271.884 220.135 271.878C220.12 271.866 220.109 271.85 220.103 271.832C220.097 271.814 220.095 271.795 220.099 271.776C220.099 271.686 220.633 269.526 221.803 269.67C222.097 269.706 222.181 269.856 222.193 269.97C222.271 270.522 220.891 271.626 220.237 271.89L220.201 271.878ZM221.695 269.838C220.939 269.838 220.495 271.092 220.351 271.596C221.059 271.224 222.043 270.324 221.995 269.976C221.995 269.976 221.995 269.868 221.779 269.844L221.695 269.838Z" fill="#184466"/>
<path d="M229.59 119.958L230.496 119.49C230.496 119.49 230.148 120.342 229.59 119.958Z" fill="#263238"/>
<path d="M104.118 121.2C109.437 115.866 115.759 111.635 122.718 108.752C129.678 105.869 137.139 104.39 144.672 104.4H152.79C152.79 104.4 191.088 114.426 191.088 155.454C191.088 195.558 164.574 231.054 152.796 242.85H144.684L104.118 202.284C93.3719 191.528 87.3354 176.946 87.3354 161.742C87.3354 146.538 93.3719 131.956 104.118 121.2V121.2ZM144.678 188.4C149.945 188.4 155.093 186.838 159.473 183.912C163.852 180.986 167.265 176.827 169.28 171.961C171.295 167.095 171.822 161.74 170.794 156.575C169.766 151.409 167.229 146.665 163.505 142.941C159.78 139.217 155.035 136.682 149.869 135.655C144.704 134.628 139.349 135.156 134.484 137.173C129.618 139.189 125.46 142.603 122.535 146.983C119.61 151.362 118.049 156.511 118.05 161.778C118.064 168.831 120.876 175.59 125.868 180.572C130.861 185.554 137.625 188.352 144.678 188.352V188.4Z" fill="#4A4D4F"/>
<path d="M194.4 120.114C192.025 117.741 189.456 115.572 186.72 113.628L187.062 113.136C189.829 115.101 192.426 117.294 194.826 119.694L194.4 120.114ZM183.132 111.282C181.722 110.43 180.258 109.626 178.788 108.882L179.052 108.342C180.54 109.08 182.016 109.89 183.444 110.742L183.132 111.282Z" fill="#184466"/>
<path opacity="0.2" d="M194.4 120.114C192.025 117.741 189.456 115.572 186.72 113.628L187.062 113.136C189.829 115.101 192.426 117.294 194.826 119.694L194.4 120.114ZM183.132 111.282C181.722 110.43 180.258 109.626 178.788 108.882L179.052 108.342C180.54 109.08 182.016 109.89 183.444 110.742L183.132 111.282Z" fill="black"/>
<path d="M112.23 121.2C123.052 110.782 137.528 105.024 152.549 105.166C167.57 105.307 181.936 111.335 192.559 121.956C203.182 132.576 209.215 146.94 209.361 161.961C209.507 176.981 203.754 191.46 193.338 202.284L152.796 242.832L112.23 202.266C101.487 191.513 95.4517 176.934 95.4517 161.733C95.4517 146.532 101.487 131.954 112.23 121.2V121.2ZM152.79 188.4C158.057 188.4 163.206 186.838 167.585 183.912C171.964 180.986 175.377 176.827 177.392 171.961C179.407 167.095 179.934 161.741 178.906 156.575C177.878 151.41 175.342 146.665 171.617 142.941C167.892 139.217 163.147 136.682 157.982 135.655C152.816 134.628 147.462 135.156 142.596 137.173C137.731 139.189 133.572 142.603 130.647 146.983C127.722 151.363 126.161 156.511 126.162 161.778C126.177 168.831 128.988 175.59 133.981 180.572C138.973 185.554 145.738 188.352 152.79 188.352V188.4Z" fill="#184466"/>
<path opacity="0.2" d="M112.23 121.2C123.052 110.782 137.528 105.024 152.549 105.166C167.57 105.307 181.936 111.335 192.559 121.956C203.182 132.576 209.215 146.94 209.361 161.961C209.507 176.981 203.754 191.46 193.338 202.284L152.796 242.832L112.23 202.266C101.487 191.513 95.4517 176.934 95.4517 161.733C95.4517 146.532 101.487 131.954 112.23 121.2V121.2ZM152.79 188.4C158.057 188.4 163.206 186.838 167.585 183.912C171.964 180.986 175.377 176.827 177.392 171.961C179.407 167.095 179.934 161.741 178.906 156.575C177.878 151.41 175.342 146.665 171.617 142.941C167.892 139.217 163.147 136.682 157.982 135.655C152.816 134.628 147.462 135.156 142.596 137.173C137.731 139.189 133.572 142.603 130.647 146.983C127.722 151.363 126.161 156.511 126.162 161.778C126.177 168.831 128.988 175.59 133.981 180.572C138.973 185.554 145.738 188.352 152.79 188.352V188.4Z" fill="black"/>
<g style="mix-blend-mode:color-dodge" opacity="0.4">
<path d="M152.796 239.586C152.776 239.586 152.756 239.581 152.737 239.573C152.718 239.565 152.702 239.553 152.688 239.538L113.82 200.676C106.117 192.97 100.873 183.154 98.7488 172.468C96.6249 161.782 97.7173 150.706 101.888 140.64C106.058 130.575 113.119 121.972 122.179 115.919C131.238 109.867 141.889 106.636 152.784 106.636C163.679 106.636 174.33 109.867 183.389 115.919C192.448 121.972 199.51 130.575 203.68 140.64C207.851 150.706 208.943 161.782 206.819 172.468C204.695 183.154 199.45 192.97 191.748 200.676L152.898 239.52C152.887 239.538 152.872 239.553 152.855 239.565C152.837 239.576 152.817 239.584 152.796 239.586V239.586ZM152.796 106.932C141.96 106.934 131.368 110.149 122.359 116.17C113.35 122.191 106.329 130.748 102.183 140.759C98.0369 150.771 96.9524 161.786 99.0664 172.414C101.18 183.042 106.398 192.804 114.06 200.466L152.82 239.22L191.562 200.484L191.664 200.586L191.562 200.484C199.223 192.817 204.439 183.052 206.55 172.421C208.662 161.791 207.575 150.773 203.426 140.76C199.277 130.747 192.252 122.19 183.241 116.168C174.229 110.147 163.634 106.933 152.796 106.932V106.932ZM152.796 190.932C147.025 190.932 141.383 189.221 136.585 186.014C131.786 182.808 128.047 178.251 125.838 172.919C123.63 167.587 123.053 161.72 124.179 156.06C125.305 150.399 128.085 145.2 132.166 141.12C136.247 137.04 141.447 134.261 147.107 133.136C152.768 132.011 158.635 132.59 163.966 134.799C169.298 137.008 173.854 140.749 177.059 145.548C180.265 150.347 181.975 155.989 181.974 161.76C181.956 169.491 178.875 176.9 173.404 182.362C167.934 187.825 160.521 190.896 152.79 190.902L152.796 190.932ZM152.796 132.882C147.084 132.882 141.501 134.576 136.752 137.749C132.003 140.922 128.302 145.432 126.116 150.709C123.93 155.986 123.359 161.792 124.473 167.394C125.587 172.996 128.337 178.141 132.376 182.18C136.415 186.219 141.56 188.969 147.162 190.083C152.764 191.197 158.57 190.626 163.847 188.44C169.124 186.254 173.634 182.553 176.807 177.804C179.98 173.055 181.674 167.472 181.674 161.76C181.674 154.097 178.632 146.748 173.215 141.328C167.799 135.907 160.453 132.858 152.79 132.852L152.796 132.882Z" fill="#FAFAFA"/>
</g>
</svg>
