<svg width="360" height="640" viewBox="0 0 360 640" fill="none" xmlns="http://www.w3.org/2000/svg">
<rect width="360" height="640" fill="#0B0B0B"/>
<g opacity="0.14">
<g clip-path="url(#clip0)">
<g clip-path="url(#clip1)">
<path d="M40.9168 668.43H39.8135C39.8135 654.661 34.3502 641.457 24.6255 631.722C14.9008 621.986 1.71125 616.517 -12.0416 616.517C-25.7944 616.517 -38.984 621.986 -48.7087 631.722C-58.4334 641.457 -63.8967 654.661 -63.8967 668.43H-65C-65 654.369 -59.4205 640.883 -49.4888 630.941C-39.5572 620.998 -26.087 615.412 -12.0416 615.412C2.00386 615.412 15.474 620.998 25.4057 630.941C35.3373 640.883 40.9168 654.369 40.9168 668.43V668.43Z" fill="#BBB9CC"/>
<path d="M424.865 668.43H423.762C423.762 654.661 418.299 641.457 408.574 631.722C398.849 621.986 385.66 616.517 371.907 616.517C358.154 616.517 344.965 621.986 335.24 631.722C325.515 641.457 320.052 654.661 320.052 668.43H318.948C318.948 654.368 324.528 640.883 334.46 630.941C344.391 620.998 357.861 615.412 371.907 615.412C385.952 615.412 399.423 620.998 409.354 630.941C419.286 640.883 424.865 654.368 424.865 668.43V668.43Z" fill="#BBB9CC"/>
<path d="M295.228 541.961H294.124C294.124 489.584 251.559 446.972 199.241 446.972C146.921 446.972 104.357 489.584 104.357 541.961H103.253C103.253 488.975 146.313 445.867 199.241 445.867C252.168 445.867 295.228 488.975 295.228 541.961Z" fill="#BBB9CC"/>
<path d="M15.265 448.629C27.2994 448.629 37.0552 438.862 37.0552 426.814C37.0552 414.767 27.2994 405 15.265 405C3.23065 405 -6.52515 414.767 -6.52515 426.814C-6.52515 438.862 3.23065 448.629 15.265 448.629Z" fill="#EAA7B4"/>
<path d="M19.894 576.966L57.3296 532.334H130.93L175.908 576.192L175 576.777H175.324V668.003H19.9453V576.777L19.894 576.966Z" fill="#BBB9CC"/>
<path d="M42.4168 557.562H50.9028L50.9028 528.155H42.4168V557.562Z" fill="#BBB9CC"/>
<path d="M56.7459 531.749L102.892 585.911V668.003H19.9453V575.607L56.7459 531.749Z" fill="#CFD8E4"/>
<path d="M92.2279 596.66H75.2881V614H92.2279V596.66Z" fill="#BBB9CC"/>
<path d="M92.2279 620.254H75.2881V637.594H92.2279V620.254Z" fill="#BBB9CC"/>
<path d="M92.2279 596.66H75.2881V614H92.2279V596.66Z" fill="#0B0B0B"/>
<path d="M92.2279 620.254H75.2881V637.594H92.2279V620.254Z" fill="#0B0B0B"/>
<path d="M68.8002 596.66H51.8604V614H68.8002V596.66Z" fill="#BBB9CC"/>
<path d="M68.8002 620.254H51.8604V637.594H68.8002V620.254Z" fill="#BBB9CC"/>
<path d="M68.8002 596.66H51.8604V614H68.8002V596.66Z" fill="#0B0B0B"/>
<path d="M68.8002 620.254H51.8604V637.594H68.8002V620.254Z" fill="#0B0B0B"/>
<path d="M45.3724 596.66H28.4326V614H45.3724V596.66Z" fill="#BBB9CC"/>
<path d="M45.3724 620.254H28.4326V637.594H45.3724V620.254Z" fill="#BBB9CC"/>
<path d="M45.3724 596.66H28.4326V614H45.3724V596.66Z" fill="#0B0B0B"/>
<path d="M45.3724 620.254H28.4326V637.594H45.3724V620.254Z" fill="#0B0B0B"/>
<path d="M210.273 427.091H202.55V446.42H210.273V427.091Z" fill="#CFD8E4"/>
<path d="M209.722 444.763H144.075V668.43H209.722V444.763Z" fill="#CFD8E4"/>
<path d="M236.201 444.763H209.722V668.43H236.201V444.763Z" fill="#BBB9CC"/>
<path d="M165.865 464.092H155.936V474.033H165.865V464.092Z" fill="#0B0B0B"/>
<path d="M181.864 464.092H171.934V474.033H181.864V464.092Z" fill="#0B0B0B"/>
<path d="M197.861 464.092H187.932V474.033H197.861V464.092Z" fill="#0B0B0B"/>
<path d="M166.141 486.735H156.212V496.676H166.141V486.735Z" fill="#0B0B0B"/>
<path d="M182.139 486.735H172.209V496.676H182.139V486.735Z" fill="#0B0B0B"/>
<path d="M198.137 486.735H188.208V496.676H198.137V486.735Z" fill="#0B0B0B"/>
<path d="M166.417 509.378H156.488V519.319H166.417V509.378Z" fill="#0B0B0B"/>
<path d="M182.415 509.378H172.485V519.319H182.415V509.378Z" fill="#0B0B0B"/>
<path d="M198.413 509.378H188.483V519.319H198.413V509.378Z" fill="#0B0B0B"/>
<path d="M166.693 532.021H156.763V541.961H166.693V532.021Z" fill="#0B0B0B"/>
<path d="M182.691 532.021H172.761V541.961H182.691V532.021Z" fill="#0B0B0B"/>
<path d="M198.689 532.021H188.759V541.961H198.689V532.021Z" fill="#0B0B0B"/>
<path d="M166.969 554.663H157.039V564.604H166.969V554.663Z" fill="#0B0B0B"/>
<path d="M182.967 554.663H173.037V564.604H182.967V554.663Z" fill="#0B0B0B"/>
<path d="M198.965 554.663H189.035V564.604H198.965V554.663Z" fill="#0B0B0B"/>
<path d="M167.245 577.306H157.315V587.247H167.245V577.306Z" fill="#0B0B0B"/>
<path d="M183.243 577.306H173.313V587.247H183.243V577.306Z" fill="#0B0B0B"/>
<path d="M199.241 577.306H189.311V587.247H199.241V577.306Z" fill="#0B0B0B"/>
<path d="M167.521 599.949H157.591V609.89H167.521V599.949Z" fill="#0B0B0B"/>
<path d="M183.518 599.949H173.589V609.89H183.518V599.949Z" fill="#0B0B0B"/>
<path d="M199.516 599.949H189.586V609.89H199.516V599.949Z" fill="#0B0B0B"/>
<path d="M167.796 622.592H157.867V632.532H167.796V622.592Z" fill="#0B0B0B"/>
<path d="M183.794 622.592H173.865V632.532H183.794V622.592Z" fill="#0B0B0B"/>
<path d="M199.792 622.592H189.862V632.532H199.792V622.592Z" fill="#0B0B0B"/>
<path d="M214.135 427.091H209.722V445.867H214.135V427.091Z" fill="#BBB9CC"/>
<path d="M293.021 525.393H285.298V536.849H293.021V525.393Z" fill="#CFD8E4"/>
<path d="M292.469 535.867H226.823V668.43H292.469V535.867Z" fill="#CFD8E4"/>
<path d="M318.948 535.867H292.469V668.43H318.948V535.867Z" fill="#BBB9CC"/>
<path d="M249.716 554.663H239.787V564.604H249.716V554.663Z" fill="#0B0B0B"/>
<path d="M265.714 554.663H255.785V564.604H265.714V554.663Z" fill="#0B0B0B"/>
<path d="M281.712 554.663H271.782V564.604H281.712V554.663Z" fill="#0B0B0B"/>
<path d="M249.992 577.306H240.062V587.247H249.992V577.306Z" fill="#0B0B0B"/>
<path d="M265.99 577.306H256.06V587.247H265.99V577.306Z" fill="#0B0B0B"/>
<path d="M281.988 577.306H272.058V587.247H281.988V577.306Z" fill="#0B0B0B"/>
<path d="M250.268 599.949H240.338V609.89H250.268V599.949Z" fill="#0B0B0B"/>
<path d="M266.266 599.949H256.336V609.89H266.266V599.949Z" fill="#0B0B0B"/>
<path d="M282.264 599.949H272.334V609.89H282.264V599.949Z" fill="#0B0B0B"/>
<path d="M250.544 622.592H240.614V632.532H250.544V622.592Z" fill="#0B0B0B"/>
<path d="M266.542 622.592H256.612V632.532H266.542V622.592Z" fill="#0B0B0B"/>
<path d="M282.54 622.592H272.61V632.532H282.54V622.592Z" fill="#0B0B0B"/>
<path d="M296.882 525.393H292.469V536.522H296.882V525.393Z" fill="#BBB9CC"/>
<path d="M339.172 642.518C347.106 642.518 353.537 636.079 353.537 628.137C353.537 620.194 347.106 613.755 339.172 613.755C331.238 613.755 324.807 620.194 324.807 628.137C324.807 636.079 331.238 642.518 339.172 642.518Z" fill="#CFD8E4"/>
<path opacity="0.2" d="M349.858 618.531C351.198 621.669 351.379 625.182 350.37 628.441C349.362 631.701 347.228 634.496 344.35 636.325C341.473 638.155 338.039 638.901 334.663 638.429C331.287 637.958 328.188 636.3 325.921 633.752C326.739 635.669 327.965 637.385 329.511 638.781C331.058 640.177 332.89 641.22 334.879 641.837C336.868 642.454 338.968 642.631 341.032 642.355C343.096 642.079 345.076 641.357 346.834 640.24C348.592 639.122 350.086 637.635 351.213 635.881C352.34 634.128 353.072 632.15 353.36 630.085C353.648 628.02 353.483 625.918 352.879 623.923C352.274 621.928 351.243 620.088 349.858 618.531V618.531Z" fill="black"/>
<path d="M339.211 628.137H339.251L339.961 668.91H338.461L339.211 628.137Z" fill="#BBB9CC"/>
<path d="M381.406 628.776C393.47 628.776 403.25 618.985 403.25 606.907C403.25 594.829 393.47 585.038 381.406 585.038C369.341 585.038 359.561 594.829 359.561 606.907C359.561 618.985 369.341 628.776 381.406 628.776Z" fill="#CFD8E4"/>
<path d="M269.528 425.619L274.607 421.553C270.661 421.117 269.04 423.271 268.377 424.976C265.295 423.695 261.94 425.374 261.94 425.374L272.1 429.067C271.588 427.696 270.696 426.5 269.528 425.619V425.619Z" fill="#BBB9CC"/>
<path d="M14.6656 446.053L19.7439 441.987C15.7988 441.551 14.1778 443.705 13.5145 445.41C10.4324 444.129 7.07715 445.808 7.07715 445.808L17.2379 449.501C16.7253 448.13 15.833 446.934 14.6656 446.053V446.053Z" fill="#BBB9CC"/>
<path d="M346.759 467.039L351.837 462.973C347.892 462.537 346.271 464.691 345.608 466.396C342.526 465.115 339.171 466.794 339.171 466.794L349.331 470.487C348.819 469.116 347.927 467.92 346.759 467.039V467.039Z" fill="#BBB9CC"/>
<path d="M56.5912 435.008L61.6695 430.941C57.7244 430.506 56.1034 432.66 55.44 434.365C52.3579 433.083 49.0027 434.762 49.0027 434.762L59.1635 438.455C58.6509 437.085 57.7586 435.889 56.5912 435.008V435.008Z" fill="#BBB9CC"/>
<path d="M65.9691 479.189L71.0474 475.122C67.1023 474.687 65.4813 476.841 64.8179 478.546C61.7359 477.264 58.3806 478.944 58.3806 478.944L68.5414 482.636C68.0288 481.266 67.1365 480.07 65.9691 479.189V479.189Z" fill="#BBB9CC"/>
<path d="M263.46 502.384L268.538 498.318C264.593 497.882 262.972 500.036 262.309 501.741C259.227 500.459 255.872 502.139 255.872 502.139L266.032 505.831C265.52 504.461 264.627 503.265 263.46 502.384Z" fill="#BBB9CC"/>
<path d="M6.16283 629.771H-2.66357V638.607H1.42801V668.381H2.53131V638.607H6.16283V629.771Z" fill="#BBB9CC"/>
</g>
</g>
</g>
<defs>
<clipPath id="clip0">
<rect width="360" height="265" fill="white" transform="translate(0 375)"/>
</clipPath>
<clipPath id="clip1">
<rect width="490" height="264" fill="white" transform="translate(-65 405)"/>
</clipPath>
</defs>
</svg>
