<svg width="23" height="21" viewBox="0 0 23 21" fill="none" xmlns="http://www.w3.org/2000/svg">
<path d="M3 3.00067V0.000671387H5V3.00067H8V5.00067H5V8.00067H3V5.00067H0V3.00067H3ZM6 9.00067V6.00067H9V3.00067H16L17.83 5.00067H21C22.1 5.00067 23 5.90067 23 7.00067V19.0007C23 20.1007 22.1 21.0007 21 21.0007H5C3.9 21.0007 3 20.1007 3 19.0007V9.00067H6ZM13 18.0007C15.76 18.0007 18 15.7607 18 13.0007C18 10.2407 15.76 8.00067 13 8.00067C10.24 8.00067 8 10.2407 8 13.0007C8 15.7607 10.24 18.0007 13 18.0007ZM9.8 13.0007C9.8 14.7707 11.23 16.2007 13 16.2007C14.77 16.2007 16.2 14.7707 16.2 13.0007C16.2 11.2307 14.77 9.80067 13 9.80067C11.23 9.80067 9.8 11.2307 9.8 13.0007Z" fill="#4F4F4F"/>
</svg>
